%TF.GenerationSoftware,KiCad,Pcbnew,(6.0.11)*%
%TF.CreationDate,2023-02-27T16:04:50+00:00*%
%TF.ProjectId,HackSoc Workshop,4861636b-536f-4632-9057-6f726b73686f,rev?*%
%TF.SameCoordinates,Original*%
%TF.FileFunction,Copper,L2,Bot*%
%TF.FilePolarity,Positive*%
%FSLAX46Y46*%
G04 Gerber Fmt 4.6, Leading zero omitted, Abs format (unit mm)*
G04 Created by KiCad (PCBNEW (6.0.11)) date 2023-02-27 16:04:50*
%MOMM*%
%LPD*%
G01*
G04 APERTURE LIST*
%TA.AperFunction,ComponentPad*%
%ADD10R,1.700000X1.700000*%
%TD*%
%TA.AperFunction,ComponentPad*%
%ADD11O,1.700000X1.700000*%
%TD*%
%TA.AperFunction,ComponentPad*%
%ADD12C,2.000000*%
%TD*%
%TA.AperFunction,ComponentPad*%
%ADD13O,1.900000X1.200000*%
%TD*%
%TA.AperFunction,ComponentPad*%
%ADD14C,1.450000*%
%TD*%
%TA.AperFunction,ViaPad*%
%ADD15C,0.400000*%
%TD*%
%TA.AperFunction,Conductor*%
%ADD16C,0.150000*%
%TD*%
G04 APERTURE END LIST*
D10*
%TO.P,J2,1,Pin_1*%
%TO.N,Net-(J2-Pad1)*%
X76975000Y-83750000D03*
D11*
%TO.P,J2,2,Pin_2*%
%TO.N,VCC*%
X79515000Y-83750000D03*
%TO.P,J2,3,Pin_3*%
%TO.N,Net-(J2-Pad3)*%
X76975000Y-86290000D03*
%TO.P,J2,4,Pin_4*%
%TO.N,Net-(J2-Pad4)*%
X79515000Y-86290000D03*
%TO.P,J2,5,Pin_5*%
%TO.N,Net-(J2-Pad5)*%
X76975000Y-88830000D03*
%TO.P,J2,6,Pin_6*%
%TO.N,GND*%
X79515000Y-88830000D03*
%TD*%
D12*
%TO.P,SW7,1,1*%
%TO.N,Net-(SW7-Pad1)*%
X96250000Y-101250000D03*
X102750000Y-101250000D03*
%TO.P,SW7,2,2*%
%TO.N,GND*%
X96250000Y-105750000D03*
X102750000Y-105750000D03*
%TD*%
%TO.P,SW6,1,1*%
%TO.N,Net-(SW6-Pad1)*%
X86750000Y-101250000D03*
X93250000Y-101250000D03*
%TO.P,SW6,2,2*%
%TO.N,GND*%
X86750000Y-105750000D03*
X93250000Y-105750000D03*
%TD*%
%TO.P,SW5,1,1*%
%TO.N,Net-(SW5-Pad1)*%
X77250000Y-101250000D03*
X83750000Y-101250000D03*
%TO.P,SW5,2,2*%
%TO.N,GND*%
X77250000Y-105750000D03*
X83750000Y-105750000D03*
%TD*%
%TO.P,SW4,1,1*%
%TO.N,Net-(SW4-Pad1)*%
X96250000Y-92750000D03*
X102750000Y-92750000D03*
%TO.P,SW4,2,2*%
%TO.N,GND*%
X96250000Y-97250000D03*
X102750000Y-97250000D03*
%TD*%
%TO.P,SW3,1,1*%
%TO.N,Net-(SW3-Pad1)*%
X86750000Y-92750000D03*
X93250000Y-92750000D03*
%TO.P,SW3,2,2*%
%TO.N,GND*%
X86750000Y-97250000D03*
X93250000Y-97250000D03*
%TD*%
%TO.P,SW2,1,1*%
%TO.N,Net-(SW2-Pad1)*%
X77250000Y-92750000D03*
X83750000Y-92750000D03*
%TO.P,SW2,2,2*%
%TO.N,GND*%
X77250000Y-97250000D03*
X83750000Y-97250000D03*
%TD*%
%TO.P,SW1,1,1*%
%TO.N,GND*%
X77500000Y-65250000D03*
X84000000Y-65250000D03*
%TO.P,SW1,2,2*%
%TO.N,Net-(J2-Pad5)*%
X77500000Y-69750000D03*
X84000000Y-69750000D03*
%TD*%
D13*
%TO.P,J1,6,Shield*%
%TO.N,GND*%
X104987500Y-71750000D03*
D14*
X102287500Y-65750000D03*
X102287500Y-70750000D03*
D13*
X104987500Y-64750000D03*
%TD*%
D15*
%TO.N,GND*%
X87750000Y-63500000D03*
X89000000Y-77000000D03*
%TO.N,VCC*%
X91000000Y-68750000D03*
X89500000Y-77500000D03*
X86907500Y-71407500D03*
X93500000Y-68750000D03*
X96250000Y-75500000D03*
%TD*%
D16*
%TO.N,VCC*%
X79515000Y-83750000D02*
X83250000Y-83750000D01*
X83250000Y-83750000D02*
X89500000Y-77500000D01*
X86907500Y-71407500D02*
X89565000Y-68750000D01*
X89565000Y-68750000D02*
X91000000Y-68750000D01*
X89500000Y-77500000D02*
X94250000Y-77500000D01*
X91000000Y-68750000D02*
X93500000Y-68750000D01*
X96250000Y-75500000D02*
X96250000Y-71500000D01*
X96250000Y-71500000D02*
X93500000Y-68750000D01*
X94250000Y-77500000D02*
X96250000Y-75500000D01*
%TD*%
%TA.AperFunction,Conductor*%
%TO.N,GND*%
G36*
X106281487Y-62218513D02*
G01*
X106299500Y-62262000D01*
X106299500Y-63998093D01*
X106281487Y-64041580D01*
X106238000Y-64059593D01*
X106194513Y-64041580D01*
X106187838Y-64033675D01*
X106181754Y-64025097D01*
X106177952Y-64020693D01*
X106029452Y-63878536D01*
X106024883Y-63874927D01*
X105852176Y-63763411D01*
X105847011Y-63760734D01*
X105656336Y-63683890D01*
X105650745Y-63682234D01*
X105448284Y-63642696D01*
X105443908Y-63642164D01*
X105441296Y-63642036D01*
X105439799Y-63642000D01*
X105253734Y-63642000D01*
X105245083Y-63645583D01*
X105241500Y-63654234D01*
X105241500Y-65845766D01*
X105245083Y-65854417D01*
X105253734Y-65858000D01*
X105388872Y-65858000D01*
X105391772Y-65857862D01*
X105545060Y-65843237D01*
X105550777Y-65842136D01*
X105748036Y-65784267D01*
X105753450Y-65782102D01*
X105936212Y-65687973D01*
X105941109Y-65684829D01*
X106102772Y-65557841D01*
X106106992Y-65553822D01*
X106191550Y-65456378D01*
X106233657Y-65435339D01*
X106278307Y-65450235D01*
X106299500Y-65496685D01*
X106299500Y-70998093D01*
X106281487Y-71041580D01*
X106238000Y-71059593D01*
X106194513Y-71041580D01*
X106187838Y-71033675D01*
X106181754Y-71025097D01*
X106177952Y-71020693D01*
X106029452Y-70878536D01*
X106024883Y-70874927D01*
X105852176Y-70763411D01*
X105847011Y-70760734D01*
X105656336Y-70683890D01*
X105650745Y-70682234D01*
X105448284Y-70642696D01*
X105443908Y-70642164D01*
X105441296Y-70642036D01*
X105439799Y-70642000D01*
X105253734Y-70642000D01*
X105245083Y-70645583D01*
X105241500Y-70654234D01*
X105241500Y-72845766D01*
X105245083Y-72854417D01*
X105253734Y-72858000D01*
X105388872Y-72858000D01*
X105391772Y-72857862D01*
X105545060Y-72843237D01*
X105550777Y-72842136D01*
X105748036Y-72784267D01*
X105753450Y-72782102D01*
X105936212Y-72687973D01*
X105941109Y-72684829D01*
X106102772Y-72557841D01*
X106106992Y-72553822D01*
X106191550Y-72456378D01*
X106233657Y-72435339D01*
X106278307Y-72450235D01*
X106299500Y-72496685D01*
X106299500Y-108988000D01*
X106281487Y-109031487D01*
X106238000Y-109049500D01*
X73762000Y-109049500D01*
X73718513Y-109031487D01*
X73700500Y-108988000D01*
X73700500Y-106983102D01*
X76381176Y-106983102D01*
X76382899Y-106987264D01*
X76561210Y-107096534D01*
X76565489Y-107098714D01*
X76780334Y-107187706D01*
X76784905Y-107189191D01*
X77011013Y-107243475D01*
X77015785Y-107244230D01*
X77247586Y-107262473D01*
X77252414Y-107262473D01*
X77484215Y-107244230D01*
X77488987Y-107243475D01*
X77715095Y-107189191D01*
X77719666Y-107187706D01*
X77934511Y-107098714D01*
X77938790Y-107096534D01*
X78113462Y-106989493D01*
X78118106Y-106983102D01*
X82881176Y-106983102D01*
X82882899Y-106987264D01*
X83061210Y-107096534D01*
X83065489Y-107098714D01*
X83280334Y-107187706D01*
X83284905Y-107189191D01*
X83511013Y-107243475D01*
X83515785Y-107244230D01*
X83747586Y-107262473D01*
X83752414Y-107262473D01*
X83984215Y-107244230D01*
X83988987Y-107243475D01*
X84215095Y-107189191D01*
X84219666Y-107187706D01*
X84434511Y-107098714D01*
X84438790Y-107096534D01*
X84613462Y-106989493D01*
X84618106Y-106983102D01*
X85881176Y-106983102D01*
X85882899Y-106987264D01*
X86061210Y-107096534D01*
X86065489Y-107098714D01*
X86280334Y-107187706D01*
X86284905Y-107189191D01*
X86511013Y-107243475D01*
X86515785Y-107244230D01*
X86747586Y-107262473D01*
X86752414Y-107262473D01*
X86984215Y-107244230D01*
X86988987Y-107243475D01*
X87215095Y-107189191D01*
X87219666Y-107187706D01*
X87434511Y-107098714D01*
X87438790Y-107096534D01*
X87613462Y-106989493D01*
X87618106Y-106983102D01*
X92381176Y-106983102D01*
X92382899Y-106987264D01*
X92561210Y-107096534D01*
X92565489Y-107098714D01*
X92780334Y-107187706D01*
X92784905Y-107189191D01*
X93011013Y-107243475D01*
X93015785Y-107244230D01*
X93247586Y-107262473D01*
X93252414Y-107262473D01*
X93484215Y-107244230D01*
X93488987Y-107243475D01*
X93715095Y-107189191D01*
X93719666Y-107187706D01*
X93934511Y-107098714D01*
X93938790Y-107096534D01*
X94113462Y-106989493D01*
X94118106Y-106983102D01*
X95381176Y-106983102D01*
X95382899Y-106987264D01*
X95561210Y-107096534D01*
X95565489Y-107098714D01*
X95780334Y-107187706D01*
X95784905Y-107189191D01*
X96011013Y-107243475D01*
X96015785Y-107244230D01*
X96247586Y-107262473D01*
X96252414Y-107262473D01*
X96484215Y-107244230D01*
X96488987Y-107243475D01*
X96715095Y-107189191D01*
X96719666Y-107187706D01*
X96934511Y-107098714D01*
X96938790Y-107096534D01*
X97113462Y-106989493D01*
X97118106Y-106983102D01*
X101881176Y-106983102D01*
X101882899Y-106987264D01*
X102061210Y-107096534D01*
X102065489Y-107098714D01*
X102280334Y-107187706D01*
X102284905Y-107189191D01*
X102511013Y-107243475D01*
X102515785Y-107244230D01*
X102747586Y-107262473D01*
X102752414Y-107262473D01*
X102984215Y-107244230D01*
X102988987Y-107243475D01*
X103215095Y-107189191D01*
X103219666Y-107187706D01*
X103434511Y-107098714D01*
X103438790Y-107096534D01*
X103613462Y-106989493D01*
X103618965Y-106981920D01*
X103618260Y-106977470D01*
X102758651Y-106117861D01*
X102750000Y-106114278D01*
X102741349Y-106117861D01*
X101884759Y-106974451D01*
X101881176Y-106983102D01*
X97118106Y-106983102D01*
X97118965Y-106981920D01*
X97118260Y-106977470D01*
X96258651Y-106117861D01*
X96250000Y-106114278D01*
X96241349Y-106117861D01*
X95384759Y-106974451D01*
X95381176Y-106983102D01*
X94118106Y-106983102D01*
X94118965Y-106981920D01*
X94118260Y-106977470D01*
X93258651Y-106117861D01*
X93250000Y-106114278D01*
X93241349Y-106117861D01*
X92384759Y-106974451D01*
X92381176Y-106983102D01*
X87618106Y-106983102D01*
X87618965Y-106981920D01*
X87618260Y-106977470D01*
X86758651Y-106117861D01*
X86750000Y-106114278D01*
X86741349Y-106117861D01*
X85884759Y-106974451D01*
X85881176Y-106983102D01*
X84618106Y-106983102D01*
X84618965Y-106981920D01*
X84618260Y-106977470D01*
X83758651Y-106117861D01*
X83750000Y-106114278D01*
X83741349Y-106117861D01*
X82884759Y-106974451D01*
X82881176Y-106983102D01*
X78118106Y-106983102D01*
X78118965Y-106981920D01*
X78118260Y-106977470D01*
X77258651Y-106117861D01*
X77250000Y-106114278D01*
X77241349Y-106117861D01*
X76384759Y-106974451D01*
X76381176Y-106983102D01*
X73700500Y-106983102D01*
X73700500Y-105752414D01*
X75737527Y-105752414D01*
X75755770Y-105984215D01*
X75756525Y-105988987D01*
X75810809Y-106215095D01*
X75812294Y-106219666D01*
X75901286Y-106434511D01*
X75903466Y-106438790D01*
X76010507Y-106613462D01*
X76018080Y-106618965D01*
X76022530Y-106618260D01*
X76882139Y-105758651D01*
X76885722Y-105750000D01*
X77614278Y-105750000D01*
X77617861Y-105758651D01*
X78474451Y-106615241D01*
X78483102Y-106618824D01*
X78487264Y-106617101D01*
X78596534Y-106438790D01*
X78598714Y-106434511D01*
X78687706Y-106219666D01*
X78689191Y-106215095D01*
X78743475Y-105988987D01*
X78744230Y-105984215D01*
X78762473Y-105752414D01*
X82237527Y-105752414D01*
X82255770Y-105984215D01*
X82256525Y-105988987D01*
X82310809Y-106215095D01*
X82312294Y-106219666D01*
X82401286Y-106434511D01*
X82403466Y-106438790D01*
X82510507Y-106613462D01*
X82518080Y-106618965D01*
X82522530Y-106618260D01*
X83382139Y-105758651D01*
X83385722Y-105750000D01*
X84114278Y-105750000D01*
X84117861Y-105758651D01*
X84974451Y-106615241D01*
X84983102Y-106618824D01*
X84987264Y-106617101D01*
X85096534Y-106438790D01*
X85098714Y-106434511D01*
X85187706Y-106219666D01*
X85189192Y-106215092D01*
X85190199Y-106210896D01*
X85217866Y-106172815D01*
X85264356Y-106165451D01*
X85302437Y-106193118D01*
X85309801Y-106210896D01*
X85310808Y-106215092D01*
X85312294Y-106219666D01*
X85401286Y-106434511D01*
X85403466Y-106438790D01*
X85510507Y-106613462D01*
X85518080Y-106618965D01*
X85522530Y-106618260D01*
X86382139Y-105758651D01*
X86385722Y-105750000D01*
X87114278Y-105750000D01*
X87117861Y-105758651D01*
X87974451Y-106615241D01*
X87983102Y-106618824D01*
X87987264Y-106617101D01*
X88096534Y-106438790D01*
X88098714Y-106434511D01*
X88187706Y-106219666D01*
X88189191Y-106215095D01*
X88243475Y-105988987D01*
X88244230Y-105984215D01*
X88262473Y-105752414D01*
X91737527Y-105752414D01*
X91755770Y-105984215D01*
X91756525Y-105988987D01*
X91810809Y-106215095D01*
X91812294Y-106219666D01*
X91901286Y-106434511D01*
X91903466Y-106438790D01*
X92010507Y-106613462D01*
X92018080Y-106618965D01*
X92022530Y-106618260D01*
X92882139Y-105758651D01*
X92885722Y-105750000D01*
X93614278Y-105750000D01*
X93617861Y-105758651D01*
X94474451Y-106615241D01*
X94483102Y-106618824D01*
X94487264Y-106617101D01*
X94596534Y-106438790D01*
X94598714Y-106434511D01*
X94687706Y-106219666D01*
X94689192Y-106215092D01*
X94690199Y-106210896D01*
X94717866Y-106172815D01*
X94764356Y-106165451D01*
X94802437Y-106193118D01*
X94809801Y-106210896D01*
X94810808Y-106215092D01*
X94812294Y-106219666D01*
X94901286Y-106434511D01*
X94903466Y-106438790D01*
X95010507Y-106613462D01*
X95018080Y-106618965D01*
X95022530Y-106618260D01*
X95882139Y-105758651D01*
X95885722Y-105750000D01*
X96614278Y-105750000D01*
X96617861Y-105758651D01*
X97474451Y-106615241D01*
X97483102Y-106618824D01*
X97487264Y-106617101D01*
X97596534Y-106438790D01*
X97598714Y-106434511D01*
X97687706Y-106219666D01*
X97689191Y-106215095D01*
X97743475Y-105988987D01*
X97744230Y-105984215D01*
X97762473Y-105752414D01*
X101237527Y-105752414D01*
X101255770Y-105984215D01*
X101256525Y-105988987D01*
X101310809Y-106215095D01*
X101312294Y-106219666D01*
X101401286Y-106434511D01*
X101403466Y-106438790D01*
X101510507Y-106613462D01*
X101518080Y-106618965D01*
X101522530Y-106618260D01*
X102382139Y-105758651D01*
X102385722Y-105750000D01*
X103114278Y-105750000D01*
X103117861Y-105758651D01*
X103974451Y-106615241D01*
X103983102Y-106618824D01*
X103987264Y-106617101D01*
X104096534Y-106438790D01*
X104098714Y-106434511D01*
X104187706Y-106219666D01*
X104189191Y-106215095D01*
X104243475Y-105988987D01*
X104244230Y-105984215D01*
X104262473Y-105752414D01*
X104262473Y-105747586D01*
X104244230Y-105515785D01*
X104243475Y-105511013D01*
X104189191Y-105284905D01*
X104187706Y-105280334D01*
X104098714Y-105065489D01*
X104096534Y-105061210D01*
X103989493Y-104886538D01*
X103981920Y-104881035D01*
X103977470Y-104881740D01*
X103117861Y-105741349D01*
X103114278Y-105750000D01*
X102385722Y-105750000D01*
X102382139Y-105741349D01*
X101525549Y-104884759D01*
X101516898Y-104881176D01*
X101512736Y-104882899D01*
X101403466Y-105061210D01*
X101401286Y-105065489D01*
X101312294Y-105280334D01*
X101310809Y-105284905D01*
X101256525Y-105511013D01*
X101255770Y-105515785D01*
X101237527Y-105747586D01*
X101237527Y-105752414D01*
X97762473Y-105752414D01*
X97762473Y-105747586D01*
X97744230Y-105515785D01*
X97743475Y-105511013D01*
X97689191Y-105284905D01*
X97687706Y-105280334D01*
X97598714Y-105065489D01*
X97596534Y-105061210D01*
X97489493Y-104886538D01*
X97481920Y-104881035D01*
X97477470Y-104881740D01*
X96617861Y-105741349D01*
X96614278Y-105750000D01*
X95885722Y-105750000D01*
X95882139Y-105741349D01*
X95025549Y-104884759D01*
X95016898Y-104881176D01*
X95012736Y-104882899D01*
X94903466Y-105061210D01*
X94901286Y-105065489D01*
X94812294Y-105280334D01*
X94810808Y-105284908D01*
X94809801Y-105289104D01*
X94782134Y-105327185D01*
X94735644Y-105334549D01*
X94697563Y-105306882D01*
X94690199Y-105289104D01*
X94689192Y-105284908D01*
X94687706Y-105280334D01*
X94598714Y-105065489D01*
X94596534Y-105061210D01*
X94489493Y-104886538D01*
X94481920Y-104881035D01*
X94477470Y-104881740D01*
X93617861Y-105741349D01*
X93614278Y-105750000D01*
X92885722Y-105750000D01*
X92882139Y-105741349D01*
X92025549Y-104884759D01*
X92016898Y-104881176D01*
X92012736Y-104882899D01*
X91903466Y-105061210D01*
X91901286Y-105065489D01*
X91812294Y-105280334D01*
X91810809Y-105284905D01*
X91756525Y-105511013D01*
X91755770Y-105515785D01*
X91737527Y-105747586D01*
X91737527Y-105752414D01*
X88262473Y-105752414D01*
X88262473Y-105747586D01*
X88244230Y-105515785D01*
X88243475Y-105511013D01*
X88189191Y-105284905D01*
X88187706Y-105280334D01*
X88098714Y-105065489D01*
X88096534Y-105061210D01*
X87989493Y-104886538D01*
X87981920Y-104881035D01*
X87977470Y-104881740D01*
X87117861Y-105741349D01*
X87114278Y-105750000D01*
X86385722Y-105750000D01*
X86382139Y-105741349D01*
X85525549Y-104884759D01*
X85516898Y-104881176D01*
X85512736Y-104882899D01*
X85403466Y-105061210D01*
X85401286Y-105065489D01*
X85312294Y-105280334D01*
X85310808Y-105284908D01*
X85309801Y-105289104D01*
X85282134Y-105327185D01*
X85235644Y-105334549D01*
X85197563Y-105306882D01*
X85190199Y-105289104D01*
X85189192Y-105284908D01*
X85187706Y-105280334D01*
X85098714Y-105065489D01*
X85096534Y-105061210D01*
X84989493Y-104886538D01*
X84981920Y-104881035D01*
X84977470Y-104881740D01*
X84117861Y-105741349D01*
X84114278Y-105750000D01*
X83385722Y-105750000D01*
X83382139Y-105741349D01*
X82525549Y-104884759D01*
X82516898Y-104881176D01*
X82512736Y-104882899D01*
X82403466Y-105061210D01*
X82401286Y-105065489D01*
X82312294Y-105280334D01*
X82310809Y-105284905D01*
X82256525Y-105511013D01*
X82255770Y-105515785D01*
X82237527Y-105747586D01*
X82237527Y-105752414D01*
X78762473Y-105752414D01*
X78762473Y-105747586D01*
X78744230Y-105515785D01*
X78743475Y-105511013D01*
X78689191Y-105284905D01*
X78687706Y-105280334D01*
X78598714Y-105065489D01*
X78596534Y-105061210D01*
X78489493Y-104886538D01*
X78481920Y-104881035D01*
X78477470Y-104881740D01*
X77617861Y-105741349D01*
X77614278Y-105750000D01*
X76885722Y-105750000D01*
X76882139Y-105741349D01*
X76025549Y-104884759D01*
X76016898Y-104881176D01*
X76012736Y-104882899D01*
X75903466Y-105061210D01*
X75901286Y-105065489D01*
X75812294Y-105280334D01*
X75810809Y-105284905D01*
X75756525Y-105511013D01*
X75755770Y-105515785D01*
X75737527Y-105747586D01*
X75737527Y-105752414D01*
X73700500Y-105752414D01*
X73700500Y-104518080D01*
X76381035Y-104518080D01*
X76381740Y-104522530D01*
X77241349Y-105382139D01*
X77250000Y-105385722D01*
X77258651Y-105382139D01*
X78115241Y-104525549D01*
X78118334Y-104518080D01*
X82881035Y-104518080D01*
X82881740Y-104522530D01*
X83741349Y-105382139D01*
X83750000Y-105385722D01*
X83758651Y-105382139D01*
X84615241Y-104525549D01*
X84618334Y-104518080D01*
X85881035Y-104518080D01*
X85881740Y-104522530D01*
X86741349Y-105382139D01*
X86750000Y-105385722D01*
X86758651Y-105382139D01*
X87615241Y-104525549D01*
X87618334Y-104518080D01*
X92381035Y-104518080D01*
X92381740Y-104522530D01*
X93241349Y-105382139D01*
X93250000Y-105385722D01*
X93258651Y-105382139D01*
X94115241Y-104525549D01*
X94118334Y-104518080D01*
X95381035Y-104518080D01*
X95381740Y-104522530D01*
X96241349Y-105382139D01*
X96250000Y-105385722D01*
X96258651Y-105382139D01*
X97115241Y-104525549D01*
X97118334Y-104518080D01*
X101881035Y-104518080D01*
X101881740Y-104522530D01*
X102741349Y-105382139D01*
X102750000Y-105385722D01*
X102758651Y-105382139D01*
X103615241Y-104525549D01*
X103618824Y-104516898D01*
X103617101Y-104512736D01*
X103438790Y-104403466D01*
X103434511Y-104401286D01*
X103219666Y-104312294D01*
X103215095Y-104310809D01*
X102988987Y-104256525D01*
X102984215Y-104255770D01*
X102752414Y-104237527D01*
X102747586Y-104237527D01*
X102515785Y-104255770D01*
X102511013Y-104256525D01*
X102284905Y-104310809D01*
X102280334Y-104312294D01*
X102065489Y-104401286D01*
X102061210Y-104403466D01*
X101886538Y-104510507D01*
X101881035Y-104518080D01*
X97118334Y-104518080D01*
X97118824Y-104516898D01*
X97117101Y-104512736D01*
X96938790Y-104403466D01*
X96934511Y-104401286D01*
X96719666Y-104312294D01*
X96715095Y-104310809D01*
X96488987Y-104256525D01*
X96484215Y-104255770D01*
X96252414Y-104237527D01*
X96247586Y-104237527D01*
X96015785Y-104255770D01*
X96011013Y-104256525D01*
X95784905Y-104310809D01*
X95780334Y-104312294D01*
X95565489Y-104401286D01*
X95561210Y-104403466D01*
X95386538Y-104510507D01*
X95381035Y-104518080D01*
X94118334Y-104518080D01*
X94118824Y-104516898D01*
X94117101Y-104512736D01*
X93938790Y-104403466D01*
X93934511Y-104401286D01*
X93719666Y-104312294D01*
X93715095Y-104310809D01*
X93488987Y-104256525D01*
X93484215Y-104255770D01*
X93252414Y-104237527D01*
X93247586Y-104237527D01*
X93015785Y-104255770D01*
X93011013Y-104256525D01*
X92784905Y-104310809D01*
X92780334Y-104312294D01*
X92565489Y-104401286D01*
X92561210Y-104403466D01*
X92386538Y-104510507D01*
X92381035Y-104518080D01*
X87618334Y-104518080D01*
X87618824Y-104516898D01*
X87617101Y-104512736D01*
X87438790Y-104403466D01*
X87434511Y-104401286D01*
X87219666Y-104312294D01*
X87215095Y-104310809D01*
X86988987Y-104256525D01*
X86984215Y-104255770D01*
X86752414Y-104237527D01*
X86747586Y-104237527D01*
X86515785Y-104255770D01*
X86511013Y-104256525D01*
X86284905Y-104310809D01*
X86280334Y-104312294D01*
X86065489Y-104401286D01*
X86061210Y-104403466D01*
X85886538Y-104510507D01*
X85881035Y-104518080D01*
X84618334Y-104518080D01*
X84618824Y-104516898D01*
X84617101Y-104512736D01*
X84438790Y-104403466D01*
X84434511Y-104401286D01*
X84219666Y-104312294D01*
X84215095Y-104310809D01*
X83988987Y-104256525D01*
X83984215Y-104255770D01*
X83752414Y-104237527D01*
X83747586Y-104237527D01*
X83515785Y-104255770D01*
X83511013Y-104256525D01*
X83284905Y-104310809D01*
X83280334Y-104312294D01*
X83065489Y-104401286D01*
X83061210Y-104403466D01*
X82886538Y-104510507D01*
X82881035Y-104518080D01*
X78118334Y-104518080D01*
X78118824Y-104516898D01*
X78117101Y-104512736D01*
X77938790Y-104403466D01*
X77934511Y-104401286D01*
X77719666Y-104312294D01*
X77715095Y-104310809D01*
X77488987Y-104256525D01*
X77484215Y-104255770D01*
X77252414Y-104237527D01*
X77247586Y-104237527D01*
X77015785Y-104255770D01*
X77011013Y-104256525D01*
X76784905Y-104310809D01*
X76780334Y-104312294D01*
X76565489Y-104401286D01*
X76561210Y-104403466D01*
X76386538Y-104510507D01*
X76381035Y-104518080D01*
X73700500Y-104518080D01*
X73700500Y-101218440D01*
X76044770Y-101218440D01*
X76059200Y-101438604D01*
X76059891Y-101441327D01*
X76059892Y-101441330D01*
X76083460Y-101534126D01*
X76113511Y-101652452D01*
X76205883Y-101852821D01*
X76333222Y-102033002D01*
X76491264Y-102186961D01*
X76674717Y-102309540D01*
X76677306Y-102310652D01*
X76677309Y-102310654D01*
X76768967Y-102350033D01*
X76877436Y-102396635D01*
X76880179Y-102397256D01*
X76880183Y-102397257D01*
X77089886Y-102444708D01*
X77089890Y-102444708D01*
X77092632Y-102445329D01*
X77095441Y-102445439D01*
X77095446Y-102445440D01*
X77213414Y-102450074D01*
X77313098Y-102453991D01*
X77315883Y-102453587D01*
X77315887Y-102453587D01*
X77528662Y-102422736D01*
X77528667Y-102422735D01*
X77531452Y-102422331D01*
X77740379Y-102351410D01*
X77813154Y-102310654D01*
X77930431Y-102244976D01*
X77930433Y-102244975D01*
X77932884Y-102243602D01*
X78003361Y-102184987D01*
X78100355Y-102104317D01*
X78102518Y-102102518D01*
X78243602Y-101932884D01*
X78287152Y-101855121D01*
X78350033Y-101742838D01*
X78350033Y-101742837D01*
X78351410Y-101740379D01*
X78422331Y-101531452D01*
X78453991Y-101313098D01*
X78455643Y-101250000D01*
X78452743Y-101218440D01*
X82544770Y-101218440D01*
X82559200Y-101438604D01*
X82559891Y-101441327D01*
X82559892Y-101441330D01*
X82583460Y-101534126D01*
X82613511Y-101652452D01*
X82705883Y-101852821D01*
X82833222Y-102033002D01*
X82991264Y-102186961D01*
X83174717Y-102309540D01*
X83177306Y-102310652D01*
X83177309Y-102310654D01*
X83268967Y-102350033D01*
X83377436Y-102396635D01*
X83380179Y-102397256D01*
X83380183Y-102397257D01*
X83589886Y-102444708D01*
X83589890Y-102444708D01*
X83592632Y-102445329D01*
X83595441Y-102445439D01*
X83595446Y-102445440D01*
X83713414Y-102450074D01*
X83813098Y-102453991D01*
X83815883Y-102453587D01*
X83815887Y-102453587D01*
X84028662Y-102422736D01*
X84028667Y-102422735D01*
X84031452Y-102422331D01*
X84240379Y-102351410D01*
X84313154Y-102310654D01*
X84430431Y-102244976D01*
X84430433Y-102244975D01*
X84432884Y-102243602D01*
X84503361Y-102184987D01*
X84600355Y-102104317D01*
X84602518Y-102102518D01*
X84743602Y-101932884D01*
X84787152Y-101855121D01*
X84850033Y-101742838D01*
X84850033Y-101742837D01*
X84851410Y-101740379D01*
X84922331Y-101531452D01*
X84953991Y-101313098D01*
X84955643Y-101250000D01*
X84952743Y-101218440D01*
X85544770Y-101218440D01*
X85559200Y-101438604D01*
X85559891Y-101441327D01*
X85559892Y-101441330D01*
X85583460Y-101534126D01*
X85613511Y-101652452D01*
X85705883Y-101852821D01*
X85833222Y-102033002D01*
X85991264Y-102186961D01*
X86174717Y-102309540D01*
X86177306Y-102310652D01*
X86177309Y-102310654D01*
X86268967Y-102350033D01*
X86377436Y-102396635D01*
X86380179Y-102397256D01*
X86380183Y-102397257D01*
X86589886Y-102444708D01*
X86589890Y-102444708D01*
X86592632Y-102445329D01*
X86595441Y-102445439D01*
X86595446Y-102445440D01*
X86713414Y-102450074D01*
X86813098Y-102453991D01*
X86815883Y-102453587D01*
X86815887Y-102453587D01*
X87028662Y-102422736D01*
X87028667Y-102422735D01*
X87031452Y-102422331D01*
X87240379Y-102351410D01*
X87313154Y-102310654D01*
X87430431Y-102244976D01*
X87430433Y-102244975D01*
X87432884Y-102243602D01*
X87503361Y-102184987D01*
X87600355Y-102104317D01*
X87602518Y-102102518D01*
X87743602Y-101932884D01*
X87787152Y-101855121D01*
X87850033Y-101742838D01*
X87850033Y-101742837D01*
X87851410Y-101740379D01*
X87922331Y-101531452D01*
X87953991Y-101313098D01*
X87955643Y-101250000D01*
X87952743Y-101218440D01*
X92044770Y-101218440D01*
X92059200Y-101438604D01*
X92059891Y-101441327D01*
X92059892Y-101441330D01*
X92083460Y-101534126D01*
X92113511Y-101652452D01*
X92205883Y-101852821D01*
X92333222Y-102033002D01*
X92491264Y-102186961D01*
X92674717Y-102309540D01*
X92677306Y-102310652D01*
X92677309Y-102310654D01*
X92768967Y-102350033D01*
X92877436Y-102396635D01*
X92880179Y-102397256D01*
X92880183Y-102397257D01*
X93089886Y-102444708D01*
X93089890Y-102444708D01*
X93092632Y-102445329D01*
X93095441Y-102445439D01*
X93095446Y-102445440D01*
X93213414Y-102450074D01*
X93313098Y-102453991D01*
X93315883Y-102453587D01*
X93315887Y-102453587D01*
X93528662Y-102422736D01*
X93528667Y-102422735D01*
X93531452Y-102422331D01*
X93740379Y-102351410D01*
X93813154Y-102310654D01*
X93930431Y-102244976D01*
X93930433Y-102244975D01*
X93932884Y-102243602D01*
X94003361Y-102184987D01*
X94100355Y-102104317D01*
X94102518Y-102102518D01*
X94243602Y-101932884D01*
X94287152Y-101855121D01*
X94350033Y-101742838D01*
X94350033Y-101742837D01*
X94351410Y-101740379D01*
X94422331Y-101531452D01*
X94453991Y-101313098D01*
X94455643Y-101250000D01*
X94452743Y-101218440D01*
X95044770Y-101218440D01*
X95059200Y-101438604D01*
X95059891Y-101441327D01*
X95059892Y-101441330D01*
X95083460Y-101534126D01*
X95113511Y-101652452D01*
X95205883Y-101852821D01*
X95333222Y-102033002D01*
X95491264Y-102186961D01*
X95674717Y-102309540D01*
X95677306Y-102310652D01*
X95677309Y-102310654D01*
X95768967Y-102350033D01*
X95877436Y-102396635D01*
X95880179Y-102397256D01*
X95880183Y-102397257D01*
X96089886Y-102444708D01*
X96089890Y-102444708D01*
X96092632Y-102445329D01*
X96095441Y-102445439D01*
X96095446Y-102445440D01*
X96213414Y-102450074D01*
X96313098Y-102453991D01*
X96315883Y-102453587D01*
X96315887Y-102453587D01*
X96528662Y-102422736D01*
X96528667Y-102422735D01*
X96531452Y-102422331D01*
X96740379Y-102351410D01*
X96813154Y-102310654D01*
X96930431Y-102244976D01*
X96930433Y-102244975D01*
X96932884Y-102243602D01*
X97003361Y-102184987D01*
X97100355Y-102104317D01*
X97102518Y-102102518D01*
X97243602Y-101932884D01*
X97287152Y-101855121D01*
X97350033Y-101742838D01*
X97350033Y-101742837D01*
X97351410Y-101740379D01*
X97422331Y-101531452D01*
X97453991Y-101313098D01*
X97455643Y-101250000D01*
X97452743Y-101218440D01*
X101544770Y-101218440D01*
X101559200Y-101438604D01*
X101559891Y-101441327D01*
X101559892Y-101441330D01*
X101583460Y-101534126D01*
X101613511Y-101652452D01*
X101705883Y-101852821D01*
X101833222Y-102033002D01*
X101991264Y-102186961D01*
X102174717Y-102309540D01*
X102177306Y-102310652D01*
X102177309Y-102310654D01*
X102268967Y-102350033D01*
X102377436Y-102396635D01*
X102380179Y-102397256D01*
X102380183Y-102397257D01*
X102589886Y-102444708D01*
X102589890Y-102444708D01*
X102592632Y-102445329D01*
X102595441Y-102445439D01*
X102595446Y-102445440D01*
X102713414Y-102450074D01*
X102813098Y-102453991D01*
X102815883Y-102453587D01*
X102815887Y-102453587D01*
X103028662Y-102422736D01*
X103028667Y-102422735D01*
X103031452Y-102422331D01*
X103240379Y-102351410D01*
X103313154Y-102310654D01*
X103430431Y-102244976D01*
X103430433Y-102244975D01*
X103432884Y-102243602D01*
X103503361Y-102184987D01*
X103600355Y-102104317D01*
X103602518Y-102102518D01*
X103743602Y-101932884D01*
X103787152Y-101855121D01*
X103850033Y-101742838D01*
X103850033Y-101742837D01*
X103851410Y-101740379D01*
X103922331Y-101531452D01*
X103953991Y-101313098D01*
X103955643Y-101250000D01*
X103935454Y-101030289D01*
X103927513Y-101002130D01*
X103876330Y-100820648D01*
X103876329Y-100820647D01*
X103875565Y-100817936D01*
X103777980Y-100620053D01*
X103645967Y-100443267D01*
X103643899Y-100441355D01*
X103643896Y-100441352D01*
X103486016Y-100295410D01*
X103483949Y-100293499D01*
X103297350Y-100175764D01*
X103294737Y-100174721D01*
X103294732Y-100174719D01*
X103095040Y-100095051D01*
X103095041Y-100095051D01*
X103092421Y-100094006D01*
X103089657Y-100093456D01*
X103089653Y-100093455D01*
X102878794Y-100051513D01*
X102876024Y-100050962D01*
X102873204Y-100050925D01*
X102873203Y-100050925D01*
X102814193Y-100050153D01*
X102655406Y-100048074D01*
X102652636Y-100048550D01*
X102652635Y-100048550D01*
X102440730Y-100084961D01*
X102440725Y-100084962D01*
X102437957Y-100085438D01*
X102435319Y-100086411D01*
X102435316Y-100086412D01*
X102261425Y-100150564D01*
X102230957Y-100161804D01*
X102228535Y-100163245D01*
X102043764Y-100273172D01*
X102043760Y-100273175D01*
X102041341Y-100274614D01*
X102021521Y-100291996D01*
X101877575Y-100418232D01*
X101877572Y-100418235D01*
X101875457Y-100420090D01*
X101873715Y-100422300D01*
X101873712Y-100422303D01*
X101857186Y-100443267D01*
X101738863Y-100593360D01*
X101737550Y-100595855D01*
X101737549Y-100595857D01*
X101687497Y-100690990D01*
X101636131Y-100788620D01*
X101570703Y-100999333D01*
X101544770Y-101218440D01*
X97452743Y-101218440D01*
X97435454Y-101030289D01*
X97427513Y-101002130D01*
X97376330Y-100820648D01*
X97376329Y-100820647D01*
X97375565Y-100817936D01*
X97277980Y-100620053D01*
X97145967Y-100443267D01*
X97143899Y-100441355D01*
X97143896Y-100441352D01*
X96986016Y-100295410D01*
X96983949Y-100293499D01*
X96797350Y-100175764D01*
X96794737Y-100174721D01*
X96794732Y-100174719D01*
X96595040Y-100095051D01*
X96595041Y-100095051D01*
X96592421Y-100094006D01*
X96589657Y-100093456D01*
X96589653Y-100093455D01*
X96378794Y-100051513D01*
X96376024Y-100050962D01*
X96373204Y-100050925D01*
X96373203Y-100050925D01*
X96314193Y-100050153D01*
X96155406Y-100048074D01*
X96152636Y-100048550D01*
X96152635Y-100048550D01*
X95940730Y-100084961D01*
X95940725Y-100084962D01*
X95937957Y-100085438D01*
X95935319Y-100086411D01*
X95935316Y-100086412D01*
X95761425Y-100150564D01*
X95730957Y-100161804D01*
X95728535Y-100163245D01*
X95543764Y-100273172D01*
X95543760Y-100273175D01*
X95541341Y-100274614D01*
X95521521Y-100291996D01*
X95377575Y-100418232D01*
X95377572Y-100418235D01*
X95375457Y-100420090D01*
X95373715Y-100422300D01*
X95373712Y-100422303D01*
X95357186Y-100443267D01*
X95238863Y-100593360D01*
X95237550Y-100595855D01*
X95237549Y-100595857D01*
X95187497Y-100690990D01*
X95136131Y-100788620D01*
X95070703Y-100999333D01*
X95044770Y-101218440D01*
X94452743Y-101218440D01*
X94435454Y-101030289D01*
X94427513Y-101002130D01*
X94376330Y-100820648D01*
X94376329Y-100820647D01*
X94375565Y-100817936D01*
X94277980Y-100620053D01*
X94145967Y-100443267D01*
X94143899Y-100441355D01*
X94143896Y-100441352D01*
X93986016Y-100295410D01*
X93983949Y-100293499D01*
X93797350Y-100175764D01*
X93794737Y-100174721D01*
X93794732Y-100174719D01*
X93595040Y-100095051D01*
X93595041Y-100095051D01*
X93592421Y-100094006D01*
X93589657Y-100093456D01*
X93589653Y-100093455D01*
X93378794Y-100051513D01*
X93376024Y-100050962D01*
X93373204Y-100050925D01*
X93373203Y-100050925D01*
X93314193Y-100050153D01*
X93155406Y-100048074D01*
X93152636Y-100048550D01*
X93152635Y-100048550D01*
X92940730Y-100084961D01*
X92940725Y-100084962D01*
X92937957Y-100085438D01*
X92935319Y-100086411D01*
X92935316Y-100086412D01*
X92761425Y-100150564D01*
X92730957Y-100161804D01*
X92728535Y-100163245D01*
X92543764Y-100273172D01*
X92543760Y-100273175D01*
X92541341Y-100274614D01*
X92521521Y-100291996D01*
X92377575Y-100418232D01*
X92377572Y-100418235D01*
X92375457Y-100420090D01*
X92373715Y-100422300D01*
X92373712Y-100422303D01*
X92357186Y-100443267D01*
X92238863Y-100593360D01*
X92237550Y-100595855D01*
X92237549Y-100595857D01*
X92187497Y-100690990D01*
X92136131Y-100788620D01*
X92070703Y-100999333D01*
X92044770Y-101218440D01*
X87952743Y-101218440D01*
X87935454Y-101030289D01*
X87927513Y-101002130D01*
X87876330Y-100820648D01*
X87876329Y-100820647D01*
X87875565Y-100817936D01*
X87777980Y-100620053D01*
X87645967Y-100443267D01*
X87643899Y-100441355D01*
X87643896Y-100441352D01*
X87486016Y-100295410D01*
X87483949Y-100293499D01*
X87297350Y-100175764D01*
X87294737Y-100174721D01*
X87294732Y-100174719D01*
X87095040Y-100095051D01*
X87095041Y-100095051D01*
X87092421Y-100094006D01*
X87089657Y-100093456D01*
X87089653Y-100093455D01*
X86878794Y-100051513D01*
X86876024Y-100050962D01*
X86873204Y-100050925D01*
X86873203Y-100050925D01*
X86814193Y-100050153D01*
X86655406Y-100048074D01*
X86652636Y-100048550D01*
X86652635Y-100048550D01*
X86440730Y-100084961D01*
X86440725Y-100084962D01*
X86437957Y-100085438D01*
X86435319Y-100086411D01*
X86435316Y-100086412D01*
X86261425Y-100150564D01*
X86230957Y-100161804D01*
X86228535Y-100163245D01*
X86043764Y-100273172D01*
X86043760Y-100273175D01*
X86041341Y-100274614D01*
X86021521Y-100291996D01*
X85877575Y-100418232D01*
X85877572Y-100418235D01*
X85875457Y-100420090D01*
X85873715Y-100422300D01*
X85873712Y-100422303D01*
X85857186Y-100443267D01*
X85738863Y-100593360D01*
X85737550Y-100595855D01*
X85737549Y-100595857D01*
X85687497Y-100690990D01*
X85636131Y-100788620D01*
X85570703Y-100999333D01*
X85544770Y-101218440D01*
X84952743Y-101218440D01*
X84935454Y-101030289D01*
X84927513Y-101002130D01*
X84876330Y-100820648D01*
X84876329Y-100820647D01*
X84875565Y-100817936D01*
X84777980Y-100620053D01*
X84645967Y-100443267D01*
X84643899Y-100441355D01*
X84643896Y-100441352D01*
X84486016Y-100295410D01*
X84483949Y-100293499D01*
X84297350Y-100175764D01*
X84294737Y-100174721D01*
X84294732Y-100174719D01*
X84095040Y-100095051D01*
X84095041Y-100095051D01*
X84092421Y-100094006D01*
X84089657Y-100093456D01*
X84089653Y-100093455D01*
X83878794Y-100051513D01*
X83876024Y-100050962D01*
X83873204Y-100050925D01*
X83873203Y-100050925D01*
X83814193Y-100050153D01*
X83655406Y-100048074D01*
X83652636Y-100048550D01*
X83652635Y-100048550D01*
X83440730Y-100084961D01*
X83440725Y-100084962D01*
X83437957Y-100085438D01*
X83435319Y-100086411D01*
X83435316Y-100086412D01*
X83261425Y-100150564D01*
X83230957Y-100161804D01*
X83228535Y-100163245D01*
X83043764Y-100273172D01*
X83043760Y-100273175D01*
X83041341Y-100274614D01*
X83021521Y-100291996D01*
X82877575Y-100418232D01*
X82877572Y-100418235D01*
X82875457Y-100420090D01*
X82873715Y-100422300D01*
X82873712Y-100422303D01*
X82857186Y-100443267D01*
X82738863Y-100593360D01*
X82737550Y-100595855D01*
X82737549Y-100595857D01*
X82687497Y-100690990D01*
X82636131Y-100788620D01*
X82570703Y-100999333D01*
X82544770Y-101218440D01*
X78452743Y-101218440D01*
X78435454Y-101030289D01*
X78427513Y-101002130D01*
X78376330Y-100820648D01*
X78376329Y-100820647D01*
X78375565Y-100817936D01*
X78277980Y-100620053D01*
X78145967Y-100443267D01*
X78143899Y-100441355D01*
X78143896Y-100441352D01*
X77986016Y-100295410D01*
X77983949Y-100293499D01*
X77797350Y-100175764D01*
X77794737Y-100174721D01*
X77794732Y-100174719D01*
X77595040Y-100095051D01*
X77595041Y-100095051D01*
X77592421Y-100094006D01*
X77589657Y-100093456D01*
X77589653Y-100093455D01*
X77378794Y-100051513D01*
X77376024Y-100050962D01*
X77373204Y-100050925D01*
X77373203Y-100050925D01*
X77314193Y-100050153D01*
X77155406Y-100048074D01*
X77152636Y-100048550D01*
X77152635Y-100048550D01*
X76940730Y-100084961D01*
X76940725Y-100084962D01*
X76937957Y-100085438D01*
X76935319Y-100086411D01*
X76935316Y-100086412D01*
X76761425Y-100150564D01*
X76730957Y-100161804D01*
X76728535Y-100163245D01*
X76543764Y-100273172D01*
X76543760Y-100273175D01*
X76541341Y-100274614D01*
X76521521Y-100291996D01*
X76377575Y-100418232D01*
X76377572Y-100418235D01*
X76375457Y-100420090D01*
X76373715Y-100422300D01*
X76373712Y-100422303D01*
X76357186Y-100443267D01*
X76238863Y-100593360D01*
X76237550Y-100595855D01*
X76237549Y-100595857D01*
X76187497Y-100690990D01*
X76136131Y-100788620D01*
X76070703Y-100999333D01*
X76044770Y-101218440D01*
X73700500Y-101218440D01*
X73700500Y-98483102D01*
X76381176Y-98483102D01*
X76382899Y-98487264D01*
X76561210Y-98596534D01*
X76565489Y-98598714D01*
X76780334Y-98687706D01*
X76784905Y-98689191D01*
X77011013Y-98743475D01*
X77015785Y-98744230D01*
X77247586Y-98762473D01*
X77252414Y-98762473D01*
X77484215Y-98744230D01*
X77488987Y-98743475D01*
X77715095Y-98689191D01*
X77719666Y-98687706D01*
X77934511Y-98598714D01*
X77938790Y-98596534D01*
X78113462Y-98489493D01*
X78118106Y-98483102D01*
X82881176Y-98483102D01*
X82882899Y-98487264D01*
X83061210Y-98596534D01*
X83065489Y-98598714D01*
X83280334Y-98687706D01*
X83284905Y-98689191D01*
X83511013Y-98743475D01*
X83515785Y-98744230D01*
X83747586Y-98762473D01*
X83752414Y-98762473D01*
X83984215Y-98744230D01*
X83988987Y-98743475D01*
X84215095Y-98689191D01*
X84219666Y-98687706D01*
X84434511Y-98598714D01*
X84438790Y-98596534D01*
X84613462Y-98489493D01*
X84618106Y-98483102D01*
X85881176Y-98483102D01*
X85882899Y-98487264D01*
X86061210Y-98596534D01*
X86065489Y-98598714D01*
X86280334Y-98687706D01*
X86284905Y-98689191D01*
X86511013Y-98743475D01*
X86515785Y-98744230D01*
X86747586Y-98762473D01*
X86752414Y-98762473D01*
X86984215Y-98744230D01*
X86988987Y-98743475D01*
X87215095Y-98689191D01*
X87219666Y-98687706D01*
X87434511Y-98598714D01*
X87438790Y-98596534D01*
X87613462Y-98489493D01*
X87618106Y-98483102D01*
X92381176Y-98483102D01*
X92382899Y-98487264D01*
X92561210Y-98596534D01*
X92565489Y-98598714D01*
X92780334Y-98687706D01*
X92784905Y-98689191D01*
X93011013Y-98743475D01*
X93015785Y-98744230D01*
X93247586Y-98762473D01*
X93252414Y-98762473D01*
X93484215Y-98744230D01*
X93488987Y-98743475D01*
X93715095Y-98689191D01*
X93719666Y-98687706D01*
X93934511Y-98598714D01*
X93938790Y-98596534D01*
X94113462Y-98489493D01*
X94118106Y-98483102D01*
X95381176Y-98483102D01*
X95382899Y-98487264D01*
X95561210Y-98596534D01*
X95565489Y-98598714D01*
X95780334Y-98687706D01*
X95784905Y-98689191D01*
X96011013Y-98743475D01*
X96015785Y-98744230D01*
X96247586Y-98762473D01*
X96252414Y-98762473D01*
X96484215Y-98744230D01*
X96488987Y-98743475D01*
X96715095Y-98689191D01*
X96719666Y-98687706D01*
X96934511Y-98598714D01*
X96938790Y-98596534D01*
X97113462Y-98489493D01*
X97118106Y-98483102D01*
X101881176Y-98483102D01*
X101882899Y-98487264D01*
X102061210Y-98596534D01*
X102065489Y-98598714D01*
X102280334Y-98687706D01*
X102284905Y-98689191D01*
X102511013Y-98743475D01*
X102515785Y-98744230D01*
X102747586Y-98762473D01*
X102752414Y-98762473D01*
X102984215Y-98744230D01*
X102988987Y-98743475D01*
X103215095Y-98689191D01*
X103219666Y-98687706D01*
X103434511Y-98598714D01*
X103438790Y-98596534D01*
X103613462Y-98489493D01*
X103618965Y-98481920D01*
X103618260Y-98477470D01*
X102758651Y-97617861D01*
X102750000Y-97614278D01*
X102741349Y-97617861D01*
X101884759Y-98474451D01*
X101881176Y-98483102D01*
X97118106Y-98483102D01*
X97118965Y-98481920D01*
X97118260Y-98477470D01*
X96258651Y-97617861D01*
X96250000Y-97614278D01*
X96241349Y-97617861D01*
X95384759Y-98474451D01*
X95381176Y-98483102D01*
X94118106Y-98483102D01*
X94118965Y-98481920D01*
X94118260Y-98477470D01*
X93258651Y-97617861D01*
X93250000Y-97614278D01*
X93241349Y-97617861D01*
X92384759Y-98474451D01*
X92381176Y-98483102D01*
X87618106Y-98483102D01*
X87618965Y-98481920D01*
X87618260Y-98477470D01*
X86758651Y-97617861D01*
X86750000Y-97614278D01*
X86741349Y-97617861D01*
X85884759Y-98474451D01*
X85881176Y-98483102D01*
X84618106Y-98483102D01*
X84618965Y-98481920D01*
X84618260Y-98477470D01*
X83758651Y-97617861D01*
X83750000Y-97614278D01*
X83741349Y-97617861D01*
X82884759Y-98474451D01*
X82881176Y-98483102D01*
X78118106Y-98483102D01*
X78118965Y-98481920D01*
X78118260Y-98477470D01*
X77258651Y-97617861D01*
X77250000Y-97614278D01*
X77241349Y-97617861D01*
X76384759Y-98474451D01*
X76381176Y-98483102D01*
X73700500Y-98483102D01*
X73700500Y-97252414D01*
X75737527Y-97252414D01*
X75755770Y-97484215D01*
X75756525Y-97488987D01*
X75810809Y-97715095D01*
X75812294Y-97719666D01*
X75901286Y-97934511D01*
X75903466Y-97938790D01*
X76010507Y-98113462D01*
X76018080Y-98118965D01*
X76022530Y-98118260D01*
X76882139Y-97258651D01*
X76885722Y-97250000D01*
X77614278Y-97250000D01*
X77617861Y-97258651D01*
X78474451Y-98115241D01*
X78483102Y-98118824D01*
X78487264Y-98117101D01*
X78596534Y-97938790D01*
X78598714Y-97934511D01*
X78687706Y-97719666D01*
X78689191Y-97715095D01*
X78743475Y-97488987D01*
X78744230Y-97484215D01*
X78762473Y-97252414D01*
X82237527Y-97252414D01*
X82255770Y-97484215D01*
X82256525Y-97488987D01*
X82310809Y-97715095D01*
X82312294Y-97719666D01*
X82401286Y-97934511D01*
X82403466Y-97938790D01*
X82510507Y-98113462D01*
X82518080Y-98118965D01*
X82522530Y-98118260D01*
X83382139Y-97258651D01*
X83385722Y-97250000D01*
X84114278Y-97250000D01*
X84117861Y-97258651D01*
X84974451Y-98115241D01*
X84983102Y-98118824D01*
X84987264Y-98117101D01*
X85096534Y-97938790D01*
X85098714Y-97934511D01*
X85187706Y-97719666D01*
X85189192Y-97715092D01*
X85190199Y-97710896D01*
X85217866Y-97672815D01*
X85264356Y-97665451D01*
X85302437Y-97693118D01*
X85309801Y-97710896D01*
X85310808Y-97715092D01*
X85312294Y-97719666D01*
X85401286Y-97934511D01*
X85403466Y-97938790D01*
X85510507Y-98113462D01*
X85518080Y-98118965D01*
X85522530Y-98118260D01*
X86382139Y-97258651D01*
X86385722Y-97250000D01*
X87114278Y-97250000D01*
X87117861Y-97258651D01*
X87974451Y-98115241D01*
X87983102Y-98118824D01*
X87987264Y-98117101D01*
X88096534Y-97938790D01*
X88098714Y-97934511D01*
X88187706Y-97719666D01*
X88189191Y-97715095D01*
X88243475Y-97488987D01*
X88244230Y-97484215D01*
X88262473Y-97252414D01*
X91737527Y-97252414D01*
X91755770Y-97484215D01*
X91756525Y-97488987D01*
X91810809Y-97715095D01*
X91812294Y-97719666D01*
X91901286Y-97934511D01*
X91903466Y-97938790D01*
X92010507Y-98113462D01*
X92018080Y-98118965D01*
X92022530Y-98118260D01*
X92882139Y-97258651D01*
X92885722Y-97250000D01*
X93614278Y-97250000D01*
X93617861Y-97258651D01*
X94474451Y-98115241D01*
X94483102Y-98118824D01*
X94487264Y-98117101D01*
X94596534Y-97938790D01*
X94598714Y-97934511D01*
X94687706Y-97719666D01*
X94689192Y-97715092D01*
X94690199Y-97710896D01*
X94717866Y-97672815D01*
X94764356Y-97665451D01*
X94802437Y-97693118D01*
X94809801Y-97710896D01*
X94810808Y-97715092D01*
X94812294Y-97719666D01*
X94901286Y-97934511D01*
X94903466Y-97938790D01*
X95010507Y-98113462D01*
X95018080Y-98118965D01*
X95022530Y-98118260D01*
X95882139Y-97258651D01*
X95885722Y-97250000D01*
X96614278Y-97250000D01*
X96617861Y-97258651D01*
X97474451Y-98115241D01*
X97483102Y-98118824D01*
X97487264Y-98117101D01*
X97596534Y-97938790D01*
X97598714Y-97934511D01*
X97687706Y-97719666D01*
X97689191Y-97715095D01*
X97743475Y-97488987D01*
X97744230Y-97484215D01*
X97762473Y-97252414D01*
X101237527Y-97252414D01*
X101255770Y-97484215D01*
X101256525Y-97488987D01*
X101310809Y-97715095D01*
X101312294Y-97719666D01*
X101401286Y-97934511D01*
X101403466Y-97938790D01*
X101510507Y-98113462D01*
X101518080Y-98118965D01*
X101522530Y-98118260D01*
X102382139Y-97258651D01*
X102385722Y-97250000D01*
X103114278Y-97250000D01*
X103117861Y-97258651D01*
X103974451Y-98115241D01*
X103983102Y-98118824D01*
X103987264Y-98117101D01*
X104096534Y-97938790D01*
X104098714Y-97934511D01*
X104187706Y-97719666D01*
X104189191Y-97715095D01*
X104243475Y-97488987D01*
X104244230Y-97484215D01*
X104262473Y-97252414D01*
X104262473Y-97247586D01*
X104244230Y-97015785D01*
X104243475Y-97011013D01*
X104189191Y-96784905D01*
X104187706Y-96780334D01*
X104098714Y-96565489D01*
X104096534Y-96561210D01*
X103989493Y-96386538D01*
X103981920Y-96381035D01*
X103977470Y-96381740D01*
X103117861Y-97241349D01*
X103114278Y-97250000D01*
X102385722Y-97250000D01*
X102382139Y-97241349D01*
X101525549Y-96384759D01*
X101516898Y-96381176D01*
X101512736Y-96382899D01*
X101403466Y-96561210D01*
X101401286Y-96565489D01*
X101312294Y-96780334D01*
X101310809Y-96784905D01*
X101256525Y-97011013D01*
X101255770Y-97015785D01*
X101237527Y-97247586D01*
X101237527Y-97252414D01*
X97762473Y-97252414D01*
X97762473Y-97247586D01*
X97744230Y-97015785D01*
X97743475Y-97011013D01*
X97689191Y-96784905D01*
X97687706Y-96780334D01*
X97598714Y-96565489D01*
X97596534Y-96561210D01*
X97489493Y-96386538D01*
X97481920Y-96381035D01*
X97477470Y-96381740D01*
X96617861Y-97241349D01*
X96614278Y-97250000D01*
X95885722Y-97250000D01*
X95882139Y-97241349D01*
X95025549Y-96384759D01*
X95016898Y-96381176D01*
X95012736Y-96382899D01*
X94903466Y-96561210D01*
X94901286Y-96565489D01*
X94812294Y-96780334D01*
X94810808Y-96784908D01*
X94809801Y-96789104D01*
X94782134Y-96827185D01*
X94735644Y-96834549D01*
X94697563Y-96806882D01*
X94690199Y-96789104D01*
X94689192Y-96784908D01*
X94687706Y-96780334D01*
X94598714Y-96565489D01*
X94596534Y-96561210D01*
X94489493Y-96386538D01*
X94481920Y-96381035D01*
X94477470Y-96381740D01*
X93617861Y-97241349D01*
X93614278Y-97250000D01*
X92885722Y-97250000D01*
X92882139Y-97241349D01*
X92025549Y-96384759D01*
X92016898Y-96381176D01*
X92012736Y-96382899D01*
X91903466Y-96561210D01*
X91901286Y-96565489D01*
X91812294Y-96780334D01*
X91810809Y-96784905D01*
X91756525Y-97011013D01*
X91755770Y-97015785D01*
X91737527Y-97247586D01*
X91737527Y-97252414D01*
X88262473Y-97252414D01*
X88262473Y-97247586D01*
X88244230Y-97015785D01*
X88243475Y-97011013D01*
X88189191Y-96784905D01*
X88187706Y-96780334D01*
X88098714Y-96565489D01*
X88096534Y-96561210D01*
X87989493Y-96386538D01*
X87981920Y-96381035D01*
X87977470Y-96381740D01*
X87117861Y-97241349D01*
X87114278Y-97250000D01*
X86385722Y-97250000D01*
X86382139Y-97241349D01*
X85525549Y-96384759D01*
X85516898Y-96381176D01*
X85512736Y-96382899D01*
X85403466Y-96561210D01*
X85401286Y-96565489D01*
X85312294Y-96780334D01*
X85310808Y-96784908D01*
X85309801Y-96789104D01*
X85282134Y-96827185D01*
X85235644Y-96834549D01*
X85197563Y-96806882D01*
X85190199Y-96789104D01*
X85189192Y-96784908D01*
X85187706Y-96780334D01*
X85098714Y-96565489D01*
X85096534Y-96561210D01*
X84989493Y-96386538D01*
X84981920Y-96381035D01*
X84977470Y-96381740D01*
X84117861Y-97241349D01*
X84114278Y-97250000D01*
X83385722Y-97250000D01*
X83382139Y-97241349D01*
X82525549Y-96384759D01*
X82516898Y-96381176D01*
X82512736Y-96382899D01*
X82403466Y-96561210D01*
X82401286Y-96565489D01*
X82312294Y-96780334D01*
X82310809Y-96784905D01*
X82256525Y-97011013D01*
X82255770Y-97015785D01*
X82237527Y-97247586D01*
X82237527Y-97252414D01*
X78762473Y-97252414D01*
X78762473Y-97247586D01*
X78744230Y-97015785D01*
X78743475Y-97011013D01*
X78689191Y-96784905D01*
X78687706Y-96780334D01*
X78598714Y-96565489D01*
X78596534Y-96561210D01*
X78489493Y-96386538D01*
X78481920Y-96381035D01*
X78477470Y-96381740D01*
X77617861Y-97241349D01*
X77614278Y-97250000D01*
X76885722Y-97250000D01*
X76882139Y-97241349D01*
X76025549Y-96384759D01*
X76016898Y-96381176D01*
X76012736Y-96382899D01*
X75903466Y-96561210D01*
X75901286Y-96565489D01*
X75812294Y-96780334D01*
X75810809Y-96784905D01*
X75756525Y-97011013D01*
X75755770Y-97015785D01*
X75737527Y-97247586D01*
X75737527Y-97252414D01*
X73700500Y-97252414D01*
X73700500Y-96018080D01*
X76381035Y-96018080D01*
X76381740Y-96022530D01*
X77241349Y-96882139D01*
X77250000Y-96885722D01*
X77258651Y-96882139D01*
X78115241Y-96025549D01*
X78118334Y-96018080D01*
X82881035Y-96018080D01*
X82881740Y-96022530D01*
X83741349Y-96882139D01*
X83750000Y-96885722D01*
X83758651Y-96882139D01*
X84615241Y-96025549D01*
X84618334Y-96018080D01*
X85881035Y-96018080D01*
X85881740Y-96022530D01*
X86741349Y-96882139D01*
X86750000Y-96885722D01*
X86758651Y-96882139D01*
X87615241Y-96025549D01*
X87618334Y-96018080D01*
X92381035Y-96018080D01*
X92381740Y-96022530D01*
X93241349Y-96882139D01*
X93250000Y-96885722D01*
X93258651Y-96882139D01*
X94115241Y-96025549D01*
X94118334Y-96018080D01*
X95381035Y-96018080D01*
X95381740Y-96022530D01*
X96241349Y-96882139D01*
X96250000Y-96885722D01*
X96258651Y-96882139D01*
X97115241Y-96025549D01*
X97118334Y-96018080D01*
X101881035Y-96018080D01*
X101881740Y-96022530D01*
X102741349Y-96882139D01*
X102750000Y-96885722D01*
X102758651Y-96882139D01*
X103615241Y-96025549D01*
X103618824Y-96016898D01*
X103617101Y-96012736D01*
X103438790Y-95903466D01*
X103434511Y-95901286D01*
X103219666Y-95812294D01*
X103215095Y-95810809D01*
X102988987Y-95756525D01*
X102984215Y-95755770D01*
X102752414Y-95737527D01*
X102747586Y-95737527D01*
X102515785Y-95755770D01*
X102511013Y-95756525D01*
X102284905Y-95810809D01*
X102280334Y-95812294D01*
X102065489Y-95901286D01*
X102061210Y-95903466D01*
X101886538Y-96010507D01*
X101881035Y-96018080D01*
X97118334Y-96018080D01*
X97118824Y-96016898D01*
X97117101Y-96012736D01*
X96938790Y-95903466D01*
X96934511Y-95901286D01*
X96719666Y-95812294D01*
X96715095Y-95810809D01*
X96488987Y-95756525D01*
X96484215Y-95755770D01*
X96252414Y-95737527D01*
X96247586Y-95737527D01*
X96015785Y-95755770D01*
X96011013Y-95756525D01*
X95784905Y-95810809D01*
X95780334Y-95812294D01*
X95565489Y-95901286D01*
X95561210Y-95903466D01*
X95386538Y-96010507D01*
X95381035Y-96018080D01*
X94118334Y-96018080D01*
X94118824Y-96016898D01*
X94117101Y-96012736D01*
X93938790Y-95903466D01*
X93934511Y-95901286D01*
X93719666Y-95812294D01*
X93715095Y-95810809D01*
X93488987Y-95756525D01*
X93484215Y-95755770D01*
X93252414Y-95737527D01*
X93247586Y-95737527D01*
X93015785Y-95755770D01*
X93011013Y-95756525D01*
X92784905Y-95810809D01*
X92780334Y-95812294D01*
X92565489Y-95901286D01*
X92561210Y-95903466D01*
X92386538Y-96010507D01*
X92381035Y-96018080D01*
X87618334Y-96018080D01*
X87618824Y-96016898D01*
X87617101Y-96012736D01*
X87438790Y-95903466D01*
X87434511Y-95901286D01*
X87219666Y-95812294D01*
X87215095Y-95810809D01*
X86988987Y-95756525D01*
X86984215Y-95755770D01*
X86752414Y-95737527D01*
X86747586Y-95737527D01*
X86515785Y-95755770D01*
X86511013Y-95756525D01*
X86284905Y-95810809D01*
X86280334Y-95812294D01*
X86065489Y-95901286D01*
X86061210Y-95903466D01*
X85886538Y-96010507D01*
X85881035Y-96018080D01*
X84618334Y-96018080D01*
X84618824Y-96016898D01*
X84617101Y-96012736D01*
X84438790Y-95903466D01*
X84434511Y-95901286D01*
X84219666Y-95812294D01*
X84215095Y-95810809D01*
X83988987Y-95756525D01*
X83984215Y-95755770D01*
X83752414Y-95737527D01*
X83747586Y-95737527D01*
X83515785Y-95755770D01*
X83511013Y-95756525D01*
X83284905Y-95810809D01*
X83280334Y-95812294D01*
X83065489Y-95901286D01*
X83061210Y-95903466D01*
X82886538Y-96010507D01*
X82881035Y-96018080D01*
X78118334Y-96018080D01*
X78118824Y-96016898D01*
X78117101Y-96012736D01*
X77938790Y-95903466D01*
X77934511Y-95901286D01*
X77719666Y-95812294D01*
X77715095Y-95810809D01*
X77488987Y-95756525D01*
X77484215Y-95755770D01*
X77252414Y-95737527D01*
X77247586Y-95737527D01*
X77015785Y-95755770D01*
X77011013Y-95756525D01*
X76784905Y-95810809D01*
X76780334Y-95812294D01*
X76565489Y-95901286D01*
X76561210Y-95903466D01*
X76386538Y-96010507D01*
X76381035Y-96018080D01*
X73700500Y-96018080D01*
X73700500Y-92718440D01*
X76044770Y-92718440D01*
X76059200Y-92938604D01*
X76059891Y-92941327D01*
X76059892Y-92941330D01*
X76083460Y-93034126D01*
X76113511Y-93152452D01*
X76205883Y-93352821D01*
X76333222Y-93533002D01*
X76491264Y-93686961D01*
X76674717Y-93809540D01*
X76677306Y-93810652D01*
X76677309Y-93810654D01*
X76768967Y-93850033D01*
X76877436Y-93896635D01*
X76880179Y-93897256D01*
X76880183Y-93897257D01*
X77089886Y-93944708D01*
X77089890Y-93944708D01*
X77092632Y-93945329D01*
X77095441Y-93945439D01*
X77095446Y-93945440D01*
X77213414Y-93950074D01*
X77313098Y-93953991D01*
X77315883Y-93953587D01*
X77315887Y-93953587D01*
X77528662Y-93922736D01*
X77528667Y-93922735D01*
X77531452Y-93922331D01*
X77740379Y-93851410D01*
X77813154Y-93810654D01*
X77930431Y-93744976D01*
X77930433Y-93744975D01*
X77932884Y-93743602D01*
X78003361Y-93684987D01*
X78100355Y-93604317D01*
X78102518Y-93602518D01*
X78243602Y-93432884D01*
X78287152Y-93355121D01*
X78350033Y-93242838D01*
X78350033Y-93242837D01*
X78351410Y-93240379D01*
X78422331Y-93031452D01*
X78453991Y-92813098D01*
X78455643Y-92750000D01*
X78452743Y-92718440D01*
X82544770Y-92718440D01*
X82559200Y-92938604D01*
X82559891Y-92941327D01*
X82559892Y-92941330D01*
X82583460Y-93034126D01*
X82613511Y-93152452D01*
X82705883Y-93352821D01*
X82833222Y-93533002D01*
X82991264Y-93686961D01*
X83174717Y-93809540D01*
X83177306Y-93810652D01*
X83177309Y-93810654D01*
X83268967Y-93850033D01*
X83377436Y-93896635D01*
X83380179Y-93897256D01*
X83380183Y-93897257D01*
X83589886Y-93944708D01*
X83589890Y-93944708D01*
X83592632Y-93945329D01*
X83595441Y-93945439D01*
X83595446Y-93945440D01*
X83713414Y-93950074D01*
X83813098Y-93953991D01*
X83815883Y-93953587D01*
X83815887Y-93953587D01*
X84028662Y-93922736D01*
X84028667Y-93922735D01*
X84031452Y-93922331D01*
X84240379Y-93851410D01*
X84313154Y-93810654D01*
X84430431Y-93744976D01*
X84430433Y-93744975D01*
X84432884Y-93743602D01*
X84503361Y-93684987D01*
X84600355Y-93604317D01*
X84602518Y-93602518D01*
X84743602Y-93432884D01*
X84787152Y-93355121D01*
X84850033Y-93242838D01*
X84850033Y-93242837D01*
X84851410Y-93240379D01*
X84922331Y-93031452D01*
X84953991Y-92813098D01*
X84955643Y-92750000D01*
X84952743Y-92718440D01*
X85544770Y-92718440D01*
X85559200Y-92938604D01*
X85559891Y-92941327D01*
X85559892Y-92941330D01*
X85583460Y-93034126D01*
X85613511Y-93152452D01*
X85705883Y-93352821D01*
X85833222Y-93533002D01*
X85991264Y-93686961D01*
X86174717Y-93809540D01*
X86177306Y-93810652D01*
X86177309Y-93810654D01*
X86268967Y-93850033D01*
X86377436Y-93896635D01*
X86380179Y-93897256D01*
X86380183Y-93897257D01*
X86589886Y-93944708D01*
X86589890Y-93944708D01*
X86592632Y-93945329D01*
X86595441Y-93945439D01*
X86595446Y-93945440D01*
X86713414Y-93950074D01*
X86813098Y-93953991D01*
X86815883Y-93953587D01*
X86815887Y-93953587D01*
X87028662Y-93922736D01*
X87028667Y-93922735D01*
X87031452Y-93922331D01*
X87240379Y-93851410D01*
X87313154Y-93810654D01*
X87430431Y-93744976D01*
X87430433Y-93744975D01*
X87432884Y-93743602D01*
X87503361Y-93684987D01*
X87600355Y-93604317D01*
X87602518Y-93602518D01*
X87743602Y-93432884D01*
X87787152Y-93355121D01*
X87850033Y-93242838D01*
X87850033Y-93242837D01*
X87851410Y-93240379D01*
X87922331Y-93031452D01*
X87953991Y-92813098D01*
X87955643Y-92750000D01*
X87952743Y-92718440D01*
X92044770Y-92718440D01*
X92059200Y-92938604D01*
X92059891Y-92941327D01*
X92059892Y-92941330D01*
X92083460Y-93034126D01*
X92113511Y-93152452D01*
X92205883Y-93352821D01*
X92333222Y-93533002D01*
X92491264Y-93686961D01*
X92674717Y-93809540D01*
X92677306Y-93810652D01*
X92677309Y-93810654D01*
X92768967Y-93850033D01*
X92877436Y-93896635D01*
X92880179Y-93897256D01*
X92880183Y-93897257D01*
X93089886Y-93944708D01*
X93089890Y-93944708D01*
X93092632Y-93945329D01*
X93095441Y-93945439D01*
X93095446Y-93945440D01*
X93213414Y-93950074D01*
X93313098Y-93953991D01*
X93315883Y-93953587D01*
X93315887Y-93953587D01*
X93528662Y-93922736D01*
X93528667Y-93922735D01*
X93531452Y-93922331D01*
X93740379Y-93851410D01*
X93813154Y-93810654D01*
X93930431Y-93744976D01*
X93930433Y-93744975D01*
X93932884Y-93743602D01*
X94003361Y-93684987D01*
X94100355Y-93604317D01*
X94102518Y-93602518D01*
X94243602Y-93432884D01*
X94287152Y-93355121D01*
X94350033Y-93242838D01*
X94350033Y-93242837D01*
X94351410Y-93240379D01*
X94422331Y-93031452D01*
X94453991Y-92813098D01*
X94455643Y-92750000D01*
X94452743Y-92718440D01*
X95044770Y-92718440D01*
X95059200Y-92938604D01*
X95059891Y-92941327D01*
X95059892Y-92941330D01*
X95083460Y-93034126D01*
X95113511Y-93152452D01*
X95205883Y-93352821D01*
X95333222Y-93533002D01*
X95491264Y-93686961D01*
X95674717Y-93809540D01*
X95677306Y-93810652D01*
X95677309Y-93810654D01*
X95768967Y-93850033D01*
X95877436Y-93896635D01*
X95880179Y-93897256D01*
X95880183Y-93897257D01*
X96089886Y-93944708D01*
X96089890Y-93944708D01*
X96092632Y-93945329D01*
X96095441Y-93945439D01*
X96095446Y-93945440D01*
X96213414Y-93950074D01*
X96313098Y-93953991D01*
X96315883Y-93953587D01*
X96315887Y-93953587D01*
X96528662Y-93922736D01*
X96528667Y-93922735D01*
X96531452Y-93922331D01*
X96740379Y-93851410D01*
X96813154Y-93810654D01*
X96930431Y-93744976D01*
X96930433Y-93744975D01*
X96932884Y-93743602D01*
X97003361Y-93684987D01*
X97100355Y-93604317D01*
X97102518Y-93602518D01*
X97243602Y-93432884D01*
X97287152Y-93355121D01*
X97350033Y-93242838D01*
X97350033Y-93242837D01*
X97351410Y-93240379D01*
X97422331Y-93031452D01*
X97453991Y-92813098D01*
X97455643Y-92750000D01*
X97452743Y-92718440D01*
X101544770Y-92718440D01*
X101559200Y-92938604D01*
X101559891Y-92941327D01*
X101559892Y-92941330D01*
X101583460Y-93034126D01*
X101613511Y-93152452D01*
X101705883Y-93352821D01*
X101833222Y-93533002D01*
X101991264Y-93686961D01*
X102174717Y-93809540D01*
X102177306Y-93810652D01*
X102177309Y-93810654D01*
X102268967Y-93850033D01*
X102377436Y-93896635D01*
X102380179Y-93897256D01*
X102380183Y-93897257D01*
X102589886Y-93944708D01*
X102589890Y-93944708D01*
X102592632Y-93945329D01*
X102595441Y-93945439D01*
X102595446Y-93945440D01*
X102713414Y-93950074D01*
X102813098Y-93953991D01*
X102815883Y-93953587D01*
X102815887Y-93953587D01*
X103028662Y-93922736D01*
X103028667Y-93922735D01*
X103031452Y-93922331D01*
X103240379Y-93851410D01*
X103313154Y-93810654D01*
X103430431Y-93744976D01*
X103430433Y-93744975D01*
X103432884Y-93743602D01*
X103503361Y-93684987D01*
X103600355Y-93604317D01*
X103602518Y-93602518D01*
X103743602Y-93432884D01*
X103787152Y-93355121D01*
X103850033Y-93242838D01*
X103850033Y-93242837D01*
X103851410Y-93240379D01*
X103922331Y-93031452D01*
X103953991Y-92813098D01*
X103955643Y-92750000D01*
X103935454Y-92530289D01*
X103927513Y-92502130D01*
X103876330Y-92320648D01*
X103876329Y-92320647D01*
X103875565Y-92317936D01*
X103777980Y-92120053D01*
X103645967Y-91943267D01*
X103643899Y-91941355D01*
X103643896Y-91941352D01*
X103486016Y-91795410D01*
X103483949Y-91793499D01*
X103297350Y-91675764D01*
X103294737Y-91674721D01*
X103294732Y-91674719D01*
X103095040Y-91595051D01*
X103095041Y-91595051D01*
X103092421Y-91594006D01*
X103089657Y-91593456D01*
X103089653Y-91593455D01*
X102878794Y-91551513D01*
X102876024Y-91550962D01*
X102873204Y-91550925D01*
X102873203Y-91550925D01*
X102814193Y-91550153D01*
X102655406Y-91548074D01*
X102652636Y-91548550D01*
X102652635Y-91548550D01*
X102440730Y-91584961D01*
X102440725Y-91584962D01*
X102437957Y-91585438D01*
X102435319Y-91586411D01*
X102435316Y-91586412D01*
X102261425Y-91650564D01*
X102230957Y-91661804D01*
X102228535Y-91663245D01*
X102043764Y-91773172D01*
X102043760Y-91773175D01*
X102041341Y-91774614D01*
X102021521Y-91791996D01*
X101877575Y-91918232D01*
X101877572Y-91918235D01*
X101875457Y-91920090D01*
X101873715Y-91922300D01*
X101873712Y-91922303D01*
X101857186Y-91943267D01*
X101738863Y-92093360D01*
X101737550Y-92095855D01*
X101737549Y-92095857D01*
X101687497Y-92190990D01*
X101636131Y-92288620D01*
X101570703Y-92499333D01*
X101544770Y-92718440D01*
X97452743Y-92718440D01*
X97435454Y-92530289D01*
X97427513Y-92502130D01*
X97376330Y-92320648D01*
X97376329Y-92320647D01*
X97375565Y-92317936D01*
X97277980Y-92120053D01*
X97145967Y-91943267D01*
X97143899Y-91941355D01*
X97143896Y-91941352D01*
X96986016Y-91795410D01*
X96983949Y-91793499D01*
X96797350Y-91675764D01*
X96794737Y-91674721D01*
X96794732Y-91674719D01*
X96595040Y-91595051D01*
X96595041Y-91595051D01*
X96592421Y-91594006D01*
X96589657Y-91593456D01*
X96589653Y-91593455D01*
X96378794Y-91551513D01*
X96376024Y-91550962D01*
X96373204Y-91550925D01*
X96373203Y-91550925D01*
X96314193Y-91550153D01*
X96155406Y-91548074D01*
X96152636Y-91548550D01*
X96152635Y-91548550D01*
X95940730Y-91584961D01*
X95940725Y-91584962D01*
X95937957Y-91585438D01*
X95935319Y-91586411D01*
X95935316Y-91586412D01*
X95761425Y-91650564D01*
X95730957Y-91661804D01*
X95728535Y-91663245D01*
X95543764Y-91773172D01*
X95543760Y-91773175D01*
X95541341Y-91774614D01*
X95521521Y-91791996D01*
X95377575Y-91918232D01*
X95377572Y-91918235D01*
X95375457Y-91920090D01*
X95373715Y-91922300D01*
X95373712Y-91922303D01*
X95357186Y-91943267D01*
X95238863Y-92093360D01*
X95237550Y-92095855D01*
X95237549Y-92095857D01*
X95187497Y-92190990D01*
X95136131Y-92288620D01*
X95070703Y-92499333D01*
X95044770Y-92718440D01*
X94452743Y-92718440D01*
X94435454Y-92530289D01*
X94427513Y-92502130D01*
X94376330Y-92320648D01*
X94376329Y-92320647D01*
X94375565Y-92317936D01*
X94277980Y-92120053D01*
X94145967Y-91943267D01*
X94143899Y-91941355D01*
X94143896Y-91941352D01*
X93986016Y-91795410D01*
X93983949Y-91793499D01*
X93797350Y-91675764D01*
X93794737Y-91674721D01*
X93794732Y-91674719D01*
X93595040Y-91595051D01*
X93595041Y-91595051D01*
X93592421Y-91594006D01*
X93589657Y-91593456D01*
X93589653Y-91593455D01*
X93378794Y-91551513D01*
X93376024Y-91550962D01*
X93373204Y-91550925D01*
X93373203Y-91550925D01*
X93314193Y-91550153D01*
X93155406Y-91548074D01*
X93152636Y-91548550D01*
X93152635Y-91548550D01*
X92940730Y-91584961D01*
X92940725Y-91584962D01*
X92937957Y-91585438D01*
X92935319Y-91586411D01*
X92935316Y-91586412D01*
X92761425Y-91650564D01*
X92730957Y-91661804D01*
X92728535Y-91663245D01*
X92543764Y-91773172D01*
X92543760Y-91773175D01*
X92541341Y-91774614D01*
X92521521Y-91791996D01*
X92377575Y-91918232D01*
X92377572Y-91918235D01*
X92375457Y-91920090D01*
X92373715Y-91922300D01*
X92373712Y-91922303D01*
X92357186Y-91943267D01*
X92238863Y-92093360D01*
X92237550Y-92095855D01*
X92237549Y-92095857D01*
X92187497Y-92190990D01*
X92136131Y-92288620D01*
X92070703Y-92499333D01*
X92044770Y-92718440D01*
X87952743Y-92718440D01*
X87935454Y-92530289D01*
X87927513Y-92502130D01*
X87876330Y-92320648D01*
X87876329Y-92320647D01*
X87875565Y-92317936D01*
X87777980Y-92120053D01*
X87645967Y-91943267D01*
X87643899Y-91941355D01*
X87643896Y-91941352D01*
X87486016Y-91795410D01*
X87483949Y-91793499D01*
X87297350Y-91675764D01*
X87294737Y-91674721D01*
X87294732Y-91674719D01*
X87095040Y-91595051D01*
X87095041Y-91595051D01*
X87092421Y-91594006D01*
X87089657Y-91593456D01*
X87089653Y-91593455D01*
X86878794Y-91551513D01*
X86876024Y-91550962D01*
X86873204Y-91550925D01*
X86873203Y-91550925D01*
X86814193Y-91550153D01*
X86655406Y-91548074D01*
X86652636Y-91548550D01*
X86652635Y-91548550D01*
X86440730Y-91584961D01*
X86440725Y-91584962D01*
X86437957Y-91585438D01*
X86435319Y-91586411D01*
X86435316Y-91586412D01*
X86261425Y-91650564D01*
X86230957Y-91661804D01*
X86228535Y-91663245D01*
X86043764Y-91773172D01*
X86043760Y-91773175D01*
X86041341Y-91774614D01*
X86021521Y-91791996D01*
X85877575Y-91918232D01*
X85877572Y-91918235D01*
X85875457Y-91920090D01*
X85873715Y-91922300D01*
X85873712Y-91922303D01*
X85857186Y-91943267D01*
X85738863Y-92093360D01*
X85737550Y-92095855D01*
X85737549Y-92095857D01*
X85687497Y-92190990D01*
X85636131Y-92288620D01*
X85570703Y-92499333D01*
X85544770Y-92718440D01*
X84952743Y-92718440D01*
X84935454Y-92530289D01*
X84927513Y-92502130D01*
X84876330Y-92320648D01*
X84876329Y-92320647D01*
X84875565Y-92317936D01*
X84777980Y-92120053D01*
X84645967Y-91943267D01*
X84643899Y-91941355D01*
X84643896Y-91941352D01*
X84486016Y-91795410D01*
X84483949Y-91793499D01*
X84297350Y-91675764D01*
X84294737Y-91674721D01*
X84294732Y-91674719D01*
X84095040Y-91595051D01*
X84095041Y-91595051D01*
X84092421Y-91594006D01*
X84089657Y-91593456D01*
X84089653Y-91593455D01*
X83878794Y-91551513D01*
X83876024Y-91550962D01*
X83873204Y-91550925D01*
X83873203Y-91550925D01*
X83814193Y-91550153D01*
X83655406Y-91548074D01*
X83652636Y-91548550D01*
X83652635Y-91548550D01*
X83440730Y-91584961D01*
X83440725Y-91584962D01*
X83437957Y-91585438D01*
X83435319Y-91586411D01*
X83435316Y-91586412D01*
X83261425Y-91650564D01*
X83230957Y-91661804D01*
X83228535Y-91663245D01*
X83043764Y-91773172D01*
X83043760Y-91773175D01*
X83041341Y-91774614D01*
X83021521Y-91791996D01*
X82877575Y-91918232D01*
X82877572Y-91918235D01*
X82875457Y-91920090D01*
X82873715Y-91922300D01*
X82873712Y-91922303D01*
X82857186Y-91943267D01*
X82738863Y-92093360D01*
X82737550Y-92095855D01*
X82737549Y-92095857D01*
X82687497Y-92190990D01*
X82636131Y-92288620D01*
X82570703Y-92499333D01*
X82544770Y-92718440D01*
X78452743Y-92718440D01*
X78435454Y-92530289D01*
X78427513Y-92502130D01*
X78376330Y-92320648D01*
X78376329Y-92320647D01*
X78375565Y-92317936D01*
X78277980Y-92120053D01*
X78145967Y-91943267D01*
X78143899Y-91941355D01*
X78143896Y-91941352D01*
X77986016Y-91795410D01*
X77983949Y-91793499D01*
X77797350Y-91675764D01*
X77794737Y-91674721D01*
X77794732Y-91674719D01*
X77595040Y-91595051D01*
X77595041Y-91595051D01*
X77592421Y-91594006D01*
X77589657Y-91593456D01*
X77589653Y-91593455D01*
X77378794Y-91551513D01*
X77376024Y-91550962D01*
X77373204Y-91550925D01*
X77373203Y-91550925D01*
X77314193Y-91550153D01*
X77155406Y-91548074D01*
X77152636Y-91548550D01*
X77152635Y-91548550D01*
X76940730Y-91584961D01*
X76940725Y-91584962D01*
X76937957Y-91585438D01*
X76935319Y-91586411D01*
X76935316Y-91586412D01*
X76761425Y-91650564D01*
X76730957Y-91661804D01*
X76728535Y-91663245D01*
X76543764Y-91773172D01*
X76543760Y-91773175D01*
X76541341Y-91774614D01*
X76521521Y-91791996D01*
X76377575Y-91918232D01*
X76377572Y-91918235D01*
X76375457Y-91920090D01*
X76373715Y-91922300D01*
X76373712Y-91922303D01*
X76357186Y-91943267D01*
X76238863Y-92093360D01*
X76237550Y-92095855D01*
X76237549Y-92095857D01*
X76187497Y-92190990D01*
X76136131Y-92288620D01*
X76070703Y-92499333D01*
X76044770Y-92718440D01*
X73700500Y-92718440D01*
X73700500Y-88815262D01*
X75919520Y-88815262D01*
X75936759Y-89020553D01*
X75937586Y-89023435D01*
X75937586Y-89023438D01*
X75957224Y-89091923D01*
X75993544Y-89218586D01*
X76087712Y-89401818D01*
X76215677Y-89563270D01*
X76217967Y-89565219D01*
X76217968Y-89565220D01*
X76370271Y-89694840D01*
X76370274Y-89694842D01*
X76372564Y-89696791D01*
X76375190Y-89698259D01*
X76375192Y-89698260D01*
X76549774Y-89795831D01*
X76549778Y-89795833D01*
X76552398Y-89797297D01*
X76555253Y-89798225D01*
X76555256Y-89798226D01*
X76606734Y-89814952D01*
X76748329Y-89860959D01*
X76751314Y-89861315D01*
X76751319Y-89861316D01*
X76892795Y-89878185D01*
X76952894Y-89885351D01*
X76955884Y-89885121D01*
X76955887Y-89885121D01*
X77155303Y-89869777D01*
X77155307Y-89869776D01*
X77158300Y-89869546D01*
X77356725Y-89814145D01*
X77540610Y-89721258D01*
X77702951Y-89594424D01*
X77729843Y-89563270D01*
X77835597Y-89440751D01*
X77835598Y-89440750D01*
X77837564Y-89438472D01*
X77939323Y-89259344D01*
X77995017Y-89091923D01*
X78181896Y-89091923D01*
X78214146Y-89235027D01*
X78215649Y-89239823D01*
X78297766Y-89442056D01*
X78300033Y-89446542D01*
X78414077Y-89632645D01*
X78417038Y-89636692D01*
X78559952Y-89801675D01*
X78563541Y-89805190D01*
X78731469Y-89944606D01*
X78735596Y-89947496D01*
X78924037Y-90057612D01*
X78928574Y-90059786D01*
X79132478Y-90137649D01*
X79137305Y-90139051D01*
X79249012Y-90161778D01*
X79258203Y-90159992D01*
X79261000Y-90155845D01*
X79261000Y-90154398D01*
X79769000Y-90154398D01*
X79772583Y-90163049D01*
X79778344Y-90165435D01*
X79795801Y-90163199D01*
X79800735Y-90162150D01*
X80009788Y-90099431D01*
X80014463Y-90097599D01*
X80210473Y-90001574D01*
X80214791Y-89999000D01*
X80392480Y-89872257D01*
X80396324Y-89869008D01*
X80550926Y-89714944D01*
X80554185Y-89711114D01*
X80681550Y-89533867D01*
X80684139Y-89529558D01*
X80780846Y-89333889D01*
X80782698Y-89329210D01*
X80846146Y-89120379D01*
X80847209Y-89115461D01*
X80849754Y-89096128D01*
X80847331Y-89087085D01*
X80841987Y-89084000D01*
X79781234Y-89084000D01*
X79772583Y-89087583D01*
X79769000Y-89096234D01*
X79769000Y-90154398D01*
X79261000Y-90154398D01*
X79261000Y-89096234D01*
X79257417Y-89087583D01*
X79248766Y-89084000D01*
X78192344Y-89084000D01*
X78183693Y-89087583D01*
X78181896Y-89091923D01*
X77995017Y-89091923D01*
X78004351Y-89063863D01*
X78030171Y-88859474D01*
X78030583Y-88830000D01*
X78028846Y-88812275D01*
X78010774Y-88627966D01*
X78010774Y-88627964D01*
X78010480Y-88624970D01*
X78005255Y-88607662D01*
X77992997Y-88567064D01*
X78178590Y-88567064D01*
X78180282Y-88572818D01*
X78186116Y-88576000D01*
X79248766Y-88576000D01*
X79257417Y-88572417D01*
X79261000Y-88563766D01*
X79769000Y-88563766D01*
X79772583Y-88572417D01*
X79781234Y-88576000D01*
X80839225Y-88576000D01*
X80847876Y-88572417D01*
X80849546Y-88568384D01*
X80805569Y-88393307D01*
X80803950Y-88388551D01*
X80716918Y-88188391D01*
X80714543Y-88183961D01*
X80595991Y-88000706D01*
X80592913Y-87996710D01*
X80446028Y-87835286D01*
X80442347Y-87831854D01*
X80271067Y-87696585D01*
X80266866Y-87693794D01*
X80075800Y-87588320D01*
X80071194Y-87586250D01*
X79865469Y-87513399D01*
X79860596Y-87512111D01*
X79781043Y-87497940D01*
X79771900Y-87499951D01*
X79769000Y-87504485D01*
X79769000Y-88563766D01*
X79261000Y-88563766D01*
X79261000Y-87507221D01*
X79257417Y-87498570D01*
X79252066Y-87496354D01*
X79201701Y-87504061D01*
X79196813Y-87505226D01*
X78989352Y-87573034D01*
X78984708Y-87574986D01*
X78791110Y-87675767D01*
X78786860Y-87678443D01*
X78612319Y-87809493D01*
X78608551Y-87812838D01*
X78457758Y-87970634D01*
X78454600Y-87974534D01*
X78331600Y-88154845D01*
X78329117Y-88159216D01*
X78237224Y-88357183D01*
X78235483Y-88361917D01*
X78178590Y-88567064D01*
X77992997Y-88567064D01*
X77951805Y-88430632D01*
X77950935Y-88427749D01*
X77854218Y-88245849D01*
X77724011Y-88086200D01*
X77620667Y-88000706D01*
X77567589Y-87956796D01*
X77567587Y-87956795D01*
X77565275Y-87954882D01*
X77384055Y-87856897D01*
X77381189Y-87856010D01*
X77381187Y-87856009D01*
X77190120Y-87796864D01*
X77190118Y-87796864D01*
X77187254Y-87795977D01*
X77184270Y-87795663D01*
X77184268Y-87795663D01*
X77037427Y-87780230D01*
X76982369Y-87774443D01*
X76979380Y-87774715D01*
X76979379Y-87774715D01*
X76780200Y-87792841D01*
X76780197Y-87792841D01*
X76777203Y-87793114D01*
X76579572Y-87851280D01*
X76546645Y-87868494D01*
X76399669Y-87945331D01*
X76399664Y-87945335D01*
X76397002Y-87946726D01*
X76394658Y-87948611D01*
X76394656Y-87948612D01*
X76334834Y-87996710D01*
X76236447Y-88075815D01*
X76104024Y-88233630D01*
X76102579Y-88236259D01*
X76102578Y-88236260D01*
X76095846Y-88248505D01*
X76004776Y-88414162D01*
X75984600Y-88477766D01*
X75954448Y-88572818D01*
X75942484Y-88610532D01*
X75919520Y-88815262D01*
X73700500Y-88815262D01*
X73700500Y-86275262D01*
X75919520Y-86275262D01*
X75936759Y-86480553D01*
X75993544Y-86678586D01*
X76087712Y-86861818D01*
X76215677Y-87023270D01*
X76217967Y-87025219D01*
X76217968Y-87025220D01*
X76370271Y-87154840D01*
X76370274Y-87154842D01*
X76372564Y-87156791D01*
X76375190Y-87158259D01*
X76375192Y-87158260D01*
X76549774Y-87255831D01*
X76549778Y-87255833D01*
X76552398Y-87257297D01*
X76555253Y-87258225D01*
X76555256Y-87258226D01*
X76606734Y-87274952D01*
X76748329Y-87320959D01*
X76751314Y-87321315D01*
X76751319Y-87321316D01*
X76892795Y-87338185D01*
X76952894Y-87345351D01*
X76955884Y-87345121D01*
X76955887Y-87345121D01*
X77155303Y-87329777D01*
X77155307Y-87329776D01*
X77158300Y-87329546D01*
X77356725Y-87274145D01*
X77540610Y-87181258D01*
X77702951Y-87054424D01*
X77729843Y-87023270D01*
X77835597Y-86900751D01*
X77835598Y-86900750D01*
X77837564Y-86898472D01*
X77939323Y-86719344D01*
X78004351Y-86523863D01*
X78030171Y-86319474D01*
X78030583Y-86290000D01*
X78029139Y-86275262D01*
X78459520Y-86275262D01*
X78476759Y-86480553D01*
X78533544Y-86678586D01*
X78627712Y-86861818D01*
X78755677Y-87023270D01*
X78757967Y-87025219D01*
X78757968Y-87025220D01*
X78910271Y-87154840D01*
X78910274Y-87154842D01*
X78912564Y-87156791D01*
X78915190Y-87158259D01*
X78915192Y-87158260D01*
X79089774Y-87255831D01*
X79089778Y-87255833D01*
X79092398Y-87257297D01*
X79095253Y-87258225D01*
X79095256Y-87258226D01*
X79146734Y-87274952D01*
X79288329Y-87320959D01*
X79291314Y-87321315D01*
X79291319Y-87321316D01*
X79432795Y-87338185D01*
X79492894Y-87345351D01*
X79495884Y-87345121D01*
X79495887Y-87345121D01*
X79695303Y-87329777D01*
X79695307Y-87329776D01*
X79698300Y-87329546D01*
X79896725Y-87274145D01*
X80080610Y-87181258D01*
X80242951Y-87054424D01*
X80269843Y-87023270D01*
X80375597Y-86900751D01*
X80375598Y-86900750D01*
X80377564Y-86898472D01*
X80479323Y-86719344D01*
X80544351Y-86523863D01*
X80570171Y-86319474D01*
X80570583Y-86290000D01*
X80568846Y-86272275D01*
X80550774Y-86087966D01*
X80550774Y-86087964D01*
X80550480Y-86084970D01*
X80545255Y-86067662D01*
X80491805Y-85890632D01*
X80490935Y-85887749D01*
X80394218Y-85705849D01*
X80264011Y-85546200D01*
X80105275Y-85414882D01*
X79924055Y-85316897D01*
X79921189Y-85316010D01*
X79921187Y-85316009D01*
X79730120Y-85256864D01*
X79730118Y-85256864D01*
X79727254Y-85255977D01*
X79724270Y-85255663D01*
X79724268Y-85255663D01*
X79577427Y-85240230D01*
X79522369Y-85234443D01*
X79519380Y-85234715D01*
X79519379Y-85234715D01*
X79320200Y-85252841D01*
X79320197Y-85252841D01*
X79317203Y-85253114D01*
X79119572Y-85311280D01*
X79086645Y-85328494D01*
X78939669Y-85405331D01*
X78939664Y-85405335D01*
X78937002Y-85406726D01*
X78934658Y-85408611D01*
X78934656Y-85408612D01*
X78926858Y-85414882D01*
X78776447Y-85535815D01*
X78644024Y-85693630D01*
X78642579Y-85696259D01*
X78642578Y-85696260D01*
X78635846Y-85708505D01*
X78544776Y-85874162D01*
X78482484Y-86070532D01*
X78459520Y-86275262D01*
X78029139Y-86275262D01*
X78028846Y-86272275D01*
X78010774Y-86087966D01*
X78010774Y-86087964D01*
X78010480Y-86084970D01*
X78005255Y-86067662D01*
X77951805Y-85890632D01*
X77950935Y-85887749D01*
X77854218Y-85705849D01*
X77724011Y-85546200D01*
X77565275Y-85414882D01*
X77384055Y-85316897D01*
X77381189Y-85316010D01*
X77381187Y-85316009D01*
X77190120Y-85256864D01*
X77190118Y-85256864D01*
X77187254Y-85255977D01*
X77184270Y-85255663D01*
X77184268Y-85255663D01*
X77037427Y-85240230D01*
X76982369Y-85234443D01*
X76979380Y-85234715D01*
X76979379Y-85234715D01*
X76780200Y-85252841D01*
X76780197Y-85252841D01*
X76777203Y-85253114D01*
X76579572Y-85311280D01*
X76546645Y-85328494D01*
X76399669Y-85405331D01*
X76399664Y-85405335D01*
X76397002Y-85406726D01*
X76394658Y-85408611D01*
X76394656Y-85408612D01*
X76386858Y-85414882D01*
X76236447Y-85535815D01*
X76104024Y-85693630D01*
X76102579Y-85696259D01*
X76102578Y-85696260D01*
X76095846Y-85708505D01*
X76004776Y-85874162D01*
X75942484Y-86070532D01*
X75919520Y-86275262D01*
X73700500Y-86275262D01*
X73700500Y-84619748D01*
X75924500Y-84619748D01*
X75936133Y-84678231D01*
X75980448Y-84744552D01*
X76046769Y-84788867D01*
X76105252Y-84800500D01*
X77844748Y-84800500D01*
X77903231Y-84788867D01*
X77969552Y-84744552D01*
X78013867Y-84678231D01*
X78025500Y-84619748D01*
X78025500Y-83735262D01*
X78459520Y-83735262D01*
X78459772Y-83738261D01*
X78475146Y-83921340D01*
X78476759Y-83940553D01*
X78477586Y-83943435D01*
X78477586Y-83943438D01*
X78496872Y-84010697D01*
X78533544Y-84138586D01*
X78627712Y-84321818D01*
X78755677Y-84483270D01*
X78757967Y-84485219D01*
X78757968Y-84485220D01*
X78910271Y-84614840D01*
X78910274Y-84614842D01*
X78912564Y-84616791D01*
X78915190Y-84618259D01*
X78915192Y-84618260D01*
X79089774Y-84715831D01*
X79089778Y-84715833D01*
X79092398Y-84717297D01*
X79095253Y-84718225D01*
X79095256Y-84718226D01*
X79186636Y-84747917D01*
X79288329Y-84780959D01*
X79291314Y-84781315D01*
X79291319Y-84781316D01*
X79432795Y-84798185D01*
X79492894Y-84805351D01*
X79495884Y-84805121D01*
X79495887Y-84805121D01*
X79695303Y-84789777D01*
X79695307Y-84789776D01*
X79698300Y-84789546D01*
X79896725Y-84734145D01*
X80080610Y-84641258D01*
X80242951Y-84514424D01*
X80269843Y-84483270D01*
X80375597Y-84360751D01*
X80375598Y-84360750D01*
X80377564Y-84358472D01*
X80479323Y-84179344D01*
X80516499Y-84067588D01*
X80547318Y-84032010D01*
X80574855Y-84025500D01*
X83216812Y-84025500D01*
X83228810Y-84026682D01*
X83250000Y-84030897D01*
X83277132Y-84025500D01*
X83277133Y-84025500D01*
X83357495Y-84009515D01*
X83399465Y-83981471D01*
X83425622Y-83963994D01*
X83425623Y-83963993D01*
X83448624Y-83948624D01*
X83460628Y-83930659D01*
X83468276Y-83921340D01*
X89467006Y-77922610D01*
X89500872Y-77905354D01*
X89620526Y-77886403D01*
X89620527Y-77886403D01*
X89625304Y-77885646D01*
X89738342Y-77828050D01*
X89772879Y-77793513D01*
X89816366Y-77775500D01*
X94216812Y-77775500D01*
X94228810Y-77776682D01*
X94250000Y-77780897D01*
X94277132Y-77775500D01*
X94277133Y-77775500D01*
X94357495Y-77759515D01*
X94399465Y-77731471D01*
X94425622Y-77713994D01*
X94425623Y-77713993D01*
X94448624Y-77698624D01*
X94460632Y-77680653D01*
X94468277Y-77671339D01*
X96217006Y-75922610D01*
X96250872Y-75905354D01*
X96370526Y-75886403D01*
X96370527Y-75886403D01*
X96375304Y-75885646D01*
X96488342Y-75828050D01*
X96578050Y-75738342D01*
X96635646Y-75625304D01*
X96655492Y-75500000D01*
X96635646Y-75374696D01*
X96578050Y-75261658D01*
X96543513Y-75227121D01*
X96525500Y-75183634D01*
X96525500Y-72011734D01*
X103560847Y-72011734D01*
X103584414Y-72109526D01*
X103586310Y-72115032D01*
X103671396Y-72302168D01*
X103674307Y-72307231D01*
X103793241Y-72474896D01*
X103797048Y-72479307D01*
X103945548Y-72621464D01*
X103950117Y-72625073D01*
X104122824Y-72736589D01*
X104127989Y-72739266D01*
X104318664Y-72816110D01*
X104324255Y-72817766D01*
X104526716Y-72857304D01*
X104531092Y-72857836D01*
X104533704Y-72857964D01*
X104535201Y-72858000D01*
X104721266Y-72858000D01*
X104729917Y-72854417D01*
X104733500Y-72845766D01*
X104733500Y-72016234D01*
X104729917Y-72007583D01*
X104721266Y-72004000D01*
X103571217Y-72004000D01*
X103562566Y-72007583D01*
X103560847Y-72011734D01*
X96525500Y-72011734D01*
X96525500Y-71783248D01*
X101618530Y-71783248D01*
X101620600Y-71788246D01*
X101666448Y-71820350D01*
X101671077Y-71823022D01*
X101861746Y-71911933D01*
X101866773Y-71913762D01*
X102069978Y-71968211D01*
X102075248Y-71969140D01*
X102284825Y-71987476D01*
X102290175Y-71987476D01*
X102499752Y-71969140D01*
X102505022Y-71968211D01*
X102708227Y-71913762D01*
X102713254Y-71911933D01*
X102903923Y-71823022D01*
X102908552Y-71820350D01*
X102951517Y-71790265D01*
X102956548Y-71782367D01*
X102955378Y-71777088D01*
X102663254Y-71484964D01*
X103556761Y-71484964D01*
X103558794Y-71492968D01*
X103563891Y-71496000D01*
X104721266Y-71496000D01*
X104729917Y-71492417D01*
X104733500Y-71483766D01*
X104733500Y-70654234D01*
X104729917Y-70645583D01*
X104721266Y-70642000D01*
X104586128Y-70642000D01*
X104583228Y-70642138D01*
X104429940Y-70656763D01*
X104424223Y-70657864D01*
X104226964Y-70715733D01*
X104221550Y-70717898D01*
X104038788Y-70812027D01*
X104033891Y-70815171D01*
X103872228Y-70942159D01*
X103868008Y-70946178D01*
X103733274Y-71101445D01*
X103729892Y-71106186D01*
X103626948Y-71284132D01*
X103624525Y-71289423D01*
X103557087Y-71483626D01*
X103556761Y-71484964D01*
X102663254Y-71484964D01*
X102296151Y-71117861D01*
X102287500Y-71114278D01*
X102278849Y-71117861D01*
X101622113Y-71774597D01*
X101618530Y-71783248D01*
X96525500Y-71783248D01*
X96525500Y-71533188D01*
X96526682Y-71521190D01*
X96529715Y-71505942D01*
X96530897Y-71500000D01*
X96509515Y-71392505D01*
X96463994Y-71324378D01*
X96463993Y-71324377D01*
X96463992Y-71324375D01*
X96451991Y-71306414D01*
X96451989Y-71306412D01*
X96448624Y-71301376D01*
X96430659Y-71289372D01*
X96421340Y-71281724D01*
X95892291Y-70752675D01*
X101050024Y-70752675D01*
X101068360Y-70962252D01*
X101069289Y-70967522D01*
X101123738Y-71170727D01*
X101125567Y-71175754D01*
X101214478Y-71366423D01*
X101217150Y-71371052D01*
X101247235Y-71414017D01*
X101255133Y-71419048D01*
X101260412Y-71417878D01*
X101919639Y-70758651D01*
X101923222Y-70750000D01*
X102651778Y-70750000D01*
X102655361Y-70758651D01*
X103312097Y-71415387D01*
X103320748Y-71418970D01*
X103325746Y-71416900D01*
X103357850Y-71371052D01*
X103360522Y-71366423D01*
X103449433Y-71175754D01*
X103451262Y-71170727D01*
X103505711Y-70967522D01*
X103506640Y-70962252D01*
X103524976Y-70752675D01*
X103524976Y-70747325D01*
X103506640Y-70537748D01*
X103505711Y-70532478D01*
X103451262Y-70329273D01*
X103449433Y-70324246D01*
X103360522Y-70133577D01*
X103357850Y-70128948D01*
X103327765Y-70085983D01*
X103319867Y-70080952D01*
X103314588Y-70082122D01*
X102655361Y-70741349D01*
X102651778Y-70750000D01*
X101923222Y-70750000D01*
X101919639Y-70741349D01*
X101262903Y-70084613D01*
X101254252Y-70081030D01*
X101249254Y-70083100D01*
X101217150Y-70128948D01*
X101214478Y-70133577D01*
X101125567Y-70324246D01*
X101123738Y-70329273D01*
X101069289Y-70532478D01*
X101068360Y-70537748D01*
X101050024Y-70747325D01*
X101050024Y-70752675D01*
X95892291Y-70752675D01*
X94857249Y-69717633D01*
X101618452Y-69717633D01*
X101619622Y-69722912D01*
X102278849Y-70382139D01*
X102287500Y-70385722D01*
X102296151Y-70382139D01*
X102952887Y-69725403D01*
X102956470Y-69716752D01*
X102954400Y-69711754D01*
X102908552Y-69679650D01*
X102903923Y-69676978D01*
X102713254Y-69588067D01*
X102708227Y-69586238D01*
X102505022Y-69531789D01*
X102499752Y-69530860D01*
X102290175Y-69512524D01*
X102284825Y-69512524D01*
X102075248Y-69530860D01*
X102069978Y-69531789D01*
X101866773Y-69586238D01*
X101861746Y-69588067D01*
X101671077Y-69676978D01*
X101666448Y-69679650D01*
X101623483Y-69709735D01*
X101618452Y-69717633D01*
X94857249Y-69717633D01*
X93922610Y-68782994D01*
X93905354Y-68749128D01*
X93886403Y-68629474D01*
X93886403Y-68629473D01*
X93885646Y-68624696D01*
X93828050Y-68511658D01*
X93738342Y-68421950D01*
X93625304Y-68364354D01*
X93620527Y-68363597D01*
X93620526Y-68363597D01*
X93504780Y-68345265D01*
X93500000Y-68344508D01*
X93495220Y-68345265D01*
X93379474Y-68363597D01*
X93379473Y-68363597D01*
X93374696Y-68364354D01*
X93261658Y-68421950D01*
X93227121Y-68456487D01*
X93183634Y-68474500D01*
X91316366Y-68474500D01*
X91272879Y-68456487D01*
X91238342Y-68421950D01*
X91125304Y-68364354D01*
X91120527Y-68363597D01*
X91120526Y-68363597D01*
X91004780Y-68345265D01*
X91000000Y-68344508D01*
X90995220Y-68345265D01*
X90879474Y-68363597D01*
X90879473Y-68363597D01*
X90874696Y-68364354D01*
X90761658Y-68421950D01*
X90727121Y-68456487D01*
X90683634Y-68474500D01*
X89598188Y-68474500D01*
X89586193Y-68473318D01*
X89565000Y-68469103D01*
X89457506Y-68490484D01*
X89389378Y-68536006D01*
X89389377Y-68536007D01*
X89366376Y-68551376D01*
X89363011Y-68556412D01*
X89354372Y-68569341D01*
X89346724Y-68578660D01*
X86940494Y-70984890D01*
X86906628Y-71002146D01*
X86786974Y-71021097D01*
X86786973Y-71021097D01*
X86782196Y-71021854D01*
X86669158Y-71079450D01*
X86579450Y-71169158D01*
X86521854Y-71282196D01*
X86521097Y-71286973D01*
X86521097Y-71286974D01*
X86502765Y-71402720D01*
X86502008Y-71407500D01*
X86502765Y-71412280D01*
X86520956Y-71527132D01*
X86521854Y-71532804D01*
X86579450Y-71645842D01*
X86669158Y-71735550D01*
X86782196Y-71793146D01*
X86786973Y-71793903D01*
X86786974Y-71793903D01*
X86902720Y-71812235D01*
X86907500Y-71812992D01*
X86912280Y-71812235D01*
X87028026Y-71793903D01*
X87028027Y-71793903D01*
X87032804Y-71793146D01*
X87145842Y-71735550D01*
X87235550Y-71645842D01*
X87293146Y-71532804D01*
X87294045Y-71527132D01*
X87312854Y-71408372D01*
X87330110Y-71374506D01*
X89661103Y-69043513D01*
X89704590Y-69025500D01*
X90683634Y-69025500D01*
X90727121Y-69043513D01*
X90761658Y-69078050D01*
X90874696Y-69135646D01*
X90879473Y-69136403D01*
X90879474Y-69136403D01*
X90995220Y-69154735D01*
X91000000Y-69155492D01*
X91004780Y-69154735D01*
X91120526Y-69136403D01*
X91120527Y-69136403D01*
X91125304Y-69135646D01*
X91238342Y-69078050D01*
X91272879Y-69043513D01*
X91316366Y-69025500D01*
X93183634Y-69025500D01*
X93227121Y-69043513D01*
X93261658Y-69078050D01*
X93374696Y-69135646D01*
X93379473Y-69136403D01*
X93379474Y-69136403D01*
X93499128Y-69155354D01*
X93532994Y-69172610D01*
X95956487Y-71596103D01*
X95974500Y-71639590D01*
X95974500Y-75183634D01*
X95956487Y-75227121D01*
X95921950Y-75261658D01*
X95864354Y-75374696D01*
X95863597Y-75379473D01*
X95863597Y-75379474D01*
X95844646Y-75499128D01*
X95827390Y-75532994D01*
X94153897Y-77206487D01*
X94110410Y-77224500D01*
X89816366Y-77224500D01*
X89772879Y-77206487D01*
X89738342Y-77171950D01*
X89625304Y-77114354D01*
X89620527Y-77113597D01*
X89620526Y-77113597D01*
X89504780Y-77095265D01*
X89500000Y-77094508D01*
X89495220Y-77095265D01*
X89379474Y-77113597D01*
X89379473Y-77113597D01*
X89374696Y-77114354D01*
X89261658Y-77171950D01*
X89171950Y-77261658D01*
X89114354Y-77374696D01*
X89113597Y-77379473D01*
X89113597Y-77379474D01*
X89094646Y-77499128D01*
X89077390Y-77532994D01*
X83153897Y-83456487D01*
X83110410Y-83474500D01*
X80574878Y-83474500D01*
X80531391Y-83456487D01*
X80516003Y-83430776D01*
X80491805Y-83350632D01*
X80490935Y-83347749D01*
X80394218Y-83165849D01*
X80264011Y-83006200D01*
X80115423Y-82883277D01*
X80107589Y-82876796D01*
X80107587Y-82876795D01*
X80105275Y-82874882D01*
X79924055Y-82776897D01*
X79921189Y-82776010D01*
X79921187Y-82776009D01*
X79730120Y-82716864D01*
X79730118Y-82716864D01*
X79727254Y-82715977D01*
X79724270Y-82715663D01*
X79724268Y-82715663D01*
X79570484Y-82699500D01*
X79522369Y-82694443D01*
X79519380Y-82694715D01*
X79519379Y-82694715D01*
X79320200Y-82712841D01*
X79320197Y-82712841D01*
X79317203Y-82713114D01*
X79119572Y-82771280D01*
X79086645Y-82788494D01*
X78939669Y-82865331D01*
X78939664Y-82865335D01*
X78937002Y-82866726D01*
X78934658Y-82868611D01*
X78934656Y-82868612D01*
X78778790Y-82993931D01*
X78776447Y-82995815D01*
X78644024Y-83153630D01*
X78642579Y-83156259D01*
X78642578Y-83156260D01*
X78635846Y-83168505D01*
X78544776Y-83334162D01*
X78482484Y-83530532D01*
X78459520Y-83735262D01*
X78025500Y-83735262D01*
X78025500Y-82880252D01*
X78013867Y-82821769D01*
X77969552Y-82755448D01*
X77903231Y-82711133D01*
X77844748Y-82699500D01*
X76105252Y-82699500D01*
X76046769Y-82711133D01*
X75980448Y-82755448D01*
X75936133Y-82821769D01*
X75924500Y-82880252D01*
X75924500Y-84619748D01*
X73700500Y-84619748D01*
X73700500Y-69718440D01*
X76294770Y-69718440D01*
X76309200Y-69938604D01*
X76309891Y-69941327D01*
X76309892Y-69941330D01*
X76357542Y-70128948D01*
X76363511Y-70152452D01*
X76364688Y-70155005D01*
X76364689Y-70155008D01*
X76445027Y-70329273D01*
X76455883Y-70352821D01*
X76583222Y-70533002D01*
X76741264Y-70686961D01*
X76924717Y-70809540D01*
X76927306Y-70810652D01*
X76927309Y-70810654D01*
X77018967Y-70850033D01*
X77127436Y-70896635D01*
X77130179Y-70897256D01*
X77130183Y-70897257D01*
X77339886Y-70944708D01*
X77339890Y-70944708D01*
X77342632Y-70945329D01*
X77345441Y-70945439D01*
X77345446Y-70945440D01*
X77463414Y-70950074D01*
X77563098Y-70953991D01*
X77565883Y-70953587D01*
X77565887Y-70953587D01*
X77778662Y-70922736D01*
X77778667Y-70922735D01*
X77781452Y-70922331D01*
X77990379Y-70851410D01*
X77992838Y-70850033D01*
X78180431Y-70744976D01*
X78180433Y-70744975D01*
X78182884Y-70743602D01*
X78253361Y-70684987D01*
X78350355Y-70604317D01*
X78352518Y-70602518D01*
X78493602Y-70432884D01*
X78537152Y-70355121D01*
X78600033Y-70242838D01*
X78600033Y-70242837D01*
X78601410Y-70240379D01*
X78672331Y-70031452D01*
X78703991Y-69813098D01*
X78705643Y-69750000D01*
X78702743Y-69718440D01*
X82794770Y-69718440D01*
X82809200Y-69938604D01*
X82809891Y-69941327D01*
X82809892Y-69941330D01*
X82857542Y-70128948D01*
X82863511Y-70152452D01*
X82864688Y-70155005D01*
X82864689Y-70155008D01*
X82945027Y-70329273D01*
X82955883Y-70352821D01*
X83083222Y-70533002D01*
X83241264Y-70686961D01*
X83424717Y-70809540D01*
X83427306Y-70810652D01*
X83427309Y-70810654D01*
X83518967Y-70850033D01*
X83627436Y-70896635D01*
X83630179Y-70897256D01*
X83630183Y-70897257D01*
X83839886Y-70944708D01*
X83839890Y-70944708D01*
X83842632Y-70945329D01*
X83845441Y-70945439D01*
X83845446Y-70945440D01*
X83963414Y-70950074D01*
X84063098Y-70953991D01*
X84065883Y-70953587D01*
X84065887Y-70953587D01*
X84278662Y-70922736D01*
X84278667Y-70922735D01*
X84281452Y-70922331D01*
X84490379Y-70851410D01*
X84492838Y-70850033D01*
X84680431Y-70744976D01*
X84680433Y-70744975D01*
X84682884Y-70743602D01*
X84753361Y-70684987D01*
X84850355Y-70604317D01*
X84852518Y-70602518D01*
X84993602Y-70432884D01*
X85037152Y-70355121D01*
X85100033Y-70242838D01*
X85100033Y-70242837D01*
X85101410Y-70240379D01*
X85172331Y-70031452D01*
X85203991Y-69813098D01*
X85205643Y-69750000D01*
X85185454Y-69530289D01*
X85177513Y-69502130D01*
X85126330Y-69320648D01*
X85126329Y-69320647D01*
X85125565Y-69317936D01*
X85027980Y-69120053D01*
X84895967Y-68943267D01*
X84893899Y-68941355D01*
X84893896Y-68941352D01*
X84736016Y-68795410D01*
X84733949Y-68793499D01*
X84547350Y-68675764D01*
X84544737Y-68674721D01*
X84544732Y-68674719D01*
X84345040Y-68595051D01*
X84345041Y-68595051D01*
X84342421Y-68594006D01*
X84339657Y-68593456D01*
X84339653Y-68593455D01*
X84128794Y-68551513D01*
X84126024Y-68550962D01*
X84123204Y-68550925D01*
X84123203Y-68550925D01*
X84064193Y-68550153D01*
X83905406Y-68548074D01*
X83902636Y-68548550D01*
X83902635Y-68548550D01*
X83690730Y-68584961D01*
X83690725Y-68584962D01*
X83687957Y-68585438D01*
X83685319Y-68586411D01*
X83685316Y-68586412D01*
X83511425Y-68650564D01*
X83480957Y-68661804D01*
X83478535Y-68663245D01*
X83293764Y-68773172D01*
X83293760Y-68773175D01*
X83291341Y-68774614D01*
X83271521Y-68791996D01*
X83127575Y-68918232D01*
X83127572Y-68918235D01*
X83125457Y-68920090D01*
X83123715Y-68922300D01*
X83123712Y-68922303D01*
X83107186Y-68943267D01*
X82988863Y-69093360D01*
X82987550Y-69095855D01*
X82987549Y-69095857D01*
X82947167Y-69172610D01*
X82886131Y-69288620D01*
X82820703Y-69499333D01*
X82794770Y-69718440D01*
X78702743Y-69718440D01*
X78685454Y-69530289D01*
X78677513Y-69502130D01*
X78626330Y-69320648D01*
X78626329Y-69320647D01*
X78625565Y-69317936D01*
X78527980Y-69120053D01*
X78395967Y-68943267D01*
X78393899Y-68941355D01*
X78393896Y-68941352D01*
X78236016Y-68795410D01*
X78233949Y-68793499D01*
X78047350Y-68675764D01*
X78044737Y-68674721D01*
X78044732Y-68674719D01*
X77845040Y-68595051D01*
X77845041Y-68595051D01*
X77842421Y-68594006D01*
X77839657Y-68593456D01*
X77839653Y-68593455D01*
X77628794Y-68551513D01*
X77626024Y-68550962D01*
X77623204Y-68550925D01*
X77623203Y-68550925D01*
X77564193Y-68550153D01*
X77405406Y-68548074D01*
X77402636Y-68548550D01*
X77402635Y-68548550D01*
X77190730Y-68584961D01*
X77190725Y-68584962D01*
X77187957Y-68585438D01*
X77185319Y-68586411D01*
X77185316Y-68586412D01*
X77011425Y-68650564D01*
X76980957Y-68661804D01*
X76978535Y-68663245D01*
X76793764Y-68773172D01*
X76793760Y-68773175D01*
X76791341Y-68774614D01*
X76771521Y-68791996D01*
X76627575Y-68918232D01*
X76627572Y-68918235D01*
X76625457Y-68920090D01*
X76623715Y-68922300D01*
X76623712Y-68922303D01*
X76607186Y-68943267D01*
X76488863Y-69093360D01*
X76487550Y-69095855D01*
X76487549Y-69095857D01*
X76447167Y-69172610D01*
X76386131Y-69288620D01*
X76320703Y-69499333D01*
X76294770Y-69718440D01*
X73700500Y-69718440D01*
X73700500Y-66783248D01*
X101618530Y-66783248D01*
X101620600Y-66788246D01*
X101666448Y-66820350D01*
X101671077Y-66823022D01*
X101861746Y-66911933D01*
X101866773Y-66913762D01*
X102069978Y-66968211D01*
X102075248Y-66969140D01*
X102284825Y-66987476D01*
X102290175Y-66987476D01*
X102499752Y-66969140D01*
X102505022Y-66968211D01*
X102708227Y-66913762D01*
X102713254Y-66911933D01*
X102903923Y-66823022D01*
X102908552Y-66820350D01*
X102951517Y-66790265D01*
X102956548Y-66782367D01*
X102955378Y-66777088D01*
X102296151Y-66117861D01*
X102287500Y-66114278D01*
X102278849Y-66117861D01*
X101622113Y-66774597D01*
X101618530Y-66783248D01*
X73700500Y-66783248D01*
X73700500Y-66483102D01*
X76631176Y-66483102D01*
X76632899Y-66487264D01*
X76811210Y-66596534D01*
X76815489Y-66598714D01*
X77030334Y-66687706D01*
X77034905Y-66689191D01*
X77261013Y-66743475D01*
X77265785Y-66744230D01*
X77497586Y-66762473D01*
X77502414Y-66762473D01*
X77734215Y-66744230D01*
X77738987Y-66743475D01*
X77965095Y-66689191D01*
X77969666Y-66687706D01*
X78184511Y-66598714D01*
X78188790Y-66596534D01*
X78363462Y-66489493D01*
X78368106Y-66483102D01*
X83131176Y-66483102D01*
X83132899Y-66487264D01*
X83311210Y-66596534D01*
X83315489Y-66598714D01*
X83530334Y-66687706D01*
X83534905Y-66689191D01*
X83761013Y-66743475D01*
X83765785Y-66744230D01*
X83997586Y-66762473D01*
X84002414Y-66762473D01*
X84234215Y-66744230D01*
X84238987Y-66743475D01*
X84465095Y-66689191D01*
X84469666Y-66687706D01*
X84684511Y-66598714D01*
X84688790Y-66596534D01*
X84863462Y-66489493D01*
X84868965Y-66481920D01*
X84868260Y-66477470D01*
X84008651Y-65617861D01*
X84000000Y-65614278D01*
X83991349Y-65617861D01*
X83134759Y-66474451D01*
X83131176Y-66483102D01*
X78368106Y-66483102D01*
X78368965Y-66481920D01*
X78368260Y-66477470D01*
X77508651Y-65617861D01*
X77500000Y-65614278D01*
X77491349Y-65617861D01*
X76634759Y-66474451D01*
X76631176Y-66483102D01*
X73700500Y-66483102D01*
X73700500Y-65252414D01*
X75987527Y-65252414D01*
X76005770Y-65484215D01*
X76006525Y-65488987D01*
X76060809Y-65715095D01*
X76062294Y-65719666D01*
X76151286Y-65934511D01*
X76153466Y-65938790D01*
X76260507Y-66113462D01*
X76268080Y-66118965D01*
X76272530Y-66118260D01*
X77132139Y-65258651D01*
X77135722Y-65250000D01*
X77864278Y-65250000D01*
X77867861Y-65258651D01*
X78724451Y-66115241D01*
X78733102Y-66118824D01*
X78737264Y-66117101D01*
X78846534Y-65938790D01*
X78848714Y-65934511D01*
X78937706Y-65719666D01*
X78939191Y-65715095D01*
X78993475Y-65488987D01*
X78994230Y-65484215D01*
X79012473Y-65252414D01*
X82487527Y-65252414D01*
X82505770Y-65484215D01*
X82506525Y-65488987D01*
X82560809Y-65715095D01*
X82562294Y-65719666D01*
X82651286Y-65934511D01*
X82653466Y-65938790D01*
X82760507Y-66113462D01*
X82768080Y-66118965D01*
X82772530Y-66118260D01*
X83632139Y-65258651D01*
X83635722Y-65250000D01*
X84364278Y-65250000D01*
X84367861Y-65258651D01*
X85224451Y-66115241D01*
X85233102Y-66118824D01*
X85237264Y-66117101D01*
X85346534Y-65938790D01*
X85348714Y-65934511D01*
X85424033Y-65752675D01*
X101050024Y-65752675D01*
X101068360Y-65962252D01*
X101069289Y-65967522D01*
X101123738Y-66170727D01*
X101125567Y-66175754D01*
X101214478Y-66366423D01*
X101217150Y-66371052D01*
X101247235Y-66414017D01*
X101255133Y-66419048D01*
X101260412Y-66417878D01*
X101919639Y-65758651D01*
X101923222Y-65750000D01*
X102651778Y-65750000D01*
X102655361Y-65758651D01*
X103312097Y-66415387D01*
X103320748Y-66418970D01*
X103325746Y-66416900D01*
X103357850Y-66371052D01*
X103360522Y-66366423D01*
X103449433Y-66175754D01*
X103451262Y-66170727D01*
X103505711Y-65967522D01*
X103506640Y-65962252D01*
X103524976Y-65752675D01*
X103524976Y-65747325D01*
X103506640Y-65537748D01*
X103505711Y-65532478D01*
X103451262Y-65329273D01*
X103449433Y-65324246D01*
X103360522Y-65133577D01*
X103357850Y-65128948D01*
X103327765Y-65085983D01*
X103319867Y-65080952D01*
X103314588Y-65082122D01*
X102655361Y-65741349D01*
X102651778Y-65750000D01*
X101923222Y-65750000D01*
X101919639Y-65741349D01*
X101262903Y-65084613D01*
X101254252Y-65081030D01*
X101249254Y-65083100D01*
X101217150Y-65128948D01*
X101214478Y-65133577D01*
X101125567Y-65324246D01*
X101123738Y-65329273D01*
X101069289Y-65532478D01*
X101068360Y-65537748D01*
X101050024Y-65747325D01*
X101050024Y-65752675D01*
X85424033Y-65752675D01*
X85437706Y-65719666D01*
X85439191Y-65715095D01*
X85493475Y-65488987D01*
X85494230Y-65484215D01*
X85512473Y-65252414D01*
X85512473Y-65247586D01*
X85494230Y-65015785D01*
X85493475Y-65011013D01*
X85439191Y-64784905D01*
X85437706Y-64780334D01*
X85411734Y-64717633D01*
X101618452Y-64717633D01*
X101619622Y-64722912D01*
X102278849Y-65382139D01*
X102287500Y-65385722D01*
X102296151Y-65382139D01*
X102666556Y-65011734D01*
X103560847Y-65011734D01*
X103584414Y-65109526D01*
X103586310Y-65115032D01*
X103671396Y-65302168D01*
X103674307Y-65307231D01*
X103793241Y-65474896D01*
X103797048Y-65479307D01*
X103945548Y-65621464D01*
X103950117Y-65625073D01*
X104122824Y-65736589D01*
X104127989Y-65739266D01*
X104318664Y-65816110D01*
X104324255Y-65817766D01*
X104526716Y-65857304D01*
X104531092Y-65857836D01*
X104533704Y-65857964D01*
X104535201Y-65858000D01*
X104721266Y-65858000D01*
X104729917Y-65854417D01*
X104733500Y-65845766D01*
X104733500Y-65016234D01*
X104729917Y-65007583D01*
X104721266Y-65004000D01*
X103571217Y-65004000D01*
X103562566Y-65007583D01*
X103560847Y-65011734D01*
X102666556Y-65011734D01*
X102952887Y-64725403D01*
X102956470Y-64716752D01*
X102954400Y-64711754D01*
X102908552Y-64679650D01*
X102903923Y-64676978D01*
X102713254Y-64588067D01*
X102708227Y-64586238D01*
X102505022Y-64531789D01*
X102499752Y-64530860D01*
X102290175Y-64512524D01*
X102284825Y-64512524D01*
X102075248Y-64530860D01*
X102069978Y-64531789D01*
X101866773Y-64586238D01*
X101861746Y-64588067D01*
X101671077Y-64676978D01*
X101666448Y-64679650D01*
X101623483Y-64709735D01*
X101618452Y-64717633D01*
X85411734Y-64717633D01*
X85348714Y-64565489D01*
X85346534Y-64561210D01*
X85299810Y-64484964D01*
X103556761Y-64484964D01*
X103558794Y-64492968D01*
X103563891Y-64496000D01*
X104721266Y-64496000D01*
X104729917Y-64492417D01*
X104733500Y-64483766D01*
X104733500Y-63654234D01*
X104729917Y-63645583D01*
X104721266Y-63642000D01*
X104586128Y-63642000D01*
X104583228Y-63642138D01*
X104429940Y-63656763D01*
X104424223Y-63657864D01*
X104226964Y-63715733D01*
X104221550Y-63717898D01*
X104038788Y-63812027D01*
X104033891Y-63815171D01*
X103872228Y-63942159D01*
X103868008Y-63946178D01*
X103733274Y-64101445D01*
X103729892Y-64106186D01*
X103626948Y-64284132D01*
X103624525Y-64289423D01*
X103557087Y-64483626D01*
X103556761Y-64484964D01*
X85299810Y-64484964D01*
X85239493Y-64386538D01*
X85231920Y-64381035D01*
X85227470Y-64381740D01*
X84367861Y-65241349D01*
X84364278Y-65250000D01*
X83635722Y-65250000D01*
X83632139Y-65241349D01*
X82775549Y-64384759D01*
X82766898Y-64381176D01*
X82762736Y-64382899D01*
X82653466Y-64561210D01*
X82651286Y-64565489D01*
X82562294Y-64780334D01*
X82560809Y-64784905D01*
X82506525Y-65011013D01*
X82505770Y-65015785D01*
X82487527Y-65247586D01*
X82487527Y-65252414D01*
X79012473Y-65252414D01*
X79012473Y-65247586D01*
X78994230Y-65015785D01*
X78993475Y-65011013D01*
X78939191Y-64784905D01*
X78937706Y-64780334D01*
X78848714Y-64565489D01*
X78846534Y-64561210D01*
X78739493Y-64386538D01*
X78731920Y-64381035D01*
X78727470Y-64381740D01*
X77867861Y-65241349D01*
X77864278Y-65250000D01*
X77135722Y-65250000D01*
X77132139Y-65241349D01*
X76275549Y-64384759D01*
X76266898Y-64381176D01*
X76262736Y-64382899D01*
X76153466Y-64561210D01*
X76151286Y-64565489D01*
X76062294Y-64780334D01*
X76060809Y-64784905D01*
X76006525Y-65011013D01*
X76005770Y-65015785D01*
X75987527Y-65247586D01*
X75987527Y-65252414D01*
X73700500Y-65252414D01*
X73700500Y-64018080D01*
X76631035Y-64018080D01*
X76631740Y-64022530D01*
X77491349Y-64882139D01*
X77500000Y-64885722D01*
X77508651Y-64882139D01*
X78365241Y-64025549D01*
X78368334Y-64018080D01*
X83131035Y-64018080D01*
X83131740Y-64022530D01*
X83991349Y-64882139D01*
X84000000Y-64885722D01*
X84008651Y-64882139D01*
X84865241Y-64025549D01*
X84868824Y-64016898D01*
X84867101Y-64012736D01*
X84688790Y-63903466D01*
X84684511Y-63901286D01*
X84469666Y-63812294D01*
X84465095Y-63810809D01*
X84238987Y-63756525D01*
X84234215Y-63755770D01*
X84002414Y-63737527D01*
X83997586Y-63737527D01*
X83765785Y-63755770D01*
X83761013Y-63756525D01*
X83534905Y-63810809D01*
X83530334Y-63812294D01*
X83315489Y-63901286D01*
X83311210Y-63903466D01*
X83136538Y-64010507D01*
X83131035Y-64018080D01*
X78368334Y-64018080D01*
X78368824Y-64016898D01*
X78367101Y-64012736D01*
X78188790Y-63903466D01*
X78184511Y-63901286D01*
X77969666Y-63812294D01*
X77965095Y-63810809D01*
X77738987Y-63756525D01*
X77734215Y-63755770D01*
X77502414Y-63737527D01*
X77497586Y-63737527D01*
X77265785Y-63755770D01*
X77261013Y-63756525D01*
X77034905Y-63810809D01*
X77030334Y-63812294D01*
X76815489Y-63901286D01*
X76811210Y-63903466D01*
X76636538Y-64010507D01*
X76631035Y-64018080D01*
X73700500Y-64018080D01*
X73700500Y-62262000D01*
X73718513Y-62218513D01*
X73762000Y-62200500D01*
X106238000Y-62200500D01*
X106281487Y-62218513D01*
G37*
%TD.AperFunction*%
%TD*%
M02*
