%TF.GenerationSoftware,KiCad,Pcbnew,(6.0.11)*%
%TF.CreationDate,2023-02-27T16:04:50+00:00*%
%TF.ProjectId,HackSoc Workshop,4861636b-536f-4632-9057-6f726b73686f,rev?*%
%TF.SameCoordinates,Original*%
%TF.FileFunction,Paste,Top*%
%TF.FilePolarity,Positive*%
%FSLAX46Y46*%
G04 Gerber Fmt 4.6, Leading zero omitted, Abs format (unit mm)*
G04 Created by KiCad (PCBNEW (6.0.11)) date 2023-02-27 16:04:50*
%MOMM*%
%LPD*%
G01*
G04 APERTURE LIST*
G04 Aperture macros list*
%AMRoundRect*
0 Rectangle with rounded corners*
0 $1 Rounding radius*
0 $2 $3 $4 $5 $6 $7 $8 $9 X,Y pos of 4 corners*
0 Add a 4 corners polygon primitive as box body*
4,1,4,$2,$3,$4,$5,$6,$7,$8,$9,$2,$3,0*
0 Add four circle primitives for the rounded corners*
1,1,$1+$1,$2,$3*
1,1,$1+$1,$4,$5*
1,1,$1+$1,$6,$7*
1,1,$1+$1,$8,$9*
0 Add four rect primitives between the rounded corners*
20,1,$1+$1,$2,$3,$4,$5,0*
20,1,$1+$1,$4,$5,$6,$7,0*
20,1,$1+$1,$6,$7,$8,$9,0*
20,1,$1+$1,$8,$9,$2,$3,0*%
G04 Aperture macros list end*
%ADD10RoundRect,0.200000X-0.200000X-0.275000X0.200000X-0.275000X0.200000X0.275000X-0.200000X0.275000X0*%
%ADD11RoundRect,0.225000X-0.225000X-0.250000X0.225000X-0.250000X0.225000X0.250000X-0.225000X0.250000X0*%
%ADD12RoundRect,0.225000X0.225000X0.250000X-0.225000X0.250000X-0.225000X-0.250000X0.225000X-0.250000X0*%
%ADD13RoundRect,0.243750X0.456250X-0.243750X0.456250X0.243750X-0.456250X0.243750X-0.456250X-0.243750X0*%
%ADD14RoundRect,0.200000X-0.275000X0.200000X-0.275000X-0.200000X0.275000X-0.200000X0.275000X0.200000X0*%
%ADD15RoundRect,0.200000X0.275000X-0.200000X0.275000X0.200000X-0.275000X0.200000X-0.275000X-0.200000X0*%
%ADD16R,1.350000X0.400000*%
%ADD17R,1.900000X1.500000*%
%ADD18R,1.700000X2.100000*%
%ADD19RoundRect,0.250000X-0.275000X0.275000X-0.275000X-0.275000X0.275000X-0.275000X0.275000X0.275000X0*%
%ADD20RoundRect,0.062500X-0.062500X0.475000X-0.062500X-0.475000X0.062500X-0.475000X0.062500X0.475000X0*%
%ADD21RoundRect,0.062500X-0.475000X0.062500X-0.475000X-0.062500X0.475000X-0.062500X0.475000X0.062500X0*%
G04 APERTURE END LIST*
D10*
%TO.C,R3*%
X95175000Y-64500000D03*
X96825000Y-64500000D03*
%TD*%
D11*
%TO.C,C1*%
X88750000Y-64500000D03*
X90300000Y-64500000D03*
%TD*%
D12*
%TO.C,C4*%
X84025000Y-74000000D03*
X82475000Y-74000000D03*
%TD*%
D13*
%TO.C,D4*%
X93587500Y-85412500D03*
X93587500Y-83537500D03*
%TD*%
%TO.C,D2*%
X88587500Y-85412500D03*
X88587500Y-83537500D03*
%TD*%
D14*
%TO.C,R5*%
X86087500Y-87475000D03*
X86087500Y-89125000D03*
%TD*%
%TO.C,R12*%
X103587500Y-87475000D03*
X103587500Y-89125000D03*
%TD*%
%TO.C,R11*%
X101087500Y-87475000D03*
X101087500Y-89125000D03*
%TD*%
D15*
%TO.C,R1*%
X86250000Y-70000000D03*
X86250000Y-68350000D03*
%TD*%
D13*
%TO.C,D8*%
X103587500Y-85412500D03*
X103587500Y-83537500D03*
%TD*%
D14*
%TO.C,R10*%
X98587500Y-87475000D03*
X98587500Y-89125000D03*
%TD*%
D13*
%TO.C,D1*%
X86087500Y-85412500D03*
X86087500Y-83537500D03*
%TD*%
D10*
%TO.C,R4*%
X98400000Y-79750000D03*
X100050000Y-79750000D03*
%TD*%
D16*
%TO.C,J1*%
X102287500Y-69550000D03*
X102287500Y-68900000D03*
X102287500Y-68250000D03*
X102287500Y-67600000D03*
X102287500Y-66950000D03*
D17*
X104987500Y-67250000D03*
X104987500Y-69250000D03*
%TD*%
D18*
%TO.C,Y1*%
X79650000Y-79950000D03*
X79650000Y-74050000D03*
X76950000Y-74050000D03*
X76950000Y-79950000D03*
%TD*%
D13*
%TO.C,D7*%
X101087500Y-85412500D03*
X101087500Y-83537500D03*
%TD*%
D14*
%TO.C,R7*%
X91087500Y-87475000D03*
X91087500Y-89125000D03*
%TD*%
D13*
%TO.C,D5*%
X96087500Y-85412500D03*
X96087500Y-83537500D03*
%TD*%
D14*
%TO.C,R9*%
X96087500Y-87475000D03*
X96087500Y-89125000D03*
%TD*%
D19*
%TO.C,U1*%
X90850000Y-70957500D03*
X92150000Y-72257500D03*
X89550000Y-74857500D03*
X89550000Y-72257500D03*
X93450000Y-70957500D03*
X93450000Y-72257500D03*
X90850000Y-72257500D03*
X92150000Y-74857500D03*
X90850000Y-73557500D03*
X89550000Y-70957500D03*
X92150000Y-70957500D03*
X93450000Y-73557500D03*
X90850000Y-74857500D03*
X93450000Y-74857500D03*
X92150000Y-73557500D03*
X89550000Y-73557500D03*
D20*
X94000000Y-69570000D03*
X93500000Y-69570000D03*
X93000000Y-69570000D03*
X92500000Y-69570000D03*
X92000000Y-69570000D03*
X91500000Y-69570000D03*
X91000000Y-69570000D03*
X90500000Y-69570000D03*
X90000000Y-69570000D03*
X89500000Y-69570000D03*
X89000000Y-69570000D03*
D21*
X88162500Y-70407500D03*
X88162500Y-70907500D03*
X88162500Y-71407500D03*
X88162500Y-71907500D03*
X88162500Y-72407500D03*
X88162500Y-72907500D03*
X88162500Y-73407500D03*
X88162500Y-73907500D03*
X88162500Y-74407500D03*
X88162500Y-74907500D03*
X88162500Y-75407500D03*
D20*
X89000000Y-76245000D03*
X89500000Y-76245000D03*
X90000000Y-76245000D03*
X90500000Y-76245000D03*
X91000000Y-76245000D03*
X91500000Y-76245000D03*
X92000000Y-76245000D03*
X92500000Y-76245000D03*
X93000000Y-76245000D03*
X93500000Y-76245000D03*
X94000000Y-76245000D03*
D21*
X94837500Y-75407500D03*
X94837500Y-74907500D03*
X94837500Y-74407500D03*
X94837500Y-73907500D03*
X94837500Y-73407500D03*
X94837500Y-72907500D03*
X94837500Y-72407500D03*
X94837500Y-71907500D03*
X94837500Y-71407500D03*
X94837500Y-70907500D03*
X94837500Y-70407500D03*
%TD*%
D13*
%TO.C,D3*%
X91187500Y-85412500D03*
X91187500Y-83537500D03*
%TD*%
D11*
%TO.C,C2*%
X98475000Y-78400000D03*
X100025000Y-78400000D03*
%TD*%
D13*
%TO.C,D6*%
X98587500Y-85412500D03*
X98587500Y-83537500D03*
%TD*%
D14*
%TO.C,R8*%
X93587500Y-87475000D03*
X93587500Y-89125000D03*
%TD*%
D12*
%TO.C,C3*%
X84025000Y-72500000D03*
X82475000Y-72500000D03*
%TD*%
D10*
%TO.C,R2*%
X91925000Y-64500000D03*
X93575000Y-64500000D03*
%TD*%
D14*
%TO.C,R6*%
X88587500Y-87475000D03*
X88587500Y-89125000D03*
%TD*%
M02*
