M48
; DRILL file {KiCad (6.0.11)} date Mon 27 Feb 2023 16:04:52 GMT
; FORMAT={-:-/ absolute / inch / decimal}
; #@! TF.CreationDate,2023-02-27T16:04:52+00:00
; #@! TF.GenerationSoftware,Kicad,Pcbnew,(6.0.11)
; #@! TF.FileFunction,Plated,1,2,PTH
FMAT,2
INCH
; #@! TA.AperFunction,Plated,PTH,ViaDrill
T1C0.0079
; #@! TA.AperFunction,Plated,PTH,ComponentDrill
T2C0.0236
; #@! TA.AperFunction,Plated,PTH,ComponentDrill
T3C0.0335
; #@! TA.AperFunction,Plated,PTH,ComponentDrill
T4C0.0394
; #@! TA.AperFunction,Plated,PTH,ComponentDrill
T5C0.0433
%
G90
G05
T1
X3.4216Y-2.8113
X3.4547Y-2.5
X3.5039Y-3.0315
X3.5236Y-3.0512
X3.5827Y-2.7067
X3.6811Y-2.7067
X3.7894Y-2.9724
T3
X4.0271Y-2.5886
X4.0271Y-2.7854
T4
X3.0305Y-3.2972
X3.0305Y-3.3972
X3.0305Y-3.4972
X3.1305Y-3.2972
X3.1305Y-3.3972
X3.1305Y-3.4972
T5
X3.0413Y-3.6516
X3.0413Y-3.8287
X3.0413Y-3.9862
X3.0413Y-4.1634
X3.0512Y-2.5689
X3.0512Y-2.7461
X3.2972Y-3.6516
X3.2972Y-3.8287
X3.2972Y-3.9862
X3.2972Y-4.1634
X3.3071Y-2.5689
X3.3071Y-2.7461
X3.4154Y-3.6516
X3.4154Y-3.8287
X3.4154Y-3.9862
X3.4154Y-4.1634
X3.6713Y-3.6516
X3.6713Y-3.8287
X3.6713Y-3.9862
X3.6713Y-4.1634
X3.7894Y-3.6516
X3.7894Y-3.8287
X3.7894Y-3.9862
X3.7894Y-4.1634
X4.0453Y-3.6516
X4.0453Y-3.8287
X4.0453Y-3.9862
X4.0453Y-4.1634
T2
G00X4.1196Y-2.5492
M15
G01X4.1471Y-2.5492
M16
G05
G00X4.1471Y-2.8248
M15
G01X4.1196Y-2.8248
M16
G05
T0
M30
