%TF.GenerationSoftware,KiCad,Pcbnew,(6.0.11)*%
%TF.CreationDate,2023-02-27T16:04:50+00:00*%
%TF.ProjectId,HackSoc Workshop,4861636b-536f-4632-9057-6f726b73686f,rev?*%
%TF.SameCoordinates,Original*%
%TF.FileFunction,Copper,L1,Top*%
%TF.FilePolarity,Positive*%
%FSLAX46Y46*%
G04 Gerber Fmt 4.6, Leading zero omitted, Abs format (unit mm)*
G04 Created by KiCad (PCBNEW (6.0.11)) date 2023-02-27 16:04:50*
%MOMM*%
%LPD*%
G01*
G04 APERTURE LIST*
G04 Aperture macros list*
%AMRoundRect*
0 Rectangle with rounded corners*
0 $1 Rounding radius*
0 $2 $3 $4 $5 $6 $7 $8 $9 X,Y pos of 4 corners*
0 Add a 4 corners polygon primitive as box body*
4,1,4,$2,$3,$4,$5,$6,$7,$8,$9,$2,$3,0*
0 Add four circle primitives for the rounded corners*
1,1,$1+$1,$2,$3*
1,1,$1+$1,$4,$5*
1,1,$1+$1,$6,$7*
1,1,$1+$1,$8,$9*
0 Add four rect primitives between the rounded corners*
20,1,$1+$1,$2,$3,$4,$5,0*
20,1,$1+$1,$4,$5,$6,$7,0*
20,1,$1+$1,$6,$7,$8,$9,0*
20,1,$1+$1,$8,$9,$2,$3,0*%
G04 Aperture macros list end*
%TA.AperFunction,ComponentPad*%
%ADD10R,1.700000X1.700000*%
%TD*%
%TA.AperFunction,ComponentPad*%
%ADD11O,1.700000X1.700000*%
%TD*%
%TA.AperFunction,ComponentPad*%
%ADD12C,2.000000*%
%TD*%
%TA.AperFunction,SMDPad,CuDef*%
%ADD13RoundRect,0.200000X-0.200000X-0.275000X0.200000X-0.275000X0.200000X0.275000X-0.200000X0.275000X0*%
%TD*%
%TA.AperFunction,SMDPad,CuDef*%
%ADD14RoundRect,0.225000X-0.225000X-0.250000X0.225000X-0.250000X0.225000X0.250000X-0.225000X0.250000X0*%
%TD*%
%TA.AperFunction,SMDPad,CuDef*%
%ADD15RoundRect,0.225000X0.225000X0.250000X-0.225000X0.250000X-0.225000X-0.250000X0.225000X-0.250000X0*%
%TD*%
%TA.AperFunction,SMDPad,CuDef*%
%ADD16RoundRect,0.243750X0.456250X-0.243750X0.456250X0.243750X-0.456250X0.243750X-0.456250X-0.243750X0*%
%TD*%
%TA.AperFunction,SMDPad,CuDef*%
%ADD17RoundRect,0.200000X-0.275000X0.200000X-0.275000X-0.200000X0.275000X-0.200000X0.275000X0.200000X0*%
%TD*%
%TA.AperFunction,SMDPad,CuDef*%
%ADD18RoundRect,0.200000X0.275000X-0.200000X0.275000X0.200000X-0.275000X0.200000X-0.275000X-0.200000X0*%
%TD*%
%TA.AperFunction,SMDPad,CuDef*%
%ADD19R,1.350000X0.400000*%
%TD*%
%TA.AperFunction,SMDPad,CuDef*%
%ADD20R,1.900000X1.500000*%
%TD*%
%TA.AperFunction,ComponentPad*%
%ADD21O,1.900000X1.200000*%
%TD*%
%TA.AperFunction,ComponentPad*%
%ADD22C,1.450000*%
%TD*%
%TA.AperFunction,SMDPad,CuDef*%
%ADD23R,1.900000X1.200000*%
%TD*%
%TA.AperFunction,SMDPad,CuDef*%
%ADD24R,1.700000X2.100000*%
%TD*%
%TA.AperFunction,SMDPad,CuDef*%
%ADD25RoundRect,0.062500X-0.062500X0.475000X-0.062500X-0.475000X0.062500X-0.475000X0.062500X0.475000X0*%
%TD*%
%TA.AperFunction,SMDPad,CuDef*%
%ADD26RoundRect,0.062500X-0.475000X0.062500X-0.475000X-0.062500X0.475000X-0.062500X0.475000X0.062500X0*%
%TD*%
%TA.AperFunction,SMDPad,CuDef*%
%ADD27R,5.200000X5.200000*%
%TD*%
%TA.AperFunction,ViaPad*%
%ADD28C,0.400000*%
%TD*%
%TA.AperFunction,Conductor*%
%ADD29C,0.150000*%
%TD*%
G04 APERTURE END LIST*
D10*
%TO.P,J2,1,Pin_1*%
%TO.N,Net-(J2-Pad1)*%
X76975000Y-83750000D03*
D11*
%TO.P,J2,2,Pin_2*%
%TO.N,VCC*%
X79515000Y-83750000D03*
%TO.P,J2,3,Pin_3*%
%TO.N,Net-(J2-Pad3)*%
X76975000Y-86290000D03*
%TO.P,J2,4,Pin_4*%
%TO.N,Net-(J2-Pad4)*%
X79515000Y-86290000D03*
%TO.P,J2,5,Pin_5*%
%TO.N,Net-(J2-Pad5)*%
X76975000Y-88830000D03*
%TO.P,J2,6,Pin_6*%
%TO.N,GND*%
X79515000Y-88830000D03*
%TD*%
D12*
%TO.P,SW7,1,1*%
%TO.N,Net-(SW7-Pad1)*%
X96250000Y-101250000D03*
X102750000Y-101250000D03*
%TO.P,SW7,2,2*%
%TO.N,GND*%
X96250000Y-105750000D03*
X102750000Y-105750000D03*
%TD*%
%TO.P,SW6,1,1*%
%TO.N,Net-(SW6-Pad1)*%
X86750000Y-101250000D03*
X93250000Y-101250000D03*
%TO.P,SW6,2,2*%
%TO.N,GND*%
X86750000Y-105750000D03*
X93250000Y-105750000D03*
%TD*%
%TO.P,SW5,1,1*%
%TO.N,Net-(SW5-Pad1)*%
X77250000Y-101250000D03*
X83750000Y-101250000D03*
%TO.P,SW5,2,2*%
%TO.N,GND*%
X77250000Y-105750000D03*
X83750000Y-105750000D03*
%TD*%
%TO.P,SW4,1,1*%
%TO.N,Net-(SW4-Pad1)*%
X96250000Y-92750000D03*
X102750000Y-92750000D03*
%TO.P,SW4,2,2*%
%TO.N,GND*%
X96250000Y-97250000D03*
X102750000Y-97250000D03*
%TD*%
%TO.P,SW3,1,1*%
%TO.N,Net-(SW3-Pad1)*%
X86750000Y-92750000D03*
X93250000Y-92750000D03*
%TO.P,SW3,2,2*%
%TO.N,GND*%
X86750000Y-97250000D03*
X93250000Y-97250000D03*
%TD*%
%TO.P,SW2,1,1*%
%TO.N,Net-(SW2-Pad1)*%
X77250000Y-92750000D03*
X83750000Y-92750000D03*
%TO.P,SW2,2,2*%
%TO.N,GND*%
X77250000Y-97250000D03*
X83750000Y-97250000D03*
%TD*%
%TO.P,SW1,1,1*%
%TO.N,GND*%
X77500000Y-65250000D03*
X84000000Y-65250000D03*
%TO.P,SW1,2,2*%
%TO.N,Net-(J2-Pad5)*%
X77500000Y-69750000D03*
X84000000Y-69750000D03*
%TD*%
D13*
%TO.P,R3,1*%
%TO.N,Net-(R3-Pad1)*%
X95175000Y-64500000D03*
%TO.P,R3,2*%
%TO.N,Net-(J1-Pad2)*%
X96825000Y-64500000D03*
%TD*%
D14*
%TO.P,C1,1*%
%TO.N,GND*%
X88750000Y-64500000D03*
%TO.P,C1,2*%
%TO.N,Net-(C1-Pad2)*%
X90300000Y-64500000D03*
%TD*%
D15*
%TO.P,C4,1*%
%TO.N,XTAL1*%
X84025000Y-74000000D03*
%TO.P,C4,2*%
%TO.N,GND*%
X82475000Y-74000000D03*
%TD*%
D16*
%TO.P,D4,1,K*%
%TO.N,Net-(D4-Pad1)*%
X93587500Y-85412500D03*
%TO.P,D4,2,A*%
%TO.N,Net-(D4-Pad2)*%
X93587500Y-83537500D03*
%TD*%
%TO.P,D2,1,K*%
%TO.N,Net-(D2-Pad1)*%
X88587500Y-85412500D03*
%TO.P,D2,2,A*%
%TO.N,Net-(D2-Pad2)*%
X88587500Y-83537500D03*
%TD*%
D17*
%TO.P,R5,1*%
%TO.N,Net-(D1-Pad1)*%
X86087500Y-87475000D03*
%TO.P,R5,2*%
%TO.N,GND*%
X86087500Y-89125000D03*
%TD*%
%TO.P,R12,1*%
%TO.N,Net-(D8-Pad1)*%
X103587500Y-87475000D03*
%TO.P,R12,2*%
%TO.N,GND*%
X103587500Y-89125000D03*
%TD*%
%TO.P,R11,1*%
%TO.N,Net-(D7-Pad1)*%
X101087500Y-87475000D03*
%TO.P,R11,2*%
%TO.N,GND*%
X101087500Y-89125000D03*
%TD*%
D18*
%TO.P,R1,1*%
%TO.N,VCC*%
X86250000Y-70000000D03*
%TO.P,R1,2*%
%TO.N,Net-(J2-Pad5)*%
X86250000Y-68350000D03*
%TD*%
D16*
%TO.P,D8,1,K*%
%TO.N,Net-(D8-Pad1)*%
X103587500Y-85412500D03*
%TO.P,D8,2,A*%
%TO.N,Net-(D8-Pad2)*%
X103587500Y-83537500D03*
%TD*%
D17*
%TO.P,R10,1*%
%TO.N,Net-(D6-Pad1)*%
X98587500Y-87475000D03*
%TO.P,R10,2*%
%TO.N,GND*%
X98587500Y-89125000D03*
%TD*%
D16*
%TO.P,D1,1,K*%
%TO.N,Net-(D1-Pad1)*%
X86087500Y-85412500D03*
%TO.P,D1,2,A*%
%TO.N,Net-(D1-Pad2)*%
X86087500Y-83537500D03*
%TD*%
D13*
%TO.P,R4,1*%
%TO.N,Net-(R4-Pad1)*%
X98400000Y-79750000D03*
%TO.P,R4,2*%
%TO.N,GND*%
X100050000Y-79750000D03*
%TD*%
D19*
%TO.P,J1,1,VBUS*%
%TO.N,VCC*%
X102287500Y-69550000D03*
%TO.P,J1,2,D-*%
%TO.N,Net-(J1-Pad2)*%
X102287500Y-68900000D03*
%TO.P,J1,3,D+*%
%TO.N,Net-(J1-Pad3)*%
X102287500Y-68250000D03*
%TO.P,J1,4,ID*%
%TO.N,unconnected-(J1-Pad4)*%
X102287500Y-67600000D03*
%TO.P,J1,5,GND*%
%TO.N,GND*%
X102287500Y-66950000D03*
D20*
%TO.P,J1,6,Shield*%
X104987500Y-67250000D03*
D21*
X104987500Y-71750000D03*
D22*
X102287500Y-65750000D03*
D23*
X104987500Y-65350000D03*
D22*
X102287500Y-70750000D03*
D20*
X104987500Y-69250000D03*
D21*
X104987500Y-64750000D03*
D23*
X104987500Y-71150000D03*
%TD*%
D24*
%TO.P,Y1,1,1*%
%TO.N,XTAL1*%
X79650000Y-79950000D03*
%TO.P,Y1,2,2*%
%TO.N,XTAL2*%
X79650000Y-74050000D03*
%TO.P,Y1,3*%
%TO.N,N/C*%
X76950000Y-74050000D03*
%TO.P,Y1,4*%
X76950000Y-79950000D03*
%TD*%
D16*
%TO.P,D7,1,K*%
%TO.N,Net-(D7-Pad1)*%
X101087500Y-85412500D03*
%TO.P,D7,2,A*%
%TO.N,Net-(D7-Pad2)*%
X101087500Y-83537500D03*
%TD*%
D17*
%TO.P,R7,1*%
%TO.N,Net-(D3-Pad1)*%
X91087500Y-87475000D03*
%TO.P,R7,2*%
%TO.N,GND*%
X91087500Y-89125000D03*
%TD*%
D16*
%TO.P,D5,1,K*%
%TO.N,Net-(D5-Pad1)*%
X96087500Y-85412500D03*
%TO.P,D5,2,A*%
%TO.N,Net-(D5-Pad2)*%
X96087500Y-83537500D03*
%TD*%
D17*
%TO.P,R9,1*%
%TO.N,Net-(D5-Pad1)*%
X96087500Y-87475000D03*
%TO.P,R9,2*%
%TO.N,GND*%
X96087500Y-89125000D03*
%TD*%
D25*
%TO.P,U1,1,PE6*%
%TO.N,unconnected-(U1-Pad1)*%
X94000000Y-69570000D03*
%TO.P,U1,2,UVCC*%
%TO.N,VCC*%
X93500000Y-69570000D03*
%TO.P,U1,3,D-*%
%TO.N,Net-(R3-Pad1)*%
X93000000Y-69570000D03*
%TO.P,U1,4,D+*%
%TO.N,Net-(R2-Pad1)*%
X92500000Y-69570000D03*
%TO.P,U1,5,UGND*%
%TO.N,GND*%
X92000000Y-69570000D03*
%TO.P,U1,6,UCAP*%
%TO.N,Net-(C1-Pad2)*%
X91500000Y-69570000D03*
%TO.P,U1,7,VBUS*%
%TO.N,VCC*%
X91000000Y-69570000D03*
%TO.P,U1,8,PB0*%
%TO.N,unconnected-(U1-Pad8)*%
X90500000Y-69570000D03*
%TO.P,U1,9,PB1*%
%TO.N,Net-(J2-Pad3)*%
X90000000Y-69570000D03*
%TO.P,U1,10,PB2*%
%TO.N,Net-(J2-Pad4)*%
X89500000Y-69570000D03*
%TO.P,U1,11,PB3*%
%TO.N,Net-(J2-Pad1)*%
X89000000Y-69570000D03*
D26*
%TO.P,U1,12,PB7*%
%TO.N,unconnected-(U1-Pad12)*%
X88162500Y-70407500D03*
%TO.P,U1,13,~{RESET}*%
%TO.N,Net-(J2-Pad5)*%
X88162500Y-70907500D03*
%TO.P,U1,14,VCC*%
%TO.N,VCC*%
X88162500Y-71407500D03*
%TO.P,U1,15,GND*%
%TO.N,GND*%
X88162500Y-71907500D03*
%TO.P,U1,16,XTAL2*%
%TO.N,XTAL2*%
X88162500Y-72407500D03*
%TO.P,U1,17,XTAL1*%
%TO.N,XTAL1*%
X88162500Y-72907500D03*
%TO.P,U1,18,PD0*%
%TO.N,Net-(D1-Pad2)*%
X88162500Y-73407500D03*
%TO.P,U1,19,PD1*%
%TO.N,Net-(D2-Pad2)*%
X88162500Y-73907500D03*
%TO.P,U1,20,PD2*%
%TO.N,Net-(D3-Pad2)*%
X88162500Y-74407500D03*
%TO.P,U1,21,PD3*%
%TO.N,Net-(D4-Pad2)*%
X88162500Y-74907500D03*
%TO.P,U1,22,PD5*%
%TO.N,Net-(D6-Pad2)*%
X88162500Y-75407500D03*
D25*
%TO.P,U1,23,GND*%
%TO.N,GND*%
X89000000Y-76245000D03*
%TO.P,U1,24,AVCC*%
%TO.N,VCC*%
X89500000Y-76245000D03*
%TO.P,U1,25,PD4*%
%TO.N,Net-(D5-Pad2)*%
X90000000Y-76245000D03*
%TO.P,U1,26,PD6*%
%TO.N,Net-(D7-Pad2)*%
X90500000Y-76245000D03*
%TO.P,U1,27,PD7*%
%TO.N,Net-(D8-Pad2)*%
X91000000Y-76245000D03*
%TO.P,U1,28,PB4*%
%TO.N,unconnected-(U1-Pad28)*%
X91500000Y-76245000D03*
%TO.P,U1,29,PB5*%
%TO.N,unconnected-(U1-Pad29)*%
X92000000Y-76245000D03*
%TO.P,U1,30,PB6*%
%TO.N,unconnected-(U1-Pad30)*%
X92500000Y-76245000D03*
%TO.P,U1,31,PC6*%
%TO.N,unconnected-(U1-Pad31)*%
X93000000Y-76245000D03*
%TO.P,U1,32,PC7*%
%TO.N,unconnected-(U1-Pad32)*%
X93500000Y-76245000D03*
%TO.P,U1,33,~{HWB}/PE2*%
%TO.N,Net-(R4-Pad1)*%
X94000000Y-76245000D03*
D26*
%TO.P,U1,34,VCC*%
%TO.N,VCC*%
X94837500Y-75407500D03*
%TO.P,U1,35,GND*%
%TO.N,GND*%
X94837500Y-74907500D03*
%TO.P,U1,36,PF7*%
%TO.N,Net-(SW7-Pad1)*%
X94837500Y-74407500D03*
%TO.P,U1,37,PF6*%
%TO.N,Net-(SW6-Pad1)*%
X94837500Y-73907500D03*
%TO.P,U1,38,PF5*%
%TO.N,Net-(SW5-Pad1)*%
X94837500Y-73407500D03*
%TO.P,U1,39,PF4*%
%TO.N,Net-(SW4-Pad1)*%
X94837500Y-72907500D03*
%TO.P,U1,40,PF1*%
%TO.N,Net-(SW3-Pad1)*%
X94837500Y-72407500D03*
%TO.P,U1,41,PF0*%
%TO.N,Net-(SW2-Pad1)*%
X94837500Y-71907500D03*
%TO.P,U1,42,AREF*%
%TO.N,unconnected-(U1-Pad42)*%
X94837500Y-71407500D03*
%TO.P,U1,43,GND*%
%TO.N,GND*%
X94837500Y-70907500D03*
%TO.P,U1,44,AVCC*%
%TO.N,VCC*%
X94837500Y-70407500D03*
D27*
%TO.P,U1,45,GND*%
%TO.N,GND*%
X91500000Y-72907500D03*
%TD*%
D16*
%TO.P,D3,1,K*%
%TO.N,Net-(D3-Pad1)*%
X91187500Y-85412500D03*
%TO.P,D3,2,A*%
%TO.N,Net-(D3-Pad2)*%
X91187500Y-83537500D03*
%TD*%
D14*
%TO.P,C2,1*%
%TO.N,VCC*%
X98475000Y-78400000D03*
%TO.P,C2,2*%
%TO.N,GND*%
X100025000Y-78400000D03*
%TD*%
D16*
%TO.P,D6,1,K*%
%TO.N,Net-(D6-Pad1)*%
X98587500Y-85412500D03*
%TO.P,D6,2,A*%
%TO.N,Net-(D6-Pad2)*%
X98587500Y-83537500D03*
%TD*%
D17*
%TO.P,R8,1*%
%TO.N,Net-(D4-Pad1)*%
X93587500Y-87475000D03*
%TO.P,R8,2*%
%TO.N,GND*%
X93587500Y-89125000D03*
%TD*%
D15*
%TO.P,C3,1*%
%TO.N,XTAL2*%
X84025000Y-72500000D03*
%TO.P,C3,2*%
%TO.N,GND*%
X82475000Y-72500000D03*
%TD*%
D13*
%TO.P,R2,1*%
%TO.N,Net-(R2-Pad1)*%
X91925000Y-64500000D03*
%TO.P,R2,2*%
%TO.N,Net-(J1-Pad3)*%
X93575000Y-64500000D03*
%TD*%
D17*
%TO.P,R6,1*%
%TO.N,Net-(D2-Pad1)*%
X88587500Y-87475000D03*
%TO.P,R6,2*%
%TO.N,GND*%
X88587500Y-89125000D03*
%TD*%
D28*
%TO.N,GND*%
X87750000Y-63500000D03*
X89000000Y-77000000D03*
%TO.N,VCC*%
X91000000Y-68750000D03*
X89500000Y-77500000D03*
X86907500Y-71407500D03*
X93500000Y-68750000D03*
X96250000Y-75500000D03*
%TD*%
D29*
%TO.N,Net-(D5-Pad2)*%
X90000000Y-76345000D02*
X90000000Y-77750000D01*
X93350000Y-81100000D02*
X97075000Y-81100000D01*
X99562500Y-83078877D02*
X99562500Y-83996123D01*
X99058623Y-84500000D02*
X97050000Y-84500000D01*
X90000000Y-77750000D02*
X93350000Y-81100000D01*
X97075000Y-81100000D02*
X98750000Y-82775000D01*
X98750000Y-82775000D02*
X99258623Y-82775000D01*
X99258623Y-82775000D02*
X99562500Y-83078877D01*
X99562500Y-83996123D02*
X99058623Y-84500000D01*
X97050000Y-84500000D02*
X96087500Y-83537500D01*
%TO.N,Net-(D7-Pad2)*%
X90500000Y-76345000D02*
X90500000Y-77494974D01*
X90500000Y-77494974D02*
X93105026Y-80100000D01*
X101087500Y-82587500D02*
X101087500Y-83537500D01*
X93105026Y-80100000D02*
X96605026Y-80100000D01*
X96605026Y-80100000D02*
X97605026Y-81100000D01*
X97605026Y-81100000D02*
X99600000Y-81100000D01*
X99600000Y-81100000D02*
X101087500Y-82587500D01*
%TO.N,GND*%
X94837500Y-74907500D02*
X93500000Y-74907500D01*
X93500000Y-74907500D02*
X91500000Y-72907500D01*
%TO.N,Net-(J2-Pad5)*%
X77500000Y-69750000D02*
X78075000Y-70325000D01*
X78075000Y-70325000D02*
X78075000Y-80719009D01*
X78075000Y-80719009D02*
X80640000Y-83284009D01*
X78390000Y-87415000D02*
X76975000Y-88830000D01*
X80640000Y-83284009D02*
X80640000Y-86755991D01*
X80640000Y-86755991D02*
X79980991Y-87415000D01*
X79980991Y-87415000D02*
X78390000Y-87415000D01*
%TO.N,Net-(J2-Pad1)*%
X89000000Y-69470000D02*
X89000000Y-67750000D01*
X89000000Y-67750000D02*
X84675000Y-63425000D01*
X84675000Y-63425000D02*
X76225000Y-63425000D01*
X76225000Y-63425000D02*
X75825000Y-63825000D01*
X75825000Y-63825000D02*
X75825000Y-82600000D01*
X75825000Y-82600000D02*
X76975000Y-83750000D01*
%TO.N,Net-(J2-Pad3)*%
X90000000Y-69470000D02*
X90000000Y-67250000D01*
X75125000Y-85875000D02*
X75540000Y-86290000D01*
X90000000Y-67250000D02*
X85475000Y-62725000D01*
X85475000Y-62725000D02*
X75780025Y-62725000D01*
X75780025Y-62725000D02*
X75125000Y-63380026D01*
X75125000Y-63380026D02*
X75125000Y-85875000D01*
X75540000Y-86290000D02*
X76975000Y-86290000D01*
%TO.N,Net-(J2-Pad4)*%
X89500000Y-69470000D02*
X89500000Y-67750000D01*
X89500000Y-67750000D02*
X84825000Y-63075000D01*
X84825000Y-63075000D02*
X75925000Y-63075000D01*
X75925000Y-63075000D02*
X75475000Y-63525000D01*
X75475000Y-63525000D02*
X75475000Y-84500000D01*
X75475000Y-84500000D02*
X75975000Y-85000000D01*
X75975000Y-85000000D02*
X78225000Y-85000000D01*
X78225000Y-85000000D02*
X79515000Y-86290000D01*
%TO.N,GND*%
X88162500Y-71907500D02*
X90500000Y-71907500D01*
X90500000Y-71907500D02*
X91500000Y-72907500D01*
%TO.N,XTAL2*%
X83275000Y-73250000D02*
X80450000Y-73250000D01*
X84025000Y-72500000D02*
X83275000Y-73250000D01*
X79650000Y-74050000D02*
X80450000Y-73250000D01*
%TO.N,Net-(J2-Pad5)*%
X77500000Y-69750000D02*
X84000000Y-69750000D01*
X86250000Y-68350000D02*
X85400000Y-68350000D01*
X85400000Y-68350000D02*
X84000000Y-69750000D01*
X88162500Y-70907500D02*
X87647703Y-70907500D01*
X87647703Y-70907500D02*
X87000000Y-70259797D01*
X87000000Y-70259797D02*
X87000000Y-69100000D01*
X87000000Y-69100000D02*
X86250000Y-68350000D01*
%TO.N,VCC*%
X86250000Y-70000000D02*
X86250000Y-70750000D01*
X86250000Y-70750000D02*
X86907500Y-71407500D01*
%TO.N,Net-(SW2-Pad1)*%
X77250000Y-92750000D02*
X75275000Y-94725000D01*
X76960052Y-103950000D02*
X104544974Y-103950000D01*
X75275000Y-94725000D02*
X75275000Y-102264948D01*
X106350000Y-102144974D02*
X106350000Y-79987526D01*
X75275000Y-102264948D02*
X76960052Y-103950000D01*
X98269974Y-71907500D02*
X94837500Y-71907500D01*
X104544974Y-103950000D02*
X106350000Y-102144974D01*
X106350000Y-79987526D02*
X98269974Y-71907500D01*
%TO.N,Net-(SW3-Pad1)*%
X86750000Y-92750000D02*
X84350000Y-95150000D01*
X98275000Y-72407500D02*
X94937500Y-72407500D01*
X84350000Y-95150000D02*
X77051903Y-95150000D01*
X106000000Y-80132500D02*
X98275000Y-72407500D01*
X77051903Y-95150000D02*
X75625000Y-96576903D01*
X75625000Y-96576903D02*
X75625000Y-102119974D01*
X75625000Y-102119974D02*
X77105026Y-103600000D01*
X77105026Y-103600000D02*
X104400000Y-103600000D01*
X104400000Y-103600000D02*
X106000000Y-102000000D01*
X106000000Y-102000000D02*
X106000000Y-80132500D01*
%TO.N,Net-(SW4-Pad1)*%
X96250000Y-92750000D02*
X93500000Y-95500000D01*
X97975000Y-72907500D02*
X94937500Y-72907500D01*
X93500000Y-95500000D02*
X77196877Y-95500000D01*
X77196877Y-95500000D02*
X75975000Y-96721877D01*
X75975000Y-96721877D02*
X75975000Y-101975000D01*
X75975000Y-101975000D02*
X77250000Y-103250000D01*
X77250000Y-103250000D02*
X104250000Y-103250000D01*
X104250000Y-103250000D02*
X105612500Y-101887500D01*
X105612500Y-101887500D02*
X105612500Y-80545000D01*
X105612500Y-80545000D02*
X97975000Y-72907500D01*
%TO.N,Net-(SW7-Pad1)*%
X96250000Y-101250000D02*
X102750000Y-101250000D01*
%TO.N,Net-(SW6-Pad1)*%
X86750000Y-101250000D02*
X93250000Y-101250000D01*
%TO.N,Net-(SW5-Pad1)*%
X77250000Y-101250000D02*
X83750000Y-101250000D01*
%TO.N,Net-(SW2-Pad1)*%
X77250000Y-92750000D02*
X83750000Y-92750000D01*
%TO.N,Net-(SW4-Pad1)*%
X96250000Y-92750000D02*
X102750000Y-92750000D01*
%TO.N,Net-(SW3-Pad1)*%
X86750000Y-92750000D02*
X93250000Y-92750000D01*
%TO.N,Net-(SW5-Pad1)*%
X83750000Y-101250000D02*
X85375000Y-102875000D01*
X85375000Y-102875000D02*
X104125000Y-102875000D01*
X105262500Y-101737500D02*
X105262500Y-80995000D01*
X104125000Y-102875000D02*
X105262500Y-101737500D01*
X105262500Y-80995000D02*
X97675000Y-73407500D01*
X97675000Y-73407500D02*
X94937500Y-73407500D01*
%TO.N,Net-(SW6-Pad1)*%
X104912500Y-81167526D02*
X104912500Y-101587500D01*
X93250000Y-101250000D02*
X94525000Y-102525000D01*
X94525000Y-102525000D02*
X103975000Y-102525000D01*
X103975000Y-102525000D02*
X104912500Y-101587500D01*
%TO.N,Net-(SW7-Pad1)*%
X104562500Y-81312500D02*
X104562500Y-99187500D01*
X102750000Y-101250000D02*
X104562500Y-99437500D01*
X104562500Y-99437500D02*
X104562500Y-99187500D01*
%TO.N,GND*%
X92000000Y-72407500D02*
X91500000Y-72907500D01*
X92000000Y-69570000D02*
X92000000Y-72407500D01*
X89000000Y-76245000D02*
X89000000Y-77000000D01*
X88750000Y-64500000D02*
X87750000Y-63500000D01*
%TO.N,Net-(C1-Pad2)*%
X91500000Y-65700000D02*
X90300000Y-64500000D01*
X91500000Y-69470000D02*
X91500000Y-65700000D01*
%TO.N,VCC*%
X96157500Y-75407500D02*
X96250000Y-75500000D01*
X94995000Y-68750000D02*
X95795000Y-69550000D01*
X95482500Y-75407500D02*
X98475000Y-78400000D01*
X89500000Y-76345000D02*
X89500000Y-77500000D01*
X88162500Y-71407500D02*
X86907500Y-71407500D01*
X94937500Y-75407500D02*
X95482500Y-75407500D01*
X94837500Y-75407500D02*
X96157500Y-75407500D01*
X93500000Y-69570000D02*
X93500000Y-68750000D01*
X91000000Y-69570000D02*
X91000000Y-68750000D01*
X95795000Y-69550000D02*
X94937500Y-70407500D01*
X93500000Y-68750000D02*
X94995000Y-68750000D01*
X102287500Y-69550000D02*
X95795000Y-69550000D01*
%TO.N,XTAL2*%
X88070000Y-72500000D02*
X88162500Y-72407500D01*
X84025000Y-72500000D02*
X88070000Y-72500000D01*
%TO.N,XTAL1*%
X88162500Y-72907500D02*
X85117500Y-72907500D01*
X85117500Y-72907500D02*
X84025000Y-74000000D01*
X79650000Y-79950000D02*
X79650000Y-78375000D01*
X79650000Y-78375000D02*
X84025000Y-74000000D01*
%TO.N,Net-(J1-Pad2)*%
X102287500Y-68900000D02*
X101225000Y-68900000D01*
X101225000Y-68900000D02*
X96825000Y-64500000D01*
%TO.N,Net-(J1-Pad3)*%
X97500000Y-64287500D02*
X97500000Y-64028249D01*
X97500000Y-64028249D02*
X97221751Y-63750000D01*
X97221751Y-63750000D02*
X94325000Y-63750000D01*
X102287500Y-68250000D02*
X101462500Y-68250000D01*
X94325000Y-63750000D02*
X93575000Y-64500000D01*
X101462500Y-68250000D02*
X97500000Y-64287500D01*
%TO.N,Net-(R2-Pad1)*%
X92500000Y-65075000D02*
X91925000Y-64500000D01*
X92500000Y-69470000D02*
X92500000Y-65075000D01*
%TO.N,Net-(R3-Pad1)*%
X95175000Y-64500000D02*
X93000000Y-66675000D01*
X93000000Y-66675000D02*
X93000000Y-69470000D01*
%TO.N,Net-(R4-Pad1)*%
X97405000Y-79750000D02*
X98400000Y-79750000D01*
X94000000Y-76345000D02*
X97405000Y-79750000D01*
%TO.N,Net-(D1-Pad1)*%
X86087500Y-85412500D02*
X86087500Y-87475000D01*
%TO.N,Net-(D2-Pad1)*%
X88587500Y-87475000D02*
X88587500Y-85412500D01*
%TO.N,Net-(D3-Pad1)*%
X91187500Y-87375000D02*
X91087500Y-87475000D01*
X91187500Y-85412500D02*
X91187500Y-87375000D01*
%TO.N,Net-(D4-Pad1)*%
X93587500Y-87475000D02*
X93587500Y-85412500D01*
%TO.N,Net-(D5-Pad1)*%
X96087500Y-85412500D02*
X96087500Y-87475000D01*
%TO.N,Net-(D6-Pad1)*%
X98587500Y-87475000D02*
X98587500Y-85412500D01*
%TO.N,Net-(D7-Pad1)*%
X101087500Y-85412500D02*
X101087500Y-87475000D01*
%TO.N,Net-(D8-Pad1)*%
X103587500Y-85412500D02*
X103587500Y-87475000D01*
%TO.N,Net-(SW6-Pad1)*%
X97652474Y-73907500D02*
X104912500Y-81167526D01*
X94937500Y-73907500D02*
X97652474Y-73907500D01*
%TO.N,Net-(SW7-Pad1)*%
X94937500Y-74407500D02*
X97657500Y-74407500D01*
X97657500Y-74407500D02*
X104562500Y-81312500D01*
%TO.N,Net-(D1-Pad2)*%
X83725000Y-75775000D02*
X86092500Y-73407500D01*
X83725000Y-81175000D02*
X83725000Y-75775000D01*
X86087500Y-83537500D02*
X83725000Y-81175000D01*
X86092500Y-73407500D02*
X88162500Y-73407500D01*
%TO.N,Net-(D2-Pad2)*%
X86092500Y-73907500D02*
X88162500Y-73907500D01*
X84075000Y-75925000D02*
X86092500Y-73907500D01*
X84075000Y-79025000D02*
X88587500Y-83537500D01*
X84075000Y-79025000D02*
X84075000Y-75925000D01*
%TO.N,Net-(D3-Pad2)*%
X86092500Y-74407500D02*
X88162500Y-74407500D01*
X90425000Y-82775000D02*
X91187500Y-83537500D01*
X84425000Y-78097448D02*
X89102552Y-82775000D01*
X84425000Y-78097448D02*
X84425000Y-76075000D01*
X89102552Y-82775000D02*
X90425000Y-82775000D01*
X84425000Y-76075000D02*
X86092500Y-74407500D01*
%TO.N,Net-(D4-Pad2)*%
X84775000Y-77952474D02*
X88622526Y-81800000D01*
X84775000Y-76219974D02*
X86087474Y-74907500D01*
X84775000Y-77952474D02*
X84775000Y-76219974D01*
X86087474Y-74907500D02*
X88162500Y-74907500D01*
X91850000Y-81800000D02*
X93587500Y-83537500D01*
X88622526Y-81800000D02*
X91850000Y-81800000D01*
%TO.N,Net-(D6-Pad2)*%
X85800000Y-78482500D02*
X85800000Y-76907500D01*
X85800000Y-76907500D02*
X87300000Y-75407500D01*
X98587500Y-83537500D02*
X96500000Y-81450000D01*
X88767500Y-81450000D02*
X85800000Y-78482500D01*
X96500000Y-81450000D02*
X88767500Y-81450000D01*
X87300000Y-75407500D02*
X88062500Y-75407500D01*
%TO.N,Net-(D8-Pad2)*%
X100800000Y-80750000D02*
X103587500Y-83537500D01*
X96750000Y-79750000D02*
X97750000Y-80750000D01*
X91000000Y-76345000D02*
X91000000Y-77500000D01*
X97750000Y-80750000D02*
X100800000Y-80750000D01*
X91000000Y-77500000D02*
X93250000Y-79750000D01*
X93250000Y-79750000D02*
X96750000Y-79750000D01*
%TD*%
%TA.AperFunction,Conductor*%
%TO.N,GND*%
G36*
X106281487Y-62218513D02*
G01*
X106299500Y-62262000D01*
X106299500Y-63998093D01*
X106281487Y-64041580D01*
X106238000Y-64059593D01*
X106194513Y-64041580D01*
X106187838Y-64033675D01*
X106181754Y-64025097D01*
X106177952Y-64020693D01*
X106029452Y-63878536D01*
X106024883Y-63874927D01*
X105852176Y-63763411D01*
X105847011Y-63760734D01*
X105656336Y-63683890D01*
X105650745Y-63682234D01*
X105448284Y-63642696D01*
X105443908Y-63642164D01*
X105441296Y-63642036D01*
X105439799Y-63642000D01*
X105253734Y-63642000D01*
X105245083Y-63645583D01*
X105241500Y-63654234D01*
X105241500Y-72845766D01*
X105245083Y-72854417D01*
X105253734Y-72858000D01*
X105388872Y-72858000D01*
X105391772Y-72857862D01*
X105545060Y-72843237D01*
X105550777Y-72842136D01*
X105748036Y-72784267D01*
X105753450Y-72782102D01*
X105936212Y-72687973D01*
X105941109Y-72684829D01*
X106102772Y-72557841D01*
X106106992Y-72553822D01*
X106191550Y-72456378D01*
X106233657Y-72435339D01*
X106278307Y-72450235D01*
X106299500Y-72496685D01*
X106299500Y-79398936D01*
X106281487Y-79442423D01*
X106238000Y-79460436D01*
X106194513Y-79442423D01*
X98763824Y-72011734D01*
X103560847Y-72011734D01*
X103584414Y-72109526D01*
X103586310Y-72115032D01*
X103671396Y-72302168D01*
X103674307Y-72307231D01*
X103793241Y-72474896D01*
X103797048Y-72479307D01*
X103945548Y-72621464D01*
X103950117Y-72625073D01*
X104122824Y-72736589D01*
X104127989Y-72739266D01*
X104318664Y-72816110D01*
X104324255Y-72817766D01*
X104526716Y-72857304D01*
X104531092Y-72857836D01*
X104533704Y-72857964D01*
X104535201Y-72858000D01*
X104721266Y-72858000D01*
X104729917Y-72854417D01*
X104733500Y-72845766D01*
X104733500Y-72016234D01*
X104729917Y-72007583D01*
X104721266Y-72004000D01*
X103571217Y-72004000D01*
X103562566Y-72007583D01*
X103560847Y-72011734D01*
X98763824Y-72011734D01*
X98535338Y-71783248D01*
X101618530Y-71783248D01*
X101620600Y-71788246D01*
X101666448Y-71820350D01*
X101671077Y-71823022D01*
X101861746Y-71911933D01*
X101866773Y-71913762D01*
X102069978Y-71968211D01*
X102075248Y-71969140D01*
X102284825Y-71987476D01*
X102290175Y-71987476D01*
X102499752Y-71969140D01*
X102505022Y-71968211D01*
X102708227Y-71913762D01*
X102713254Y-71911933D01*
X102903923Y-71823022D01*
X102908552Y-71820350D01*
X102951517Y-71790265D01*
X102956548Y-71782367D01*
X102955378Y-71777088D01*
X102296151Y-71117861D01*
X102287500Y-71114278D01*
X102278849Y-71117861D01*
X101622113Y-71774597D01*
X101618530Y-71783248D01*
X98535338Y-71783248D01*
X98488250Y-71736160D01*
X98480602Y-71726841D01*
X98471963Y-71713912D01*
X98468598Y-71708876D01*
X98445597Y-71693507D01*
X98445596Y-71693506D01*
X98405949Y-71667015D01*
X98394870Y-71659612D01*
X98382503Y-71651348D01*
X98382500Y-71651347D01*
X98377469Y-71647985D01*
X98297107Y-71632000D01*
X98297106Y-71632000D01*
X98269974Y-71626603D01*
X98264032Y-71627785D01*
X98248784Y-71630818D01*
X98236786Y-71632000D01*
X95623366Y-71632000D01*
X95579879Y-71613987D01*
X95561866Y-71570500D01*
X95563048Y-71558502D01*
X95573190Y-71507516D01*
X95600759Y-71469044D01*
X95600212Y-71468331D01*
X95602562Y-71466528D01*
X95602758Y-71466254D01*
X95603408Y-71465879D01*
X95716188Y-71379340D01*
X95721839Y-71373689D01*
X95808377Y-71260909D01*
X95812373Y-71253988D01*
X95866773Y-71122655D01*
X95868842Y-71114933D01*
X95878098Y-71044628D01*
X95875675Y-71035584D01*
X95870334Y-71032500D01*
X94774000Y-71032500D01*
X94730513Y-71014487D01*
X94712500Y-70971000D01*
X94712500Y-70844000D01*
X94730513Y-70800513D01*
X94774000Y-70782500D01*
X95867461Y-70782500D01*
X95876112Y-70778917D01*
X95878473Y-70773217D01*
X95868842Y-70700067D01*
X95866773Y-70692345D01*
X95812373Y-70561011D01*
X95808377Y-70554090D01*
X95721840Y-70441312D01*
X95716189Y-70435661D01*
X95603406Y-70349121D01*
X95602752Y-70348743D01*
X95602554Y-70348467D01*
X95600211Y-70346669D01*
X95600757Y-70345958D01*
X95573188Y-70307482D01*
X95561422Y-70248324D01*
X95561421Y-70248322D01*
X95560240Y-70242383D01*
X95556876Y-70237349D01*
X95555142Y-70233162D01*
X95555143Y-70186092D01*
X95568474Y-70166142D01*
X95891103Y-69843513D01*
X95934590Y-69825500D01*
X101319800Y-69825500D01*
X101363287Y-69843513D01*
X101381300Y-69887000D01*
X101363287Y-69930487D01*
X101341256Y-69952518D01*
X101337821Y-69956612D01*
X101217151Y-70128948D01*
X101214478Y-70133577D01*
X101125567Y-70324246D01*
X101123738Y-70329273D01*
X101069289Y-70532478D01*
X101068360Y-70537748D01*
X101050024Y-70747325D01*
X101050024Y-70752675D01*
X101068360Y-70962252D01*
X101069289Y-70967522D01*
X101123738Y-71170727D01*
X101125567Y-71175754D01*
X101214478Y-71366423D01*
X101217150Y-71371052D01*
X101247235Y-71414017D01*
X101255133Y-71419048D01*
X101260412Y-71417878D01*
X101928290Y-70750000D01*
X102651778Y-70750000D01*
X102655361Y-70758651D01*
X103312097Y-71415387D01*
X103320748Y-71418970D01*
X103325746Y-71416900D01*
X103357850Y-71371052D01*
X103360522Y-71366423D01*
X103412263Y-71255465D01*
X103446967Y-71223665D01*
X103493992Y-71225718D01*
X103525792Y-71260422D01*
X103529501Y-71281456D01*
X103529501Y-71483766D01*
X103533084Y-71492417D01*
X103541735Y-71496000D01*
X104721266Y-71496000D01*
X104729917Y-71492417D01*
X104733500Y-71483766D01*
X104733500Y-69516234D01*
X104729917Y-69507583D01*
X104721266Y-69504000D01*
X103541735Y-69504000D01*
X103533084Y-69507583D01*
X103529501Y-69516234D01*
X103529501Y-70046419D01*
X103529682Y-70049751D01*
X103535831Y-70106371D01*
X103537603Y-70113821D01*
X103585787Y-70242352D01*
X103587492Y-70245466D01*
X103592575Y-70292261D01*
X103587492Y-70304534D01*
X103585787Y-70307648D01*
X103571296Y-70346303D01*
X103539164Y-70380700D01*
X103492122Y-70382301D01*
X103457725Y-70350169D01*
X103454306Y-70340633D01*
X103451261Y-70329270D01*
X103449433Y-70324246D01*
X103360522Y-70133577D01*
X103357850Y-70128948D01*
X103327765Y-70085983D01*
X103319867Y-70080952D01*
X103314588Y-70082122D01*
X102655361Y-70741349D01*
X102651778Y-70750000D01*
X101928290Y-70750000D01*
X102709777Y-69968513D01*
X102753264Y-69950500D01*
X102982248Y-69950500D01*
X103040731Y-69938867D01*
X103107052Y-69894552D01*
X103151367Y-69828231D01*
X103163000Y-69769748D01*
X103163000Y-69330252D01*
X103151367Y-69271769D01*
X103142947Y-69259168D01*
X103133764Y-69213003D01*
X103142947Y-69190832D01*
X103143860Y-69189466D01*
X103151367Y-69178231D01*
X103163000Y-69119748D01*
X103163000Y-68680252D01*
X103151367Y-68621769D01*
X103142947Y-68609168D01*
X103133764Y-68563003D01*
X103142947Y-68540832D01*
X103143477Y-68540039D01*
X103151367Y-68528231D01*
X103163000Y-68469748D01*
X103163000Y-68030252D01*
X103151367Y-67971769D01*
X103142947Y-67959168D01*
X103133764Y-67913003D01*
X103142947Y-67890832D01*
X103143777Y-67889590D01*
X103151367Y-67878231D01*
X103163000Y-67819748D01*
X103163000Y-67660027D01*
X103181013Y-67616540D01*
X103202912Y-67602440D01*
X103204864Y-67601708D01*
X103212465Y-67597547D01*
X103321900Y-67515530D01*
X103328030Y-67509400D01*
X103410047Y-67399965D01*
X103414057Y-67392640D01*
X103450740Y-67363146D01*
X103497535Y-67368230D01*
X103527029Y-67404913D01*
X103529501Y-67422174D01*
X103529501Y-68046419D01*
X103529682Y-68049751D01*
X103535831Y-68106371D01*
X103537603Y-68113821D01*
X103580561Y-68228412D01*
X103580561Y-68271588D01*
X103537603Y-68386178D01*
X103535831Y-68393630D01*
X103529680Y-68450251D01*
X103529500Y-68453579D01*
X103529500Y-68983766D01*
X103533083Y-68992417D01*
X103541734Y-68996000D01*
X104721266Y-68996000D01*
X104729917Y-68992417D01*
X104733500Y-68983766D01*
X104733500Y-65016234D01*
X104729917Y-65007583D01*
X104721266Y-65004000D01*
X103541734Y-65004000D01*
X103533083Y-65007583D01*
X103529500Y-65016234D01*
X103529500Y-65218543D01*
X103511487Y-65262030D01*
X103468000Y-65280043D01*
X103424513Y-65262030D01*
X103412262Y-65244534D01*
X103360522Y-65133576D01*
X103357850Y-65128948D01*
X103327765Y-65085983D01*
X103319867Y-65080952D01*
X103314588Y-65082122D01*
X102330987Y-66065723D01*
X102287500Y-66083736D01*
X102244013Y-66065723D01*
X101262903Y-65084613D01*
X101254252Y-65081030D01*
X101249254Y-65083100D01*
X101217150Y-65128948D01*
X101214478Y-65133577D01*
X101125567Y-65324246D01*
X101123738Y-65329273D01*
X101069289Y-65532478D01*
X101068360Y-65537748D01*
X101050024Y-65747325D01*
X101050024Y-65752675D01*
X101068360Y-65962252D01*
X101069289Y-65967522D01*
X101123738Y-66170727D01*
X101125567Y-66175754D01*
X101214478Y-66366423D01*
X101216208Y-66369420D01*
X101222348Y-66416088D01*
X101212158Y-66437049D01*
X101164958Y-66500029D01*
X101160788Y-66507646D01*
X101112603Y-66636178D01*
X101110831Y-66643630D01*
X101104680Y-66700251D01*
X101104500Y-66703579D01*
X101104500Y-66737766D01*
X101108083Y-66746417D01*
X101116734Y-66750000D01*
X102426000Y-66750000D01*
X102469487Y-66768013D01*
X102487500Y-66811500D01*
X102487500Y-67088500D01*
X102469487Y-67131987D01*
X102426000Y-67150000D01*
X101116735Y-67150000D01*
X101108084Y-67153583D01*
X101104501Y-67162234D01*
X101104501Y-67196419D01*
X101104682Y-67199751D01*
X101110831Y-67256371D01*
X101112603Y-67263821D01*
X101160890Y-67392626D01*
X101159289Y-67439668D01*
X101124892Y-67471800D01*
X101077850Y-67470199D01*
X101059817Y-67457701D01*
X98319749Y-64717633D01*
X101618452Y-64717633D01*
X101619622Y-64722912D01*
X102278849Y-65382139D01*
X102287500Y-65385722D01*
X102296151Y-65382139D01*
X102952887Y-64725403D01*
X102956470Y-64716752D01*
X102954400Y-64711754D01*
X102908552Y-64679650D01*
X102903923Y-64676978D01*
X102713254Y-64588067D01*
X102708227Y-64586238D01*
X102505022Y-64531789D01*
X102499752Y-64530860D01*
X102290175Y-64512524D01*
X102284825Y-64512524D01*
X102075248Y-64530860D01*
X102069978Y-64531789D01*
X101866773Y-64586238D01*
X101861746Y-64588067D01*
X101671077Y-64676978D01*
X101666448Y-64679650D01*
X101623483Y-64709735D01*
X101618452Y-64717633D01*
X98319749Y-64717633D01*
X98087080Y-64484964D01*
X103556761Y-64484964D01*
X103558794Y-64492968D01*
X103563891Y-64496000D01*
X104721266Y-64496000D01*
X104729917Y-64492417D01*
X104733500Y-64483766D01*
X104733500Y-63654234D01*
X104729917Y-63645583D01*
X104721266Y-63642000D01*
X104586128Y-63642000D01*
X104583228Y-63642138D01*
X104429940Y-63656763D01*
X104424223Y-63657864D01*
X104226964Y-63715733D01*
X104221550Y-63717898D01*
X104038788Y-63812027D01*
X104033891Y-63815171D01*
X103872228Y-63942159D01*
X103868008Y-63946178D01*
X103733274Y-64101445D01*
X103729892Y-64106186D01*
X103626948Y-64284132D01*
X103624525Y-64289423D01*
X103557087Y-64483626D01*
X103556761Y-64484964D01*
X98087080Y-64484964D01*
X97793513Y-64191397D01*
X97775500Y-64147910D01*
X97775500Y-64061437D01*
X97776682Y-64049439D01*
X97779715Y-64034191D01*
X97780897Y-64028249D01*
X97759516Y-63920755D01*
X97713994Y-63852627D01*
X97713993Y-63852626D01*
X97707213Y-63842479D01*
X97701991Y-63834663D01*
X97701989Y-63834661D01*
X97698624Y-63829625D01*
X97680659Y-63817621D01*
X97671340Y-63809973D01*
X97440027Y-63578660D01*
X97432379Y-63569341D01*
X97423740Y-63556412D01*
X97420375Y-63551376D01*
X97397374Y-63536007D01*
X97397373Y-63536006D01*
X97371216Y-63518529D01*
X97369168Y-63517160D01*
X97334285Y-63493852D01*
X97329246Y-63490485D01*
X97248884Y-63474500D01*
X97248883Y-63474500D01*
X97221751Y-63469103D01*
X97215809Y-63470285D01*
X97200561Y-63473318D01*
X97188563Y-63474500D01*
X94358188Y-63474500D01*
X94346190Y-63473318D01*
X94330942Y-63470285D01*
X94325000Y-63469103D01*
X94297868Y-63474500D01*
X94297867Y-63474500D01*
X94217505Y-63490485D01*
X94212466Y-63493852D01*
X94177584Y-63517160D01*
X94175535Y-63518529D01*
X94149378Y-63536006D01*
X94149377Y-63536007D01*
X94126376Y-63551376D01*
X94123011Y-63556412D01*
X94114372Y-63569341D01*
X94106724Y-63578660D01*
X93875609Y-63809775D01*
X93832122Y-63827788D01*
X93822503Y-63827031D01*
X93808902Y-63824877D01*
X93808897Y-63824877D01*
X93806519Y-63824500D01*
X93575049Y-63824500D01*
X93343482Y-63824501D01*
X93327507Y-63827031D01*
X93254475Y-63838597D01*
X93254474Y-63838597D01*
X93249696Y-63839354D01*
X93245388Y-63841549D01*
X93245385Y-63841550D01*
X93223652Y-63852624D01*
X93136658Y-63896950D01*
X93046950Y-63986658D01*
X92989354Y-64099696D01*
X92974500Y-64193481D01*
X92974501Y-64806518D01*
X92974878Y-64808898D01*
X92985032Y-64873011D01*
X92989354Y-64900304D01*
X92991549Y-64904612D01*
X92991550Y-64904615D01*
X93002209Y-64925533D01*
X93046950Y-65013342D01*
X93136658Y-65103050D01*
X93249696Y-65160646D01*
X93254473Y-65161403D01*
X93254474Y-65161403D01*
X93292925Y-65167493D01*
X93343481Y-65175500D01*
X93345903Y-65175500D01*
X93575526Y-65175499D01*
X93806518Y-65175499D01*
X93853452Y-65168066D01*
X93895525Y-65161403D01*
X93895526Y-65161403D01*
X93900304Y-65160646D01*
X93904612Y-65158451D01*
X93904615Y-65158450D01*
X93959170Y-65130652D01*
X94011917Y-65103776D01*
X94058841Y-65100083D01*
X94094634Y-65130652D01*
X94098327Y-65177577D01*
X94083324Y-65202060D01*
X92880487Y-66404897D01*
X92837000Y-66422910D01*
X92793513Y-66404897D01*
X92775500Y-66361410D01*
X92775500Y-65108189D01*
X92776682Y-65096191D01*
X92779715Y-65080943D01*
X92779715Y-65080942D01*
X92780897Y-65075000D01*
X92775500Y-65047867D01*
X92759515Y-64967505D01*
X92731471Y-64925535D01*
X92731470Y-64925533D01*
X92714001Y-64899387D01*
X92713996Y-64899381D01*
X92713994Y-64899378D01*
X92713993Y-64899377D01*
X92698624Y-64876376D01*
X92680659Y-64864372D01*
X92671340Y-64856724D01*
X92543513Y-64728897D01*
X92525500Y-64685410D01*
X92525499Y-64195893D01*
X92525499Y-64193482D01*
X92513367Y-64116874D01*
X92511403Y-64104475D01*
X92511403Y-64104474D01*
X92510646Y-64099696D01*
X92508450Y-64095386D01*
X92508450Y-64095385D01*
X92471328Y-64022530D01*
X92453050Y-63986658D01*
X92363342Y-63896950D01*
X92250304Y-63839354D01*
X92245527Y-63838597D01*
X92245526Y-63838597D01*
X92203449Y-63831933D01*
X92156519Y-63824500D01*
X92154097Y-63824500D01*
X91924474Y-63824501D01*
X91693482Y-63824501D01*
X91677507Y-63827031D01*
X91604475Y-63838597D01*
X91604474Y-63838597D01*
X91599696Y-63839354D01*
X91595388Y-63841549D01*
X91595385Y-63841550D01*
X91573652Y-63852624D01*
X91486658Y-63896950D01*
X91396950Y-63986658D01*
X91339354Y-64099696D01*
X91324500Y-64193481D01*
X91324501Y-64806518D01*
X91324878Y-64808898D01*
X91335032Y-64873011D01*
X91339354Y-64900304D01*
X91341549Y-64904612D01*
X91341550Y-64904615D01*
X91352209Y-64925533D01*
X91396950Y-65013342D01*
X91486658Y-65103050D01*
X91599696Y-65160646D01*
X91604473Y-65161403D01*
X91604474Y-65161403D01*
X91642925Y-65167493D01*
X91693481Y-65175500D01*
X91925000Y-65175500D01*
X92156518Y-65175499D01*
X92158297Y-65175217D01*
X92202942Y-65189725D01*
X92224500Y-65236489D01*
X92224500Y-68470777D01*
X92206487Y-68514264D01*
X92163000Y-68532277D01*
X92154972Y-68531751D01*
X92137128Y-68529402D01*
X92128084Y-68531825D01*
X92125000Y-68537166D01*
X92125000Y-69633500D01*
X92106987Y-69676987D01*
X92063500Y-69695000D01*
X91936500Y-69695000D01*
X91893013Y-69676987D01*
X91875000Y-69633500D01*
X91875000Y-68540039D01*
X91871417Y-68531388D01*
X91865717Y-68529027D01*
X91845028Y-68531751D01*
X91799561Y-68519568D01*
X91776026Y-68478805D01*
X91775500Y-68470777D01*
X91775500Y-65733188D01*
X91776682Y-65721190D01*
X91779715Y-65705942D01*
X91780897Y-65700000D01*
X91759515Y-65592505D01*
X91713994Y-65524378D01*
X91713993Y-65524377D01*
X91713992Y-65524375D01*
X91701991Y-65506414D01*
X91701989Y-65506412D01*
X91698624Y-65501376D01*
X91680659Y-65489372D01*
X91671340Y-65481724D01*
X90968513Y-64778897D01*
X90950500Y-64735410D01*
X90950500Y-64216512D01*
X90934719Y-64116874D01*
X90873528Y-63996780D01*
X90778220Y-63901472D01*
X90658126Y-63840281D01*
X90558488Y-63824500D01*
X90041512Y-63824500D01*
X89941874Y-63840281D01*
X89821780Y-63901472D01*
X89749419Y-63973833D01*
X89705932Y-63991846D01*
X89662445Y-63973833D01*
X89647593Y-63949810D01*
X89644431Y-63940332D01*
X89641422Y-63933908D01*
X89555235Y-63794632D01*
X89550833Y-63789079D01*
X89434919Y-63673366D01*
X89429351Y-63668969D01*
X89289929Y-63583028D01*
X89283499Y-63580030D01*
X89127841Y-63528400D01*
X89121315Y-63527001D01*
X89025262Y-63517160D01*
X89022135Y-63517000D01*
X89016234Y-63517000D01*
X89007583Y-63520583D01*
X89004000Y-63529234D01*
X89004000Y-65470766D01*
X89007583Y-65479417D01*
X89016234Y-65483000D01*
X89022117Y-65483000D01*
X89025279Y-65482837D01*
X89122570Y-65472741D01*
X89129109Y-65471329D01*
X89284666Y-65419432D01*
X89291092Y-65416422D01*
X89430368Y-65330235D01*
X89435921Y-65325833D01*
X89551634Y-65209919D01*
X89556031Y-65204351D01*
X89641972Y-65064929D01*
X89644971Y-65058497D01*
X89647659Y-65050393D01*
X89678447Y-65014788D01*
X89725393Y-65011381D01*
X89749519Y-65026267D01*
X89821780Y-65098528D01*
X89941874Y-65159719D01*
X90041512Y-65175500D01*
X90558488Y-65175500D01*
X90558488Y-65176669D01*
X90603757Y-65193373D01*
X91206487Y-65796103D01*
X91224500Y-65839590D01*
X91224500Y-68314538D01*
X91206487Y-68358025D01*
X91163000Y-68376038D01*
X91135080Y-68369335D01*
X91129618Y-68366552D01*
X91129617Y-68366552D01*
X91125304Y-68364354D01*
X91000000Y-68344508D01*
X90995220Y-68345265D01*
X90879474Y-68363597D01*
X90879473Y-68363597D01*
X90874696Y-68364354D01*
X90761658Y-68421950D01*
X90671950Y-68511658D01*
X90614354Y-68624696D01*
X90613597Y-68629473D01*
X90613597Y-68629474D01*
X90606028Y-68677266D01*
X90594508Y-68750000D01*
X90595265Y-68754779D01*
X90595265Y-68754781D01*
X90596231Y-68760880D01*
X90585242Y-68806649D01*
X90545108Y-68831243D01*
X90535488Y-68832000D01*
X90421164Y-68832001D01*
X90411600Y-68832001D01*
X90348997Y-68844453D01*
X90302832Y-68835270D01*
X90276682Y-68796133D01*
X90275500Y-68784135D01*
X90275500Y-67283183D01*
X90276682Y-67271185D01*
X90279714Y-67255942D01*
X90280896Y-67250000D01*
X90275500Y-67222871D01*
X90275500Y-67222867D01*
X90259515Y-67142505D01*
X90198624Y-67051376D01*
X90180659Y-67039372D01*
X90171340Y-67031724D01*
X88514013Y-65374397D01*
X88496000Y-65330910D01*
X88496000Y-64766234D01*
X88492417Y-64757583D01*
X88483766Y-64754000D01*
X87919090Y-64754000D01*
X87875603Y-64735987D01*
X87373382Y-64233766D01*
X87792000Y-64233766D01*
X87795583Y-64242417D01*
X87804234Y-64246000D01*
X88483766Y-64246000D01*
X88492417Y-64242417D01*
X88496000Y-64233766D01*
X88496000Y-63529234D01*
X88492417Y-63520583D01*
X88483766Y-63517000D01*
X88477883Y-63517000D01*
X88474721Y-63517163D01*
X88377430Y-63527259D01*
X88370891Y-63528671D01*
X88215334Y-63580568D01*
X88208908Y-63583578D01*
X88069632Y-63669765D01*
X88064079Y-63674167D01*
X87948366Y-63790081D01*
X87943969Y-63795649D01*
X87858028Y-63935071D01*
X87855030Y-63941501D01*
X87803400Y-64097159D01*
X87802001Y-64103685D01*
X87792160Y-64199738D01*
X87792000Y-64202865D01*
X87792000Y-64233766D01*
X87373382Y-64233766D01*
X85693276Y-62553660D01*
X85685628Y-62544341D01*
X85676989Y-62531412D01*
X85673624Y-62526376D01*
X85650623Y-62511007D01*
X85650622Y-62511006D01*
X85624465Y-62493529D01*
X85582495Y-62465485D01*
X85502133Y-62449500D01*
X85502132Y-62449500D01*
X85475000Y-62444103D01*
X85469058Y-62445285D01*
X85453810Y-62448318D01*
X85441812Y-62449500D01*
X75813213Y-62449500D01*
X75801215Y-62448318D01*
X75785967Y-62445285D01*
X75780025Y-62444103D01*
X75672530Y-62465485D01*
X75604403Y-62511006D01*
X75604402Y-62511007D01*
X75581401Y-62526376D01*
X75578036Y-62531412D01*
X75569397Y-62544341D01*
X75561749Y-62553660D01*
X74953660Y-63161750D01*
X74944341Y-63169398D01*
X74926376Y-63181402D01*
X74865485Y-63272531D01*
X74865485Y-63272532D01*
X74844103Y-63380026D01*
X74845285Y-63385968D01*
X74845285Y-63385969D01*
X74848318Y-63401217D01*
X74849500Y-63413215D01*
X74849500Y-85841812D01*
X74848318Y-85853810D01*
X74844103Y-85875000D01*
X74849500Y-85902132D01*
X74849500Y-85902133D01*
X74865485Y-85982495D01*
X74926376Y-86073624D01*
X74931412Y-86076989D01*
X74944341Y-86085628D01*
X74953660Y-86093276D01*
X75321724Y-86461340D01*
X75329372Y-86470659D01*
X75341376Y-86488624D01*
X75364377Y-86503993D01*
X75364378Y-86503994D01*
X75432506Y-86549516D01*
X75540000Y-86570897D01*
X75561193Y-86566682D01*
X75573188Y-86565500D01*
X75914773Y-86565500D01*
X75958260Y-86583513D01*
X75973891Y-86610048D01*
X75993544Y-86678586D01*
X76087712Y-86861818D01*
X76215677Y-87023270D01*
X76217967Y-87025219D01*
X76217968Y-87025220D01*
X76370271Y-87154840D01*
X76370274Y-87154842D01*
X76372564Y-87156791D01*
X76375190Y-87158259D01*
X76375192Y-87158260D01*
X76549774Y-87255831D01*
X76549778Y-87255833D01*
X76552398Y-87257297D01*
X76555253Y-87258225D01*
X76555256Y-87258226D01*
X76606734Y-87274952D01*
X76748329Y-87320959D01*
X76751314Y-87321315D01*
X76751319Y-87321316D01*
X76892795Y-87338185D01*
X76952894Y-87345351D01*
X76955884Y-87345121D01*
X76955887Y-87345121D01*
X77155303Y-87329777D01*
X77155307Y-87329776D01*
X77158300Y-87329546D01*
X77356725Y-87274145D01*
X77540610Y-87181258D01*
X77702951Y-87054424D01*
X77714564Y-87040971D01*
X77835597Y-86900751D01*
X77835598Y-86900750D01*
X77837564Y-86898472D01*
X77912205Y-86767080D01*
X77937836Y-86721962D01*
X77937837Y-86721960D01*
X77939323Y-86719344D01*
X78004351Y-86523863D01*
X78030171Y-86319474D01*
X78030583Y-86290000D01*
X78028846Y-86272275D01*
X78010774Y-86087966D01*
X78010774Y-86087964D01*
X78010480Y-86084970D01*
X78008071Y-86076989D01*
X77975839Y-85970234D01*
X77950935Y-85887749D01*
X77854218Y-85705849D01*
X77724011Y-85546200D01*
X77565275Y-85414882D01*
X77521285Y-85391097D01*
X77491601Y-85354570D01*
X77496439Y-85307749D01*
X77532968Y-85278063D01*
X77550538Y-85275500D01*
X78085410Y-85275500D01*
X78128897Y-85293513D01*
X78570575Y-85735191D01*
X78588588Y-85778678D01*
X78580981Y-85808306D01*
X78555965Y-85853810D01*
X78544776Y-85874162D01*
X78535903Y-85902133D01*
X78487468Y-86054821D01*
X78482484Y-86070532D01*
X78459520Y-86275262D01*
X78459772Y-86278261D01*
X78475146Y-86461340D01*
X78476759Y-86480553D01*
X78477586Y-86483435D01*
X78477586Y-86483438D01*
X78488321Y-86520876D01*
X78533544Y-86678586D01*
X78627712Y-86861818D01*
X78755677Y-87023270D01*
X78757968Y-87025219D01*
X78757972Y-87025224D01*
X78764953Y-87031165D01*
X78786397Y-87073066D01*
X78771930Y-87117858D01*
X78730029Y-87139302D01*
X78725095Y-87139500D01*
X78423188Y-87139500D01*
X78411190Y-87138318D01*
X78395942Y-87135285D01*
X78390000Y-87134103D01*
X78282505Y-87155485D01*
X78214378Y-87201006D01*
X78214377Y-87201007D01*
X78191376Y-87216376D01*
X78188011Y-87221412D01*
X78179372Y-87234341D01*
X78171724Y-87243660D01*
X77529685Y-87885699D01*
X77486198Y-87903712D01*
X77456947Y-87896310D01*
X77386699Y-87858326D01*
X77386694Y-87858324D01*
X77384055Y-87856897D01*
X77381189Y-87856010D01*
X77381187Y-87856009D01*
X77190120Y-87796864D01*
X77190118Y-87796864D01*
X77187254Y-87795977D01*
X77184270Y-87795663D01*
X77184268Y-87795663D01*
X77037427Y-87780230D01*
X76982369Y-87774443D01*
X76979380Y-87774715D01*
X76979379Y-87774715D01*
X76780200Y-87792841D01*
X76780197Y-87792841D01*
X76777203Y-87793114D01*
X76579572Y-87851280D01*
X76546645Y-87868494D01*
X76399669Y-87945331D01*
X76399664Y-87945335D01*
X76397002Y-87946726D01*
X76394658Y-87948611D01*
X76394656Y-87948612D01*
X76254372Y-88061403D01*
X76236447Y-88075815D01*
X76104024Y-88233630D01*
X76004776Y-88414162D01*
X75984600Y-88477766D01*
X75954448Y-88572818D01*
X75942484Y-88610532D01*
X75919520Y-88815262D01*
X75936759Y-89020553D01*
X75937586Y-89023435D01*
X75937586Y-89023438D01*
X75957224Y-89091923D01*
X75993544Y-89218586D01*
X76087712Y-89401818D01*
X76215677Y-89563270D01*
X76217967Y-89565219D01*
X76217968Y-89565220D01*
X76370271Y-89694840D01*
X76370274Y-89694842D01*
X76372564Y-89696791D01*
X76375190Y-89698259D01*
X76375192Y-89698260D01*
X76549774Y-89795831D01*
X76549778Y-89795833D01*
X76552398Y-89797297D01*
X76555253Y-89798225D01*
X76555256Y-89798226D01*
X76606734Y-89814952D01*
X76748329Y-89860959D01*
X76751314Y-89861315D01*
X76751319Y-89861316D01*
X76892795Y-89878185D01*
X76952894Y-89885351D01*
X76955884Y-89885121D01*
X76955887Y-89885121D01*
X77155303Y-89869777D01*
X77155307Y-89869776D01*
X77158300Y-89869546D01*
X77356725Y-89814145D01*
X77540610Y-89721258D01*
X77702951Y-89594424D01*
X77729843Y-89563270D01*
X77835597Y-89440751D01*
X77835598Y-89440750D01*
X77837564Y-89438472D01*
X77939323Y-89259344D01*
X77995017Y-89091923D01*
X78181896Y-89091923D01*
X78214146Y-89235027D01*
X78215649Y-89239823D01*
X78297766Y-89442056D01*
X78300033Y-89446542D01*
X78414077Y-89632645D01*
X78417038Y-89636692D01*
X78559952Y-89801675D01*
X78563541Y-89805190D01*
X78731469Y-89944606D01*
X78735596Y-89947496D01*
X78924037Y-90057612D01*
X78928574Y-90059786D01*
X79132478Y-90137649D01*
X79137305Y-90139051D01*
X79249012Y-90161778D01*
X79258203Y-90159992D01*
X79261000Y-90155845D01*
X79261000Y-90154398D01*
X79769000Y-90154398D01*
X79772583Y-90163049D01*
X79778344Y-90165435D01*
X79795801Y-90163199D01*
X79800735Y-90162150D01*
X80009788Y-90099431D01*
X80014463Y-90097599D01*
X80210473Y-90001574D01*
X80214791Y-89999000D01*
X80392480Y-89872257D01*
X80396324Y-89869008D01*
X80550926Y-89714944D01*
X80554185Y-89711114D01*
X80681550Y-89533867D01*
X80684139Y-89529558D01*
X80753369Y-89389483D01*
X85105226Y-89389483D01*
X85110944Y-89451718D01*
X85112219Y-89458085D01*
X85161380Y-89614958D01*
X85164405Y-89621659D01*
X85249336Y-89761897D01*
X85253882Y-89767694D01*
X85369806Y-89883618D01*
X85375603Y-89888164D01*
X85515841Y-89973095D01*
X85522542Y-89976120D01*
X85679413Y-90025280D01*
X85685783Y-90026556D01*
X85754519Y-90032872D01*
X85757309Y-90033000D01*
X85821266Y-90033000D01*
X85829917Y-90029417D01*
X85833500Y-90020766D01*
X85833500Y-90020765D01*
X86341500Y-90020765D01*
X86345083Y-90029416D01*
X86353734Y-90032999D01*
X86417689Y-90032999D01*
X86420482Y-90032871D01*
X86489218Y-90026556D01*
X86495585Y-90025281D01*
X86652458Y-89976120D01*
X86659159Y-89973095D01*
X86799397Y-89888164D01*
X86805194Y-89883618D01*
X86921118Y-89767694D01*
X86925664Y-89761897D01*
X87010595Y-89621659D01*
X87013620Y-89614958D01*
X87062780Y-89458087D01*
X87064056Y-89451717D01*
X87069775Y-89389483D01*
X87605226Y-89389483D01*
X87610944Y-89451718D01*
X87612219Y-89458085D01*
X87661380Y-89614958D01*
X87664405Y-89621659D01*
X87749336Y-89761897D01*
X87753882Y-89767694D01*
X87869806Y-89883618D01*
X87875603Y-89888164D01*
X88015841Y-89973095D01*
X88022542Y-89976120D01*
X88179413Y-90025280D01*
X88185783Y-90026556D01*
X88254519Y-90032872D01*
X88257309Y-90033000D01*
X88321266Y-90033000D01*
X88329917Y-90029417D01*
X88333500Y-90020766D01*
X88333500Y-90020765D01*
X88841500Y-90020765D01*
X88845083Y-90029416D01*
X88853734Y-90032999D01*
X88917689Y-90032999D01*
X88920482Y-90032871D01*
X88989218Y-90026556D01*
X88995585Y-90025281D01*
X89152458Y-89976120D01*
X89159159Y-89973095D01*
X89299397Y-89888164D01*
X89305194Y-89883618D01*
X89421118Y-89767694D01*
X89425664Y-89761897D01*
X89510595Y-89621659D01*
X89513620Y-89614958D01*
X89562780Y-89458087D01*
X89564056Y-89451717D01*
X89569775Y-89389483D01*
X90105226Y-89389483D01*
X90110944Y-89451718D01*
X90112219Y-89458085D01*
X90161380Y-89614958D01*
X90164405Y-89621659D01*
X90249336Y-89761897D01*
X90253882Y-89767694D01*
X90369806Y-89883618D01*
X90375603Y-89888164D01*
X90515841Y-89973095D01*
X90522542Y-89976120D01*
X90679413Y-90025280D01*
X90685783Y-90026556D01*
X90754519Y-90032872D01*
X90757309Y-90033000D01*
X90821266Y-90033000D01*
X90829917Y-90029417D01*
X90833500Y-90020766D01*
X90833500Y-90020765D01*
X91341500Y-90020765D01*
X91345083Y-90029416D01*
X91353734Y-90032999D01*
X91417689Y-90032999D01*
X91420482Y-90032871D01*
X91489218Y-90026556D01*
X91495585Y-90025281D01*
X91652458Y-89976120D01*
X91659159Y-89973095D01*
X91799397Y-89888164D01*
X91805194Y-89883618D01*
X91921118Y-89767694D01*
X91925664Y-89761897D01*
X92010595Y-89621659D01*
X92013620Y-89614958D01*
X92062780Y-89458087D01*
X92064056Y-89451717D01*
X92069775Y-89389483D01*
X92605226Y-89389483D01*
X92610944Y-89451718D01*
X92612219Y-89458085D01*
X92661380Y-89614958D01*
X92664405Y-89621659D01*
X92749336Y-89761897D01*
X92753882Y-89767694D01*
X92869806Y-89883618D01*
X92875603Y-89888164D01*
X93015841Y-89973095D01*
X93022542Y-89976120D01*
X93179413Y-90025280D01*
X93185783Y-90026556D01*
X93254519Y-90032872D01*
X93257309Y-90033000D01*
X93321266Y-90033000D01*
X93329917Y-90029417D01*
X93333500Y-90020766D01*
X93333500Y-90020765D01*
X93841500Y-90020765D01*
X93845083Y-90029416D01*
X93853734Y-90032999D01*
X93917689Y-90032999D01*
X93920482Y-90032871D01*
X93989218Y-90026556D01*
X93995585Y-90025281D01*
X94152458Y-89976120D01*
X94159159Y-89973095D01*
X94299397Y-89888164D01*
X94305194Y-89883618D01*
X94421118Y-89767694D01*
X94425664Y-89761897D01*
X94510595Y-89621659D01*
X94513620Y-89614958D01*
X94562780Y-89458087D01*
X94564056Y-89451717D01*
X94569775Y-89389483D01*
X95105226Y-89389483D01*
X95110944Y-89451718D01*
X95112219Y-89458085D01*
X95161380Y-89614958D01*
X95164405Y-89621659D01*
X95249336Y-89761897D01*
X95253882Y-89767694D01*
X95369806Y-89883618D01*
X95375603Y-89888164D01*
X95515841Y-89973095D01*
X95522542Y-89976120D01*
X95679413Y-90025280D01*
X95685783Y-90026556D01*
X95754519Y-90032872D01*
X95757309Y-90033000D01*
X95821266Y-90033000D01*
X95829917Y-90029417D01*
X95833500Y-90020766D01*
X95833500Y-90020765D01*
X96341500Y-90020765D01*
X96345083Y-90029416D01*
X96353734Y-90032999D01*
X96417689Y-90032999D01*
X96420482Y-90032871D01*
X96489218Y-90026556D01*
X96495585Y-90025281D01*
X96652458Y-89976120D01*
X96659159Y-89973095D01*
X96799397Y-89888164D01*
X96805194Y-89883618D01*
X96921118Y-89767694D01*
X96925664Y-89761897D01*
X97010595Y-89621659D01*
X97013620Y-89614958D01*
X97062780Y-89458087D01*
X97064056Y-89451717D01*
X97069775Y-89389483D01*
X97605226Y-89389483D01*
X97610944Y-89451718D01*
X97612219Y-89458085D01*
X97661380Y-89614958D01*
X97664405Y-89621659D01*
X97749336Y-89761897D01*
X97753882Y-89767694D01*
X97869806Y-89883618D01*
X97875603Y-89888164D01*
X98015841Y-89973095D01*
X98022542Y-89976120D01*
X98179413Y-90025280D01*
X98185783Y-90026556D01*
X98254519Y-90032872D01*
X98257309Y-90033000D01*
X98321266Y-90033000D01*
X98329917Y-90029417D01*
X98333500Y-90020766D01*
X98333500Y-90020765D01*
X98841500Y-90020765D01*
X98845083Y-90029416D01*
X98853734Y-90032999D01*
X98917689Y-90032999D01*
X98920482Y-90032871D01*
X98989218Y-90026556D01*
X98995585Y-90025281D01*
X99152458Y-89976120D01*
X99159159Y-89973095D01*
X99299397Y-89888164D01*
X99305194Y-89883618D01*
X99421118Y-89767694D01*
X99425664Y-89761897D01*
X99510595Y-89621659D01*
X99513620Y-89614958D01*
X99562780Y-89458087D01*
X99564056Y-89451717D01*
X99569775Y-89389483D01*
X100105226Y-89389483D01*
X100110944Y-89451718D01*
X100112219Y-89458085D01*
X100161380Y-89614958D01*
X100164405Y-89621659D01*
X100249336Y-89761897D01*
X100253882Y-89767694D01*
X100369806Y-89883618D01*
X100375603Y-89888164D01*
X100515841Y-89973095D01*
X100522542Y-89976120D01*
X100679413Y-90025280D01*
X100685783Y-90026556D01*
X100754519Y-90032872D01*
X100757309Y-90033000D01*
X100821266Y-90033000D01*
X100829917Y-90029417D01*
X100833500Y-90020766D01*
X100833500Y-90020765D01*
X101341500Y-90020765D01*
X101345083Y-90029416D01*
X101353734Y-90032999D01*
X101417689Y-90032999D01*
X101420482Y-90032871D01*
X101489218Y-90026556D01*
X101495585Y-90025281D01*
X101652458Y-89976120D01*
X101659159Y-89973095D01*
X101799397Y-89888164D01*
X101805194Y-89883618D01*
X101921118Y-89767694D01*
X101925664Y-89761897D01*
X102010595Y-89621659D01*
X102013620Y-89614958D01*
X102062780Y-89458087D01*
X102064056Y-89451717D01*
X102069775Y-89389483D01*
X102605226Y-89389483D01*
X102610944Y-89451718D01*
X102612219Y-89458085D01*
X102661380Y-89614958D01*
X102664405Y-89621659D01*
X102749336Y-89761897D01*
X102753882Y-89767694D01*
X102869806Y-89883618D01*
X102875603Y-89888164D01*
X103015841Y-89973095D01*
X103022542Y-89976120D01*
X103179413Y-90025280D01*
X103185783Y-90026556D01*
X103254519Y-90032872D01*
X103257309Y-90033000D01*
X103321266Y-90033000D01*
X103329917Y-90029417D01*
X103333500Y-90020766D01*
X103333500Y-89391234D01*
X103329917Y-89382583D01*
X103321266Y-89379000D01*
X102616735Y-89379000D01*
X102608084Y-89382583D01*
X102605226Y-89389483D01*
X102069775Y-89389483D01*
X102066917Y-89382583D01*
X102058266Y-89379000D01*
X101353734Y-89379000D01*
X101345083Y-89382583D01*
X101341500Y-89391234D01*
X101341500Y-90020765D01*
X100833500Y-90020765D01*
X100833500Y-89391234D01*
X100829917Y-89382583D01*
X100821266Y-89379000D01*
X100116735Y-89379000D01*
X100108084Y-89382583D01*
X100105226Y-89389483D01*
X99569775Y-89389483D01*
X99566917Y-89382583D01*
X99558266Y-89379000D01*
X98853734Y-89379000D01*
X98845083Y-89382583D01*
X98841500Y-89391234D01*
X98841500Y-90020765D01*
X98333500Y-90020765D01*
X98333500Y-89391234D01*
X98329917Y-89382583D01*
X98321266Y-89379000D01*
X97616735Y-89379000D01*
X97608084Y-89382583D01*
X97605226Y-89389483D01*
X97069775Y-89389483D01*
X97066917Y-89382583D01*
X97058266Y-89379000D01*
X96353734Y-89379000D01*
X96345083Y-89382583D01*
X96341500Y-89391234D01*
X96341500Y-90020765D01*
X95833500Y-90020765D01*
X95833500Y-89391234D01*
X95829917Y-89382583D01*
X95821266Y-89379000D01*
X95116735Y-89379000D01*
X95108084Y-89382583D01*
X95105226Y-89389483D01*
X94569775Y-89389483D01*
X94566917Y-89382583D01*
X94558266Y-89379000D01*
X93853734Y-89379000D01*
X93845083Y-89382583D01*
X93841500Y-89391234D01*
X93841500Y-90020765D01*
X93333500Y-90020765D01*
X93333500Y-89391234D01*
X93329917Y-89382583D01*
X93321266Y-89379000D01*
X92616735Y-89379000D01*
X92608084Y-89382583D01*
X92605226Y-89389483D01*
X92069775Y-89389483D01*
X92066917Y-89382583D01*
X92058266Y-89379000D01*
X91353734Y-89379000D01*
X91345083Y-89382583D01*
X91341500Y-89391234D01*
X91341500Y-90020765D01*
X90833500Y-90020765D01*
X90833500Y-89391234D01*
X90829917Y-89382583D01*
X90821266Y-89379000D01*
X90116735Y-89379000D01*
X90108084Y-89382583D01*
X90105226Y-89389483D01*
X89569775Y-89389483D01*
X89566917Y-89382583D01*
X89558266Y-89379000D01*
X88853734Y-89379000D01*
X88845083Y-89382583D01*
X88841500Y-89391234D01*
X88841500Y-90020765D01*
X88333500Y-90020765D01*
X88333500Y-89391234D01*
X88329917Y-89382583D01*
X88321266Y-89379000D01*
X87616735Y-89379000D01*
X87608084Y-89382583D01*
X87605226Y-89389483D01*
X87069775Y-89389483D01*
X87066917Y-89382583D01*
X87058266Y-89379000D01*
X86353734Y-89379000D01*
X86345083Y-89382583D01*
X86341500Y-89391234D01*
X86341500Y-90020765D01*
X85833500Y-90020765D01*
X85833500Y-89391234D01*
X85829917Y-89382583D01*
X85821266Y-89379000D01*
X85116735Y-89379000D01*
X85108084Y-89382583D01*
X85105226Y-89389483D01*
X80753369Y-89389483D01*
X80780846Y-89333889D01*
X80782698Y-89329210D01*
X80846146Y-89120379D01*
X80847209Y-89115461D01*
X80849754Y-89096128D01*
X80847331Y-89087085D01*
X80841987Y-89084000D01*
X79781234Y-89084000D01*
X79772583Y-89087583D01*
X79769000Y-89096234D01*
X79769000Y-90154398D01*
X79261000Y-90154398D01*
X79261000Y-89096234D01*
X79257417Y-89087583D01*
X79248766Y-89084000D01*
X78192344Y-89084000D01*
X78183693Y-89087583D01*
X78181896Y-89091923D01*
X77995017Y-89091923D01*
X78004351Y-89063863D01*
X78030039Y-88860517D01*
X85105225Y-88860517D01*
X85108083Y-88867417D01*
X85116734Y-88871000D01*
X85821266Y-88871000D01*
X85829917Y-88867417D01*
X85833500Y-88858766D01*
X86341500Y-88858766D01*
X86345083Y-88867417D01*
X86353734Y-88871000D01*
X87058265Y-88871000D01*
X87066916Y-88867417D01*
X87069774Y-88860517D01*
X87605225Y-88860517D01*
X87608083Y-88867417D01*
X87616734Y-88871000D01*
X88321266Y-88871000D01*
X88329917Y-88867417D01*
X88333500Y-88858766D01*
X88841500Y-88858766D01*
X88845083Y-88867417D01*
X88853734Y-88871000D01*
X89558265Y-88871000D01*
X89566916Y-88867417D01*
X89569774Y-88860517D01*
X90105225Y-88860517D01*
X90108083Y-88867417D01*
X90116734Y-88871000D01*
X90821266Y-88871000D01*
X90829917Y-88867417D01*
X90833500Y-88858766D01*
X91341500Y-88858766D01*
X91345083Y-88867417D01*
X91353734Y-88871000D01*
X92058265Y-88871000D01*
X92066916Y-88867417D01*
X92069774Y-88860517D01*
X92605225Y-88860517D01*
X92608083Y-88867417D01*
X92616734Y-88871000D01*
X93321266Y-88871000D01*
X93329917Y-88867417D01*
X93333500Y-88858766D01*
X93841500Y-88858766D01*
X93845083Y-88867417D01*
X93853734Y-88871000D01*
X94558265Y-88871000D01*
X94566916Y-88867417D01*
X94569774Y-88860517D01*
X95105225Y-88860517D01*
X95108083Y-88867417D01*
X95116734Y-88871000D01*
X95821266Y-88871000D01*
X95829917Y-88867417D01*
X95833500Y-88858766D01*
X96341500Y-88858766D01*
X96345083Y-88867417D01*
X96353734Y-88871000D01*
X97058265Y-88871000D01*
X97066916Y-88867417D01*
X97069774Y-88860517D01*
X97605225Y-88860517D01*
X97608083Y-88867417D01*
X97616734Y-88871000D01*
X98321266Y-88871000D01*
X98329917Y-88867417D01*
X98333500Y-88858766D01*
X98841500Y-88858766D01*
X98845083Y-88867417D01*
X98853734Y-88871000D01*
X99558265Y-88871000D01*
X99566916Y-88867417D01*
X99569774Y-88860517D01*
X100105225Y-88860517D01*
X100108083Y-88867417D01*
X100116734Y-88871000D01*
X100821266Y-88871000D01*
X100829917Y-88867417D01*
X100833500Y-88858766D01*
X101341500Y-88858766D01*
X101345083Y-88867417D01*
X101353734Y-88871000D01*
X102058265Y-88871000D01*
X102066916Y-88867417D01*
X102069774Y-88860517D01*
X102605225Y-88860517D01*
X102608083Y-88867417D01*
X102616734Y-88871000D01*
X103321266Y-88871000D01*
X103329917Y-88867417D01*
X103333500Y-88858766D01*
X103333500Y-88229235D01*
X103329917Y-88220584D01*
X103321266Y-88217001D01*
X103257311Y-88217001D01*
X103254518Y-88217129D01*
X103185782Y-88223444D01*
X103179415Y-88224719D01*
X103022542Y-88273880D01*
X103015841Y-88276905D01*
X102875603Y-88361836D01*
X102869806Y-88366382D01*
X102753882Y-88482306D01*
X102749336Y-88488103D01*
X102664405Y-88628341D01*
X102661380Y-88635042D01*
X102612220Y-88791913D01*
X102610944Y-88798283D01*
X102605225Y-88860517D01*
X102069774Y-88860517D01*
X102064056Y-88798282D01*
X102062781Y-88791915D01*
X102013620Y-88635042D01*
X102010595Y-88628341D01*
X101925664Y-88488103D01*
X101921118Y-88482306D01*
X101805194Y-88366382D01*
X101799397Y-88361836D01*
X101659159Y-88276905D01*
X101652458Y-88273880D01*
X101495587Y-88224720D01*
X101489217Y-88223444D01*
X101420481Y-88217128D01*
X101417691Y-88217000D01*
X101353734Y-88217000D01*
X101345083Y-88220583D01*
X101341500Y-88229234D01*
X101341500Y-88858766D01*
X100833500Y-88858766D01*
X100833500Y-88229235D01*
X100829917Y-88220584D01*
X100821266Y-88217001D01*
X100757311Y-88217001D01*
X100754518Y-88217129D01*
X100685782Y-88223444D01*
X100679415Y-88224719D01*
X100522542Y-88273880D01*
X100515841Y-88276905D01*
X100375603Y-88361836D01*
X100369806Y-88366382D01*
X100253882Y-88482306D01*
X100249336Y-88488103D01*
X100164405Y-88628341D01*
X100161380Y-88635042D01*
X100112220Y-88791913D01*
X100110944Y-88798283D01*
X100105225Y-88860517D01*
X99569774Y-88860517D01*
X99564056Y-88798282D01*
X99562781Y-88791915D01*
X99513620Y-88635042D01*
X99510595Y-88628341D01*
X99425664Y-88488103D01*
X99421118Y-88482306D01*
X99305194Y-88366382D01*
X99299397Y-88361836D01*
X99159159Y-88276905D01*
X99152458Y-88273880D01*
X98995587Y-88224720D01*
X98989217Y-88223444D01*
X98920481Y-88217128D01*
X98917691Y-88217000D01*
X98853734Y-88217000D01*
X98845083Y-88220583D01*
X98841500Y-88229234D01*
X98841500Y-88858766D01*
X98333500Y-88858766D01*
X98333500Y-88229235D01*
X98329917Y-88220584D01*
X98321266Y-88217001D01*
X98257311Y-88217001D01*
X98254518Y-88217129D01*
X98185782Y-88223444D01*
X98179415Y-88224719D01*
X98022542Y-88273880D01*
X98015841Y-88276905D01*
X97875603Y-88361836D01*
X97869806Y-88366382D01*
X97753882Y-88482306D01*
X97749336Y-88488103D01*
X97664405Y-88628341D01*
X97661380Y-88635042D01*
X97612220Y-88791913D01*
X97610944Y-88798283D01*
X97605225Y-88860517D01*
X97069774Y-88860517D01*
X97064056Y-88798282D01*
X97062781Y-88791915D01*
X97013620Y-88635042D01*
X97010595Y-88628341D01*
X96925664Y-88488103D01*
X96921118Y-88482306D01*
X96805194Y-88366382D01*
X96799397Y-88361836D01*
X96659159Y-88276905D01*
X96652458Y-88273880D01*
X96495587Y-88224720D01*
X96489217Y-88223444D01*
X96420481Y-88217128D01*
X96417691Y-88217000D01*
X96353734Y-88217000D01*
X96345083Y-88220583D01*
X96341500Y-88229234D01*
X96341500Y-88858766D01*
X95833500Y-88858766D01*
X95833500Y-88229235D01*
X95829917Y-88220584D01*
X95821266Y-88217001D01*
X95757311Y-88217001D01*
X95754518Y-88217129D01*
X95685782Y-88223444D01*
X95679415Y-88224719D01*
X95522542Y-88273880D01*
X95515841Y-88276905D01*
X95375603Y-88361836D01*
X95369806Y-88366382D01*
X95253882Y-88482306D01*
X95249336Y-88488103D01*
X95164405Y-88628341D01*
X95161380Y-88635042D01*
X95112220Y-88791913D01*
X95110944Y-88798283D01*
X95105225Y-88860517D01*
X94569774Y-88860517D01*
X94564056Y-88798282D01*
X94562781Y-88791915D01*
X94513620Y-88635042D01*
X94510595Y-88628341D01*
X94425664Y-88488103D01*
X94421118Y-88482306D01*
X94305194Y-88366382D01*
X94299397Y-88361836D01*
X94159159Y-88276905D01*
X94152458Y-88273880D01*
X93995587Y-88224720D01*
X93989217Y-88223444D01*
X93920481Y-88217128D01*
X93917691Y-88217000D01*
X93853734Y-88217000D01*
X93845083Y-88220583D01*
X93841500Y-88229234D01*
X93841500Y-88858766D01*
X93333500Y-88858766D01*
X93333500Y-88229235D01*
X93329917Y-88220584D01*
X93321266Y-88217001D01*
X93257311Y-88217001D01*
X93254518Y-88217129D01*
X93185782Y-88223444D01*
X93179415Y-88224719D01*
X93022542Y-88273880D01*
X93015841Y-88276905D01*
X92875603Y-88361836D01*
X92869806Y-88366382D01*
X92753882Y-88482306D01*
X92749336Y-88488103D01*
X92664405Y-88628341D01*
X92661380Y-88635042D01*
X92612220Y-88791913D01*
X92610944Y-88798283D01*
X92605225Y-88860517D01*
X92069774Y-88860517D01*
X92064056Y-88798282D01*
X92062781Y-88791915D01*
X92013620Y-88635042D01*
X92010595Y-88628341D01*
X91925664Y-88488103D01*
X91921118Y-88482306D01*
X91805194Y-88366382D01*
X91799397Y-88361836D01*
X91659159Y-88276905D01*
X91652458Y-88273880D01*
X91495587Y-88224720D01*
X91489217Y-88223444D01*
X91420481Y-88217128D01*
X91417691Y-88217000D01*
X91353734Y-88217000D01*
X91345083Y-88220583D01*
X91341500Y-88229234D01*
X91341500Y-88858766D01*
X90833500Y-88858766D01*
X90833500Y-88229235D01*
X90829917Y-88220584D01*
X90821266Y-88217001D01*
X90757311Y-88217001D01*
X90754518Y-88217129D01*
X90685782Y-88223444D01*
X90679415Y-88224719D01*
X90522542Y-88273880D01*
X90515841Y-88276905D01*
X90375603Y-88361836D01*
X90369806Y-88366382D01*
X90253882Y-88482306D01*
X90249336Y-88488103D01*
X90164405Y-88628341D01*
X90161380Y-88635042D01*
X90112220Y-88791913D01*
X90110944Y-88798283D01*
X90105225Y-88860517D01*
X89569774Y-88860517D01*
X89564056Y-88798282D01*
X89562781Y-88791915D01*
X89513620Y-88635042D01*
X89510595Y-88628341D01*
X89425664Y-88488103D01*
X89421118Y-88482306D01*
X89305194Y-88366382D01*
X89299397Y-88361836D01*
X89159159Y-88276905D01*
X89152458Y-88273880D01*
X88995587Y-88224720D01*
X88989217Y-88223444D01*
X88920481Y-88217128D01*
X88917691Y-88217000D01*
X88853734Y-88217000D01*
X88845083Y-88220583D01*
X88841500Y-88229234D01*
X88841500Y-88858766D01*
X88333500Y-88858766D01*
X88333500Y-88229235D01*
X88329917Y-88220584D01*
X88321266Y-88217001D01*
X88257311Y-88217001D01*
X88254518Y-88217129D01*
X88185782Y-88223444D01*
X88179415Y-88224719D01*
X88022542Y-88273880D01*
X88015841Y-88276905D01*
X87875603Y-88361836D01*
X87869806Y-88366382D01*
X87753882Y-88482306D01*
X87749336Y-88488103D01*
X87664405Y-88628341D01*
X87661380Y-88635042D01*
X87612220Y-88791913D01*
X87610944Y-88798283D01*
X87605225Y-88860517D01*
X87069774Y-88860517D01*
X87064056Y-88798282D01*
X87062781Y-88791915D01*
X87013620Y-88635042D01*
X87010595Y-88628341D01*
X86925664Y-88488103D01*
X86921118Y-88482306D01*
X86805194Y-88366382D01*
X86799397Y-88361836D01*
X86659159Y-88276905D01*
X86652458Y-88273880D01*
X86495587Y-88224720D01*
X86489217Y-88223444D01*
X86420481Y-88217128D01*
X86417691Y-88217000D01*
X86353734Y-88217000D01*
X86345083Y-88220583D01*
X86341500Y-88229234D01*
X86341500Y-88858766D01*
X85833500Y-88858766D01*
X85833500Y-88229235D01*
X85829917Y-88220584D01*
X85821266Y-88217001D01*
X85757311Y-88217001D01*
X85754518Y-88217129D01*
X85685782Y-88223444D01*
X85679415Y-88224719D01*
X85522542Y-88273880D01*
X85515841Y-88276905D01*
X85375603Y-88361836D01*
X85369806Y-88366382D01*
X85253882Y-88482306D01*
X85249336Y-88488103D01*
X85164405Y-88628341D01*
X85161380Y-88635042D01*
X85112220Y-88791913D01*
X85110944Y-88798283D01*
X85105225Y-88860517D01*
X78030039Y-88860517D01*
X78030171Y-88859474D01*
X78030583Y-88830000D01*
X78028846Y-88812275D01*
X78010774Y-88627966D01*
X78010774Y-88627964D01*
X78010480Y-88624970D01*
X78005255Y-88607662D01*
X77951805Y-88430632D01*
X77950935Y-88427749D01*
X77908403Y-88347757D01*
X77903891Y-88300905D01*
X77919217Y-88275399D01*
X78486103Y-87708513D01*
X78529590Y-87690500D01*
X78586463Y-87690500D01*
X78629950Y-87708513D01*
X78647963Y-87752000D01*
X78629950Y-87795487D01*
X78623389Y-87801181D01*
X78612319Y-87809493D01*
X78608551Y-87812838D01*
X78457758Y-87970634D01*
X78454600Y-87974534D01*
X78331600Y-88154845D01*
X78329117Y-88159216D01*
X78237224Y-88357183D01*
X78235483Y-88361917D01*
X78178590Y-88567064D01*
X78180282Y-88572818D01*
X78186116Y-88576000D01*
X80839225Y-88576000D01*
X80847876Y-88572417D01*
X80849546Y-88568384D01*
X80805569Y-88393307D01*
X80803950Y-88388551D01*
X80716918Y-88188391D01*
X80714543Y-88183961D01*
X80595991Y-88000706D01*
X80592913Y-87996710D01*
X80446028Y-87835286D01*
X80442347Y-87831854D01*
X80271067Y-87696585D01*
X80266861Y-87693791D01*
X80225656Y-87671045D01*
X80196289Y-87634259D01*
X80201536Y-87587483D01*
X80211890Y-87573717D01*
X80811340Y-86974267D01*
X80820659Y-86966619D01*
X80833588Y-86957980D01*
X80838624Y-86954615D01*
X80862668Y-86918632D01*
X80899515Y-86863486D01*
X80911084Y-86805324D01*
X80915500Y-86783124D01*
X80915500Y-86783120D01*
X80920896Y-86755991D01*
X80916682Y-86734803D01*
X80915500Y-86722808D01*
X80915500Y-85115667D01*
X85187000Y-85115667D01*
X85187001Y-85709332D01*
X85187138Y-85710778D01*
X85187138Y-85710786D01*
X85189445Y-85735191D01*
X85189940Y-85740434D01*
X85191180Y-85743966D01*
X85191181Y-85743969D01*
X85197121Y-85760884D01*
X85234202Y-85866476D01*
X85313570Y-85973930D01*
X85421024Y-86053298D01*
X85547066Y-86097560D01*
X85550795Y-86097912D01*
X85550797Y-86097913D01*
X85576717Y-86100363D01*
X85576718Y-86100363D01*
X85578167Y-86100500D01*
X85750500Y-86100500D01*
X85793987Y-86118513D01*
X85812000Y-86162000D01*
X85812000Y-86817062D01*
X85793987Y-86860549D01*
X85760120Y-86877805D01*
X85691975Y-86888597D01*
X85691974Y-86888597D01*
X85687196Y-86889354D01*
X85682888Y-86891549D01*
X85682885Y-86891550D01*
X85631530Y-86917717D01*
X85574158Y-86946950D01*
X85484450Y-87036658D01*
X85426854Y-87149696D01*
X85426097Y-87154473D01*
X85426097Y-87154474D01*
X85425404Y-87158852D01*
X85412000Y-87243481D01*
X85412001Y-87706518D01*
X85426854Y-87800304D01*
X85429049Y-87804612D01*
X85429050Y-87804615D01*
X85444678Y-87835286D01*
X85484450Y-87913342D01*
X85574158Y-88003050D01*
X85687196Y-88060646D01*
X85691973Y-88061403D01*
X85691974Y-88061403D01*
X85730425Y-88067493D01*
X85780981Y-88075500D01*
X85783403Y-88075500D01*
X86088197Y-88075499D01*
X86394018Y-88075499D01*
X86426458Y-88070361D01*
X86483025Y-88061403D01*
X86483026Y-88061403D01*
X86487804Y-88060646D01*
X86492112Y-88058451D01*
X86492115Y-88058450D01*
X86543470Y-88032283D01*
X86600842Y-88003050D01*
X86690550Y-87913342D01*
X86748146Y-87800304D01*
X86763000Y-87706519D01*
X86762999Y-87243482D01*
X86748146Y-87149696D01*
X86745950Y-87145386D01*
X86745950Y-87145385D01*
X86695378Y-87046134D01*
X86690550Y-87036658D01*
X86600842Y-86946950D01*
X86487804Y-86889354D01*
X86483027Y-86888597D01*
X86483026Y-86888597D01*
X86437306Y-86881356D01*
X86414879Y-86877804D01*
X86374746Y-86853210D01*
X86363000Y-86817061D01*
X86363000Y-86161999D01*
X86381013Y-86118512D01*
X86424500Y-86100499D01*
X86596832Y-86100499D01*
X86598278Y-86100362D01*
X86598286Y-86100362D01*
X86624203Y-86097913D01*
X86624207Y-86097912D01*
X86627934Y-86097560D01*
X86631466Y-86096320D01*
X86631469Y-86096319D01*
X86705122Y-86070454D01*
X86753976Y-86053298D01*
X86861430Y-85973930D01*
X86940798Y-85866476D01*
X86985060Y-85740434D01*
X86988000Y-85709333D01*
X86987999Y-85115668D01*
X86987999Y-85115667D01*
X87687000Y-85115667D01*
X87687001Y-85709332D01*
X87687138Y-85710778D01*
X87687138Y-85710786D01*
X87689445Y-85735191D01*
X87689940Y-85740434D01*
X87691180Y-85743966D01*
X87691181Y-85743969D01*
X87697121Y-85760884D01*
X87734202Y-85866476D01*
X87813570Y-85973930D01*
X87921024Y-86053298D01*
X88047066Y-86097560D01*
X88050795Y-86097912D01*
X88050797Y-86097913D01*
X88076717Y-86100363D01*
X88076718Y-86100363D01*
X88078167Y-86100500D01*
X88250500Y-86100500D01*
X88293987Y-86118513D01*
X88312000Y-86162000D01*
X88312000Y-86817062D01*
X88293987Y-86860549D01*
X88260120Y-86877805D01*
X88191975Y-86888597D01*
X88191974Y-86888597D01*
X88187196Y-86889354D01*
X88182888Y-86891549D01*
X88182885Y-86891550D01*
X88131530Y-86917717D01*
X88074158Y-86946950D01*
X87984450Y-87036658D01*
X87926854Y-87149696D01*
X87926097Y-87154473D01*
X87926097Y-87154474D01*
X87925404Y-87158852D01*
X87912000Y-87243481D01*
X87912001Y-87706518D01*
X87926854Y-87800304D01*
X87929049Y-87804612D01*
X87929050Y-87804615D01*
X87944678Y-87835286D01*
X87984450Y-87913342D01*
X88074158Y-88003050D01*
X88187196Y-88060646D01*
X88191973Y-88061403D01*
X88191974Y-88061403D01*
X88230425Y-88067493D01*
X88280981Y-88075500D01*
X88283403Y-88075500D01*
X88588197Y-88075499D01*
X88894018Y-88075499D01*
X88926458Y-88070361D01*
X88983025Y-88061403D01*
X88983026Y-88061403D01*
X88987804Y-88060646D01*
X88992112Y-88058451D01*
X88992115Y-88058450D01*
X89043470Y-88032283D01*
X89100842Y-88003050D01*
X89190550Y-87913342D01*
X89248146Y-87800304D01*
X89263000Y-87706519D01*
X89262999Y-87243482D01*
X89248146Y-87149696D01*
X89245950Y-87145386D01*
X89245950Y-87145385D01*
X89195378Y-87046134D01*
X89190550Y-87036658D01*
X89100842Y-86946950D01*
X88987804Y-86889354D01*
X88983027Y-86888597D01*
X88983026Y-86888597D01*
X88937306Y-86881356D01*
X88914879Y-86877804D01*
X88874746Y-86853210D01*
X88863000Y-86817061D01*
X88863000Y-86161999D01*
X88881013Y-86118512D01*
X88924500Y-86100499D01*
X89096832Y-86100499D01*
X89098278Y-86100362D01*
X89098286Y-86100362D01*
X89124203Y-86097913D01*
X89124207Y-86097912D01*
X89127934Y-86097560D01*
X89131466Y-86096320D01*
X89131469Y-86096319D01*
X89205122Y-86070454D01*
X89253976Y-86053298D01*
X89361430Y-85973930D01*
X89440798Y-85866476D01*
X89485060Y-85740434D01*
X89488000Y-85709333D01*
X89487999Y-85115668D01*
X89487999Y-85115667D01*
X90287000Y-85115667D01*
X90287001Y-85709332D01*
X90287138Y-85710778D01*
X90287138Y-85710786D01*
X90289445Y-85735191D01*
X90289940Y-85740434D01*
X90291180Y-85743966D01*
X90291181Y-85743969D01*
X90297121Y-85760884D01*
X90334202Y-85866476D01*
X90413570Y-85973930D01*
X90521024Y-86053298D01*
X90647066Y-86097560D01*
X90650795Y-86097912D01*
X90650797Y-86097913D01*
X90676717Y-86100363D01*
X90676718Y-86100363D01*
X90678167Y-86100500D01*
X90850500Y-86100500D01*
X90893987Y-86118513D01*
X90912000Y-86162000D01*
X90912000Y-86813001D01*
X90893987Y-86856488D01*
X90850500Y-86874501D01*
X90780982Y-86874501D01*
X90778601Y-86874878D01*
X90778602Y-86874878D01*
X90691975Y-86888597D01*
X90691974Y-86888597D01*
X90687196Y-86889354D01*
X90682888Y-86891549D01*
X90682885Y-86891550D01*
X90631530Y-86917717D01*
X90574158Y-86946950D01*
X90484450Y-87036658D01*
X90426854Y-87149696D01*
X90426097Y-87154473D01*
X90426097Y-87154474D01*
X90425404Y-87158852D01*
X90412000Y-87243481D01*
X90412001Y-87706518D01*
X90426854Y-87800304D01*
X90429049Y-87804612D01*
X90429050Y-87804615D01*
X90444678Y-87835286D01*
X90484450Y-87913342D01*
X90574158Y-88003050D01*
X90687196Y-88060646D01*
X90691973Y-88061403D01*
X90691974Y-88061403D01*
X90730425Y-88067493D01*
X90780981Y-88075500D01*
X90783403Y-88075500D01*
X91088197Y-88075499D01*
X91394018Y-88075499D01*
X91426458Y-88070361D01*
X91483025Y-88061403D01*
X91483026Y-88061403D01*
X91487804Y-88060646D01*
X91492112Y-88058451D01*
X91492115Y-88058450D01*
X91543470Y-88032283D01*
X91600842Y-88003050D01*
X91690550Y-87913342D01*
X91748146Y-87800304D01*
X91763000Y-87706519D01*
X91762999Y-87243482D01*
X91748146Y-87149696D01*
X91745950Y-87145386D01*
X91745950Y-87145385D01*
X91695378Y-87046134D01*
X91690550Y-87036658D01*
X91600842Y-86946950D01*
X91496579Y-86893825D01*
X91466010Y-86858032D01*
X91463000Y-86839028D01*
X91463000Y-86161999D01*
X91481013Y-86118512D01*
X91524500Y-86100499D01*
X91696832Y-86100499D01*
X91698278Y-86100362D01*
X91698286Y-86100362D01*
X91724203Y-86097913D01*
X91724207Y-86097912D01*
X91727934Y-86097560D01*
X91731466Y-86096320D01*
X91731469Y-86096319D01*
X91805122Y-86070454D01*
X91853976Y-86053298D01*
X91961430Y-85973930D01*
X92040798Y-85866476D01*
X92085060Y-85740434D01*
X92088000Y-85709333D01*
X92087999Y-85115668D01*
X92087999Y-85115667D01*
X92687000Y-85115667D01*
X92687001Y-85709332D01*
X92687138Y-85710778D01*
X92687138Y-85710786D01*
X92689445Y-85735191D01*
X92689940Y-85740434D01*
X92691180Y-85743966D01*
X92691181Y-85743969D01*
X92697121Y-85760884D01*
X92734202Y-85866476D01*
X92813570Y-85973930D01*
X92921024Y-86053298D01*
X93047066Y-86097560D01*
X93050795Y-86097912D01*
X93050797Y-86097913D01*
X93076717Y-86100363D01*
X93076718Y-86100363D01*
X93078167Y-86100500D01*
X93250500Y-86100500D01*
X93293987Y-86118513D01*
X93312000Y-86162000D01*
X93312000Y-86817062D01*
X93293987Y-86860549D01*
X93260120Y-86877805D01*
X93191975Y-86888597D01*
X93191974Y-86888597D01*
X93187196Y-86889354D01*
X93182888Y-86891549D01*
X93182885Y-86891550D01*
X93131530Y-86917717D01*
X93074158Y-86946950D01*
X92984450Y-87036658D01*
X92926854Y-87149696D01*
X92926097Y-87154473D01*
X92926097Y-87154474D01*
X92925404Y-87158852D01*
X92912000Y-87243481D01*
X92912001Y-87706518D01*
X92926854Y-87800304D01*
X92929049Y-87804612D01*
X92929050Y-87804615D01*
X92944678Y-87835286D01*
X92984450Y-87913342D01*
X93074158Y-88003050D01*
X93187196Y-88060646D01*
X93191973Y-88061403D01*
X93191974Y-88061403D01*
X93230425Y-88067493D01*
X93280981Y-88075500D01*
X93283403Y-88075500D01*
X93588197Y-88075499D01*
X93894018Y-88075499D01*
X93926458Y-88070361D01*
X93983025Y-88061403D01*
X93983026Y-88061403D01*
X93987804Y-88060646D01*
X93992112Y-88058451D01*
X93992115Y-88058450D01*
X94043470Y-88032283D01*
X94100842Y-88003050D01*
X94190550Y-87913342D01*
X94248146Y-87800304D01*
X94263000Y-87706519D01*
X94262999Y-87243482D01*
X94248146Y-87149696D01*
X94245950Y-87145386D01*
X94245950Y-87145385D01*
X94195378Y-87046134D01*
X94190550Y-87036658D01*
X94100842Y-86946950D01*
X93987804Y-86889354D01*
X93983027Y-86888597D01*
X93983026Y-86888597D01*
X93937306Y-86881356D01*
X93914879Y-86877804D01*
X93874746Y-86853210D01*
X93863000Y-86817061D01*
X93863000Y-86161999D01*
X93881013Y-86118512D01*
X93924500Y-86100499D01*
X94096832Y-86100499D01*
X94098278Y-86100362D01*
X94098286Y-86100362D01*
X94124203Y-86097913D01*
X94124207Y-86097912D01*
X94127934Y-86097560D01*
X94131466Y-86096320D01*
X94131469Y-86096319D01*
X94205122Y-86070454D01*
X94253976Y-86053298D01*
X94361430Y-85973930D01*
X94440798Y-85866476D01*
X94485060Y-85740434D01*
X94488000Y-85709333D01*
X94487999Y-85115668D01*
X94485060Y-85084566D01*
X94483819Y-85081030D01*
X94442321Y-84962862D01*
X94440798Y-84958524D01*
X94361430Y-84851070D01*
X94253976Y-84771702D01*
X94127934Y-84727440D01*
X94124205Y-84727088D01*
X94124203Y-84727087D01*
X94098283Y-84724637D01*
X94098282Y-84724637D01*
X94096833Y-84724500D01*
X93587850Y-84724500D01*
X93078168Y-84724501D01*
X93076722Y-84724638D01*
X93076714Y-84724638D01*
X93050797Y-84727087D01*
X93050793Y-84727088D01*
X93047066Y-84727440D01*
X93043534Y-84728680D01*
X93043531Y-84728681D01*
X92992804Y-84746495D01*
X92921024Y-84771702D01*
X92813570Y-84851070D01*
X92734202Y-84958524D01*
X92689940Y-85084566D01*
X92687000Y-85115667D01*
X92087999Y-85115667D01*
X92085060Y-85084566D01*
X92083819Y-85081030D01*
X92042321Y-84962862D01*
X92040798Y-84958524D01*
X91961430Y-84851070D01*
X91853976Y-84771702D01*
X91727934Y-84727440D01*
X91724205Y-84727088D01*
X91724203Y-84727087D01*
X91698283Y-84724637D01*
X91698282Y-84724637D01*
X91696833Y-84724500D01*
X91187850Y-84724500D01*
X90678168Y-84724501D01*
X90676722Y-84724638D01*
X90676714Y-84724638D01*
X90650797Y-84727087D01*
X90650793Y-84727088D01*
X90647066Y-84727440D01*
X90643534Y-84728680D01*
X90643531Y-84728681D01*
X90592804Y-84746495D01*
X90521024Y-84771702D01*
X90413570Y-84851070D01*
X90334202Y-84958524D01*
X90289940Y-85084566D01*
X90287000Y-85115667D01*
X89487999Y-85115667D01*
X89485060Y-85084566D01*
X89483819Y-85081030D01*
X89442321Y-84962862D01*
X89440798Y-84958524D01*
X89361430Y-84851070D01*
X89253976Y-84771702D01*
X89127934Y-84727440D01*
X89124205Y-84727088D01*
X89124203Y-84727087D01*
X89098283Y-84724637D01*
X89098282Y-84724637D01*
X89096833Y-84724500D01*
X88587850Y-84724500D01*
X88078168Y-84724501D01*
X88076722Y-84724638D01*
X88076714Y-84724638D01*
X88050797Y-84727087D01*
X88050793Y-84727088D01*
X88047066Y-84727440D01*
X88043534Y-84728680D01*
X88043531Y-84728681D01*
X87992804Y-84746495D01*
X87921024Y-84771702D01*
X87813570Y-84851070D01*
X87734202Y-84958524D01*
X87689940Y-85084566D01*
X87687000Y-85115667D01*
X86987999Y-85115667D01*
X86985060Y-85084566D01*
X86983819Y-85081030D01*
X86942321Y-84962862D01*
X86940798Y-84958524D01*
X86861430Y-84851070D01*
X86753976Y-84771702D01*
X86627934Y-84727440D01*
X86624205Y-84727088D01*
X86624203Y-84727087D01*
X86598283Y-84724637D01*
X86598282Y-84724637D01*
X86596833Y-84724500D01*
X86087850Y-84724500D01*
X85578168Y-84724501D01*
X85576722Y-84724638D01*
X85576714Y-84724638D01*
X85550797Y-84727087D01*
X85550793Y-84727088D01*
X85547066Y-84727440D01*
X85543534Y-84728680D01*
X85543531Y-84728681D01*
X85492804Y-84746495D01*
X85421024Y-84771702D01*
X85313570Y-84851070D01*
X85234202Y-84958524D01*
X85189940Y-85084566D01*
X85187000Y-85115667D01*
X80915500Y-85115667D01*
X80915500Y-83317198D01*
X80916682Y-83305200D01*
X80919715Y-83289952D01*
X80919715Y-83289951D01*
X80920897Y-83284009D01*
X80906089Y-83209566D01*
X80899515Y-83176514D01*
X80884225Y-83153630D01*
X80841989Y-83090421D01*
X80838624Y-83085385D01*
X80820659Y-83073381D01*
X80811340Y-83065733D01*
X79051094Y-81305487D01*
X79033081Y-81262000D01*
X79051094Y-81218513D01*
X79094581Y-81200500D01*
X80519748Y-81200500D01*
X80578231Y-81188867D01*
X80644552Y-81144552D01*
X80688867Y-81078231D01*
X80700500Y-81019748D01*
X80700500Y-78880252D01*
X80688867Y-78821769D01*
X80644552Y-78755448D01*
X80578231Y-78711133D01*
X80519748Y-78699500D01*
X79987000Y-78699500D01*
X79943513Y-78681487D01*
X79925500Y-78638000D01*
X79925500Y-78514590D01*
X79943513Y-78471103D01*
X83721243Y-74693373D01*
X83766512Y-74676669D01*
X83766512Y-74675500D01*
X84283488Y-74675500D01*
X84283488Y-74675979D01*
X84326596Y-74689981D01*
X84347970Y-74731918D01*
X84333429Y-74776686D01*
X84330147Y-74780237D01*
X83553660Y-75556724D01*
X83544341Y-75564372D01*
X83526376Y-75576376D01*
X83523011Y-75581412D01*
X83523009Y-75581414D01*
X83511008Y-75599375D01*
X83511007Y-75599377D01*
X83511006Y-75599378D01*
X83504135Y-75609661D01*
X83465485Y-75667505D01*
X83455257Y-75718922D01*
X83452457Y-75733000D01*
X83447561Y-75757617D01*
X83444103Y-75775000D01*
X83445285Y-75780942D01*
X83448318Y-75796190D01*
X83449500Y-75808188D01*
X83449500Y-81141812D01*
X83448318Y-81153810D01*
X83444103Y-81175000D01*
X83449500Y-81202132D01*
X83449500Y-81202133D01*
X83465485Y-81282495D01*
X83505583Y-81342505D01*
X83526376Y-81373624D01*
X83531412Y-81376989D01*
X83544341Y-81385628D01*
X83553660Y-81393276D01*
X85209366Y-83048982D01*
X85227379Y-83092469D01*
X85223905Y-83112846D01*
X85189940Y-83209566D01*
X85187000Y-83240667D01*
X85187001Y-83834332D01*
X85189940Y-83865434D01*
X85191180Y-83868966D01*
X85191181Y-83868969D01*
X85212250Y-83928964D01*
X85234202Y-83991476D01*
X85313570Y-84098930D01*
X85421024Y-84178298D01*
X85547066Y-84222560D01*
X85550795Y-84222912D01*
X85550797Y-84222913D01*
X85576717Y-84225363D01*
X85576718Y-84225363D01*
X85578167Y-84225500D01*
X86087150Y-84225500D01*
X86596832Y-84225499D01*
X86598278Y-84225362D01*
X86598286Y-84225362D01*
X86624203Y-84222913D01*
X86624207Y-84222912D01*
X86627934Y-84222560D01*
X86631466Y-84221320D01*
X86631469Y-84221319D01*
X86707135Y-84194747D01*
X86753976Y-84178298D01*
X86861430Y-84098930D01*
X86940798Y-83991476D01*
X86985060Y-83865434D01*
X86988000Y-83834333D01*
X86987999Y-83240668D01*
X86985060Y-83209566D01*
X86983819Y-83206030D01*
X86951095Y-83112846D01*
X86940798Y-83083524D01*
X86861430Y-82976070D01*
X86753976Y-82896702D01*
X86627934Y-82852440D01*
X86624205Y-82852088D01*
X86624203Y-82852087D01*
X86598283Y-82849637D01*
X86598282Y-82849637D01*
X86596833Y-82849500D01*
X86553163Y-82849500D01*
X85814591Y-82849501D01*
X85771104Y-82831488D01*
X84018513Y-81078897D01*
X84000500Y-81035410D01*
X84000500Y-79488590D01*
X84018513Y-79445103D01*
X84062000Y-79427090D01*
X84105487Y-79445103D01*
X87709366Y-83048982D01*
X87727379Y-83092469D01*
X87723905Y-83112846D01*
X87689940Y-83209566D01*
X87687000Y-83240667D01*
X87687001Y-83834332D01*
X87689940Y-83865434D01*
X87691180Y-83868966D01*
X87691181Y-83868969D01*
X87712250Y-83928964D01*
X87734202Y-83991476D01*
X87813570Y-84098930D01*
X87921024Y-84178298D01*
X88047066Y-84222560D01*
X88050795Y-84222912D01*
X88050797Y-84222913D01*
X88076717Y-84225363D01*
X88076718Y-84225363D01*
X88078167Y-84225500D01*
X88587150Y-84225500D01*
X89096832Y-84225499D01*
X89098278Y-84225362D01*
X89098286Y-84225362D01*
X89124203Y-84222913D01*
X89124207Y-84222912D01*
X89127934Y-84222560D01*
X89131466Y-84221320D01*
X89131469Y-84221319D01*
X89207135Y-84194747D01*
X89253976Y-84178298D01*
X89361430Y-84098930D01*
X89440798Y-83991476D01*
X89485060Y-83865434D01*
X89488000Y-83834333D01*
X89487999Y-83240668D01*
X89485060Y-83209566D01*
X89483819Y-83206030D01*
X89457954Y-83132377D01*
X89460541Y-83085378D01*
X89495603Y-83053974D01*
X89515980Y-83050500D01*
X90259020Y-83050500D01*
X90302507Y-83068513D01*
X90320520Y-83112000D01*
X90317046Y-83132377D01*
X90309583Y-83153630D01*
X90289940Y-83209566D01*
X90287000Y-83240667D01*
X90287001Y-83834332D01*
X90289940Y-83865434D01*
X90291180Y-83868966D01*
X90291181Y-83868969D01*
X90312250Y-83928964D01*
X90334202Y-83991476D01*
X90413570Y-84098930D01*
X90521024Y-84178298D01*
X90647066Y-84222560D01*
X90650795Y-84222912D01*
X90650797Y-84222913D01*
X90676717Y-84225363D01*
X90676718Y-84225363D01*
X90678167Y-84225500D01*
X91187150Y-84225500D01*
X91696832Y-84225499D01*
X91698278Y-84225362D01*
X91698286Y-84225362D01*
X91724203Y-84222913D01*
X91724207Y-84222912D01*
X91727934Y-84222560D01*
X91731466Y-84221320D01*
X91731469Y-84221319D01*
X91807135Y-84194747D01*
X91853976Y-84178298D01*
X91961430Y-84098930D01*
X92040798Y-83991476D01*
X92085060Y-83865434D01*
X92088000Y-83834333D01*
X92087999Y-83240668D01*
X92085060Y-83209566D01*
X92083819Y-83206030D01*
X92051095Y-83112846D01*
X92040798Y-83083524D01*
X91961430Y-82976070D01*
X91853976Y-82896702D01*
X91727934Y-82852440D01*
X91724205Y-82852088D01*
X91724203Y-82852087D01*
X91698283Y-82849637D01*
X91698282Y-82849637D01*
X91696833Y-82849500D01*
X91653163Y-82849500D01*
X90914591Y-82849501D01*
X90871104Y-82831488D01*
X90643276Y-82603660D01*
X90635628Y-82594341D01*
X90626989Y-82581412D01*
X90623624Y-82576376D01*
X90600623Y-82561007D01*
X90600622Y-82561006D01*
X90574465Y-82543529D01*
X90532495Y-82515485D01*
X90452133Y-82499500D01*
X90452132Y-82499500D01*
X90425000Y-82494103D01*
X90419058Y-82495285D01*
X90403810Y-82498318D01*
X90391812Y-82499500D01*
X89242142Y-82499500D01*
X89198655Y-82481487D01*
X88897655Y-82180487D01*
X88879642Y-82137000D01*
X88897655Y-82093513D01*
X88941142Y-82075500D01*
X91710410Y-82075500D01*
X91753897Y-82093513D01*
X92709366Y-83048982D01*
X92727379Y-83092469D01*
X92723905Y-83112846D01*
X92689940Y-83209566D01*
X92687000Y-83240667D01*
X92687001Y-83834332D01*
X92689940Y-83865434D01*
X92691180Y-83868966D01*
X92691181Y-83868969D01*
X92712250Y-83928964D01*
X92734202Y-83991476D01*
X92813570Y-84098930D01*
X92921024Y-84178298D01*
X93047066Y-84222560D01*
X93050795Y-84222912D01*
X93050797Y-84222913D01*
X93076717Y-84225363D01*
X93076718Y-84225363D01*
X93078167Y-84225500D01*
X93587150Y-84225500D01*
X94096832Y-84225499D01*
X94098278Y-84225362D01*
X94098286Y-84225362D01*
X94124203Y-84222913D01*
X94124207Y-84222912D01*
X94127934Y-84222560D01*
X94131466Y-84221320D01*
X94131469Y-84221319D01*
X94207135Y-84194747D01*
X94253976Y-84178298D01*
X94361430Y-84098930D01*
X94440798Y-83991476D01*
X94485060Y-83865434D01*
X94488000Y-83834333D01*
X94487999Y-83240668D01*
X94485060Y-83209566D01*
X94483819Y-83206030D01*
X94451095Y-83112846D01*
X94440798Y-83083524D01*
X94361430Y-82976070D01*
X94253976Y-82896702D01*
X94127934Y-82852440D01*
X94124205Y-82852088D01*
X94124203Y-82852087D01*
X94098283Y-82849637D01*
X94098282Y-82849637D01*
X94096833Y-82849500D01*
X94053163Y-82849500D01*
X93314591Y-82849501D01*
X93271104Y-82831488D01*
X92270103Y-81830487D01*
X92252090Y-81787000D01*
X92270103Y-81743513D01*
X92313590Y-81725500D01*
X96360410Y-81725500D01*
X96403897Y-81743513D01*
X97709366Y-83048982D01*
X97727379Y-83092469D01*
X97723905Y-83112846D01*
X97689940Y-83209566D01*
X97687000Y-83240667D01*
X97687001Y-83834332D01*
X97689940Y-83865434D01*
X97691180Y-83868966D01*
X97691181Y-83868969D01*
X97712250Y-83928964D01*
X97734202Y-83991476D01*
X97813570Y-84098930D01*
X97817266Y-84101660D01*
X97833338Y-84113531D01*
X97857616Y-84153857D01*
X97846268Y-84199539D01*
X97805942Y-84223817D01*
X97796799Y-84224500D01*
X97189590Y-84224500D01*
X97146103Y-84206487D01*
X96965634Y-84026018D01*
X96947621Y-83982531D01*
X96951095Y-83962154D01*
X96983818Y-83868970D01*
X96985060Y-83865434D01*
X96988000Y-83834333D01*
X96987999Y-83240668D01*
X96985060Y-83209566D01*
X96983819Y-83206030D01*
X96951095Y-83112846D01*
X96940798Y-83083524D01*
X96861430Y-82976070D01*
X96753976Y-82896702D01*
X96627934Y-82852440D01*
X96624205Y-82852088D01*
X96624203Y-82852087D01*
X96598283Y-82849637D01*
X96598282Y-82849637D01*
X96596833Y-82849500D01*
X96087850Y-82849500D01*
X95578168Y-82849501D01*
X95576722Y-82849638D01*
X95576714Y-82849638D01*
X95550797Y-82852087D01*
X95550793Y-82852088D01*
X95547066Y-82852440D01*
X95543534Y-82853680D01*
X95543531Y-82853681D01*
X95501014Y-82868612D01*
X95421024Y-82896702D01*
X95313570Y-82976070D01*
X95234202Y-83083524D01*
X95189940Y-83209566D01*
X95187000Y-83240667D01*
X95187001Y-83834332D01*
X95189940Y-83865434D01*
X95191180Y-83868966D01*
X95191181Y-83868969D01*
X95212250Y-83928964D01*
X95234202Y-83991476D01*
X95313570Y-84098930D01*
X95421024Y-84178298D01*
X95547066Y-84222560D01*
X95550795Y-84222912D01*
X95550797Y-84222913D01*
X95576717Y-84225363D01*
X95576718Y-84225363D01*
X95578167Y-84225500D01*
X95621837Y-84225500D01*
X96360409Y-84225499D01*
X96403896Y-84243512D01*
X96831723Y-84671339D01*
X96839371Y-84680658D01*
X96846923Y-84691960D01*
X96856106Y-84738125D01*
X96829956Y-84777263D01*
X96783791Y-84786446D01*
X96759248Y-84775596D01*
X96757674Y-84774433D01*
X96757672Y-84774432D01*
X96753976Y-84771702D01*
X96627934Y-84727440D01*
X96624205Y-84727088D01*
X96624203Y-84727087D01*
X96598283Y-84724637D01*
X96598282Y-84724637D01*
X96596833Y-84724500D01*
X96087850Y-84724500D01*
X95578168Y-84724501D01*
X95576722Y-84724638D01*
X95576714Y-84724638D01*
X95550797Y-84727087D01*
X95550793Y-84727088D01*
X95547066Y-84727440D01*
X95543534Y-84728680D01*
X95543531Y-84728681D01*
X95492804Y-84746495D01*
X95421024Y-84771702D01*
X95313570Y-84851070D01*
X95234202Y-84958524D01*
X95189940Y-85084566D01*
X95187000Y-85115667D01*
X95187001Y-85709332D01*
X95187138Y-85710778D01*
X95187138Y-85710786D01*
X95189445Y-85735191D01*
X95189940Y-85740434D01*
X95191180Y-85743966D01*
X95191181Y-85743969D01*
X95197121Y-85760884D01*
X95234202Y-85866476D01*
X95313570Y-85973930D01*
X95421024Y-86053298D01*
X95547066Y-86097560D01*
X95550795Y-86097912D01*
X95550797Y-86097913D01*
X95576717Y-86100363D01*
X95576718Y-86100363D01*
X95578167Y-86100500D01*
X95750500Y-86100500D01*
X95793987Y-86118513D01*
X95812000Y-86162000D01*
X95812000Y-86817062D01*
X95793987Y-86860549D01*
X95760120Y-86877805D01*
X95691975Y-86888597D01*
X95691974Y-86888597D01*
X95687196Y-86889354D01*
X95682888Y-86891549D01*
X95682885Y-86891550D01*
X95631530Y-86917717D01*
X95574158Y-86946950D01*
X95484450Y-87036658D01*
X95426854Y-87149696D01*
X95426097Y-87154473D01*
X95426097Y-87154474D01*
X95425404Y-87158852D01*
X95412000Y-87243481D01*
X95412001Y-87706518D01*
X95426854Y-87800304D01*
X95429049Y-87804612D01*
X95429050Y-87804615D01*
X95444678Y-87835286D01*
X95484450Y-87913342D01*
X95574158Y-88003050D01*
X95687196Y-88060646D01*
X95691973Y-88061403D01*
X95691974Y-88061403D01*
X95730425Y-88067493D01*
X95780981Y-88075500D01*
X95783403Y-88075500D01*
X96088197Y-88075499D01*
X96394018Y-88075499D01*
X96426458Y-88070361D01*
X96483025Y-88061403D01*
X96483026Y-88061403D01*
X96487804Y-88060646D01*
X96492112Y-88058451D01*
X96492115Y-88058450D01*
X96543470Y-88032283D01*
X96600842Y-88003050D01*
X96690550Y-87913342D01*
X96748146Y-87800304D01*
X96763000Y-87706519D01*
X96762999Y-87243482D01*
X96748146Y-87149696D01*
X96745950Y-87145386D01*
X96745950Y-87145385D01*
X96695378Y-87046134D01*
X96690550Y-87036658D01*
X96600842Y-86946950D01*
X96487804Y-86889354D01*
X96483027Y-86888597D01*
X96483026Y-86888597D01*
X96437306Y-86881356D01*
X96414879Y-86877804D01*
X96374746Y-86853210D01*
X96363000Y-86817061D01*
X96363000Y-86161999D01*
X96381013Y-86118512D01*
X96424500Y-86100499D01*
X96596832Y-86100499D01*
X96598278Y-86100362D01*
X96598286Y-86100362D01*
X96624203Y-86097913D01*
X96624207Y-86097912D01*
X96627934Y-86097560D01*
X96631466Y-86096320D01*
X96631469Y-86096319D01*
X96705122Y-86070454D01*
X96753976Y-86053298D01*
X96861430Y-85973930D01*
X96940798Y-85866476D01*
X96985060Y-85740434D01*
X96988000Y-85709333D01*
X96987999Y-85115668D01*
X96985060Y-85084566D01*
X96983819Y-85081030D01*
X96942321Y-84962862D01*
X96940798Y-84958524D01*
X96861430Y-84851070D01*
X96860386Y-84850299D01*
X96842863Y-84807995D01*
X96860876Y-84764508D01*
X96904363Y-84746495D01*
X96931502Y-84754728D01*
X96931873Y-84753832D01*
X96937467Y-84756149D01*
X96942506Y-84759516D01*
X97050000Y-84780897D01*
X97071193Y-84776682D01*
X97083188Y-84775500D01*
X97747505Y-84775500D01*
X97790992Y-84793513D01*
X97809005Y-84837000D01*
X97796974Y-84873539D01*
X97734202Y-84958524D01*
X97689940Y-85084566D01*
X97687000Y-85115667D01*
X97687001Y-85709332D01*
X97687138Y-85710778D01*
X97687138Y-85710786D01*
X97689445Y-85735191D01*
X97689940Y-85740434D01*
X97691180Y-85743966D01*
X97691181Y-85743969D01*
X97697121Y-85760884D01*
X97734202Y-85866476D01*
X97813570Y-85973930D01*
X97921024Y-86053298D01*
X98047066Y-86097560D01*
X98050795Y-86097912D01*
X98050797Y-86097913D01*
X98076717Y-86100363D01*
X98076718Y-86100363D01*
X98078167Y-86100500D01*
X98250500Y-86100500D01*
X98293987Y-86118513D01*
X98312000Y-86162000D01*
X98312000Y-86817062D01*
X98293987Y-86860549D01*
X98260120Y-86877805D01*
X98191975Y-86888597D01*
X98191974Y-86888597D01*
X98187196Y-86889354D01*
X98182888Y-86891549D01*
X98182885Y-86891550D01*
X98131530Y-86917717D01*
X98074158Y-86946950D01*
X97984450Y-87036658D01*
X97926854Y-87149696D01*
X97926097Y-87154473D01*
X97926097Y-87154474D01*
X97925404Y-87158852D01*
X97912000Y-87243481D01*
X97912001Y-87706518D01*
X97926854Y-87800304D01*
X97929049Y-87804612D01*
X97929050Y-87804615D01*
X97944678Y-87835286D01*
X97984450Y-87913342D01*
X98074158Y-88003050D01*
X98187196Y-88060646D01*
X98191973Y-88061403D01*
X98191974Y-88061403D01*
X98230425Y-88067493D01*
X98280981Y-88075500D01*
X98283403Y-88075500D01*
X98588197Y-88075499D01*
X98894018Y-88075499D01*
X98926458Y-88070361D01*
X98983025Y-88061403D01*
X98983026Y-88061403D01*
X98987804Y-88060646D01*
X98992112Y-88058451D01*
X98992115Y-88058450D01*
X99043470Y-88032283D01*
X99100842Y-88003050D01*
X99190550Y-87913342D01*
X99248146Y-87800304D01*
X99263000Y-87706519D01*
X99262999Y-87243482D01*
X99248146Y-87149696D01*
X99245950Y-87145386D01*
X99245950Y-87145385D01*
X99195378Y-87046134D01*
X99190550Y-87036658D01*
X99100842Y-86946950D01*
X98987804Y-86889354D01*
X98983027Y-86888597D01*
X98983026Y-86888597D01*
X98937306Y-86881356D01*
X98914879Y-86877804D01*
X98874746Y-86853210D01*
X98863000Y-86817061D01*
X98863000Y-86161999D01*
X98881013Y-86118512D01*
X98924500Y-86100499D01*
X99096832Y-86100499D01*
X99098278Y-86100362D01*
X99098286Y-86100362D01*
X99124203Y-86097913D01*
X99124207Y-86097912D01*
X99127934Y-86097560D01*
X99131466Y-86096320D01*
X99131469Y-86096319D01*
X99205122Y-86070454D01*
X99253976Y-86053298D01*
X99361430Y-85973930D01*
X99440798Y-85866476D01*
X99485060Y-85740434D01*
X99488000Y-85709333D01*
X99487999Y-85115668D01*
X99487999Y-85115667D01*
X100187000Y-85115667D01*
X100187001Y-85709332D01*
X100187138Y-85710778D01*
X100187138Y-85710786D01*
X100189445Y-85735191D01*
X100189940Y-85740434D01*
X100191180Y-85743966D01*
X100191181Y-85743969D01*
X100197121Y-85760884D01*
X100234202Y-85866476D01*
X100313570Y-85973930D01*
X100421024Y-86053298D01*
X100547066Y-86097560D01*
X100550795Y-86097912D01*
X100550797Y-86097913D01*
X100576717Y-86100363D01*
X100576718Y-86100363D01*
X100578167Y-86100500D01*
X100750500Y-86100500D01*
X100793987Y-86118513D01*
X100812000Y-86162000D01*
X100812000Y-86817062D01*
X100793987Y-86860549D01*
X100760120Y-86877805D01*
X100691975Y-86888597D01*
X100691974Y-86888597D01*
X100687196Y-86889354D01*
X100682888Y-86891549D01*
X100682885Y-86891550D01*
X100631530Y-86917717D01*
X100574158Y-86946950D01*
X100484450Y-87036658D01*
X100426854Y-87149696D01*
X100426097Y-87154473D01*
X100426097Y-87154474D01*
X100425404Y-87158852D01*
X100412000Y-87243481D01*
X100412001Y-87706518D01*
X100426854Y-87800304D01*
X100429049Y-87804612D01*
X100429050Y-87804615D01*
X100444678Y-87835286D01*
X100484450Y-87913342D01*
X100574158Y-88003050D01*
X100687196Y-88060646D01*
X100691973Y-88061403D01*
X100691974Y-88061403D01*
X100730425Y-88067493D01*
X100780981Y-88075500D01*
X100783403Y-88075500D01*
X101088197Y-88075499D01*
X101394018Y-88075499D01*
X101426458Y-88070361D01*
X101483025Y-88061403D01*
X101483026Y-88061403D01*
X101487804Y-88060646D01*
X101492112Y-88058451D01*
X101492115Y-88058450D01*
X101543470Y-88032283D01*
X101600842Y-88003050D01*
X101690550Y-87913342D01*
X101748146Y-87800304D01*
X101763000Y-87706519D01*
X101762999Y-87243482D01*
X101748146Y-87149696D01*
X101745950Y-87145386D01*
X101745950Y-87145385D01*
X101695378Y-87046134D01*
X101690550Y-87036658D01*
X101600842Y-86946950D01*
X101487804Y-86889354D01*
X101483027Y-86888597D01*
X101483026Y-86888597D01*
X101437306Y-86881356D01*
X101414879Y-86877804D01*
X101374746Y-86853210D01*
X101363000Y-86817061D01*
X101363000Y-86161999D01*
X101381013Y-86118512D01*
X101424500Y-86100499D01*
X101596832Y-86100499D01*
X101598278Y-86100362D01*
X101598286Y-86100362D01*
X101624203Y-86097913D01*
X101624207Y-86097912D01*
X101627934Y-86097560D01*
X101631466Y-86096320D01*
X101631469Y-86096319D01*
X101705122Y-86070454D01*
X101753976Y-86053298D01*
X101861430Y-85973930D01*
X101940798Y-85866476D01*
X101985060Y-85740434D01*
X101988000Y-85709333D01*
X101987999Y-85115668D01*
X101985060Y-85084566D01*
X101983819Y-85081030D01*
X101942321Y-84962862D01*
X101940798Y-84958524D01*
X101861430Y-84851070D01*
X101753976Y-84771702D01*
X101627934Y-84727440D01*
X101624205Y-84727088D01*
X101624203Y-84727087D01*
X101598283Y-84724637D01*
X101598282Y-84724637D01*
X101596833Y-84724500D01*
X101087850Y-84724500D01*
X100578168Y-84724501D01*
X100576722Y-84724638D01*
X100576714Y-84724638D01*
X100550797Y-84727087D01*
X100550793Y-84727088D01*
X100547066Y-84727440D01*
X100543534Y-84728680D01*
X100543531Y-84728681D01*
X100492804Y-84746495D01*
X100421024Y-84771702D01*
X100313570Y-84851070D01*
X100234202Y-84958524D01*
X100189940Y-85084566D01*
X100187000Y-85115667D01*
X99487999Y-85115667D01*
X99485060Y-85084566D01*
X99483819Y-85081030D01*
X99442321Y-84962862D01*
X99440798Y-84958524D01*
X99361430Y-84851070D01*
X99300969Y-84806412D01*
X99270326Y-84783778D01*
X99246048Y-84743452D01*
X99257171Y-84698675D01*
X99257247Y-84698624D01*
X99269255Y-84680653D01*
X99276900Y-84671339D01*
X99733840Y-84214399D01*
X99743159Y-84206751D01*
X99756088Y-84198112D01*
X99761124Y-84194747D01*
X99822015Y-84103618D01*
X99838000Y-84023256D01*
X99838000Y-84023255D01*
X99843397Y-83996123D01*
X99840694Y-83982531D01*
X99839182Y-83974932D01*
X99838000Y-83962934D01*
X99838000Y-83112065D01*
X99839182Y-83100067D01*
X99842215Y-83084819D01*
X99843397Y-83078877D01*
X99838000Y-83051744D01*
X99822015Y-82971382D01*
X99761124Y-82880253D01*
X99743159Y-82868249D01*
X99733840Y-82860601D01*
X99476899Y-82603660D01*
X99469251Y-82594341D01*
X99460612Y-82581412D01*
X99457247Y-82576376D01*
X99434246Y-82561007D01*
X99434245Y-82561006D01*
X99408088Y-82543529D01*
X99366118Y-82515485D01*
X99285756Y-82499500D01*
X99285755Y-82499500D01*
X99258623Y-82494103D01*
X99252681Y-82495285D01*
X99237433Y-82498318D01*
X99225435Y-82499500D01*
X98889590Y-82499500D01*
X98846103Y-82481487D01*
X97845103Y-81480487D01*
X97827090Y-81437000D01*
X97845103Y-81393513D01*
X97888590Y-81375500D01*
X99460410Y-81375500D01*
X99503897Y-81393513D01*
X100793987Y-82683603D01*
X100812000Y-82727090D01*
X100812000Y-82788001D01*
X100793987Y-82831488D01*
X100750500Y-82849501D01*
X100578168Y-82849501D01*
X100576722Y-82849638D01*
X100576714Y-82849638D01*
X100550797Y-82852087D01*
X100550793Y-82852088D01*
X100547066Y-82852440D01*
X100543534Y-82853680D01*
X100543531Y-82853681D01*
X100501014Y-82868612D01*
X100421024Y-82896702D01*
X100313570Y-82976070D01*
X100234202Y-83083524D01*
X100189940Y-83209566D01*
X100187000Y-83240667D01*
X100187001Y-83834332D01*
X100189940Y-83865434D01*
X100191180Y-83868966D01*
X100191181Y-83868969D01*
X100212250Y-83928964D01*
X100234202Y-83991476D01*
X100313570Y-84098930D01*
X100421024Y-84178298D01*
X100547066Y-84222560D01*
X100550795Y-84222912D01*
X100550797Y-84222913D01*
X100576717Y-84225363D01*
X100576718Y-84225363D01*
X100578167Y-84225500D01*
X101087150Y-84225500D01*
X101596832Y-84225499D01*
X101598278Y-84225362D01*
X101598286Y-84225362D01*
X101624203Y-84222913D01*
X101624207Y-84222912D01*
X101627934Y-84222560D01*
X101631466Y-84221320D01*
X101631469Y-84221319D01*
X101707135Y-84194747D01*
X101753976Y-84178298D01*
X101861430Y-84098930D01*
X101940798Y-83991476D01*
X101985060Y-83865434D01*
X101988000Y-83834333D01*
X101987999Y-83240668D01*
X101985060Y-83209566D01*
X101983819Y-83206030D01*
X101951095Y-83112846D01*
X101940798Y-83083524D01*
X101861430Y-82976070D01*
X101753976Y-82896702D01*
X101627934Y-82852440D01*
X101624205Y-82852088D01*
X101624203Y-82852087D01*
X101598283Y-82849637D01*
X101598282Y-82849637D01*
X101596833Y-82849500D01*
X101424500Y-82849500D01*
X101381013Y-82831487D01*
X101363000Y-82788000D01*
X101363000Y-82620689D01*
X101364182Y-82608691D01*
X101367215Y-82593443D01*
X101367215Y-82593442D01*
X101368397Y-82587500D01*
X101349819Y-82494103D01*
X101347015Y-82480005D01*
X101286124Y-82388876D01*
X101268159Y-82376872D01*
X101258840Y-82369224D01*
X100020103Y-81130487D01*
X100002090Y-81087000D01*
X100020103Y-81043513D01*
X100063590Y-81025500D01*
X100660410Y-81025500D01*
X100703897Y-81043513D01*
X102709366Y-83048982D01*
X102727379Y-83092469D01*
X102723905Y-83112846D01*
X102689940Y-83209566D01*
X102687000Y-83240667D01*
X102687001Y-83834332D01*
X102689940Y-83865434D01*
X102691180Y-83868966D01*
X102691181Y-83868969D01*
X102712250Y-83928964D01*
X102734202Y-83991476D01*
X102813570Y-84098930D01*
X102921024Y-84178298D01*
X103047066Y-84222560D01*
X103050795Y-84222912D01*
X103050797Y-84222913D01*
X103076717Y-84225363D01*
X103076718Y-84225363D01*
X103078167Y-84225500D01*
X103587150Y-84225500D01*
X104096832Y-84225499D01*
X104098278Y-84225362D01*
X104098286Y-84225362D01*
X104124203Y-84222913D01*
X104124207Y-84222912D01*
X104127934Y-84222560D01*
X104131466Y-84221320D01*
X104131469Y-84221319D01*
X104205123Y-84195454D01*
X104252122Y-84198041D01*
X104283526Y-84233103D01*
X104287000Y-84253480D01*
X104287000Y-84696520D01*
X104268987Y-84740007D01*
X104225500Y-84758020D01*
X104205123Y-84754546D01*
X104147027Y-84734145D01*
X104127934Y-84727440D01*
X104124205Y-84727088D01*
X104124203Y-84727087D01*
X104098283Y-84724637D01*
X104098282Y-84724637D01*
X104096833Y-84724500D01*
X103587850Y-84724500D01*
X103078168Y-84724501D01*
X103076722Y-84724638D01*
X103076714Y-84724638D01*
X103050797Y-84727087D01*
X103050793Y-84727088D01*
X103047066Y-84727440D01*
X103043534Y-84728680D01*
X103043531Y-84728681D01*
X102992804Y-84746495D01*
X102921024Y-84771702D01*
X102813570Y-84851070D01*
X102734202Y-84958524D01*
X102689940Y-85084566D01*
X102687000Y-85115667D01*
X102687001Y-85709332D01*
X102687138Y-85710778D01*
X102687138Y-85710786D01*
X102689445Y-85735191D01*
X102689940Y-85740434D01*
X102691180Y-85743966D01*
X102691181Y-85743969D01*
X102697121Y-85760884D01*
X102734202Y-85866476D01*
X102813570Y-85973930D01*
X102921024Y-86053298D01*
X103047066Y-86097560D01*
X103050795Y-86097912D01*
X103050797Y-86097913D01*
X103076717Y-86100363D01*
X103076718Y-86100363D01*
X103078167Y-86100500D01*
X103250500Y-86100500D01*
X103293987Y-86118513D01*
X103312000Y-86162000D01*
X103312000Y-86817062D01*
X103293987Y-86860549D01*
X103260120Y-86877805D01*
X103191975Y-86888597D01*
X103191974Y-86888597D01*
X103187196Y-86889354D01*
X103182888Y-86891549D01*
X103182885Y-86891550D01*
X103131530Y-86917717D01*
X103074158Y-86946950D01*
X102984450Y-87036658D01*
X102926854Y-87149696D01*
X102926097Y-87154473D01*
X102926097Y-87154474D01*
X102925404Y-87158852D01*
X102912000Y-87243481D01*
X102912001Y-87706518D01*
X102926854Y-87800304D01*
X102929049Y-87804612D01*
X102929050Y-87804615D01*
X102944678Y-87835286D01*
X102984450Y-87913342D01*
X103074158Y-88003050D01*
X103187196Y-88060646D01*
X103191973Y-88061403D01*
X103191974Y-88061403D01*
X103230425Y-88067493D01*
X103280981Y-88075500D01*
X103283403Y-88075500D01*
X103588197Y-88075499D01*
X103894018Y-88075499D01*
X103926458Y-88070361D01*
X103983025Y-88061403D01*
X103983026Y-88061403D01*
X103987804Y-88060646D01*
X103992112Y-88058451D01*
X103992115Y-88058450D01*
X104043470Y-88032283D01*
X104100842Y-88003050D01*
X104182013Y-87921879D01*
X104225500Y-87903866D01*
X104268987Y-87921879D01*
X104287000Y-87965366D01*
X104287000Y-88245183D01*
X104268987Y-88288670D01*
X104225500Y-88306683D01*
X104193641Y-88297788D01*
X104159159Y-88276905D01*
X104152458Y-88273880D01*
X103995587Y-88224720D01*
X103989217Y-88223444D01*
X103920481Y-88217128D01*
X103917691Y-88217000D01*
X103853734Y-88217000D01*
X103845083Y-88220583D01*
X103841500Y-88229234D01*
X103841500Y-90020765D01*
X103845083Y-90029416D01*
X103853734Y-90032999D01*
X103917689Y-90032999D01*
X103920482Y-90032871D01*
X103989218Y-90026556D01*
X103995585Y-90025281D01*
X104152458Y-89976120D01*
X104159159Y-89973095D01*
X104193641Y-89952212D01*
X104240170Y-89945092D01*
X104278105Y-89972958D01*
X104287000Y-90004817D01*
X104287000Y-96710869D01*
X104268987Y-96754356D01*
X104225500Y-96772369D01*
X104182013Y-96754356D01*
X104168681Y-96734404D01*
X104098714Y-96565489D01*
X104096534Y-96561210D01*
X103989493Y-96386538D01*
X103981920Y-96381035D01*
X103977470Y-96381740D01*
X103117861Y-97241349D01*
X103114278Y-97250000D01*
X103117861Y-97258651D01*
X103974451Y-98115241D01*
X103983102Y-98118824D01*
X103987264Y-98117101D01*
X104096534Y-97938790D01*
X104098714Y-97934511D01*
X104168681Y-97765596D01*
X104201965Y-97732312D01*
X104249035Y-97732312D01*
X104282319Y-97765596D01*
X104287000Y-97789131D01*
X104287000Y-99297910D01*
X104268987Y-99341397D01*
X103416262Y-100194122D01*
X103372775Y-100212135D01*
X103339960Y-100202649D01*
X103297350Y-100175764D01*
X103294737Y-100174721D01*
X103294732Y-100174719D01*
X103095040Y-100095051D01*
X103095041Y-100095051D01*
X103092421Y-100094006D01*
X103089657Y-100093456D01*
X103089653Y-100093455D01*
X102878794Y-100051513D01*
X102876024Y-100050962D01*
X102873204Y-100050925D01*
X102873203Y-100050925D01*
X102814193Y-100050153D01*
X102655406Y-100048074D01*
X102652636Y-100048550D01*
X102652635Y-100048550D01*
X102440730Y-100084961D01*
X102440725Y-100084962D01*
X102437957Y-100085438D01*
X102435319Y-100086411D01*
X102435316Y-100086412D01*
X102261425Y-100150564D01*
X102230957Y-100161804D01*
X102228535Y-100163245D01*
X102043764Y-100273172D01*
X102043760Y-100273175D01*
X102041341Y-100274614D01*
X102021521Y-100291996D01*
X101877575Y-100418232D01*
X101877572Y-100418235D01*
X101875457Y-100420090D01*
X101873716Y-100422299D01*
X101873712Y-100422303D01*
X101857186Y-100443267D01*
X101738863Y-100593360D01*
X101737550Y-100595855D01*
X101737549Y-100595857D01*
X101687497Y-100690990D01*
X101636131Y-100788620D01*
X101635295Y-100791313D01*
X101635294Y-100791315D01*
X101591847Y-100931237D01*
X101561748Y-100967427D01*
X101533113Y-100974500D01*
X97466274Y-100974500D01*
X97422787Y-100956487D01*
X97407083Y-100929693D01*
X97376330Y-100820648D01*
X97376329Y-100820647D01*
X97375565Y-100817936D01*
X97277980Y-100620053D01*
X97145967Y-100443267D01*
X97143899Y-100441355D01*
X97143896Y-100441352D01*
X96986016Y-100295410D01*
X96983949Y-100293499D01*
X96797350Y-100175764D01*
X96794737Y-100174721D01*
X96794732Y-100174719D01*
X96595040Y-100095051D01*
X96595041Y-100095051D01*
X96592421Y-100094006D01*
X96589657Y-100093456D01*
X96589653Y-100093455D01*
X96378794Y-100051513D01*
X96376024Y-100050962D01*
X96373204Y-100050925D01*
X96373203Y-100050925D01*
X96314193Y-100050153D01*
X96155406Y-100048074D01*
X96152636Y-100048550D01*
X96152635Y-100048550D01*
X95940730Y-100084961D01*
X95940725Y-100084962D01*
X95937957Y-100085438D01*
X95935319Y-100086411D01*
X95935316Y-100086412D01*
X95761425Y-100150564D01*
X95730957Y-100161804D01*
X95728535Y-100163245D01*
X95543764Y-100273172D01*
X95543760Y-100273175D01*
X95541341Y-100274614D01*
X95521521Y-100291996D01*
X95377575Y-100418232D01*
X95377572Y-100418235D01*
X95375457Y-100420090D01*
X95373716Y-100422299D01*
X95373712Y-100422303D01*
X95357186Y-100443267D01*
X95238863Y-100593360D01*
X95237550Y-100595855D01*
X95237549Y-100595857D01*
X95187497Y-100690990D01*
X95136131Y-100788620D01*
X95070703Y-100999333D01*
X95044770Y-101218440D01*
X95059200Y-101438604D01*
X95059891Y-101441327D01*
X95059892Y-101441330D01*
X95091868Y-101567232D01*
X95113511Y-101652452D01*
X95205883Y-101852821D01*
X95333222Y-102033002D01*
X95335245Y-102034973D01*
X95335247Y-102034975D01*
X95447110Y-102143948D01*
X95465691Y-102187195D01*
X95448248Y-102230914D01*
X95404196Y-102249500D01*
X94664590Y-102249500D01*
X94621103Y-102231487D01*
X94304844Y-101915228D01*
X94286831Y-101871741D01*
X94294672Y-101841691D01*
X94351410Y-101740379D01*
X94380390Y-101655008D01*
X94421423Y-101534126D01*
X94422331Y-101531452D01*
X94453991Y-101313098D01*
X94455643Y-101250000D01*
X94435454Y-101030289D01*
X94427513Y-101002130D01*
X94376330Y-100820648D01*
X94376329Y-100820647D01*
X94375565Y-100817936D01*
X94277980Y-100620053D01*
X94145967Y-100443267D01*
X94143899Y-100441355D01*
X94143896Y-100441352D01*
X93986016Y-100295410D01*
X93983949Y-100293499D01*
X93797350Y-100175764D01*
X93794737Y-100174721D01*
X93794732Y-100174719D01*
X93595040Y-100095051D01*
X93595041Y-100095051D01*
X93592421Y-100094006D01*
X93589657Y-100093456D01*
X93589653Y-100093455D01*
X93378794Y-100051513D01*
X93376024Y-100050962D01*
X93373204Y-100050925D01*
X93373203Y-100050925D01*
X93314193Y-100050153D01*
X93155406Y-100048074D01*
X93152636Y-100048550D01*
X93152635Y-100048550D01*
X92940730Y-100084961D01*
X92940725Y-100084962D01*
X92937957Y-100085438D01*
X92935319Y-100086411D01*
X92935316Y-100086412D01*
X92761425Y-100150564D01*
X92730957Y-100161804D01*
X92728535Y-100163245D01*
X92543764Y-100273172D01*
X92543760Y-100273175D01*
X92541341Y-100274614D01*
X92521521Y-100291996D01*
X92377575Y-100418232D01*
X92377572Y-100418235D01*
X92375457Y-100420090D01*
X92373716Y-100422299D01*
X92373712Y-100422303D01*
X92357186Y-100443267D01*
X92238863Y-100593360D01*
X92237550Y-100595855D01*
X92237549Y-100595857D01*
X92187497Y-100690990D01*
X92136131Y-100788620D01*
X92135295Y-100791313D01*
X92135294Y-100791315D01*
X92091847Y-100931237D01*
X92061748Y-100967427D01*
X92033113Y-100974500D01*
X87966274Y-100974500D01*
X87922787Y-100956487D01*
X87907083Y-100929693D01*
X87876330Y-100820648D01*
X87876329Y-100820647D01*
X87875565Y-100817936D01*
X87777980Y-100620053D01*
X87645967Y-100443267D01*
X87643899Y-100441355D01*
X87643896Y-100441352D01*
X87486016Y-100295410D01*
X87483949Y-100293499D01*
X87297350Y-100175764D01*
X87294737Y-100174721D01*
X87294732Y-100174719D01*
X87095040Y-100095051D01*
X87095041Y-100095051D01*
X87092421Y-100094006D01*
X87089657Y-100093456D01*
X87089653Y-100093455D01*
X86878794Y-100051513D01*
X86876024Y-100050962D01*
X86873204Y-100050925D01*
X86873203Y-100050925D01*
X86814193Y-100050153D01*
X86655406Y-100048074D01*
X86652636Y-100048550D01*
X86652635Y-100048550D01*
X86440730Y-100084961D01*
X86440725Y-100084962D01*
X86437957Y-100085438D01*
X86435319Y-100086411D01*
X86435316Y-100086412D01*
X86261425Y-100150564D01*
X86230957Y-100161804D01*
X86228535Y-100163245D01*
X86043764Y-100273172D01*
X86043760Y-100273175D01*
X86041341Y-100274614D01*
X86021521Y-100291996D01*
X85877575Y-100418232D01*
X85877572Y-100418235D01*
X85875457Y-100420090D01*
X85873716Y-100422299D01*
X85873712Y-100422303D01*
X85857186Y-100443267D01*
X85738863Y-100593360D01*
X85737550Y-100595855D01*
X85737549Y-100595857D01*
X85687497Y-100690990D01*
X85636131Y-100788620D01*
X85570703Y-100999333D01*
X85544770Y-101218440D01*
X85559200Y-101438604D01*
X85559891Y-101441327D01*
X85559892Y-101441330D01*
X85591868Y-101567232D01*
X85613511Y-101652452D01*
X85705883Y-101852821D01*
X85833222Y-102033002D01*
X85991264Y-102186961D01*
X85993617Y-102188533D01*
X86148588Y-102292081D01*
X86174717Y-102309540D01*
X86177306Y-102310652D01*
X86177309Y-102310654D01*
X86321128Y-102372443D01*
X86377436Y-102396635D01*
X86380179Y-102397256D01*
X86380183Y-102397257D01*
X86589886Y-102444708D01*
X86589890Y-102444708D01*
X86592632Y-102445329D01*
X86595441Y-102445439D01*
X86595446Y-102445440D01*
X86713414Y-102450074D01*
X86813098Y-102453991D01*
X86815883Y-102453587D01*
X86815887Y-102453587D01*
X87028662Y-102422736D01*
X87028667Y-102422735D01*
X87031452Y-102422331D01*
X87240379Y-102351410D01*
X87313154Y-102310654D01*
X87430431Y-102244976D01*
X87430433Y-102244975D01*
X87432884Y-102243602D01*
X87447123Y-102231760D01*
X87600355Y-102104317D01*
X87602518Y-102102518D01*
X87743602Y-101932884D01*
X87771926Y-101882309D01*
X87850033Y-101742838D01*
X87850033Y-101742837D01*
X87851410Y-101740379D01*
X87910186Y-101567231D01*
X87941220Y-101531842D01*
X87968421Y-101525500D01*
X92033435Y-101525500D01*
X92076922Y-101543513D01*
X92093043Y-101571861D01*
X92113511Y-101652452D01*
X92205883Y-101852821D01*
X92333222Y-102033002D01*
X92491264Y-102186961D01*
X92493617Y-102188533D01*
X92648588Y-102292081D01*
X92674717Y-102309540D01*
X92677306Y-102310652D01*
X92677309Y-102310654D01*
X92821128Y-102372443D01*
X92877436Y-102396635D01*
X92880179Y-102397256D01*
X92880183Y-102397257D01*
X93089886Y-102444708D01*
X93089890Y-102444708D01*
X93092632Y-102445329D01*
X93095441Y-102445439D01*
X93095446Y-102445440D01*
X93213414Y-102450074D01*
X93313098Y-102453991D01*
X93315883Y-102453587D01*
X93315887Y-102453587D01*
X93528662Y-102422736D01*
X93528667Y-102422735D01*
X93531452Y-102422331D01*
X93678418Y-102372443D01*
X93737702Y-102352319D01*
X93737705Y-102352318D01*
X93740379Y-102351410D01*
X93841692Y-102294672D01*
X93888435Y-102289140D01*
X93915228Y-102304844D01*
X94104897Y-102494513D01*
X94122910Y-102538000D01*
X94104897Y-102581487D01*
X94061410Y-102599500D01*
X85514590Y-102599500D01*
X85471103Y-102581487D01*
X84804844Y-101915228D01*
X84786831Y-101871741D01*
X84794672Y-101841691D01*
X84851410Y-101740379D01*
X84880390Y-101655008D01*
X84921423Y-101534126D01*
X84922331Y-101531452D01*
X84953991Y-101313098D01*
X84955643Y-101250000D01*
X84935454Y-101030289D01*
X84927513Y-101002130D01*
X84876330Y-100820648D01*
X84876329Y-100820647D01*
X84875565Y-100817936D01*
X84777980Y-100620053D01*
X84645967Y-100443267D01*
X84643899Y-100441355D01*
X84643896Y-100441352D01*
X84486016Y-100295410D01*
X84483949Y-100293499D01*
X84297350Y-100175764D01*
X84294737Y-100174721D01*
X84294732Y-100174719D01*
X84095040Y-100095051D01*
X84095041Y-100095051D01*
X84092421Y-100094006D01*
X84089657Y-100093456D01*
X84089653Y-100093455D01*
X83878794Y-100051513D01*
X83876024Y-100050962D01*
X83873204Y-100050925D01*
X83873203Y-100050925D01*
X83814193Y-100050153D01*
X83655406Y-100048074D01*
X83652636Y-100048550D01*
X83652635Y-100048550D01*
X83440730Y-100084961D01*
X83440725Y-100084962D01*
X83437957Y-100085438D01*
X83435319Y-100086411D01*
X83435316Y-100086412D01*
X83261425Y-100150564D01*
X83230957Y-100161804D01*
X83228535Y-100163245D01*
X83043764Y-100273172D01*
X83043760Y-100273175D01*
X83041341Y-100274614D01*
X83021521Y-100291996D01*
X82877575Y-100418232D01*
X82877572Y-100418235D01*
X82875457Y-100420090D01*
X82873716Y-100422299D01*
X82873712Y-100422303D01*
X82857186Y-100443267D01*
X82738863Y-100593360D01*
X82737550Y-100595855D01*
X82737549Y-100595857D01*
X82687497Y-100690990D01*
X82636131Y-100788620D01*
X82635295Y-100791313D01*
X82635294Y-100791315D01*
X82591847Y-100931237D01*
X82561748Y-100967427D01*
X82533113Y-100974500D01*
X78466274Y-100974500D01*
X78422787Y-100956487D01*
X78407083Y-100929693D01*
X78376330Y-100820648D01*
X78376329Y-100820647D01*
X78375565Y-100817936D01*
X78277980Y-100620053D01*
X78145967Y-100443267D01*
X78143899Y-100441355D01*
X78143896Y-100441352D01*
X77986016Y-100295410D01*
X77983949Y-100293499D01*
X77797350Y-100175764D01*
X77794737Y-100174721D01*
X77794732Y-100174719D01*
X77595040Y-100095051D01*
X77595041Y-100095051D01*
X77592421Y-100094006D01*
X77589657Y-100093456D01*
X77589653Y-100093455D01*
X77378794Y-100051513D01*
X77376024Y-100050962D01*
X77373204Y-100050925D01*
X77373203Y-100050925D01*
X77314193Y-100050153D01*
X77155406Y-100048074D01*
X77152636Y-100048550D01*
X77152635Y-100048550D01*
X76940730Y-100084961D01*
X76940725Y-100084962D01*
X76937957Y-100085438D01*
X76935319Y-100086411D01*
X76935316Y-100086412D01*
X76761425Y-100150564D01*
X76730957Y-100161804D01*
X76728535Y-100163245D01*
X76543764Y-100273172D01*
X76543760Y-100273175D01*
X76541341Y-100274614D01*
X76521521Y-100291996D01*
X76377575Y-100418232D01*
X76377572Y-100418235D01*
X76375457Y-100420090D01*
X76360297Y-100439321D01*
X76319228Y-100462320D01*
X76273925Y-100449543D01*
X76250926Y-100408474D01*
X76250500Y-100401246D01*
X76250500Y-98512901D01*
X76268513Y-98469414D01*
X76312000Y-98451401D01*
X76351942Y-98466137D01*
X76359041Y-98472201D01*
X76362939Y-98475032D01*
X76561210Y-98596534D01*
X76565489Y-98598714D01*
X76780334Y-98687706D01*
X76784905Y-98689191D01*
X77011013Y-98743475D01*
X77015785Y-98744230D01*
X77247586Y-98762473D01*
X77252414Y-98762473D01*
X77484215Y-98744230D01*
X77488987Y-98743475D01*
X77715095Y-98689191D01*
X77719666Y-98687706D01*
X77934511Y-98598714D01*
X77938790Y-98596534D01*
X78113462Y-98489493D01*
X78118106Y-98483102D01*
X82881176Y-98483102D01*
X82882899Y-98487264D01*
X83061210Y-98596534D01*
X83065489Y-98598714D01*
X83280334Y-98687706D01*
X83284905Y-98689191D01*
X83511013Y-98743475D01*
X83515785Y-98744230D01*
X83747586Y-98762473D01*
X83752414Y-98762473D01*
X83984215Y-98744230D01*
X83988987Y-98743475D01*
X84215095Y-98689191D01*
X84219666Y-98687706D01*
X84434511Y-98598714D01*
X84438790Y-98596534D01*
X84613462Y-98489493D01*
X84618106Y-98483102D01*
X85881176Y-98483102D01*
X85882899Y-98487264D01*
X86061210Y-98596534D01*
X86065489Y-98598714D01*
X86280334Y-98687706D01*
X86284905Y-98689191D01*
X86511013Y-98743475D01*
X86515785Y-98744230D01*
X86747586Y-98762473D01*
X86752414Y-98762473D01*
X86984215Y-98744230D01*
X86988987Y-98743475D01*
X87215095Y-98689191D01*
X87219666Y-98687706D01*
X87434511Y-98598714D01*
X87438790Y-98596534D01*
X87613462Y-98489493D01*
X87618106Y-98483102D01*
X92381176Y-98483102D01*
X92382899Y-98487264D01*
X92561210Y-98596534D01*
X92565489Y-98598714D01*
X92780334Y-98687706D01*
X92784905Y-98689191D01*
X93011013Y-98743475D01*
X93015785Y-98744230D01*
X93247586Y-98762473D01*
X93252414Y-98762473D01*
X93484215Y-98744230D01*
X93488987Y-98743475D01*
X93715095Y-98689191D01*
X93719666Y-98687706D01*
X93934511Y-98598714D01*
X93938790Y-98596534D01*
X94113462Y-98489493D01*
X94118106Y-98483102D01*
X95381176Y-98483102D01*
X95382899Y-98487264D01*
X95561210Y-98596534D01*
X95565489Y-98598714D01*
X95780334Y-98687706D01*
X95784905Y-98689191D01*
X96011013Y-98743475D01*
X96015785Y-98744230D01*
X96247586Y-98762473D01*
X96252414Y-98762473D01*
X96484215Y-98744230D01*
X96488987Y-98743475D01*
X96715095Y-98689191D01*
X96719666Y-98687706D01*
X96934511Y-98598714D01*
X96938790Y-98596534D01*
X97113462Y-98489493D01*
X97118106Y-98483102D01*
X101881176Y-98483102D01*
X101882899Y-98487264D01*
X102061210Y-98596534D01*
X102065489Y-98598714D01*
X102280334Y-98687706D01*
X102284905Y-98689191D01*
X102511013Y-98743475D01*
X102515785Y-98744230D01*
X102747586Y-98762473D01*
X102752414Y-98762473D01*
X102984215Y-98744230D01*
X102988987Y-98743475D01*
X103215095Y-98689191D01*
X103219666Y-98687706D01*
X103434511Y-98598714D01*
X103438790Y-98596534D01*
X103613462Y-98489493D01*
X103618965Y-98481920D01*
X103618260Y-98477470D01*
X102758651Y-97617861D01*
X102750000Y-97614278D01*
X102741349Y-97617861D01*
X101884759Y-98474451D01*
X101881176Y-98483102D01*
X97118106Y-98483102D01*
X97118965Y-98481920D01*
X97118260Y-98477470D01*
X96258651Y-97617861D01*
X96250000Y-97614278D01*
X96241349Y-97617861D01*
X95384759Y-98474451D01*
X95381176Y-98483102D01*
X94118106Y-98483102D01*
X94118965Y-98481920D01*
X94118260Y-98477470D01*
X93258651Y-97617861D01*
X93250000Y-97614278D01*
X93241349Y-97617861D01*
X92384759Y-98474451D01*
X92381176Y-98483102D01*
X87618106Y-98483102D01*
X87618965Y-98481920D01*
X87618260Y-98477470D01*
X86758651Y-97617861D01*
X86750000Y-97614278D01*
X86741349Y-97617861D01*
X85884759Y-98474451D01*
X85881176Y-98483102D01*
X84618106Y-98483102D01*
X84618965Y-98481920D01*
X84618260Y-98477470D01*
X83758651Y-97617861D01*
X83750000Y-97614278D01*
X83741349Y-97617861D01*
X82884759Y-98474451D01*
X82881176Y-98483102D01*
X78118106Y-98483102D01*
X78118965Y-98481920D01*
X78118260Y-98477470D01*
X76934277Y-97293487D01*
X76916264Y-97250000D01*
X77614278Y-97250000D01*
X77617861Y-97258651D01*
X78474451Y-98115241D01*
X78483102Y-98118824D01*
X78487264Y-98117101D01*
X78596534Y-97938790D01*
X78598714Y-97934511D01*
X78687706Y-97719666D01*
X78689191Y-97715095D01*
X78743475Y-97488987D01*
X78744230Y-97484215D01*
X78762473Y-97252414D01*
X82237527Y-97252414D01*
X82255770Y-97484215D01*
X82256525Y-97488987D01*
X82310809Y-97715095D01*
X82312294Y-97719666D01*
X82401286Y-97934511D01*
X82403466Y-97938790D01*
X82510507Y-98113462D01*
X82518080Y-98118965D01*
X82522530Y-98118260D01*
X83382139Y-97258651D01*
X83385722Y-97250000D01*
X84114278Y-97250000D01*
X84117861Y-97258651D01*
X84974451Y-98115241D01*
X84983102Y-98118824D01*
X84987264Y-98117101D01*
X85096534Y-97938790D01*
X85098714Y-97934511D01*
X85187706Y-97719666D01*
X85189192Y-97715092D01*
X85190199Y-97710896D01*
X85217866Y-97672815D01*
X85264356Y-97665451D01*
X85302437Y-97693118D01*
X85309801Y-97710896D01*
X85310808Y-97715092D01*
X85312294Y-97719666D01*
X85401286Y-97934511D01*
X85403466Y-97938790D01*
X85510507Y-98113462D01*
X85518080Y-98118965D01*
X85522530Y-98118260D01*
X86382139Y-97258651D01*
X86385722Y-97250000D01*
X87114278Y-97250000D01*
X87117861Y-97258651D01*
X87974451Y-98115241D01*
X87983102Y-98118824D01*
X87987264Y-98117101D01*
X88096534Y-97938790D01*
X88098714Y-97934511D01*
X88187706Y-97719666D01*
X88189191Y-97715095D01*
X88243475Y-97488987D01*
X88244230Y-97484215D01*
X88262473Y-97252414D01*
X91737527Y-97252414D01*
X91755770Y-97484215D01*
X91756525Y-97488987D01*
X91810809Y-97715095D01*
X91812294Y-97719666D01*
X91901286Y-97934511D01*
X91903466Y-97938790D01*
X92010507Y-98113462D01*
X92018080Y-98118965D01*
X92022530Y-98118260D01*
X92882139Y-97258651D01*
X92885722Y-97250000D01*
X93614278Y-97250000D01*
X93617861Y-97258651D01*
X94474451Y-98115241D01*
X94483102Y-98118824D01*
X94487264Y-98117101D01*
X94596534Y-97938790D01*
X94598714Y-97934511D01*
X94687706Y-97719666D01*
X94689192Y-97715092D01*
X94690199Y-97710896D01*
X94717866Y-97672815D01*
X94764356Y-97665451D01*
X94802437Y-97693118D01*
X94809801Y-97710896D01*
X94810808Y-97715092D01*
X94812294Y-97719666D01*
X94901286Y-97934511D01*
X94903466Y-97938790D01*
X95010507Y-98113462D01*
X95018080Y-98118965D01*
X95022530Y-98118260D01*
X95882139Y-97258651D01*
X95885722Y-97250000D01*
X96614278Y-97250000D01*
X96617861Y-97258651D01*
X97474451Y-98115241D01*
X97483102Y-98118824D01*
X97487264Y-98117101D01*
X97596534Y-97938790D01*
X97598714Y-97934511D01*
X97687706Y-97719666D01*
X97689191Y-97715095D01*
X97743475Y-97488987D01*
X97744230Y-97484215D01*
X97762473Y-97252414D01*
X101237527Y-97252414D01*
X101255770Y-97484215D01*
X101256525Y-97488987D01*
X101310809Y-97715095D01*
X101312294Y-97719666D01*
X101401286Y-97934511D01*
X101403466Y-97938790D01*
X101510507Y-98113462D01*
X101518080Y-98118965D01*
X101522530Y-98118260D01*
X102382139Y-97258651D01*
X102385722Y-97250000D01*
X102382139Y-97241349D01*
X101525549Y-96384759D01*
X101516898Y-96381176D01*
X101512736Y-96382899D01*
X101403466Y-96561210D01*
X101401286Y-96565489D01*
X101312294Y-96780334D01*
X101310809Y-96784905D01*
X101256525Y-97011013D01*
X101255770Y-97015785D01*
X101237527Y-97247586D01*
X101237527Y-97252414D01*
X97762473Y-97252414D01*
X97762473Y-97247586D01*
X97744230Y-97015785D01*
X97743475Y-97011013D01*
X97689191Y-96784905D01*
X97687706Y-96780334D01*
X97598714Y-96565489D01*
X97596534Y-96561210D01*
X97489493Y-96386538D01*
X97481920Y-96381035D01*
X97477470Y-96381740D01*
X96617861Y-97241349D01*
X96614278Y-97250000D01*
X95885722Y-97250000D01*
X95882139Y-97241349D01*
X95025549Y-96384759D01*
X95016898Y-96381176D01*
X95012736Y-96382899D01*
X94903466Y-96561210D01*
X94901286Y-96565489D01*
X94812294Y-96780334D01*
X94810808Y-96784908D01*
X94809801Y-96789104D01*
X94782134Y-96827185D01*
X94735644Y-96834549D01*
X94697563Y-96806882D01*
X94690199Y-96789104D01*
X94689192Y-96784908D01*
X94687706Y-96780334D01*
X94598714Y-96565489D01*
X94596534Y-96561210D01*
X94489493Y-96386538D01*
X94481920Y-96381035D01*
X94477470Y-96381740D01*
X93617861Y-97241349D01*
X93614278Y-97250000D01*
X92885722Y-97250000D01*
X92882139Y-97241349D01*
X92025549Y-96384759D01*
X92016898Y-96381176D01*
X92012736Y-96382899D01*
X91903466Y-96561210D01*
X91901286Y-96565489D01*
X91812294Y-96780334D01*
X91810809Y-96784905D01*
X91756525Y-97011013D01*
X91755770Y-97015785D01*
X91737527Y-97247586D01*
X91737527Y-97252414D01*
X88262473Y-97252414D01*
X88262473Y-97247586D01*
X88244230Y-97015785D01*
X88243475Y-97011013D01*
X88189191Y-96784905D01*
X88187706Y-96780334D01*
X88098714Y-96565489D01*
X88096534Y-96561210D01*
X87989493Y-96386538D01*
X87981920Y-96381035D01*
X87977470Y-96381740D01*
X87117861Y-97241349D01*
X87114278Y-97250000D01*
X86385722Y-97250000D01*
X86382139Y-97241349D01*
X85525549Y-96384759D01*
X85516898Y-96381176D01*
X85512736Y-96382899D01*
X85403466Y-96561210D01*
X85401286Y-96565489D01*
X85312294Y-96780334D01*
X85310808Y-96784908D01*
X85309801Y-96789104D01*
X85282134Y-96827185D01*
X85235644Y-96834549D01*
X85197563Y-96806882D01*
X85190199Y-96789104D01*
X85189192Y-96784908D01*
X85187706Y-96780334D01*
X85098714Y-96565489D01*
X85096534Y-96561210D01*
X84989493Y-96386538D01*
X84981920Y-96381035D01*
X84977470Y-96381740D01*
X84117861Y-97241349D01*
X84114278Y-97250000D01*
X83385722Y-97250000D01*
X83382139Y-97241349D01*
X82525549Y-96384759D01*
X82516898Y-96381176D01*
X82512736Y-96382899D01*
X82403466Y-96561210D01*
X82401286Y-96565489D01*
X82312294Y-96780334D01*
X82310809Y-96784905D01*
X82256525Y-97011013D01*
X82255770Y-97015785D01*
X82237527Y-97247586D01*
X82237527Y-97252414D01*
X78762473Y-97252414D01*
X78762473Y-97247586D01*
X78744230Y-97015785D01*
X78743475Y-97011013D01*
X78689191Y-96784905D01*
X78687706Y-96780334D01*
X78598714Y-96565489D01*
X78596534Y-96561210D01*
X78489493Y-96386538D01*
X78481920Y-96381035D01*
X78477470Y-96381740D01*
X77617861Y-97241349D01*
X77614278Y-97250000D01*
X76916264Y-97250000D01*
X76934277Y-97206513D01*
X78115241Y-96025549D01*
X78118824Y-96016898D01*
X78117101Y-96012736D01*
X77938790Y-95903466D01*
X77934507Y-95901284D01*
X77916485Y-95893819D01*
X77883201Y-95860536D01*
X77883200Y-95813466D01*
X77916483Y-95780182D01*
X77940019Y-95775500D01*
X83059981Y-95775500D01*
X83103468Y-95793513D01*
X83121481Y-95837000D01*
X83103468Y-95880487D01*
X83083515Y-95893819D01*
X83065493Y-95901284D01*
X83061210Y-95903466D01*
X82886538Y-96010507D01*
X82881035Y-96018080D01*
X82881740Y-96022530D01*
X83741349Y-96882139D01*
X83750000Y-96885722D01*
X83758651Y-96882139D01*
X84615241Y-96025549D01*
X84618824Y-96016898D01*
X84617101Y-96012736D01*
X84438790Y-95903466D01*
X84434507Y-95901284D01*
X84416485Y-95893819D01*
X84383201Y-95860536D01*
X84383200Y-95813466D01*
X84416483Y-95780182D01*
X84440019Y-95775500D01*
X86059981Y-95775500D01*
X86103468Y-95793513D01*
X86121481Y-95837000D01*
X86103468Y-95880487D01*
X86083515Y-95893819D01*
X86065493Y-95901284D01*
X86061210Y-95903466D01*
X85886538Y-96010507D01*
X85881035Y-96018080D01*
X85881740Y-96022530D01*
X86741349Y-96882139D01*
X86750000Y-96885722D01*
X86758651Y-96882139D01*
X87615241Y-96025549D01*
X87618824Y-96016898D01*
X87617101Y-96012736D01*
X87438790Y-95903466D01*
X87434507Y-95901284D01*
X87416485Y-95893819D01*
X87383201Y-95860536D01*
X87383200Y-95813466D01*
X87416483Y-95780182D01*
X87440019Y-95775500D01*
X92559981Y-95775500D01*
X92603468Y-95793513D01*
X92621481Y-95837000D01*
X92603468Y-95880487D01*
X92583515Y-95893819D01*
X92565493Y-95901284D01*
X92561210Y-95903466D01*
X92386538Y-96010507D01*
X92381035Y-96018080D01*
X92381740Y-96022530D01*
X93241349Y-96882139D01*
X93250000Y-96885722D01*
X93258651Y-96882139D01*
X94115241Y-96025549D01*
X94118334Y-96018080D01*
X95381035Y-96018080D01*
X95381740Y-96022530D01*
X96241349Y-96882139D01*
X96250000Y-96885722D01*
X96258651Y-96882139D01*
X97115241Y-96025549D01*
X97118334Y-96018080D01*
X101881035Y-96018080D01*
X101881740Y-96022530D01*
X102741349Y-96882139D01*
X102750000Y-96885722D01*
X102758651Y-96882139D01*
X103615241Y-96025549D01*
X103618824Y-96016898D01*
X103617101Y-96012736D01*
X103438790Y-95903466D01*
X103434511Y-95901286D01*
X103219666Y-95812294D01*
X103215095Y-95810809D01*
X102988987Y-95756525D01*
X102984215Y-95755770D01*
X102752414Y-95737527D01*
X102747586Y-95737527D01*
X102515785Y-95755770D01*
X102511013Y-95756525D01*
X102284905Y-95810809D01*
X102280334Y-95812294D01*
X102065489Y-95901286D01*
X102061210Y-95903466D01*
X101886538Y-96010507D01*
X101881035Y-96018080D01*
X97118334Y-96018080D01*
X97118824Y-96016898D01*
X97117101Y-96012736D01*
X96938790Y-95903466D01*
X96934511Y-95901286D01*
X96719666Y-95812294D01*
X96715095Y-95810809D01*
X96488987Y-95756525D01*
X96484215Y-95755770D01*
X96252414Y-95737527D01*
X96247586Y-95737527D01*
X96015785Y-95755770D01*
X96011013Y-95756525D01*
X95784905Y-95810809D01*
X95780334Y-95812294D01*
X95565489Y-95901286D01*
X95561210Y-95903466D01*
X95386538Y-96010507D01*
X95381035Y-96018080D01*
X94118334Y-96018080D01*
X94118824Y-96016898D01*
X94117101Y-96012736D01*
X93938790Y-95903466D01*
X93934511Y-95901286D01*
X93719666Y-95812294D01*
X93712792Y-95810061D01*
X93713173Y-95808887D01*
X93678096Y-95783401D01*
X93670733Y-95736910D01*
X93690943Y-95707910D01*
X93689305Y-95706272D01*
X93693588Y-95701989D01*
X93698624Y-95698624D01*
X93710632Y-95680653D01*
X93718277Y-95671339D01*
X95582295Y-93807321D01*
X95625782Y-93789308D01*
X95659950Y-93799673D01*
X95674717Y-93809540D01*
X95677305Y-93810652D01*
X95677307Y-93810653D01*
X95768967Y-93850033D01*
X95877436Y-93896635D01*
X95880179Y-93897256D01*
X95880183Y-93897257D01*
X96089886Y-93944708D01*
X96089890Y-93944708D01*
X96092632Y-93945329D01*
X96095441Y-93945439D01*
X96095446Y-93945440D01*
X96213414Y-93950074D01*
X96313098Y-93953991D01*
X96315883Y-93953587D01*
X96315887Y-93953587D01*
X96528662Y-93922736D01*
X96528667Y-93922735D01*
X96531452Y-93922331D01*
X96740379Y-93851410D01*
X96813156Y-93810653D01*
X96930431Y-93744976D01*
X96930433Y-93744975D01*
X96932884Y-93743602D01*
X97003361Y-93684987D01*
X97100355Y-93604317D01*
X97102518Y-93602518D01*
X97243602Y-93432884D01*
X97287152Y-93355121D01*
X97350033Y-93242838D01*
X97350033Y-93242837D01*
X97351410Y-93240379D01*
X97410186Y-93067231D01*
X97441220Y-93031842D01*
X97468421Y-93025500D01*
X101533435Y-93025500D01*
X101576922Y-93043513D01*
X101593043Y-93071861D01*
X101613511Y-93152452D01*
X101705883Y-93352821D01*
X101833222Y-93533002D01*
X101991264Y-93686961D01*
X101993617Y-93688533D01*
X102144438Y-93789308D01*
X102174717Y-93809540D01*
X102177306Y-93810652D01*
X102177309Y-93810654D01*
X102268967Y-93850033D01*
X102377436Y-93896635D01*
X102380179Y-93897256D01*
X102380183Y-93897257D01*
X102589886Y-93944708D01*
X102589890Y-93944708D01*
X102592632Y-93945329D01*
X102595441Y-93945439D01*
X102595446Y-93945440D01*
X102713414Y-93950074D01*
X102813098Y-93953991D01*
X102815883Y-93953587D01*
X102815887Y-93953587D01*
X103028662Y-93922736D01*
X103028667Y-93922735D01*
X103031452Y-93922331D01*
X103240379Y-93851410D01*
X103313156Y-93810653D01*
X103430431Y-93744976D01*
X103430433Y-93744975D01*
X103432884Y-93743602D01*
X103503361Y-93684987D01*
X103600355Y-93604317D01*
X103602518Y-93602518D01*
X103743602Y-93432884D01*
X103787152Y-93355121D01*
X103850033Y-93242838D01*
X103850033Y-93242837D01*
X103851410Y-93240379D01*
X103922331Y-93031452D01*
X103953991Y-92813098D01*
X103955643Y-92750000D01*
X103935454Y-92530289D01*
X103927513Y-92502130D01*
X103876330Y-92320648D01*
X103876329Y-92320647D01*
X103875565Y-92317936D01*
X103777980Y-92120053D01*
X103645967Y-91943267D01*
X103643899Y-91941355D01*
X103643896Y-91941352D01*
X103486016Y-91795410D01*
X103483949Y-91793499D01*
X103297350Y-91675764D01*
X103294737Y-91674721D01*
X103294732Y-91674719D01*
X103095040Y-91595051D01*
X103095041Y-91595051D01*
X103092421Y-91594006D01*
X103089657Y-91593456D01*
X103089653Y-91593455D01*
X102878794Y-91551513D01*
X102876024Y-91550962D01*
X102873204Y-91550925D01*
X102873203Y-91550925D01*
X102814193Y-91550153D01*
X102655406Y-91548074D01*
X102652636Y-91548550D01*
X102652635Y-91548550D01*
X102440730Y-91584961D01*
X102440725Y-91584962D01*
X102437957Y-91585438D01*
X102435319Y-91586411D01*
X102435316Y-91586412D01*
X102261425Y-91650564D01*
X102230957Y-91661804D01*
X102228535Y-91663245D01*
X102043764Y-91773172D01*
X102043760Y-91773175D01*
X102041341Y-91774614D01*
X102021521Y-91791996D01*
X101877575Y-91918232D01*
X101877572Y-91918235D01*
X101875457Y-91920090D01*
X101873715Y-91922300D01*
X101873712Y-91922303D01*
X101857186Y-91943267D01*
X101738863Y-92093360D01*
X101737550Y-92095855D01*
X101737549Y-92095857D01*
X101687497Y-92190990D01*
X101636131Y-92288620D01*
X101635295Y-92291313D01*
X101635294Y-92291315D01*
X101591847Y-92431237D01*
X101561748Y-92467427D01*
X101533113Y-92474500D01*
X97466274Y-92474500D01*
X97422787Y-92456487D01*
X97407083Y-92429693D01*
X97376330Y-92320648D01*
X97376329Y-92320647D01*
X97375565Y-92317936D01*
X97277980Y-92120053D01*
X97145967Y-91943267D01*
X97143899Y-91941355D01*
X97143896Y-91941352D01*
X96986016Y-91795410D01*
X96983949Y-91793499D01*
X96797350Y-91675764D01*
X96794737Y-91674721D01*
X96794732Y-91674719D01*
X96595040Y-91595051D01*
X96595041Y-91595051D01*
X96592421Y-91594006D01*
X96589657Y-91593456D01*
X96589653Y-91593455D01*
X96378794Y-91551513D01*
X96376024Y-91550962D01*
X96373204Y-91550925D01*
X96373203Y-91550925D01*
X96314193Y-91550153D01*
X96155406Y-91548074D01*
X96152636Y-91548550D01*
X96152635Y-91548550D01*
X95940730Y-91584961D01*
X95940725Y-91584962D01*
X95937957Y-91585438D01*
X95935319Y-91586411D01*
X95935316Y-91586412D01*
X95761425Y-91650564D01*
X95730957Y-91661804D01*
X95728535Y-91663245D01*
X95543764Y-91773172D01*
X95543760Y-91773175D01*
X95541341Y-91774614D01*
X95521521Y-91791996D01*
X95377575Y-91918232D01*
X95377572Y-91918235D01*
X95375457Y-91920090D01*
X95373715Y-91922300D01*
X95373712Y-91922303D01*
X95357186Y-91943267D01*
X95238863Y-92093360D01*
X95237550Y-92095855D01*
X95237549Y-92095857D01*
X95187497Y-92190990D01*
X95136131Y-92288620D01*
X95070703Y-92499333D01*
X95044770Y-92718440D01*
X95059200Y-92938604D01*
X95059891Y-92941327D01*
X95059892Y-92941330D01*
X95091868Y-93067232D01*
X95113511Y-93152452D01*
X95114688Y-93155005D01*
X95114689Y-93155008D01*
X95204245Y-93349268D01*
X95206093Y-93396302D01*
X95191881Y-93418503D01*
X93403897Y-95206487D01*
X93360410Y-95224500D01*
X84813590Y-95224500D01*
X84770103Y-95206487D01*
X84752090Y-95163000D01*
X84770103Y-95119513D01*
X86082295Y-93807321D01*
X86125782Y-93789308D01*
X86159950Y-93799673D01*
X86174717Y-93809540D01*
X86177305Y-93810652D01*
X86177307Y-93810653D01*
X86268967Y-93850033D01*
X86377436Y-93896635D01*
X86380179Y-93897256D01*
X86380183Y-93897257D01*
X86589886Y-93944708D01*
X86589890Y-93944708D01*
X86592632Y-93945329D01*
X86595441Y-93945439D01*
X86595446Y-93945440D01*
X86713414Y-93950074D01*
X86813098Y-93953991D01*
X86815883Y-93953587D01*
X86815887Y-93953587D01*
X87028662Y-93922736D01*
X87028667Y-93922735D01*
X87031452Y-93922331D01*
X87240379Y-93851410D01*
X87313156Y-93810653D01*
X87430431Y-93744976D01*
X87430433Y-93744975D01*
X87432884Y-93743602D01*
X87503361Y-93684987D01*
X87600355Y-93604317D01*
X87602518Y-93602518D01*
X87743602Y-93432884D01*
X87787152Y-93355121D01*
X87850033Y-93242838D01*
X87850033Y-93242837D01*
X87851410Y-93240379D01*
X87910186Y-93067231D01*
X87941220Y-93031842D01*
X87968421Y-93025500D01*
X92033435Y-93025500D01*
X92076922Y-93043513D01*
X92093043Y-93071861D01*
X92113511Y-93152452D01*
X92205883Y-93352821D01*
X92333222Y-93533002D01*
X92491264Y-93686961D01*
X92493617Y-93688533D01*
X92644438Y-93789308D01*
X92674717Y-93809540D01*
X92677306Y-93810652D01*
X92677309Y-93810654D01*
X92768967Y-93850033D01*
X92877436Y-93896635D01*
X92880179Y-93897256D01*
X92880183Y-93897257D01*
X93089886Y-93944708D01*
X93089890Y-93944708D01*
X93092632Y-93945329D01*
X93095441Y-93945439D01*
X93095446Y-93945440D01*
X93213414Y-93950074D01*
X93313098Y-93953991D01*
X93315883Y-93953587D01*
X93315887Y-93953587D01*
X93528662Y-93922736D01*
X93528667Y-93922735D01*
X93531452Y-93922331D01*
X93740379Y-93851410D01*
X93813156Y-93810653D01*
X93930431Y-93744976D01*
X93930433Y-93744975D01*
X93932884Y-93743602D01*
X94003361Y-93684987D01*
X94100355Y-93604317D01*
X94102518Y-93602518D01*
X94243602Y-93432884D01*
X94287152Y-93355121D01*
X94350033Y-93242838D01*
X94350033Y-93242837D01*
X94351410Y-93240379D01*
X94422331Y-93031452D01*
X94453991Y-92813098D01*
X94455643Y-92750000D01*
X94435454Y-92530289D01*
X94427513Y-92502130D01*
X94376330Y-92320648D01*
X94376329Y-92320647D01*
X94375565Y-92317936D01*
X94277980Y-92120053D01*
X94145967Y-91943267D01*
X94143899Y-91941355D01*
X94143896Y-91941352D01*
X93986016Y-91795410D01*
X93983949Y-91793499D01*
X93797350Y-91675764D01*
X93794737Y-91674721D01*
X93794732Y-91674719D01*
X93595040Y-91595051D01*
X93595041Y-91595051D01*
X93592421Y-91594006D01*
X93589657Y-91593456D01*
X93589653Y-91593455D01*
X93378794Y-91551513D01*
X93376024Y-91550962D01*
X93373204Y-91550925D01*
X93373203Y-91550925D01*
X93314193Y-91550153D01*
X93155406Y-91548074D01*
X93152636Y-91548550D01*
X93152635Y-91548550D01*
X92940730Y-91584961D01*
X92940725Y-91584962D01*
X92937957Y-91585438D01*
X92935319Y-91586411D01*
X92935316Y-91586412D01*
X92761425Y-91650564D01*
X92730957Y-91661804D01*
X92728535Y-91663245D01*
X92543764Y-91773172D01*
X92543760Y-91773175D01*
X92541341Y-91774614D01*
X92521521Y-91791996D01*
X92377575Y-91918232D01*
X92377572Y-91918235D01*
X92375457Y-91920090D01*
X92373715Y-91922300D01*
X92373712Y-91922303D01*
X92357186Y-91943267D01*
X92238863Y-92093360D01*
X92237550Y-92095855D01*
X92237549Y-92095857D01*
X92187497Y-92190990D01*
X92136131Y-92288620D01*
X92135295Y-92291313D01*
X92135294Y-92291315D01*
X92091847Y-92431237D01*
X92061748Y-92467427D01*
X92033113Y-92474500D01*
X87966274Y-92474500D01*
X87922787Y-92456487D01*
X87907083Y-92429693D01*
X87876330Y-92320648D01*
X87876329Y-92320647D01*
X87875565Y-92317936D01*
X87777980Y-92120053D01*
X87645967Y-91943267D01*
X87643899Y-91941355D01*
X87643896Y-91941352D01*
X87486016Y-91795410D01*
X87483949Y-91793499D01*
X87297350Y-91675764D01*
X87294737Y-91674721D01*
X87294732Y-91674719D01*
X87095040Y-91595051D01*
X87095041Y-91595051D01*
X87092421Y-91594006D01*
X87089657Y-91593456D01*
X87089653Y-91593455D01*
X86878794Y-91551513D01*
X86876024Y-91550962D01*
X86873204Y-91550925D01*
X86873203Y-91550925D01*
X86814193Y-91550153D01*
X86655406Y-91548074D01*
X86652636Y-91548550D01*
X86652635Y-91548550D01*
X86440730Y-91584961D01*
X86440725Y-91584962D01*
X86437957Y-91585438D01*
X86435319Y-91586411D01*
X86435316Y-91586412D01*
X86261425Y-91650564D01*
X86230957Y-91661804D01*
X86228535Y-91663245D01*
X86043764Y-91773172D01*
X86043760Y-91773175D01*
X86041341Y-91774614D01*
X86021521Y-91791996D01*
X85877575Y-91918232D01*
X85877572Y-91918235D01*
X85875457Y-91920090D01*
X85873715Y-91922300D01*
X85873712Y-91922303D01*
X85857186Y-91943267D01*
X85738863Y-92093360D01*
X85737550Y-92095855D01*
X85737549Y-92095857D01*
X85687497Y-92190990D01*
X85636131Y-92288620D01*
X85570703Y-92499333D01*
X85544770Y-92718440D01*
X85559200Y-92938604D01*
X85559891Y-92941327D01*
X85559892Y-92941330D01*
X85591868Y-93067232D01*
X85613511Y-93152452D01*
X85614688Y-93155005D01*
X85614689Y-93155008D01*
X85704245Y-93349268D01*
X85706093Y-93396302D01*
X85691881Y-93418503D01*
X84253897Y-94856487D01*
X84210410Y-94874500D01*
X77085091Y-94874500D01*
X77073096Y-94873318D01*
X77051903Y-94869103D01*
X76944409Y-94890484D01*
X76876281Y-94936006D01*
X76876280Y-94936007D01*
X76853279Y-94951376D01*
X76849914Y-94956412D01*
X76841275Y-94969341D01*
X76833627Y-94978660D01*
X75655487Y-96156800D01*
X75612000Y-96174813D01*
X75568513Y-96156800D01*
X75550500Y-96113313D01*
X75550500Y-94864590D01*
X75568513Y-94821103D01*
X76582295Y-93807321D01*
X76625782Y-93789308D01*
X76659950Y-93799673D01*
X76674717Y-93809540D01*
X76677305Y-93810652D01*
X76677307Y-93810653D01*
X76768967Y-93850033D01*
X76877436Y-93896635D01*
X76880179Y-93897256D01*
X76880183Y-93897257D01*
X77089886Y-93944708D01*
X77089890Y-93944708D01*
X77092632Y-93945329D01*
X77095441Y-93945439D01*
X77095446Y-93945440D01*
X77213414Y-93950074D01*
X77313098Y-93953991D01*
X77315883Y-93953587D01*
X77315887Y-93953587D01*
X77528662Y-93922736D01*
X77528667Y-93922735D01*
X77531452Y-93922331D01*
X77740379Y-93851410D01*
X77813156Y-93810653D01*
X77930431Y-93744976D01*
X77930433Y-93744975D01*
X77932884Y-93743602D01*
X78003361Y-93684987D01*
X78100355Y-93604317D01*
X78102518Y-93602518D01*
X78243602Y-93432884D01*
X78287152Y-93355121D01*
X78350033Y-93242838D01*
X78350033Y-93242837D01*
X78351410Y-93240379D01*
X78410186Y-93067231D01*
X78441220Y-93031842D01*
X78468421Y-93025500D01*
X82533435Y-93025500D01*
X82576922Y-93043513D01*
X82593043Y-93071861D01*
X82613511Y-93152452D01*
X82705883Y-93352821D01*
X82833222Y-93533002D01*
X82991264Y-93686961D01*
X82993617Y-93688533D01*
X83144438Y-93789308D01*
X83174717Y-93809540D01*
X83177306Y-93810652D01*
X83177309Y-93810654D01*
X83268967Y-93850033D01*
X83377436Y-93896635D01*
X83380179Y-93897256D01*
X83380183Y-93897257D01*
X83589886Y-93944708D01*
X83589890Y-93944708D01*
X83592632Y-93945329D01*
X83595441Y-93945439D01*
X83595446Y-93945440D01*
X83713414Y-93950074D01*
X83813098Y-93953991D01*
X83815883Y-93953587D01*
X83815887Y-93953587D01*
X84028662Y-93922736D01*
X84028667Y-93922735D01*
X84031452Y-93922331D01*
X84240379Y-93851410D01*
X84313156Y-93810653D01*
X84430431Y-93744976D01*
X84430433Y-93744975D01*
X84432884Y-93743602D01*
X84503361Y-93684987D01*
X84600355Y-93604317D01*
X84602518Y-93602518D01*
X84743602Y-93432884D01*
X84787152Y-93355121D01*
X84850033Y-93242838D01*
X84850033Y-93242837D01*
X84851410Y-93240379D01*
X84922331Y-93031452D01*
X84953991Y-92813098D01*
X84955643Y-92750000D01*
X84935454Y-92530289D01*
X84927513Y-92502130D01*
X84876330Y-92320648D01*
X84876329Y-92320647D01*
X84875565Y-92317936D01*
X84777980Y-92120053D01*
X84645967Y-91943267D01*
X84643899Y-91941355D01*
X84643896Y-91941352D01*
X84486016Y-91795410D01*
X84483949Y-91793499D01*
X84297350Y-91675764D01*
X84294737Y-91674721D01*
X84294732Y-91674719D01*
X84095040Y-91595051D01*
X84095041Y-91595051D01*
X84092421Y-91594006D01*
X84089657Y-91593456D01*
X84089653Y-91593455D01*
X83878794Y-91551513D01*
X83876024Y-91550962D01*
X83873204Y-91550925D01*
X83873203Y-91550925D01*
X83814193Y-91550153D01*
X83655406Y-91548074D01*
X83652636Y-91548550D01*
X83652635Y-91548550D01*
X83440730Y-91584961D01*
X83440725Y-91584962D01*
X83437957Y-91585438D01*
X83435319Y-91586411D01*
X83435316Y-91586412D01*
X83261425Y-91650564D01*
X83230957Y-91661804D01*
X83228535Y-91663245D01*
X83043764Y-91773172D01*
X83043760Y-91773175D01*
X83041341Y-91774614D01*
X83021521Y-91791996D01*
X82877575Y-91918232D01*
X82877572Y-91918235D01*
X82875457Y-91920090D01*
X82873715Y-91922300D01*
X82873712Y-91922303D01*
X82857186Y-91943267D01*
X82738863Y-92093360D01*
X82737550Y-92095855D01*
X82737549Y-92095857D01*
X82687497Y-92190990D01*
X82636131Y-92288620D01*
X82635295Y-92291313D01*
X82635294Y-92291315D01*
X82591847Y-92431237D01*
X82561748Y-92467427D01*
X82533113Y-92474500D01*
X78466274Y-92474500D01*
X78422787Y-92456487D01*
X78407083Y-92429693D01*
X78376330Y-92320648D01*
X78376329Y-92320647D01*
X78375565Y-92317936D01*
X78277980Y-92120053D01*
X78145967Y-91943267D01*
X78143899Y-91941355D01*
X78143896Y-91941352D01*
X77986016Y-91795410D01*
X77983949Y-91793499D01*
X77797350Y-91675764D01*
X77794737Y-91674721D01*
X77794732Y-91674719D01*
X77595040Y-91595051D01*
X77595041Y-91595051D01*
X77592421Y-91594006D01*
X77589657Y-91593456D01*
X77589653Y-91593455D01*
X77378794Y-91551513D01*
X77376024Y-91550962D01*
X77373204Y-91550925D01*
X77373203Y-91550925D01*
X77314193Y-91550153D01*
X77155406Y-91548074D01*
X77152636Y-91548550D01*
X77152635Y-91548550D01*
X76940730Y-91584961D01*
X76940725Y-91584962D01*
X76937957Y-91585438D01*
X76935319Y-91586411D01*
X76935316Y-91586412D01*
X76761425Y-91650564D01*
X76730957Y-91661804D01*
X76728535Y-91663245D01*
X76543764Y-91773172D01*
X76543760Y-91773175D01*
X76541341Y-91774614D01*
X76521521Y-91791996D01*
X76377575Y-91918232D01*
X76377572Y-91918235D01*
X76375457Y-91920090D01*
X76373715Y-91922300D01*
X76373712Y-91922303D01*
X76357186Y-91943267D01*
X76238863Y-92093360D01*
X76237550Y-92095855D01*
X76237549Y-92095857D01*
X76187497Y-92190990D01*
X76136131Y-92288620D01*
X76070703Y-92499333D01*
X76044770Y-92718440D01*
X76059200Y-92938604D01*
X76059891Y-92941327D01*
X76059892Y-92941330D01*
X76091868Y-93067232D01*
X76113511Y-93152452D01*
X76114688Y-93155005D01*
X76114689Y-93155008D01*
X76204245Y-93349268D01*
X76206093Y-93396302D01*
X76191881Y-93418503D01*
X75103660Y-94506724D01*
X75094341Y-94514372D01*
X75076376Y-94526376D01*
X75015485Y-94617505D01*
X75015485Y-94617506D01*
X74994103Y-94725000D01*
X74995285Y-94730942D01*
X74998318Y-94746190D01*
X74999500Y-94758188D01*
X74999500Y-102231760D01*
X74998318Y-102243758D01*
X74994103Y-102264948D01*
X74999500Y-102292080D01*
X74999500Y-102292081D01*
X75015485Y-102372443D01*
X75076376Y-102463572D01*
X75081412Y-102466937D01*
X75094341Y-102475576D01*
X75103660Y-102483224D01*
X76741776Y-104121340D01*
X76749424Y-104130659D01*
X76761428Y-104148624D01*
X76784429Y-104163993D01*
X76784430Y-104163994D01*
X76829296Y-104193973D01*
X76855446Y-104233108D01*
X76846264Y-104279274D01*
X76809485Y-104304908D01*
X76784905Y-104310809D01*
X76780334Y-104312294D01*
X76565489Y-104401286D01*
X76561210Y-104403466D01*
X76386538Y-104510507D01*
X76381035Y-104518080D01*
X76381740Y-104522530D01*
X77241349Y-105382139D01*
X77250000Y-105385722D01*
X77258651Y-105382139D01*
X78115241Y-104525549D01*
X78118824Y-104516898D01*
X78117101Y-104512736D01*
X77938790Y-104403466D01*
X77934511Y-104401286D01*
X77795773Y-104343819D01*
X77762489Y-104310535D01*
X77762489Y-104263465D01*
X77795773Y-104230181D01*
X77819308Y-104225500D01*
X83180692Y-104225500D01*
X83224179Y-104243513D01*
X83242192Y-104287000D01*
X83224179Y-104330487D01*
X83204227Y-104343819D01*
X83065489Y-104401286D01*
X83061210Y-104403466D01*
X82886538Y-104510507D01*
X82881035Y-104518080D01*
X82881740Y-104522530D01*
X83741349Y-105382139D01*
X83750000Y-105385722D01*
X83758651Y-105382139D01*
X84615241Y-104525549D01*
X84618824Y-104516898D01*
X84617101Y-104512736D01*
X84438790Y-104403466D01*
X84434511Y-104401286D01*
X84295773Y-104343819D01*
X84262489Y-104310535D01*
X84262489Y-104263465D01*
X84295773Y-104230181D01*
X84319308Y-104225500D01*
X86180692Y-104225500D01*
X86224179Y-104243513D01*
X86242192Y-104287000D01*
X86224179Y-104330487D01*
X86204227Y-104343819D01*
X86065489Y-104401286D01*
X86061210Y-104403466D01*
X85886538Y-104510507D01*
X85881035Y-104518080D01*
X85881740Y-104522530D01*
X86741349Y-105382139D01*
X86750000Y-105385722D01*
X86758651Y-105382139D01*
X87615241Y-104525549D01*
X87618824Y-104516898D01*
X87617101Y-104512736D01*
X87438790Y-104403466D01*
X87434511Y-104401286D01*
X87295773Y-104343819D01*
X87262489Y-104310535D01*
X87262489Y-104263465D01*
X87295773Y-104230181D01*
X87319308Y-104225500D01*
X92680692Y-104225500D01*
X92724179Y-104243513D01*
X92742192Y-104287000D01*
X92724179Y-104330487D01*
X92704227Y-104343819D01*
X92565489Y-104401286D01*
X92561210Y-104403466D01*
X92386538Y-104510507D01*
X92381035Y-104518080D01*
X92381740Y-104522530D01*
X93241349Y-105382139D01*
X93250000Y-105385722D01*
X93258651Y-105382139D01*
X94115241Y-104525549D01*
X94118824Y-104516898D01*
X94117101Y-104512736D01*
X93938790Y-104403466D01*
X93934511Y-104401286D01*
X93795773Y-104343819D01*
X93762489Y-104310535D01*
X93762489Y-104263465D01*
X93795773Y-104230181D01*
X93819308Y-104225500D01*
X95680692Y-104225500D01*
X95724179Y-104243513D01*
X95742192Y-104287000D01*
X95724179Y-104330487D01*
X95704227Y-104343819D01*
X95565489Y-104401286D01*
X95561210Y-104403466D01*
X95386538Y-104510507D01*
X95381035Y-104518080D01*
X95381740Y-104522530D01*
X96241349Y-105382139D01*
X96250000Y-105385722D01*
X96258651Y-105382139D01*
X97115241Y-104525549D01*
X97118824Y-104516898D01*
X97117101Y-104512736D01*
X96938790Y-104403466D01*
X96934511Y-104401286D01*
X96795773Y-104343819D01*
X96762489Y-104310535D01*
X96762489Y-104263465D01*
X96795773Y-104230181D01*
X96819308Y-104225500D01*
X102180692Y-104225500D01*
X102224179Y-104243513D01*
X102242192Y-104287000D01*
X102224179Y-104330487D01*
X102204227Y-104343819D01*
X102065489Y-104401286D01*
X102061210Y-104403466D01*
X101886538Y-104510507D01*
X101881035Y-104518080D01*
X101881740Y-104522530D01*
X102741349Y-105382139D01*
X102750000Y-105385722D01*
X102758651Y-105382139D01*
X103615241Y-104525549D01*
X103618824Y-104516898D01*
X103617101Y-104512736D01*
X103438790Y-104403466D01*
X103434511Y-104401286D01*
X103295773Y-104343819D01*
X103262489Y-104310535D01*
X103262489Y-104263465D01*
X103295773Y-104230181D01*
X103319308Y-104225500D01*
X104511786Y-104225500D01*
X104523784Y-104226682D01*
X104544974Y-104230897D01*
X104572106Y-104225500D01*
X104572107Y-104225500D01*
X104652469Y-104209515D01*
X104694439Y-104181471D01*
X104720596Y-104163994D01*
X104720597Y-104163993D01*
X104743598Y-104148624D01*
X104755602Y-104130659D01*
X104763250Y-104121340D01*
X106194513Y-102690077D01*
X106238000Y-102672064D01*
X106281487Y-102690077D01*
X106299500Y-102733564D01*
X106299500Y-108988000D01*
X106281487Y-109031487D01*
X106238000Y-109049500D01*
X73762000Y-109049500D01*
X73718513Y-109031487D01*
X73700500Y-108988000D01*
X73700500Y-106983102D01*
X76381176Y-106983102D01*
X76382899Y-106987264D01*
X76561210Y-107096534D01*
X76565489Y-107098714D01*
X76780334Y-107187706D01*
X76784905Y-107189191D01*
X77011013Y-107243475D01*
X77015785Y-107244230D01*
X77247586Y-107262473D01*
X77252414Y-107262473D01*
X77484215Y-107244230D01*
X77488987Y-107243475D01*
X77715095Y-107189191D01*
X77719666Y-107187706D01*
X77934511Y-107098714D01*
X77938790Y-107096534D01*
X78113462Y-106989493D01*
X78118106Y-106983102D01*
X82881176Y-106983102D01*
X82882899Y-106987264D01*
X83061210Y-107096534D01*
X83065489Y-107098714D01*
X83280334Y-107187706D01*
X83284905Y-107189191D01*
X83511013Y-107243475D01*
X83515785Y-107244230D01*
X83747586Y-107262473D01*
X83752414Y-107262473D01*
X83984215Y-107244230D01*
X83988987Y-107243475D01*
X84215095Y-107189191D01*
X84219666Y-107187706D01*
X84434511Y-107098714D01*
X84438790Y-107096534D01*
X84613462Y-106989493D01*
X84618106Y-106983102D01*
X85881176Y-106983102D01*
X85882899Y-106987264D01*
X86061210Y-107096534D01*
X86065489Y-107098714D01*
X86280334Y-107187706D01*
X86284905Y-107189191D01*
X86511013Y-107243475D01*
X86515785Y-107244230D01*
X86747586Y-107262473D01*
X86752414Y-107262473D01*
X86984215Y-107244230D01*
X86988987Y-107243475D01*
X87215095Y-107189191D01*
X87219666Y-107187706D01*
X87434511Y-107098714D01*
X87438790Y-107096534D01*
X87613462Y-106989493D01*
X87618106Y-106983102D01*
X92381176Y-106983102D01*
X92382899Y-106987264D01*
X92561210Y-107096534D01*
X92565489Y-107098714D01*
X92780334Y-107187706D01*
X92784905Y-107189191D01*
X93011013Y-107243475D01*
X93015785Y-107244230D01*
X93247586Y-107262473D01*
X93252414Y-107262473D01*
X93484215Y-107244230D01*
X93488987Y-107243475D01*
X93715095Y-107189191D01*
X93719666Y-107187706D01*
X93934511Y-107098714D01*
X93938790Y-107096534D01*
X94113462Y-106989493D01*
X94118106Y-106983102D01*
X95381176Y-106983102D01*
X95382899Y-106987264D01*
X95561210Y-107096534D01*
X95565489Y-107098714D01*
X95780334Y-107187706D01*
X95784905Y-107189191D01*
X96011013Y-107243475D01*
X96015785Y-107244230D01*
X96247586Y-107262473D01*
X96252414Y-107262473D01*
X96484215Y-107244230D01*
X96488987Y-107243475D01*
X96715095Y-107189191D01*
X96719666Y-107187706D01*
X96934511Y-107098714D01*
X96938790Y-107096534D01*
X97113462Y-106989493D01*
X97118106Y-106983102D01*
X101881176Y-106983102D01*
X101882899Y-106987264D01*
X102061210Y-107096534D01*
X102065489Y-107098714D01*
X102280334Y-107187706D01*
X102284905Y-107189191D01*
X102511013Y-107243475D01*
X102515785Y-107244230D01*
X102747586Y-107262473D01*
X102752414Y-107262473D01*
X102984215Y-107244230D01*
X102988987Y-107243475D01*
X103215095Y-107189191D01*
X103219666Y-107187706D01*
X103434511Y-107098714D01*
X103438790Y-107096534D01*
X103613462Y-106989493D01*
X103618965Y-106981920D01*
X103618260Y-106977470D01*
X102758651Y-106117861D01*
X102750000Y-106114278D01*
X102741349Y-106117861D01*
X101884759Y-106974451D01*
X101881176Y-106983102D01*
X97118106Y-106983102D01*
X97118965Y-106981920D01*
X97118260Y-106977470D01*
X96258651Y-106117861D01*
X96250000Y-106114278D01*
X96241349Y-106117861D01*
X95384759Y-106974451D01*
X95381176Y-106983102D01*
X94118106Y-106983102D01*
X94118965Y-106981920D01*
X94118260Y-106977470D01*
X93258651Y-106117861D01*
X93250000Y-106114278D01*
X93241349Y-106117861D01*
X92384759Y-106974451D01*
X92381176Y-106983102D01*
X87618106Y-106983102D01*
X87618965Y-106981920D01*
X87618260Y-106977470D01*
X86758651Y-106117861D01*
X86750000Y-106114278D01*
X86741349Y-106117861D01*
X85884759Y-106974451D01*
X85881176Y-106983102D01*
X84618106Y-106983102D01*
X84618965Y-106981920D01*
X84618260Y-106977470D01*
X83758651Y-106117861D01*
X83750000Y-106114278D01*
X83741349Y-106117861D01*
X82884759Y-106974451D01*
X82881176Y-106983102D01*
X78118106Y-106983102D01*
X78118965Y-106981920D01*
X78118260Y-106977470D01*
X77258651Y-106117861D01*
X77250000Y-106114278D01*
X77241349Y-106117861D01*
X76384759Y-106974451D01*
X76381176Y-106983102D01*
X73700500Y-106983102D01*
X73700500Y-105752414D01*
X75737527Y-105752414D01*
X75755770Y-105984215D01*
X75756525Y-105988987D01*
X75810809Y-106215095D01*
X75812294Y-106219666D01*
X75901286Y-106434511D01*
X75903466Y-106438790D01*
X76010507Y-106613462D01*
X76018080Y-106618965D01*
X76022530Y-106618260D01*
X76882139Y-105758651D01*
X76885722Y-105750000D01*
X77614278Y-105750000D01*
X77617861Y-105758651D01*
X78474451Y-106615241D01*
X78483102Y-106618824D01*
X78487264Y-106617101D01*
X78596534Y-106438790D01*
X78598714Y-106434511D01*
X78687706Y-106219666D01*
X78689191Y-106215095D01*
X78743475Y-105988987D01*
X78744230Y-105984215D01*
X78762473Y-105752414D01*
X82237527Y-105752414D01*
X82255770Y-105984215D01*
X82256525Y-105988987D01*
X82310809Y-106215095D01*
X82312294Y-106219666D01*
X82401286Y-106434511D01*
X82403466Y-106438790D01*
X82510507Y-106613462D01*
X82518080Y-106618965D01*
X82522530Y-106618260D01*
X83382139Y-105758651D01*
X83385722Y-105750000D01*
X84114278Y-105750000D01*
X84117861Y-105758651D01*
X84974451Y-106615241D01*
X84983102Y-106618824D01*
X84987264Y-106617101D01*
X85096534Y-106438790D01*
X85098714Y-106434511D01*
X85187706Y-106219666D01*
X85189192Y-106215092D01*
X85190199Y-106210896D01*
X85217866Y-106172815D01*
X85264356Y-106165451D01*
X85302437Y-106193118D01*
X85309801Y-106210896D01*
X85310808Y-106215092D01*
X85312294Y-106219666D01*
X85401286Y-106434511D01*
X85403466Y-106438790D01*
X85510507Y-106613462D01*
X85518080Y-106618965D01*
X85522530Y-106618260D01*
X86382139Y-105758651D01*
X86385722Y-105750000D01*
X87114278Y-105750000D01*
X87117861Y-105758651D01*
X87974451Y-106615241D01*
X87983102Y-106618824D01*
X87987264Y-106617101D01*
X88096534Y-106438790D01*
X88098714Y-106434511D01*
X88187706Y-106219666D01*
X88189191Y-106215095D01*
X88243475Y-105988987D01*
X88244230Y-105984215D01*
X88262473Y-105752414D01*
X91737527Y-105752414D01*
X91755770Y-105984215D01*
X91756525Y-105988987D01*
X91810809Y-106215095D01*
X91812294Y-106219666D01*
X91901286Y-106434511D01*
X91903466Y-106438790D01*
X92010507Y-106613462D01*
X92018080Y-106618965D01*
X92022530Y-106618260D01*
X92882139Y-105758651D01*
X92885722Y-105750000D01*
X93614278Y-105750000D01*
X93617861Y-105758651D01*
X94474451Y-106615241D01*
X94483102Y-106618824D01*
X94487264Y-106617101D01*
X94596534Y-106438790D01*
X94598714Y-106434511D01*
X94687706Y-106219666D01*
X94689192Y-106215092D01*
X94690199Y-106210896D01*
X94717866Y-106172815D01*
X94764356Y-106165451D01*
X94802437Y-106193118D01*
X94809801Y-106210896D01*
X94810808Y-106215092D01*
X94812294Y-106219666D01*
X94901286Y-106434511D01*
X94903466Y-106438790D01*
X95010507Y-106613462D01*
X95018080Y-106618965D01*
X95022530Y-106618260D01*
X95882139Y-105758651D01*
X95885722Y-105750000D01*
X96614278Y-105750000D01*
X96617861Y-105758651D01*
X97474451Y-106615241D01*
X97483102Y-106618824D01*
X97487264Y-106617101D01*
X97596534Y-106438790D01*
X97598714Y-106434511D01*
X97687706Y-106219666D01*
X97689191Y-106215095D01*
X97743475Y-105988987D01*
X97744230Y-105984215D01*
X97762473Y-105752414D01*
X101237527Y-105752414D01*
X101255770Y-105984215D01*
X101256525Y-105988987D01*
X101310809Y-106215095D01*
X101312294Y-106219666D01*
X101401286Y-106434511D01*
X101403466Y-106438790D01*
X101510507Y-106613462D01*
X101518080Y-106618965D01*
X101522530Y-106618260D01*
X102382139Y-105758651D01*
X102385722Y-105750000D01*
X103114278Y-105750000D01*
X103117861Y-105758651D01*
X103974451Y-106615241D01*
X103983102Y-106618824D01*
X103987264Y-106617101D01*
X104096534Y-106438790D01*
X104098714Y-106434511D01*
X104187706Y-106219666D01*
X104189191Y-106215095D01*
X104243475Y-105988987D01*
X104244230Y-105984215D01*
X104262473Y-105752414D01*
X104262473Y-105747586D01*
X104244230Y-105515785D01*
X104243475Y-105511013D01*
X104189191Y-105284905D01*
X104187706Y-105280334D01*
X104098714Y-105065489D01*
X104096534Y-105061210D01*
X103989493Y-104886538D01*
X103981920Y-104881035D01*
X103977470Y-104881740D01*
X103117861Y-105741349D01*
X103114278Y-105750000D01*
X102385722Y-105750000D01*
X102382139Y-105741349D01*
X101525549Y-104884759D01*
X101516898Y-104881176D01*
X101512736Y-104882899D01*
X101403466Y-105061210D01*
X101401286Y-105065489D01*
X101312294Y-105280334D01*
X101310809Y-105284905D01*
X101256525Y-105511013D01*
X101255770Y-105515785D01*
X101237527Y-105747586D01*
X101237527Y-105752414D01*
X97762473Y-105752414D01*
X97762473Y-105747586D01*
X97744230Y-105515785D01*
X97743475Y-105511013D01*
X97689191Y-105284905D01*
X97687706Y-105280334D01*
X97598714Y-105065489D01*
X97596534Y-105061210D01*
X97489493Y-104886538D01*
X97481920Y-104881035D01*
X97477470Y-104881740D01*
X96617861Y-105741349D01*
X96614278Y-105750000D01*
X95885722Y-105750000D01*
X95882139Y-105741349D01*
X95025549Y-104884759D01*
X95016898Y-104881176D01*
X95012736Y-104882899D01*
X94903466Y-105061210D01*
X94901286Y-105065489D01*
X94812294Y-105280334D01*
X94810808Y-105284908D01*
X94809801Y-105289104D01*
X94782134Y-105327185D01*
X94735644Y-105334549D01*
X94697563Y-105306882D01*
X94690199Y-105289104D01*
X94689192Y-105284908D01*
X94687706Y-105280334D01*
X94598714Y-105065489D01*
X94596534Y-105061210D01*
X94489493Y-104886538D01*
X94481920Y-104881035D01*
X94477470Y-104881740D01*
X93617861Y-105741349D01*
X93614278Y-105750000D01*
X92885722Y-105750000D01*
X92882139Y-105741349D01*
X92025549Y-104884759D01*
X92016898Y-104881176D01*
X92012736Y-104882899D01*
X91903466Y-105061210D01*
X91901286Y-105065489D01*
X91812294Y-105280334D01*
X91810809Y-105284905D01*
X91756525Y-105511013D01*
X91755770Y-105515785D01*
X91737527Y-105747586D01*
X91737527Y-105752414D01*
X88262473Y-105752414D01*
X88262473Y-105747586D01*
X88244230Y-105515785D01*
X88243475Y-105511013D01*
X88189191Y-105284905D01*
X88187706Y-105280334D01*
X88098714Y-105065489D01*
X88096534Y-105061210D01*
X87989493Y-104886538D01*
X87981920Y-104881035D01*
X87977470Y-104881740D01*
X87117861Y-105741349D01*
X87114278Y-105750000D01*
X86385722Y-105750000D01*
X86382139Y-105741349D01*
X85525549Y-104884759D01*
X85516898Y-104881176D01*
X85512736Y-104882899D01*
X85403466Y-105061210D01*
X85401286Y-105065489D01*
X85312294Y-105280334D01*
X85310808Y-105284908D01*
X85309801Y-105289104D01*
X85282134Y-105327185D01*
X85235644Y-105334549D01*
X85197563Y-105306882D01*
X85190199Y-105289104D01*
X85189192Y-105284908D01*
X85187706Y-105280334D01*
X85098714Y-105065489D01*
X85096534Y-105061210D01*
X84989493Y-104886538D01*
X84981920Y-104881035D01*
X84977470Y-104881740D01*
X84117861Y-105741349D01*
X84114278Y-105750000D01*
X83385722Y-105750000D01*
X83382139Y-105741349D01*
X82525549Y-104884759D01*
X82516898Y-104881176D01*
X82512736Y-104882899D01*
X82403466Y-105061210D01*
X82401286Y-105065489D01*
X82312294Y-105280334D01*
X82310809Y-105284905D01*
X82256525Y-105511013D01*
X82255770Y-105515785D01*
X82237527Y-105747586D01*
X82237527Y-105752414D01*
X78762473Y-105752414D01*
X78762473Y-105747586D01*
X78744230Y-105515785D01*
X78743475Y-105511013D01*
X78689191Y-105284905D01*
X78687706Y-105280334D01*
X78598714Y-105065489D01*
X78596534Y-105061210D01*
X78489493Y-104886538D01*
X78481920Y-104881035D01*
X78477470Y-104881740D01*
X77617861Y-105741349D01*
X77614278Y-105750000D01*
X76885722Y-105750000D01*
X76882139Y-105741349D01*
X76025549Y-104884759D01*
X76016898Y-104881176D01*
X76012736Y-104882899D01*
X75903466Y-105061210D01*
X75901286Y-105065489D01*
X75812294Y-105280334D01*
X75810809Y-105284905D01*
X75756525Y-105511013D01*
X75755770Y-105515785D01*
X75737527Y-105747586D01*
X75737527Y-105752414D01*
X73700500Y-105752414D01*
X73700500Y-62262000D01*
X73718513Y-62218513D01*
X73762000Y-62200500D01*
X106238000Y-62200500D01*
X106281487Y-62218513D01*
G37*
%TD.AperFunction*%
%TA.AperFunction,Conductor*%
G36*
X97561397Y-74701013D02*
G01*
X100260987Y-77400603D01*
X100279000Y-77444090D01*
X100279000Y-78133766D01*
X100282583Y-78142417D01*
X100291234Y-78146000D01*
X100980910Y-78146000D01*
X101024397Y-78164013D01*
X104268987Y-81408603D01*
X104287000Y-81452090D01*
X104287000Y-82821520D01*
X104268987Y-82865007D01*
X104225500Y-82883020D01*
X104205123Y-82879546D01*
X104163000Y-82864754D01*
X104127934Y-82852440D01*
X104124205Y-82852088D01*
X104124203Y-82852087D01*
X104098283Y-82849637D01*
X104098282Y-82849637D01*
X104096833Y-82849500D01*
X104053163Y-82849500D01*
X103314591Y-82849501D01*
X103271104Y-82831488D01*
X101018276Y-80578660D01*
X101010628Y-80569341D01*
X101001989Y-80556412D01*
X100998624Y-80551376D01*
X100975623Y-80536007D01*
X100975622Y-80536006D01*
X100929240Y-80505015D01*
X100907495Y-80490485D01*
X100893916Y-80487784D01*
X100854779Y-80461633D01*
X100845597Y-80415467D01*
X100853310Y-80395607D01*
X100898095Y-80321659D01*
X100901120Y-80314958D01*
X100950280Y-80158087D01*
X100951556Y-80151717D01*
X100957872Y-80082981D01*
X100958000Y-80080191D01*
X100958000Y-80016234D01*
X100954417Y-80007583D01*
X100945766Y-80004000D01*
X99154235Y-80004000D01*
X99145584Y-80007583D01*
X99142001Y-80016234D01*
X99142001Y-80080189D01*
X99142129Y-80082982D01*
X99148444Y-80151718D01*
X99149719Y-80158085D01*
X99198880Y-80314958D01*
X99201905Y-80321659D01*
X99237929Y-80381141D01*
X99245049Y-80427670D01*
X99217183Y-80465605D01*
X99185324Y-80474500D01*
X98856150Y-80474500D01*
X98812663Y-80456487D01*
X98794650Y-80413000D01*
X98812663Y-80369513D01*
X98828229Y-80358203D01*
X98834029Y-80355248D01*
X98834031Y-80355247D01*
X98838342Y-80353050D01*
X98928050Y-80263342D01*
X98985646Y-80150304D01*
X99000500Y-80056519D01*
X99000499Y-79443482D01*
X98989910Y-79376619D01*
X98986403Y-79354475D01*
X98986403Y-79354474D01*
X98985646Y-79349696D01*
X98983450Y-79345386D01*
X98983450Y-79345385D01*
X98957283Y-79294030D01*
X98928050Y-79236658D01*
X98838649Y-79147257D01*
X98820636Y-79103770D01*
X98838649Y-79060283D01*
X98854216Y-79048973D01*
X98953220Y-78998528D01*
X99025581Y-78926167D01*
X99069068Y-78908154D01*
X99112555Y-78926167D01*
X99127407Y-78950190D01*
X99130569Y-78959668D01*
X99133578Y-78966092D01*
X99213262Y-79094859D01*
X99220828Y-79141317D01*
X99213570Y-79159079D01*
X99201910Y-79178332D01*
X99198877Y-79185049D01*
X99149720Y-79341913D01*
X99148444Y-79348283D01*
X99142128Y-79417019D01*
X99142000Y-79419809D01*
X99142000Y-79483766D01*
X99145583Y-79492417D01*
X99154234Y-79496000D01*
X99783766Y-79496000D01*
X99792417Y-79492417D01*
X99796000Y-79483766D01*
X99796000Y-79435234D01*
X99785562Y-79410035D01*
X99775682Y-79400155D01*
X99771000Y-79376619D01*
X99771000Y-78714766D01*
X100279000Y-78714766D01*
X100289438Y-78739965D01*
X100299318Y-78749845D01*
X100304000Y-78773381D01*
X100304000Y-79483766D01*
X100307583Y-79492417D01*
X100316234Y-79496000D01*
X100945765Y-79496000D01*
X100954416Y-79492417D01*
X100957999Y-79483766D01*
X100957999Y-79419811D01*
X100957871Y-79417018D01*
X100951556Y-79348282D01*
X100950281Y-79341915D01*
X100901120Y-79185042D01*
X100898095Y-79178341D01*
X100861722Y-79118282D01*
X100854602Y-79071753D01*
X100861974Y-79054152D01*
X100916972Y-78964929D01*
X100919970Y-78958499D01*
X100971600Y-78802841D01*
X100972999Y-78796315D01*
X100982840Y-78700262D01*
X100983000Y-78697135D01*
X100983000Y-78666234D01*
X100979417Y-78657583D01*
X100970766Y-78654000D01*
X100291234Y-78654000D01*
X100282583Y-78657583D01*
X100279000Y-78666234D01*
X100279000Y-78714766D01*
X99771000Y-78714766D01*
X99771000Y-77429234D01*
X99767417Y-77420583D01*
X99758766Y-77417000D01*
X99752883Y-77417000D01*
X99749721Y-77417163D01*
X99652430Y-77427259D01*
X99645891Y-77428671D01*
X99490334Y-77480568D01*
X99483908Y-77483578D01*
X99344632Y-77569765D01*
X99339079Y-77574167D01*
X99223366Y-77690081D01*
X99218969Y-77695649D01*
X99133028Y-77835071D01*
X99130029Y-77841503D01*
X99127341Y-77849607D01*
X99096553Y-77885212D01*
X99049607Y-77888619D01*
X99025481Y-77873733D01*
X98953220Y-77801472D01*
X98833126Y-77740281D01*
X98733488Y-77724500D01*
X98216512Y-77724500D01*
X98216512Y-77723331D01*
X98171243Y-77706627D01*
X96418570Y-75953954D01*
X96400557Y-75910467D01*
X96418570Y-75866980D01*
X96434136Y-75855670D01*
X96457857Y-75843583D01*
X96488342Y-75828050D01*
X96578050Y-75738342D01*
X96635646Y-75625304D01*
X96639753Y-75599377D01*
X96654735Y-75504780D01*
X96655492Y-75500000D01*
X96635646Y-75374696D01*
X96578050Y-75261658D01*
X96488342Y-75171950D01*
X96385890Y-75119748D01*
X96379614Y-75116550D01*
X96375304Y-75114354D01*
X96370527Y-75113597D01*
X96370526Y-75113597D01*
X96254780Y-75095265D01*
X96250000Y-75094508D01*
X96245220Y-75095265D01*
X96129474Y-75113597D01*
X96129473Y-75113597D01*
X96124696Y-75114354D01*
X96120386Y-75116550D01*
X96120383Y-75116551D01*
X96103218Y-75125297D01*
X96075298Y-75132000D01*
X95936723Y-75132000D01*
X95893236Y-75113987D01*
X95875223Y-75070500D01*
X95875749Y-75062472D01*
X95878098Y-75044628D01*
X95875675Y-75035584D01*
X95870334Y-75032500D01*
X94774000Y-75032500D01*
X94730513Y-75014487D01*
X94712500Y-74971000D01*
X94712500Y-74844000D01*
X94730513Y-74800513D01*
X94774000Y-74782500D01*
X95867461Y-74782500D01*
X95876112Y-74778917D01*
X95878473Y-74773217D01*
X95875749Y-74752528D01*
X95887932Y-74707061D01*
X95928695Y-74683526D01*
X95936723Y-74683000D01*
X97517910Y-74683000D01*
X97561397Y-74701013D01*
G37*
%TD.AperFunction*%
%TA.AperFunction,Conductor*%
G36*
X87548402Y-75693365D02*
G01*
X87579841Y-75714372D01*
X87579845Y-75714374D01*
X87584883Y-75717740D01*
X87661599Y-75733000D01*
X87669995Y-75733000D01*
X88305501Y-75732999D01*
X88348987Y-75751012D01*
X88367000Y-75794499D01*
X88367000Y-76107766D01*
X88370583Y-76116417D01*
X88379234Y-76120000D01*
X89063500Y-76120000D01*
X89106987Y-76138013D01*
X89125000Y-76181500D01*
X89125000Y-77274962D01*
X89132163Y-77292254D01*
X89132164Y-77339324D01*
X89130145Y-77343705D01*
X89114354Y-77374696D01*
X89094508Y-77500000D01*
X89095265Y-77504780D01*
X89105558Y-77569765D01*
X89114354Y-77625304D01*
X89171950Y-77738342D01*
X89261658Y-77828050D01*
X89374696Y-77885646D01*
X89379473Y-77886403D01*
X89379474Y-77886403D01*
X89495220Y-77904735D01*
X89500000Y-77905492D01*
X89504780Y-77904735D01*
X89620526Y-77886403D01*
X89620527Y-77886403D01*
X89625304Y-77885646D01*
X89648685Y-77873733D01*
X89676569Y-77859525D01*
X89723494Y-77855832D01*
X89755625Y-77880154D01*
X89772050Y-77904735D01*
X89801376Y-77948624D01*
X89806412Y-77951989D01*
X89819341Y-77960628D01*
X89828660Y-77968276D01*
X92929897Y-81069513D01*
X92947910Y-81113000D01*
X92929897Y-81156487D01*
X92886410Y-81174500D01*
X88907090Y-81174500D01*
X88863603Y-81156487D01*
X86093513Y-78386397D01*
X86075500Y-78342910D01*
X86075500Y-77047090D01*
X86093513Y-77003603D01*
X86341729Y-76755387D01*
X88367000Y-76755387D01*
X88367262Y-76759383D01*
X88381158Y-76864933D01*
X88383226Y-76872653D01*
X88437627Y-77003989D01*
X88441623Y-77010910D01*
X88528160Y-77123688D01*
X88533811Y-77129339D01*
X88646591Y-77215877D01*
X88653512Y-77219873D01*
X88784845Y-77274273D01*
X88792567Y-77276342D01*
X88862872Y-77285598D01*
X88871916Y-77283175D01*
X88875000Y-77277834D01*
X88875000Y-76382234D01*
X88871417Y-76373583D01*
X88862766Y-76370000D01*
X88379234Y-76370000D01*
X88370583Y-76373583D01*
X88367000Y-76382234D01*
X88367000Y-76755387D01*
X86341729Y-76755387D01*
X87396103Y-75701013D01*
X87439590Y-75683000D01*
X87514235Y-75683000D01*
X87548402Y-75693365D01*
G37*
%TD.AperFunction*%
%TA.AperFunction,Conductor*%
G36*
X85575299Y-68651291D02*
G01*
X85589124Y-68673850D01*
X85589354Y-68675304D01*
X85591548Y-68679610D01*
X85591549Y-68679613D01*
X85608120Y-68712135D01*
X85646950Y-68788342D01*
X85736658Y-68878050D01*
X85849696Y-68935646D01*
X85854473Y-68936403D01*
X85854474Y-68936403D01*
X85885722Y-68941352D01*
X85943481Y-68950500D01*
X85988403Y-68950500D01*
X86435409Y-68950499D01*
X86478896Y-68968512D01*
X86706487Y-69196103D01*
X86724500Y-69239590D01*
X86724500Y-69354610D01*
X86706487Y-69398097D01*
X86663000Y-69416110D01*
X86650343Y-69414106D01*
X86650304Y-69414354D01*
X86556519Y-69399500D01*
X86554097Y-69399500D01*
X86249303Y-69399501D01*
X85943482Y-69399501D01*
X85911042Y-69404639D01*
X85854475Y-69413597D01*
X85854474Y-69413597D01*
X85849696Y-69414354D01*
X85845388Y-69416549D01*
X85845385Y-69416550D01*
X85816561Y-69431237D01*
X85736658Y-69471950D01*
X85646950Y-69561658D01*
X85589354Y-69674696D01*
X85574500Y-69768481D01*
X85574501Y-70231518D01*
X85575455Y-70237540D01*
X85586614Y-70308000D01*
X85589354Y-70325304D01*
X85591549Y-70329612D01*
X85591550Y-70329615D01*
X85617580Y-70380700D01*
X85646950Y-70438342D01*
X85736658Y-70528050D01*
X85849696Y-70585646D01*
X85854473Y-70586403D01*
X85854474Y-70586403D01*
X85900194Y-70593644D01*
X85922621Y-70597196D01*
X85962754Y-70621790D01*
X85974500Y-70657939D01*
X85974500Y-70716812D01*
X85973318Y-70728810D01*
X85969103Y-70750000D01*
X85974500Y-70777132D01*
X85974500Y-70777133D01*
X85990485Y-70857495D01*
X86016638Y-70896635D01*
X86023898Y-70907500D01*
X86051376Y-70948624D01*
X86056412Y-70951989D01*
X86069341Y-70960628D01*
X86078660Y-70968276D01*
X86484890Y-71374506D01*
X86502146Y-71408372D01*
X86519377Y-71517163D01*
X86521854Y-71532804D01*
X86579450Y-71645842D01*
X86669158Y-71735550D01*
X86782196Y-71793146D01*
X86786973Y-71793903D01*
X86786974Y-71793903D01*
X86902720Y-71812235D01*
X86907500Y-71812992D01*
X86912280Y-71812235D01*
X87028026Y-71793903D01*
X87028027Y-71793903D01*
X87032804Y-71793146D01*
X87037114Y-71790950D01*
X87037117Y-71790949D01*
X87064302Y-71777098D01*
X87111227Y-71773405D01*
X87122972Y-71778635D01*
X87129666Y-71782500D01*
X88226000Y-71782500D01*
X88269487Y-71800513D01*
X88287500Y-71844000D01*
X88287500Y-71971000D01*
X88269487Y-72014487D01*
X88226000Y-72032500D01*
X87132539Y-72032500D01*
X87123888Y-72036083D01*
X87121527Y-72041783D01*
X87131158Y-72114933D01*
X87133229Y-72122661D01*
X87140189Y-72139465D01*
X87140190Y-72186535D01*
X87106906Y-72219818D01*
X87083371Y-72224500D01*
X84729291Y-72224500D01*
X84685804Y-72206487D01*
X84668548Y-72172620D01*
X84660636Y-72122661D01*
X84659719Y-72116874D01*
X84598528Y-71996780D01*
X84503220Y-71901472D01*
X84383126Y-71840281D01*
X84283488Y-71824500D01*
X83766512Y-71824500D01*
X83666874Y-71840281D01*
X83546780Y-71901472D01*
X83474419Y-71973833D01*
X83430932Y-71991846D01*
X83387445Y-71973833D01*
X83372593Y-71949810D01*
X83369431Y-71940332D01*
X83366422Y-71933908D01*
X83280235Y-71794632D01*
X83275833Y-71789079D01*
X83159919Y-71673366D01*
X83154351Y-71668969D01*
X83014929Y-71583028D01*
X83008499Y-71580030D01*
X82852841Y-71528400D01*
X82846315Y-71527001D01*
X82750262Y-71517160D01*
X82747135Y-71517000D01*
X82741234Y-71517000D01*
X82732583Y-71520583D01*
X82729000Y-71529234D01*
X82729000Y-72913000D01*
X82710987Y-72956487D01*
X82667500Y-72974500D01*
X82282500Y-72974500D01*
X82239013Y-72956487D01*
X82221000Y-72913000D01*
X82221000Y-72766234D01*
X82217417Y-72757583D01*
X82208766Y-72754000D01*
X81529234Y-72754000D01*
X81520583Y-72757583D01*
X81517000Y-72766234D01*
X81517000Y-72797117D01*
X81517163Y-72800279D01*
X81527259Y-72897572D01*
X81527787Y-72900017D01*
X81519360Y-72946327D01*
X81480656Y-72973114D01*
X81467673Y-72974500D01*
X80749827Y-72974500D01*
X80706340Y-72956487D01*
X80693664Y-72932769D01*
X80692366Y-72933306D01*
X80690049Y-72927713D01*
X80688867Y-72921769D01*
X80644552Y-72855448D01*
X80578231Y-72811133D01*
X80519748Y-72799500D01*
X78780252Y-72799500D01*
X78721769Y-72811133D01*
X78655448Y-72855448D01*
X78611133Y-72921769D01*
X78599500Y-72980252D01*
X78599500Y-75119748D01*
X78611133Y-75178231D01*
X78655448Y-75244552D01*
X78721769Y-75288867D01*
X78780252Y-75300500D01*
X80519748Y-75300500D01*
X80578231Y-75288867D01*
X80644552Y-75244552D01*
X80688867Y-75178231D01*
X80700500Y-75119748D01*
X80700500Y-74297117D01*
X81517000Y-74297117D01*
X81517163Y-74300279D01*
X81527259Y-74397570D01*
X81528671Y-74404109D01*
X81580568Y-74559666D01*
X81583578Y-74566092D01*
X81669765Y-74705368D01*
X81674167Y-74710921D01*
X81790081Y-74826634D01*
X81795649Y-74831031D01*
X81935071Y-74916972D01*
X81941501Y-74919970D01*
X82097159Y-74971600D01*
X82103685Y-74972999D01*
X82199738Y-74982840D01*
X82202865Y-74983000D01*
X82208766Y-74983000D01*
X82217417Y-74979417D01*
X82221000Y-74970766D01*
X82221000Y-74266234D01*
X82217417Y-74257583D01*
X82208766Y-74254000D01*
X81529234Y-74254000D01*
X81520583Y-74257583D01*
X81517000Y-74266234D01*
X81517000Y-74297117D01*
X80700500Y-74297117D01*
X80700500Y-73587000D01*
X80718513Y-73543513D01*
X80762000Y-73525500D01*
X81467680Y-73525500D01*
X81511167Y-73543513D01*
X81529180Y-73587000D01*
X81527814Y-73599890D01*
X81527001Y-73603682D01*
X81517160Y-73699738D01*
X81517000Y-73702865D01*
X81517000Y-73733766D01*
X81520583Y-73742417D01*
X81529234Y-73746000D01*
X82208766Y-73746000D01*
X82217417Y-73742417D01*
X82221000Y-73733766D01*
X82221000Y-73587000D01*
X82239013Y-73543513D01*
X82282500Y-73525500D01*
X82667500Y-73525500D01*
X82710987Y-73543513D01*
X82729000Y-73587000D01*
X82729000Y-74880910D01*
X82710987Y-74924397D01*
X79478660Y-78156724D01*
X79469341Y-78164372D01*
X79451376Y-78176376D01*
X79436007Y-78199377D01*
X79436006Y-78199378D01*
X79432288Y-78204943D01*
X79390485Y-78267505D01*
X79390485Y-78267506D01*
X79369103Y-78375000D01*
X79370285Y-78380942D01*
X79373318Y-78396190D01*
X79374500Y-78408188D01*
X79374500Y-78638000D01*
X79356487Y-78681487D01*
X79313000Y-78699500D01*
X78780252Y-78699500D01*
X78721769Y-78711133D01*
X78655448Y-78755448D01*
X78611133Y-78821769D01*
X78599500Y-78880252D01*
X78599500Y-80705419D01*
X78581487Y-80748906D01*
X78538000Y-80766919D01*
X78494513Y-80748906D01*
X78368513Y-80622906D01*
X78350500Y-80579419D01*
X78350500Y-72233766D01*
X81517000Y-72233766D01*
X81520583Y-72242417D01*
X81529234Y-72246000D01*
X82208766Y-72246000D01*
X82217417Y-72242417D01*
X82221000Y-72233766D01*
X82221000Y-71529234D01*
X82217417Y-71520583D01*
X82208766Y-71517000D01*
X82202883Y-71517000D01*
X82199721Y-71517163D01*
X82102430Y-71527259D01*
X82095891Y-71528671D01*
X81940334Y-71580568D01*
X81933908Y-71583578D01*
X81794632Y-71669765D01*
X81789079Y-71674167D01*
X81673366Y-71790081D01*
X81668969Y-71795649D01*
X81583028Y-71935071D01*
X81580030Y-71941501D01*
X81528400Y-72097159D01*
X81527001Y-72103685D01*
X81517160Y-72199738D01*
X81517000Y-72202865D01*
X81517000Y-72233766D01*
X78350500Y-72233766D01*
X78350500Y-70627178D01*
X78364716Y-70587852D01*
X78491805Y-70435045D01*
X78491806Y-70435043D01*
X78493602Y-70432884D01*
X78522827Y-70380700D01*
X78600033Y-70242838D01*
X78600033Y-70242837D01*
X78601410Y-70240379D01*
X78660186Y-70067231D01*
X78691220Y-70031842D01*
X78718421Y-70025500D01*
X82783435Y-70025500D01*
X82826922Y-70043513D01*
X82843043Y-70071861D01*
X82857542Y-70128948D01*
X82863511Y-70152452D01*
X82864688Y-70155005D01*
X82864689Y-70155008D01*
X82943197Y-70325304D01*
X82955883Y-70352821D01*
X83016323Y-70438342D01*
X83069714Y-70513888D01*
X83083222Y-70533002D01*
X83085245Y-70534973D01*
X83085247Y-70534975D01*
X83135008Y-70583450D01*
X83241264Y-70686961D01*
X83322662Y-70741349D01*
X83384249Y-70782500D01*
X83424717Y-70809540D01*
X83427306Y-70810652D01*
X83427309Y-70810654D01*
X83518967Y-70850033D01*
X83627436Y-70896635D01*
X83630179Y-70897256D01*
X83630183Y-70897257D01*
X83839886Y-70944708D01*
X83839890Y-70944708D01*
X83842632Y-70945329D01*
X83845441Y-70945439D01*
X83845446Y-70945440D01*
X83963414Y-70950074D01*
X84063098Y-70953991D01*
X84065883Y-70953587D01*
X84065887Y-70953587D01*
X84278662Y-70922736D01*
X84278667Y-70922735D01*
X84281452Y-70922331D01*
X84490379Y-70851410D01*
X84563154Y-70810654D01*
X84680431Y-70744976D01*
X84680433Y-70744975D01*
X84682884Y-70743602D01*
X84695632Y-70733000D01*
X84850355Y-70604317D01*
X84852518Y-70602518D01*
X84856944Y-70597196D01*
X84991805Y-70435045D01*
X84991806Y-70435043D01*
X84993602Y-70432884D01*
X85022827Y-70380700D01*
X85100033Y-70242838D01*
X85100033Y-70242837D01*
X85101410Y-70240379D01*
X85172331Y-70031452D01*
X85186244Y-69935500D01*
X85201066Y-69833270D01*
X85203991Y-69813098D01*
X85205643Y-69750000D01*
X85185454Y-69530289D01*
X85181491Y-69516234D01*
X85126330Y-69320648D01*
X85126329Y-69320647D01*
X85125565Y-69317936D01*
X85102798Y-69271769D01*
X85044692Y-69153941D01*
X85041614Y-69106971D01*
X85056363Y-69083253D01*
X85488325Y-68651291D01*
X85531812Y-68633278D01*
X85575299Y-68651291D01*
G37*
%TD.AperFunction*%
%TA.AperFunction,Conductor*%
G36*
X77034534Y-63718513D02*
G01*
X77052547Y-63762000D01*
X77034534Y-63805487D01*
X77014582Y-63818819D01*
X76815489Y-63901286D01*
X76811210Y-63903466D01*
X76636538Y-64010507D01*
X76631035Y-64018080D01*
X76631740Y-64022530D01*
X77491349Y-64882139D01*
X77500000Y-64885722D01*
X77508651Y-64882139D01*
X78365241Y-64025549D01*
X78368824Y-64016898D01*
X78367101Y-64012736D01*
X78188790Y-63903466D01*
X78184511Y-63901286D01*
X77985418Y-63818819D01*
X77952134Y-63785535D01*
X77952134Y-63738465D01*
X77985418Y-63705181D01*
X78008953Y-63700500D01*
X83491047Y-63700500D01*
X83534534Y-63718513D01*
X83552547Y-63762000D01*
X83534534Y-63805487D01*
X83514582Y-63818819D01*
X83315489Y-63901286D01*
X83311210Y-63903466D01*
X83136538Y-64010507D01*
X83131035Y-64018080D01*
X83131740Y-64022530D01*
X85224451Y-66115241D01*
X85233102Y-66118824D01*
X85237264Y-66117101D01*
X85346534Y-65938790D01*
X85348714Y-65934511D01*
X85437706Y-65719666D01*
X85439191Y-65715095D01*
X85493475Y-65488987D01*
X85494230Y-65484215D01*
X85512473Y-65252414D01*
X85512473Y-65247586D01*
X85494230Y-65015785D01*
X85493475Y-65011013D01*
X85439191Y-64784905D01*
X85437706Y-64780334D01*
X85412473Y-64719417D01*
X85412473Y-64672347D01*
X85445757Y-64639063D01*
X85492827Y-64639063D01*
X85512779Y-64652395D01*
X88706487Y-67846103D01*
X88724500Y-67889590D01*
X88724500Y-68921735D01*
X88714135Y-68955902D01*
X88693128Y-68987341D01*
X88693126Y-68987345D01*
X88689760Y-68992383D01*
X88674500Y-69069099D01*
X88674501Y-69565971D01*
X88674501Y-69810854D01*
X88656488Y-69854341D01*
X88649884Y-69860067D01*
X88540600Y-69941970D01*
X88534470Y-69948100D01*
X88452567Y-70057383D01*
X88412073Y-70081379D01*
X88403354Y-70082000D01*
X87673123Y-70082001D01*
X87661600Y-70082001D01*
X87641580Y-70085983D01*
X87590829Y-70096077D01*
X87590827Y-70096078D01*
X87584883Y-70097260D01*
X87579843Y-70100628D01*
X87579842Y-70100628D01*
X87509518Y-70147617D01*
X87497888Y-70155388D01*
X87467000Y-70201616D01*
X87454333Y-70220573D01*
X87415196Y-70246723D01*
X87369030Y-70237540D01*
X87359711Y-70229892D01*
X87293513Y-70163694D01*
X87275500Y-70120207D01*
X87275500Y-69133188D01*
X87276682Y-69121190D01*
X87279715Y-69105942D01*
X87280897Y-69100000D01*
X87279622Y-69093588D01*
X87274750Y-69069099D01*
X87274750Y-69069098D01*
X87260697Y-68998449D01*
X87259515Y-68992505D01*
X87198624Y-68901376D01*
X87180659Y-68889372D01*
X87171340Y-68881724D01*
X86940225Y-68650609D01*
X86922212Y-68607122D01*
X86922969Y-68597503D01*
X86925123Y-68583902D01*
X86925123Y-68583897D01*
X86925500Y-68581519D01*
X86925499Y-68118482D01*
X86910646Y-68024696D01*
X86908451Y-68020388D01*
X86908450Y-68020385D01*
X86859848Y-67925000D01*
X86853050Y-67911658D01*
X86763342Y-67821950D01*
X86650304Y-67764354D01*
X86645527Y-67763597D01*
X86645526Y-67763597D01*
X86607075Y-67757507D01*
X86556519Y-67749500D01*
X86554097Y-67749500D01*
X86249303Y-67749501D01*
X85943482Y-67749501D01*
X85911042Y-67754639D01*
X85854475Y-67763597D01*
X85854474Y-67763597D01*
X85849696Y-67764354D01*
X85845388Y-67766549D01*
X85845385Y-67766550D01*
X85794030Y-67792717D01*
X85736658Y-67821950D01*
X85646950Y-67911658D01*
X85589354Y-68024696D01*
X85588597Y-68029475D01*
X85587775Y-68032005D01*
X85557205Y-68067797D01*
X85529285Y-68074500D01*
X85433188Y-68074500D01*
X85421190Y-68073318D01*
X85405942Y-68070285D01*
X85400000Y-68069103D01*
X85372868Y-68074500D01*
X85372867Y-68074500D01*
X85292505Y-68090485D01*
X85250606Y-68118481D01*
X85224378Y-68136006D01*
X85224377Y-68136007D01*
X85201376Y-68151376D01*
X85198011Y-68156412D01*
X85189372Y-68169341D01*
X85181724Y-68178660D01*
X84666262Y-68694122D01*
X84622775Y-68712135D01*
X84589960Y-68702649D01*
X84547350Y-68675764D01*
X84544737Y-68674721D01*
X84544732Y-68674719D01*
X84345040Y-68595051D01*
X84345041Y-68595051D01*
X84342421Y-68594006D01*
X84339657Y-68593456D01*
X84339653Y-68593455D01*
X84128794Y-68551513D01*
X84126024Y-68550962D01*
X84123204Y-68550925D01*
X84123203Y-68550925D01*
X84064193Y-68550153D01*
X83905406Y-68548074D01*
X83902636Y-68548550D01*
X83902635Y-68548550D01*
X83690730Y-68584961D01*
X83690725Y-68584962D01*
X83687957Y-68585438D01*
X83685319Y-68586411D01*
X83685316Y-68586412D01*
X83558280Y-68633278D01*
X83480957Y-68661804D01*
X83478535Y-68663245D01*
X83293764Y-68773172D01*
X83293760Y-68773175D01*
X83291341Y-68774614D01*
X83211705Y-68844453D01*
X83127575Y-68918232D01*
X83127572Y-68918235D01*
X83125457Y-68920090D01*
X83123715Y-68922300D01*
X83123712Y-68922303D01*
X83101484Y-68950500D01*
X82988863Y-69093360D01*
X82987550Y-69095855D01*
X82987549Y-69095857D01*
X82955779Y-69156241D01*
X82886131Y-69288620D01*
X82885295Y-69291313D01*
X82885294Y-69291315D01*
X82841847Y-69431237D01*
X82811748Y-69467427D01*
X82783113Y-69474500D01*
X78716274Y-69474500D01*
X78672787Y-69456487D01*
X78657083Y-69429693D01*
X78653377Y-69416550D01*
X78629892Y-69333277D01*
X78626330Y-69320648D01*
X78626329Y-69320647D01*
X78625565Y-69317936D01*
X78527980Y-69120053D01*
X78437174Y-68998449D01*
X78397655Y-68945527D01*
X78397653Y-68945525D01*
X78395967Y-68943267D01*
X78393899Y-68941355D01*
X78393896Y-68941352D01*
X78279137Y-68835270D01*
X78233949Y-68793499D01*
X78047350Y-68675764D01*
X78044737Y-68674721D01*
X78044732Y-68674719D01*
X77845040Y-68595051D01*
X77845041Y-68595051D01*
X77842421Y-68594006D01*
X77839657Y-68593456D01*
X77839653Y-68593455D01*
X77628794Y-68551513D01*
X77626024Y-68550962D01*
X77623204Y-68550925D01*
X77623203Y-68550925D01*
X77564193Y-68550153D01*
X77405406Y-68548074D01*
X77402636Y-68548550D01*
X77402635Y-68548550D01*
X77190730Y-68584961D01*
X77190725Y-68584962D01*
X77187957Y-68585438D01*
X77185319Y-68586411D01*
X77185316Y-68586412D01*
X77058280Y-68633278D01*
X76980957Y-68661804D01*
X76978535Y-68663245D01*
X76793764Y-68773172D01*
X76793760Y-68773175D01*
X76791341Y-68774614D01*
X76711705Y-68844453D01*
X76627575Y-68918232D01*
X76627572Y-68918235D01*
X76625457Y-68920090D01*
X76623715Y-68922300D01*
X76623712Y-68922303D01*
X76601484Y-68950500D01*
X76488863Y-69093360D01*
X76487550Y-69095855D01*
X76487549Y-69095857D01*
X76455779Y-69156241D01*
X76386131Y-69288620D01*
X76385295Y-69291313D01*
X76385294Y-69291315D01*
X76329206Y-69471950D01*
X76320703Y-69499333D01*
X76320372Y-69502130D01*
X76300458Y-69670386D01*
X76294770Y-69718440D01*
X76309200Y-69938604D01*
X76309891Y-69941327D01*
X76309892Y-69941330D01*
X76357542Y-70128948D01*
X76363511Y-70152452D01*
X76364688Y-70155005D01*
X76364689Y-70155008D01*
X76443197Y-70325304D01*
X76455883Y-70352821D01*
X76516323Y-70438342D01*
X76569714Y-70513888D01*
X76583222Y-70533002D01*
X76585245Y-70534973D01*
X76585247Y-70534975D01*
X76635008Y-70583450D01*
X76741264Y-70686961D01*
X76822662Y-70741349D01*
X76884249Y-70782500D01*
X76924717Y-70809540D01*
X76927306Y-70810652D01*
X76927309Y-70810654D01*
X77018967Y-70850033D01*
X77127436Y-70896635D01*
X77130179Y-70897256D01*
X77130183Y-70897257D01*
X77339886Y-70944708D01*
X77339890Y-70944708D01*
X77342632Y-70945329D01*
X77345441Y-70945439D01*
X77345446Y-70945440D01*
X77463414Y-70950074D01*
X77563098Y-70953991D01*
X77565883Y-70953587D01*
X77565887Y-70953587D01*
X77729175Y-70929911D01*
X77774797Y-70941498D01*
X77798864Y-70981950D01*
X77799500Y-70990775D01*
X77799500Y-72738000D01*
X77781487Y-72781487D01*
X77738000Y-72799500D01*
X76162000Y-72799500D01*
X76118513Y-72781487D01*
X76100500Y-72738000D01*
X76100500Y-66483102D01*
X76631176Y-66483102D01*
X76632899Y-66487264D01*
X76811210Y-66596534D01*
X76815489Y-66598714D01*
X77030334Y-66687706D01*
X77034905Y-66689191D01*
X77261013Y-66743475D01*
X77265785Y-66744230D01*
X77497586Y-66762473D01*
X77502414Y-66762473D01*
X77734215Y-66744230D01*
X77738987Y-66743475D01*
X77965095Y-66689191D01*
X77969666Y-66687706D01*
X78184511Y-66598714D01*
X78188790Y-66596534D01*
X78363462Y-66489493D01*
X78368106Y-66483102D01*
X83131176Y-66483102D01*
X83132899Y-66487264D01*
X83311210Y-66596534D01*
X83315489Y-66598714D01*
X83530334Y-66687706D01*
X83534905Y-66689191D01*
X83761013Y-66743475D01*
X83765785Y-66744230D01*
X83997586Y-66762473D01*
X84002414Y-66762473D01*
X84234215Y-66744230D01*
X84238987Y-66743475D01*
X84465095Y-66689191D01*
X84469666Y-66687706D01*
X84684511Y-66598714D01*
X84688790Y-66596534D01*
X84863462Y-66489493D01*
X84868965Y-66481920D01*
X84868260Y-66477470D01*
X84008651Y-65617861D01*
X84000000Y-65614278D01*
X83991349Y-65617861D01*
X83134759Y-66474451D01*
X83131176Y-66483102D01*
X78368106Y-66483102D01*
X78368965Y-66481920D01*
X78368260Y-66477470D01*
X77508651Y-65617861D01*
X77500000Y-65614278D01*
X77491349Y-65617861D01*
X76634759Y-66474451D01*
X76631176Y-66483102D01*
X76100500Y-66483102D01*
X76100500Y-66070418D01*
X76118513Y-66026931D01*
X76162000Y-66008918D01*
X76205487Y-66026931D01*
X76214437Y-66038284D01*
X76260507Y-66113462D01*
X76268080Y-66118965D01*
X76272530Y-66118260D01*
X77132139Y-65258651D01*
X77135722Y-65250000D01*
X77864278Y-65250000D01*
X77867861Y-65258651D01*
X78724451Y-66115241D01*
X78733102Y-66118824D01*
X78737264Y-66117101D01*
X78846534Y-65938790D01*
X78848714Y-65934511D01*
X78937706Y-65719666D01*
X78939191Y-65715095D01*
X78993475Y-65488987D01*
X78994230Y-65484215D01*
X79012473Y-65252414D01*
X82487527Y-65252414D01*
X82505770Y-65484215D01*
X82506525Y-65488987D01*
X82560809Y-65715095D01*
X82562294Y-65719666D01*
X82651286Y-65934511D01*
X82653466Y-65938790D01*
X82760507Y-66113462D01*
X82768080Y-66118965D01*
X82772530Y-66118260D01*
X83632139Y-65258651D01*
X83635722Y-65250000D01*
X83632139Y-65241349D01*
X82775549Y-64384759D01*
X82766898Y-64381176D01*
X82762736Y-64382899D01*
X82653466Y-64561210D01*
X82651286Y-64565489D01*
X82562294Y-64780334D01*
X82560809Y-64784905D01*
X82506525Y-65011013D01*
X82505770Y-65015785D01*
X82487527Y-65247586D01*
X82487527Y-65252414D01*
X79012473Y-65252414D01*
X79012473Y-65247586D01*
X78994230Y-65015785D01*
X78993475Y-65011013D01*
X78939191Y-64784905D01*
X78937706Y-64780334D01*
X78848714Y-64565489D01*
X78846534Y-64561210D01*
X78739493Y-64386538D01*
X78731920Y-64381035D01*
X78727470Y-64381740D01*
X77867861Y-65241349D01*
X77864278Y-65250000D01*
X77135722Y-65250000D01*
X77132139Y-65241349D01*
X76275549Y-64384759D01*
X76266898Y-64381176D01*
X76262736Y-64382899D01*
X76214437Y-64461716D01*
X76176357Y-64489383D01*
X76129866Y-64482019D01*
X76102199Y-64443939D01*
X76100500Y-64429582D01*
X76100500Y-63964590D01*
X76118513Y-63921103D01*
X76321103Y-63718513D01*
X76364590Y-63700500D01*
X76991047Y-63700500D01*
X77034534Y-63718513D01*
G37*
%TD.AperFunction*%
%TD*%
M02*
